<svg width="2125.98" height="850.394" xmlns="http://www.w3.org/2000/svg" version="1.2" baseProfile="tiny"><path class="StaffLines" fill="none" stroke="#000" stroke-width="2.27" stroke-linejoin="bevel" d="M0 369.691h2125.98M0 398.037h2125.98M0 426.384h2125.98M0 454.73h2125.98M0 483.077h2125.98"/><path class="BarLine" fill="none" stroke="#000" stroke-width="4.54" stroke-linejoin="bevel" d="M2098.2 368.557v115.654"/><path class="BarLine" fill="none" stroke="#000" stroke-width="14.17" stroke-linejoin="bevel" d="M2118.9 368.557v115.654"/><path class="BarLine" fill="none" stroke="#000" stroke-width="4.54" stroke-linejoin="bevel" d="M848.69 368.557v115.654"/><path class="LedgerLine" fill="none" stroke="#000" stroke-width="4.54" stroke-linecap="square" stroke-linejoin="bevel" d="M1915.17 29.534h54.32M1915.17 57.88h54.32M1915.17 86.226h54.32M1915.17 114.573h54.32M1915.17 142.919h54.32M1915.17 171.266h54.32M1915.17 199.612h54.32M1915.17 227.959h54.32M1915.17 256.305h54.32M1915.17 284.652h54.32M1915.17 312.998h54.32M1915.17 341.344h54.32M1742.9 114.573h54.33M1742.9 142.919h54.33M1742.9 171.266h54.33M1742.9 199.612h54.33M1742.9 227.959h54.33M1742.9 256.305h54.33M1742.9 284.652h54.33M1742.9 312.998h54.33M1742.9 341.344h54.33M1570.64 227.959h54.32M1570.64 256.305h54.32M1570.64 284.652h54.32M1570.64 312.998h54.32M1570.64 341.344h54.32M1398.37 312.998h54.33M1398.37 341.344h54.33M881.572 511.423h54.327M446.974 511.423h54.328M446.974 539.77h54.328M287.134 511.423h54.328M287.134 539.77h54.328M287.134 568.116h54.328M287.134 596.463h54.328M287.134 624.809h54.328M127.293 511.423h54.328M127.293 539.77h54.328M127.293 568.116h54.328M127.293 596.463h54.328M127.293 624.809h54.328M127.293 653.156h54.328M127.293 681.502h54.328M127.293 709.848h54.328M127.293 738.195h54.328"/><path class="Stem" fill="none" stroke="#000" stroke-width="3.69" stroke-linecap="round" stroke-linejoin="bevel" d="M1925.51 20.684v405.7M1753.25 119.897v306.487M1580.98 219.109v207.275M1408.72 318.322v108.062M1236.45 417.534v86.803M1097.82 435.233v-86.802M925.553 506.099v-93.888M650.796 435.233v-86.802M490.956 534.446V426.384M331.115 633.658V426.384M171.275 732.871V426.384"/><path class="Note" d="M1948.58-.248c3.543 0 6.537.921 8.982 2.764 2.28 1.996 3.42 4.506 3.42 7.53 0 5.09-2.617 9.85-7.85 14.279-5.314 4.429-11.001 6.643-17.06 6.643-3.544 0-6.532-.92-8.965-2.763-2.291-1.996-3.437-4.506-3.437-7.53 0-5.09 2.657-9.85 7.972-14.28 5.174-4.429 10.82-6.643 16.938-6.643M1776.32 98.965c3.543 0 6.537.921 8.982 2.764 2.28 1.996 3.42 4.505 3.42 7.529 0 5.09-2.617 9.85-7.85 14.28-5.314 4.429-11.001 6.643-17.06 6.643-3.544 0-6.532-.921-8.965-2.764-2.291-1.996-3.437-4.505-3.437-7.529 0-5.09 2.657-9.85 7.972-14.28 5.174-4.429 10.82-6.643 16.938-6.643M1604.05 198.177c3.543 0 6.537.921 8.982 2.764 2.28 1.996 3.42 4.505 3.42 7.529 0 5.09-2.617 9.85-7.85 14.28-5.314 4.429-11.001 6.643-17.06 6.643-3.544 0-6.532-.921-8.965-2.764-2.291-1.996-3.437-4.505-3.437-7.529 0-5.09 2.657-9.85 7.972-14.28 5.174-4.429 10.82-6.643 16.938-6.643M1431.78 297.39c3.543 0 6.537.921 8.982 2.764 2.28 1.996 3.42 4.505 3.42 7.529 0 5.09-2.617 9.85-7.85 14.28-5.314 4.429-11.001 6.643-17.06 6.643-3.544 0-6.532-.921-8.965-2.764-2.291-1.996-3.437-4.505-3.437-7.529 0-5.09 2.657-9.85 7.972-14.28 5.174-4.429 10.82-6.643 16.938-6.643M1259.52 396.603c3.543 0 6.537.921 8.982 2.764 2.28 1.996 3.42 4.505 3.42 7.529 0 5.09-2.617 9.85-7.85 14.28-5.314 4.429-11.001 6.643-17.06 6.643-3.544 0-6.532-.921-8.965-2.764-2.291-1.996-3.437-4.505-3.437-7.529 0-5.09 2.657-9.85 7.972-14.28 5.174-4.429 10.82-6.643 16.938-6.643M1087.25 424.949c3.543 0 6.537.921 8.982 2.764 2.28 1.996 3.42 4.505 3.42 7.529 0 5.09-2.617 9.85-7.85 14.28-5.314 4.429-11.001 6.643-17.06 6.643-3.544 0-6.532-.921-8.965-2.764-2.291-1.996-3.437-4.505-3.437-7.529 0-5.09 2.657-9.85 7.972-14.28 5.174-4.429 10.82-6.643 16.938-6.643M914.986 495.815c3.543 0 6.537.921 8.982 2.764 2.28 1.996 3.42 4.505 3.42 7.529 0 5.09-2.617 9.85-7.85 14.28-5.314 4.429-11.001 6.643-17.06 6.643-3.544 0-6.532-.921-8.965-2.764-2.291-1.996-3.437-4.505-3.437-7.529 0-5.09 2.657-9.85 7.972-14.28 5.174-4.429 10.82-6.643 16.938-6.643M640.229 424.949c3.543 0 6.537.921 8.982 2.764 2.28 1.996 3.42 4.505 3.42 7.529 0 5.09-2.617 9.85-7.85 14.28-5.314 4.429-11.001 6.643-17.06 6.643-3.544 0-6.532-.921-8.965-2.764-2.291-1.996-3.437-4.505-3.437-7.529 0-5.09 2.657-9.85 7.972-14.28 5.174-4.429 10.82-6.643 16.938-6.643M480.388 524.162c3.543 0 6.537.921 8.982 2.764 2.28 1.996 3.42 4.505 3.42 7.529 0 5.09-2.617 9.85-7.85 14.28-5.314 4.429-11.001 6.643-17.06 6.643-3.544 0-6.532-.921-8.965-2.764-2.291-1.996-3.437-4.505-3.437-7.529 0-5.09 2.657-9.85 7.972-14.28 5.174-4.429 10.82-6.643 16.938-6.643M320.548 623.374c3.543 0 6.537.921 8.982 2.764 2.28 1.996 3.42 4.505 3.42 7.529 0 5.09-2.617 9.85-7.85 14.28-5.314 4.429-11.001 6.643-17.06 6.643-3.544 0-6.532-.921-8.965-2.764-2.291-1.996-3.437-4.505-3.437-7.529 0-5.09 2.657-9.85 7.972-14.28 5.174-4.429 10.82-6.643 16.938-6.643M160.707 722.587c3.543 0 6.537.921 8.982 2.764 2.28 1.996 3.42 4.505 3.42 7.529 0 5.09-2.617 9.85-7.85 14.28-5.314 4.429-11.001 6.643-17.06 6.643-3.544 0-6.532-.921-8.965-2.764-2.291-1.996-3.437-4.505-3.437-7.529 0-5.09 2.657-9.85 7.972-14.28 5.174-4.429 10.82-6.643 16.938-6.643"/><path class="Clef" d="M808.466 431.514h.539c.236-.056.44-.085.61-.085 6.613 0 12.046 2.334 16.298 7.002 4.252 4.601 6.378 9.973 6.378 16.115 0 7.625-3.156 13.828-9.467 18.61-1.654 1.303-3.813 2.366-6.478 3.188.303 3.836.454 6.936.454 9.298 0 .472-.061 2.187-.184 5.145-.237 5.49-2.126 10.242-5.67 14.258-3.42 3.959-7.672 5.939-12.756 5.939-4.78 0-8.853-1.682-12.217-5.046-3.373-3.43-5.06-7.564-5.06-12.402 0-2.541.978-4.7 2.934-6.477 2.003-1.767 4.333-2.65 6.988-2.65 2.362 0 4.341.916 5.938 2.75 1.654 1.71 2.48 3.836 2.48 6.377 0 2.296-.826 4.271-2.48 5.925-1.653 1.653-3.633 2.48-5.938 2.48a7.335 7.335 0 0 1-2.736-.524c2.599 3.836 6.052 5.754 10.36 5.754 4.073 0 7.409-1.654 10.007-4.96 2.721-3.421 4.2-7.409 4.436-11.963.114-2.834.17-4.455.17-4.861 0-3.307-.118-6.024-.354-8.15-2.948.473-5.575.709-7.88.709-8.211 0-15.208-3.25-20.99-9.751-5.67-6.558-8.505-14.353-8.505-23.386 0-1.89.175-3.808.525-5.755.359-1.596.803-3.34 1.332-5.23.293-1.067 1.091-2.782 2.395-5.144a39.224 39.224 0 0 0 1.595-2.658c.59-1.063 1.004-1.77 1.24-2.119.586-1.18 1.734-2.778 3.444-4.79.472-.53.961-1.118 1.467-1.765.505-.647.935-1.179 1.29-1.594.354-.416.619-.742.793-.978.175-.237 1.505-1.8 3.99-4.692.586-.595 1.16-1.23 1.722-1.906a47.206 47.206 0 0 1 1.375-1.594c.354-.388.621-.667.8-.837-2.125-7.03-3.457-12.642-3.996-16.838-.406-3.363-.61-7.97-.61-13.818 0-5.14 1.182-9.955 3.544-14.443 2.296-4.658 5.513-8.466 9.652-11.424.236-.179.529-.269.879-.269.415 0 .713.09.892.269 3.185 3.837 5.93 8.826 8.235 14.967 2.362 6.142 3.543 11.726 3.543 16.753 0 5.67-1.356 10.984-4.067 15.945-3.071 5.254-7.03 10.687-11.878 16.3 1.238 3.892 2.892 10 4.961 18.325m7.526 41.202c3.07-1.125 5.466-3.043 7.186-5.754 1.89-2.599 2.835-5.523 2.835-8.774 0-4.195-1.418-7.918-4.252-11.168-2.901-3.364-6.596-5.254-11.084-5.67 2.542 12.463 4.314 22.919 5.315 31.366m-34.27-20.466c0 5.849 2.361 10.989 7.086 15.42 4.838 4.309 10.27 6.463 16.299 6.463 2.476 0 4.895-.18 7.257-.538-.945-8.977-2.807-19.725-5.584-32.245-3.364.36-6.048 1.54-8.05 3.544-1.957 2.07-2.935 4.403-2.935 7.001 0 4.489 2.395 8.122 7.186 10.9.406.415.61.86.61 1.332 0 .472-.204.912-.61 1.318-.359.416-.803.624-1.332.624-.057 0-.321-.057-.794-.17-3.373-1.834-5.972-4.196-7.795-7.087-1.72-3.08-2.58-6.184-2.58-9.312 0-4.072 1.271-7.762 3.813-11.07 2.655-3.306 6.109-5.432 10.36-6.377-1.653-6.614-3.009-11.783-4.067-15.506l-3.409 3.855c-1.327 1.503-2.11 2.405-2.346 2.707-2.125 2.769-3.75 4.923-4.875 6.463-2.013 2.778-3.492 5.169-4.436 7.172-1.002 2.249-1.885 4.701-2.65 7.356-.766 2.542-1.149 5.258-1.149 8.15m29.58-90.086c-4.432 2.183-7.914 5.31-10.446 9.383-2.598 4.196-3.898 8.712-3.898 13.55 0 4.252 1.063 9.983 3.19 17.192 4.251-5.14 7.44-9.893 9.566-14.258 2.24-4.611 3.36-9.425 3.36-14.443 0-3.78-.591-7.587-1.772-11.424M88.902 387.956c-1.105-1.11-1.657-2.477-1.657-4.101s.552-2.988 1.657-4.093c1.104-1.104 2.468-1.656 4.092-1.656 1.624 0 2.991.552 4.102 1.656 1.11 1.105 1.665 2.469 1.665 4.093s-.555 2.991-1.665 4.101c-1.11 1.11-2.478 1.666-4.102 1.666s-2.988-.555-4.092-1.666m0 28.356c-1.105-1.105-1.657-2.469-1.657-4.093s.552-2.991 1.657-4.101c1.104-1.11 2.468-1.666 4.092-1.666 1.624 0 2.991.555 4.102 1.666 1.11 1.11 1.665 2.477 1.665 4.101s-.555 2.988-1.665 4.093c-1.11 1.104-2.478 1.656-4.102 1.656s-2.988-.552-4.092-1.656m-38.419-48.057c9.815 0 17.859 2.469 24.13 7.406 6.06 5.173 9.089 12.189 9.089 21.047 0 5.977-1.181 11.44-3.543 16.388-2.22 5.173-5.138 9.75-8.752 13.73-3.697 4.063-8.162 7.902-13.394 11.516a145.998 145.998 0 0 1-15.732 9.532c-10.997 5.527-17.05 8.291-18.16 8.291-.957 0-1.435-.478-1.435-1.435 0-.366.148-.697.443-.992 3.768-2.22 8.38-5.061 13.837-8.522 3.543-2.291 7.677-5.468 12.401-9.531 4.583-3.839 8.126-7.453 10.63-10.843 2.587-3.33 4.949-7.464 7.087-12.401 1.842-4.95 2.764-9.827 2.764-14.634 0-7.158-1.772-13.394-5.315-18.709-3.544-5.315-8.227-7.972-14.05-7.972-4.133 0-7.677 1.328-10.63 3.986-3.177 2.728-5.468 6.16-6.874 10.293 1.406-.59 2.7-.886 3.88-.886 3.095 0 5.752 1.11 7.973 3.331 2.208 2.362 3.313 5.055 3.313 8.079 0 3.177-1.07 6.023-3.207 8.54-2.291 2.279-4.984 3.418-8.079 3.418-3.319 0-6.307-1.14-8.964-3.419-2.516-2.516-3.774-5.362-3.774-8.54 0-7.606 2.587-14.102 7.76-19.488 5.09-5.456 11.291-8.185 18.602-8.185"/><path class="StaffText" d="M1923.84 562.133c0-6.406 1.99-11.612 5.96-15.617 3.96-4.005 8.9-6.008 14.81-6.008 2.64 0 5.12.323 7.44.969 2.31.646 3.65.969 4.03.969 1.36 0 2.23-.646 2.61-1.938h1.29l.57 13.891h-1.43c-2.28-7.698-6.72-11.547-13.34-11.547-4.5 0-8.08 1.674-10.75 5.023-2.67 3.349-4 7.836-4 13.461 0 3.594.47 6.703 1.4 9.328.93 2.625 2.18 4.61 3.75 5.953 1.57 1.344 3.19 2.316 4.87 2.915 1.67.599 3.46.898 5.36.898 4.87 0 9.48-2.089 13.82-6.266l1.11 1.125c-1.89 2.521-4.31 4.464-7.25 5.828-2.93 1.365-6.16 2.047-9.67 2.047-6.11 0-11.07-1.922-14.87-5.765-3.81-3.844-5.71-8.933-5.71-15.266m43.49 21.516l-.19-1.235c4.72-.833 8.72-2.846 12-6.039 3.28-3.192 5.56-7.315 6.84-12.367-3.05 2.396-6.15 3.594-9.29 3.594-3.35 0-6.04-1.162-8.09-3.485-2.05-2.322-3.07-5.369-3.07-9.14 0-4.198 1.23-7.701 3.69-10.508 2.46-2.807 5.52-4.211 9.2-4.211 4.01 0 7.3 1.641 9.86 4.922 2.56 3.281 3.84 7.495 3.84 12.641 0 1.656-.14 3.354-.43 5.093-.28 1.74-.95 3.8-2.01 6.18-1.06 2.38-2.43 4.513-4.13 6.398-1.69 1.886-4.11 3.594-7.25 5.125-3.14 1.532-6.8 2.542-10.97 3.032m11.59-18.782c.78 0 1.67-.111 2.67-.335.99-.224 1.99-.719 3-1.485 1.01-.765 1.52-1.706 1.52-2.82v-2.406c0-10.469-2.73-15.704-8.17-15.704-1.28 0-2.38.339-3.29 1.016-.91.677-1.61 1.573-2.08 2.688-.47 1.114-.82 2.25-1.02 3.406a20.34 20.34 0 0 0-.32 3.64c0 3.678.7 6.597 2.08 8.758 1.39 2.162 3.26 3.242 5.61 3.242M1751.58 562.133c0-6.406 1.98-11.612 5.95-15.617 3.97-4.005 8.91-6.008 14.81-6.008 2.65 0 5.13.323 7.44.969 2.31.646 3.66.969 4.03.969 1.37 0 2.24-.646 2.61-1.938h1.3l.56 13.891h-1.42c-2.28-7.698-6.73-11.547-13.35-11.547-4.5 0-8.08 1.674-10.75 5.023-2.66 3.349-4 7.836-4 13.461 0 3.594.47 6.703 1.4 9.328.94 2.625 2.19 4.61 3.75 5.953 1.57 1.344 3.19 2.316 4.87 2.915 1.68.599 3.46.898 5.36.898 4.87 0 9.48-2.089 13.83-6.266l1.11 1.125c-1.9 2.521-4.32 4.464-7.25 5.828-2.94 1.365-6.16 2.047-9.67 2.047-6.12 0-11.08-1.922-14.88-5.765-3.8-3.844-5.7-8.933-5.7-15.266m57.81-2.906c3.72 2.76 6.25 5.078 7.59 6.953 1.35 1.875 2.02 4.01 2.02 6.406 0 3.209-1.11 5.774-3.32 7.696-2.21 1.921-5.18 2.882-8.9 2.882-3.51 0-6.37-.961-8.59-2.882-2.21-1.922-3.32-4.404-3.32-7.446 0-2.104.51-3.867 1.53-5.289 1.01-1.422 3.19-3.388 6.54-5.898-3.26-2.844-5.36-4.966-6.29-6.367-.93-1.401-1.4-3.112-1.4-5.133 0-2.834 1.12-5.19 3.35-7.071 2.23-1.88 5.04-2.82 8.43-2.82 3.09 0 5.64.836 7.65 2.508 2 1.672 3.01 3.805 3.01 6.398 0 2.105-.62 3.896-1.86 5.375-1.24 1.48-3.39 3.042-6.44 4.688m-4.84 3.656c-1.82 1.438-3.1 2.878-3.84 4.32-.74 1.443-1.12 3.154-1.12 5.133 0 2.677.72 4.841 2.17 6.492 1.44 1.651 3.34 2.477 5.71 2.477 2.02 0 3.66-.63 4.92-1.891 1.26-1.26 1.89-2.901 1.89-4.922 0-.656-.07-1.273-.22-1.851-.14-.578-.29-1.083-.43-1.516-.14-.432-.43-.916-.87-1.453-.43-.536-.78-.958-1.05-1.265-.27-.308-.75-.75-1.45-1.329-.71-.578-1.24-.989-1.59-1.234-.35-.245-1.01-.719-1.98-1.422s-1.69-1.216-2.14-1.539m3.04-4.766c.04-.041.32-.236.84-.585.51-.349.88-.625 1.11-.829.22-.203.57-.52 1.05-.953.48-.432.84-.846 1.09-1.242.24-.396.52-.87.83-1.422.32-.552.55-1.169.69-1.851.15-.683.22-1.394.22-2.133 0-2.146-.62-3.846-1.87-5.102-1.24-1.255-2.92-1.883-5.02-1.883-1.94 0-3.54.576-4.8 1.727-1.26 1.151-1.89 2.612-1.89 4.383 0 1.739.6 3.37 1.8 4.89 1.2 1.521 3.18 3.188 5.95 5M1579.31 562.133c0-6.406 1.99-11.612 5.95-15.617 3.97-4.005 8.91-6.008 14.82-6.008 2.64 0 5.12.323 7.43.969 2.32.646 3.66.969 4.04.969 1.36 0 2.23-.646 2.6-1.938h1.3l.56 13.891h-1.42c-2.28-7.698-6.73-11.547-13.34-11.547-4.5 0-8.08 1.674-10.75 5.023-2.67 3.349-4 7.836-4 13.461 0 3.594.46 6.703 1.4 9.328.93 2.625 2.18 4.61 3.75 5.953 1.56 1.344 3.19 2.316 4.86 2.915 1.68.599 3.47.898 5.36.898 4.88 0 9.49-2.089 13.83-6.266l1.11 1.125c-1.89 2.521-4.31 4.464-7.25 5.828-2.94 1.365-6.16 2.047-9.67 2.047-6.12 0-11.07-1.922-14.88-5.765-3.8-3.844-5.7-8.933-5.7-15.266m67.67-20.891v.985l-13.15 40.562h-4.03l12.28-37.015h-13.46c-1.69 0-2.99.31-3.87.929-.89.62-1.99 1.987-3.31 4.102l-1.07-.5 3.66-9.063h22.95M1407.05 562.133c0-6.406 1.98-11.612 5.95-15.617 3.97-4.005 8.9-6.008 14.81-6.008 2.65 0 5.13.323 7.44.969 2.31.646 3.65.969 4.03.969 1.36 0 2.23-.646 2.61-1.938h1.3l.56 13.891h-1.42c-2.28-7.698-6.73-11.547-13.35-11.547-4.5 0-8.08 1.674-10.75 5.023-2.66 3.349-4 7.836-4 13.461 0 3.594.47 6.703 1.4 9.328.93 2.625 2.18 4.61 3.75 5.953 1.57 1.344 3.19 2.316 4.87 2.915 1.68.599 3.46.898 5.36.898 4.87 0 9.48-2.089 13.83-6.266l1.11 1.125c-1.9 2.521-4.32 4.464-7.25 5.828-2.94 1.365-6.17 2.047-9.68 2.047-6.11 0-11.07-1.922-14.87-5.765-3.8-3.844-5.7-8.933-5.7-15.266m55.82 21.031c-4.17 0-7.53-1.669-10.07-5.007-2.55-3.339-3.82-7.737-3.82-13.196 0-1.698.17-3.442.49-5.234.33-1.792 1.06-3.833 2.18-6.125a23.466 23.466 0 0 1 4.34-6.164c1.78-1.818 4.27-3.438 7.47-4.86 3.2-1.421 6.89-2.32 11.07-2.695l.12 1c-4.88.781-8.96 2.753-12.22 5.914-3.27 3.162-5.31 7.081-6.13 11.758 1.94-1.115 3.41-1.839 4.4-2.172.99-.333 2.17-.5 3.53-.5 3.55 0 6.39 1.151 8.49 3.453 2.11 2.302 3.17 5.412 3.17 9.328 0 4.271-1.21 7.756-3.63 10.453-2.41 2.698-5.54 4.047-9.39 4.047m-1-24.562c-2.81 0-4.7.617-5.67 1.851-.97 1.235-1.45 3.066-1.45 5.493 0 4.77.78 8.523 2.35 11.257 1.57 2.735 3.72 4.102 6.45 4.102 2.19 0 3.87-.917 5.03-2.75 1.15-1.833 1.73-4.432 1.73-7.797 0-3.864-.73-6.857-2.2-8.976-1.47-2.12-3.55-3.18-6.24-3.18M1234.78 562.133c0-6.406 1.98-11.612 5.95-15.617 3.97-4.005 8.91-6.008 14.81-6.008 2.65 0 5.13.323 7.44.969 2.31.646 3.66.969 4.03.969 1.37 0 2.24-.646 2.61-1.938h1.3l.56 13.891h-1.42c-2.28-7.698-6.73-11.547-13.34-11.547-4.5 0-8.09 1.674-10.75 5.023-2.67 3.349-4 7.836-4 13.461 0 3.594.46 6.703 1.4 9.328.93 2.625 2.18 4.61 3.75 5.953 1.56 1.344 3.19 2.316 4.86 2.915 1.68.599 3.47.898 5.36.898 4.88 0 9.49-2.089 13.83-6.266l1.11 1.125c-1.9 2.521-4.31 4.464-7.25 5.828-2.94 1.365-6.16 2.047-9.67 2.047-6.12 0-11.08-1.922-14.88-5.765-3.8-3.844-5.7-8.933-5.7-15.266m61.95 8.078c0-2.177-.48-4.112-1.45-5.804-.97-1.693-2.15-3.003-3.53-3.93-1.39-.927-2.94-1.69-4.65-2.289-1.71-.599-3.2-.992-4.46-1.18-1.26-.187-2.37-.281-3.31-.281-.5 0-.75-.167-.75-.5a.62.62 0 0 1 .06-.297l6.75-14.688h12.97c.65 0 1.18-.101 1.58-.304.39-.203.81-.638 1.26-1.305l.56.438-2.36 5.515c-.16.375-.64.563-1.42.563h-12.15l-2.6 5.25c6.03 1.073 10.52 2.817 13.45 5.234 2.93 2.417 4.4 5.953 4.4 10.609 0 2.448-.39 4.625-1.15 6.532-.77 1.906-1.74 3.44-2.92 4.601-1.17 1.162-2.54 2.115-4.08 2.86-1.55.744-3.04 1.252-4.46 1.523a23.15 23.15 0 0 1-4.32.406c-2.31 0-4.15-.341-5.51-1.023-1.37-.682-2.05-1.622-2.05-2.82 0-1.532.89-2.297 2.67-2.297 1.16 0 2.66.63 4.5 1.89 1.83 1.261 3.29 1.891 4.36 1.891 2.44 0 4.48-1.021 6.14-3.063 1.65-2.041 2.47-4.552 2.47-7.531M1106.11 581.117v1.172h-15.82v-1.172c1.66-.041 2.8-.208 3.42-.5.62-.291.93-.828.93-1.609 0-1-.39-2.385-1.17-4.156l-2.55-5.953h-16.23l-2.86 7.25c-.34.875-.5 1.682-.5 2.422 0 1.698 1.4 2.546 4.21 2.546v1.172h-12.26v-1.172c1.52-.083 2.7-.674 3.55-1.773.85-1.099 2.23-3.898 4.14-8.398l12.89-30.438h1.23l15.44 35.203c.99 2.281 1.81 3.732 2.48 4.352.66.62 1.69.971 3.1 1.054m-30.38-14.765h14.33l-7.2-17.047-7.13 17.047m60.88 1.609v3.969h-6.33v10.359h-4.77V571.93h-17.42v-3.969l19.45-27.578h2.74v27.578h6.33m-11.16 0v-21.265l-14.89 21.265h14.89M1075.56 609.821v1.796h-2.86v4.672h-2.16v-4.672h-7.85v-1.796l8.78-12.454h1.23v12.454h2.86m-5.05 0v-9.61l-6.72 9.61h6.72m19.05 0v1.796h-2.86v4.672h-2.16v-4.672h-7.85v-1.796l8.78-12.454h1.23v12.454h2.86m-5.05 0v-9.61l-6.72 9.61h6.72m17.43 4.171c-1.16 1.792-2.69 2.688-4.6 2.688-1.9 0-3.44-.914-4.59-2.742-1.16-1.828-1.74-4.18-1.74-7.055 0-2.708.58-4.971 1.74-6.789 1.15-1.818 2.72-2.727 4.7-2.727 1.83 0 3.33.896 4.49 2.688 1.15 1.792 1.73 4.125 1.73 7 0 2.833-.58 5.146-1.73 6.937m-4.57-15.906c-2.45 0-3.67 3.016-3.67 9.047 0 5.875 1.21 8.813 3.64 8.813s3.64-2.948 3.64-8.844c0-2.927-.31-5.162-.92-6.703-.61-1.542-1.51-2.313-2.69-2.313m12.71 8.156h8.48v-5.437c0-1.01-.14-1.659-.41-1.945-.28-.287-.96-.477-2.04-.571v-.531h7.78v.531c-1.08.094-1.77.284-2.05.571-.28.286-.42.935-.42 1.945v12.437c0 .99.15 1.633.45 1.93.29.297.97.492 2.02.586v.531h-7.78v-.531c1.08-.073 1.76-.268 2.04-.586.27-.318.41-1.065.41-2.242v-5.453h-8.48v5.765c0 .99.15 1.633.45 1.93.3.297.97.492 2.01.586v.531h-7.78v-.531c1.09-.073 1.77-.268 2.05-.586.28-.318.42-1.065.42-2.242v-12.125c0-1.01-.14-1.659-.42-1.945-.28-.287-.96-.477-2.05-.571v-.531h7.78v.531c-1.08.094-1.76.284-2.04.571-.28.286-.42.935-.42 1.945v5.437m21.4 9.204c.73 0 1.31-.047 1.74-.141.42-.094.76-.299 1-.617.25-.318.42-.615.51-.891.1-.276.21-.742.33-1.398l.52.109-.39 3.781h-10.57v-.422l7.46-11.343h-3.88c-.83 0-1.4.153-1.7.461-.3.307-.52.976-.64 2.007h-.5l.08-3.296h9.71v.406l-7.53 11.344h3.86M890.248 563.314c0-6.406 1.984-11.612 5.953-15.617 3.968-4.005 8.906-6.008 14.812-6.008 2.646 0 5.125.323 7.438.969 2.312.646 3.656.969 4.031.969 1.365 0 2.234-.646 2.609-1.938h1.297l.563 13.891h-1.422c-2.281-7.698-6.729-11.547-13.344-11.547-4.5 0-8.083 1.674-10.75 5.023-2.667 3.349-4 7.836-4 13.461 0 3.594.466 6.703 1.398 9.328.933 2.625 2.183 4.61 3.75 5.954 1.568 1.343 3.191 2.315 4.868 2.914 1.677.599 3.463.898 5.359.898 4.875 0 9.484-2.088 13.828-6.266l1.11 1.125c-1.896 2.521-4.313 4.464-7.25 5.829-2.938 1.364-6.162 2.046-9.672 2.046-6.115 0-11.073-1.921-14.875-5.765-3.802-3.844-5.703-8.932-5.703-15.266m69.093 5.828v3.969h-6.328v10.359h-4.765v-10.359h-17.422v-3.969l19.453-27.578h2.734v27.578h6.328m-11.156 0v-21.265l-14.891 21.265h14.891M615.491 520.228c0-6.407 1.984-11.612 5.953-15.618 3.968-4.005 8.906-6.007 14.812-6.007 2.646 0 5.125.323 7.438.968 2.312.646 3.656.969 4.031.969 1.365 0 2.234-.646 2.609-1.937h1.297l.563 13.89h-1.422c-2.281-7.698-6.729-11.547-13.344-11.547-4.5 0-8.083 1.675-10.75 5.024s-4 7.836-4 13.461c0 3.593.466 6.703 1.398 9.328.933 2.625 2.183 4.609 3.75 5.953 1.568 1.344 3.191 2.315 4.868 2.914 1.677.599 3.463.898 5.359.898 4.875 0 9.484-2.088 13.828-6.265l1.11 1.125c-1.896 2.521-4.313 4.463-7.25 5.828-2.938 1.365-6.162 2.047-9.672 2.047-6.115 0-11.073-1.922-14.875-5.766-3.802-3.844-5.703-8.932-5.703-15.265m44.843 15.328c.959 0 2.378.557 4.258 1.672 1.88 1.114 3.524 1.671 4.93 1.671 2.271 0 4.19-.882 5.758-2.648 1.567-1.766 2.351-3.945 2.351-6.539 0-1.594-.278-3.008-.836-4.242-.557-1.235-1.268-2.19-2.133-2.867-.864-.677-1.898-1.232-3.101-1.664-1.203-.433-2.331-.709-3.383-.829a30.079 30.079 0 0 0-3.375-.179v-.813c1.406-.5 2.615-.987 3.625-1.461 1.01-.474 2.076-1.114 3.195-1.922 1.12-.807 1.98-1.789 2.578-2.945.599-1.156.899-2.479.899-3.969 0-1.937-.63-3.526-1.891-4.765-1.26-1.24-2.906-1.86-4.937-1.86-1.938 0-3.641.526-5.11 1.578-1.468 1.053-2.843 2.714-4.125 4.985l-.921-.235c1.072-2.937 2.528-5.346 4.367-7.226 1.838-1.88 4.45-2.82 7.836-2.82 2.854 0 5.179.783 6.976 2.351 1.797 1.568 2.696 3.612 2.696 6.133 0 1.698-.433 3.187-1.297 4.469-.865 1.281-2.375 2.646-4.532 4.093 2.48 1.073 4.422 2.443 5.829 4.11 1.406 1.667 2.109 4.042 2.109 7.125 0 4.396-1.622 7.911-4.867 10.547-3.245 2.635-7.326 3.953-12.242 3.953-2.146 0-3.849-.32-5.11-.961-1.26-.641-1.89-1.503-1.89-2.586 0-.656.216-1.18.648-1.57.432-.391.997-.586 1.695-.586M455.65 591.661c0-6.407 1.984-11.612 5.953-15.618 3.969-4.005 8.906-6.007 14.813-6.007 2.646 0 5.125.323 7.437.968 2.313.646 3.656.969 4.031.969 1.365 0 2.235-.646 2.61-1.937h1.297l.562 13.89h-1.422c-2.281-7.698-6.729-11.547-13.343-11.547-4.5 0-8.084 1.675-10.75 5.024-2.667 3.349-4 7.836-4 13.461 0 3.594.466 6.703 1.398 9.328.932 2.625 2.182 4.609 3.75 5.953 1.568 1.344 3.19 2.315 4.867 2.914 1.677.599 3.464.899 5.36.899 4.875 0 9.484-2.089 13.828-6.266l1.109 1.125c-1.896 2.521-4.312 4.463-7.25 5.828-2.937 1.365-6.161 2.047-9.672 2.047-6.114 0-11.073-1.922-14.875-5.766-3.802-3.843-5.703-8.932-5.703-15.265m41.75-9.422c.208-.938.417-1.758.625-2.461.208-.703.651-1.721 1.328-3.055.677-1.333 1.44-2.443 2.289-3.328.849-.885 2.029-1.677 3.539-2.375 1.511-.698 3.214-1.047 5.11-1.047 3.229 0 5.948 1.047 8.156 3.141 2.208 2.094 3.312 4.682 3.312 7.765 0 4.667-2.645 9.771-7.937 15.313l-10.406 10.906h14.812c1.406 0 2.451-.237 3.133-.711.682-.474 1.602-1.596 2.758-3.367l.812.297-3.422 8.5h-24.171v-.75l11.031-11.719c5.375-5.698 8.062-11.068 8.062-16.109 0-2.604-.804-4.714-2.414-6.328-1.609-1.615-3.716-2.422-6.32-2.422-2.156 0-3.885.591-5.188 1.773-1.302 1.183-2.572 3.279-3.812 6.289l-1.297-.312M295.81 690.873c0-6.406 1.984-11.612 5.953-15.617 3.968-4.005 8.906-6.008 14.812-6.008 2.646 0 5.125.323 7.438.969 2.312.646 3.656.969 4.031.969 1.365 0 2.234-.646 2.609-1.938h1.297l.563 13.891h-1.422c-2.281-7.698-6.729-11.547-13.344-11.547-4.5 0-8.083 1.675-10.75 5.023-2.667 3.349-4 7.836-4 13.461 0 3.594.466 6.704 1.399 9.329.932 2.625 2.182 4.609 3.75 5.953 1.567 1.343 3.19 2.315 4.867 2.914 1.677.599 3.463.898 5.359.898 4.875 0 9.484-2.088 13.828-6.265l1.11 1.125c-1.896 2.52-4.313 4.463-7.25 5.828-2.938 1.364-6.162 2.047-9.672 2.047-6.115 0-11.073-1.922-14.875-5.766-3.802-3.844-5.703-8.932-5.703-15.266m51.171-16.609c-.739 0-2.229.453-4.468 1.359v-.859l11.172-5.641.484.125v37.188c0 1.489.372 2.463 1.117 2.922.745.458 2.336.703 4.774.734v.938h-17.11v-.938c2.313-.073 3.873-.411 4.68-1.016.807-.604 1.211-1.875 1.211-3.812v-28.078c0-1.948-.62-2.922-1.86-2.922M135.969 790.086c0-6.406 1.984-11.612 5.953-15.617 3.969-4.006 8.906-6.008 14.813-6.008 2.646 0 5.125.323 7.437.969 2.313.645 3.656.968 4.031.968 1.365 0 2.235-.645 2.61-1.937h1.297l.562 13.891h-1.422c-2.281-7.698-6.729-11.547-13.343-11.547-4.5 0-8.084 1.674-10.75 5.023-2.667 3.349-4 7.836-4 13.461 0 3.594.466 6.703 1.398 9.328.932 2.625 2.182 4.61 3.75 5.953 1.568 1.344 3.19 2.315 4.867 2.914 1.677.599 3.464.899 5.36.899 4.875 0 9.484-2.089 13.828-6.266l1.109 1.125c-1.896 2.521-4.312 4.464-7.25 5.828-2.937 1.365-6.161 2.047-9.672 2.047-6.114 0-11.073-1.922-14.875-5.765-3.802-3.844-5.703-8.933-5.703-15.266m65.5 15.078c-2.562 3.969-5.953 5.953-10.172 5.953s-7.609-2.026-10.172-6.078c-2.562-4.052-3.843-9.26-3.843-15.625 0-5.99 1.281-11 3.843-15.031 2.563-4.031 6.037-6.047 10.422-6.047 4.052 0 7.36 1.984 9.922 5.953 2.563 3.969 3.844 9.135 3.844 15.5 0 6.281-1.281 11.406-3.844 15.375m-10.109-35.219c-5.417 0-8.125 6.677-8.125 20.032 0 13.01 2.687 19.515 8.062 19.515s8.063-6.526 8.063-19.578c0-6.49-.683-11.44-2.047-14.852-1.365-3.411-3.349-5.117-5.953-5.117"/></svg>