<svg width="1417.32" height="566.929" xmlns="http://www.w3.org/2000/svg" version="1.2" baseProfile="tiny"><path class="StaffLines" fill="none" stroke="#000" stroke-width="2.27" stroke-linejoin="bevel" d="M0 311.811h1417.32M0 340.157h1417.32M0 368.504h1417.32M0 396.85h1417.32M0 425.197h1417.32"/><path class="BarLine" fill="none" stroke="#000" stroke-width="4.54" stroke-linejoin="bevel" d="M1389.54 310.677v115.654"/><path class="BarLine" fill="none" stroke="#000" stroke-width="14.17" stroke-linejoin="bevel" d="M1410.24 310.677v115.654"/><path class="BarLine" fill="none" stroke="#000" stroke-width="4.54" stroke-linejoin="bevel" d="M922.466 310.677v115.654M455.388 310.677v115.654"/><path class="Accidental" d="M1156.897 148.713c0 1.405-.7 2.108-2.1 2.108-1.4 0-2.1-.703-2.1-2.108v-16.388l-9.407 3.543v17.93c0 1.405-.703 2.108-2.108 2.108-1.406 0-2.108-.703-2.108-2.109v-16.494l-3.544 1.33c-.07.07-.366.105-.885.105-.591 0-1.108-.221-1.55-.664-.444-.443-.665-.96-.665-1.55v-6.856c0-1.11.478-1.813 1.435-2.109l5.209-1.771v-18.16l-3.544 1.223c-.07.07-.366.106-.885.106-.591 0-1.108-.222-1.55-.665-.444-.442-.665-.96-.665-1.55v-6.874c0-1.027.478-1.689 1.435-1.984l5.209-2.002V78.059c0-1.405.702-2.108 2.108-2.108 1.405 0 2.108.703 2.108 2.108v16.388l9.408-3.543v-17.93c0-1.405.7-2.108 2.1-2.108 1.399 0 2.099.703 2.099 2.109v16.494l3.667-1.33c.07-.07.325-.105.762-.105.52 0 1.075.218 1.665.655.449.449.673.969.673 1.56v6.855c0 1.04-.52 1.743-1.559 2.109l-5.208 1.771v18.16l3.667-1.223c.07-.07.325-.106.762-.106.52 0 1.075.225 1.665.673.449.437.673.951.673 1.542v6.874c0 .956-.52 1.618-1.559 1.984l-5.208 2.002v17.823m-4.2-46.063l-9.407 3.313v18.16l9.408-3.314v-18.16M689.822 219.579c0 1.405-.7 2.108-2.1 2.108-1.4 0-2.1-.703-2.1-2.108V203.19l-9.407 3.543v17.93c0 1.405-.703 2.108-2.108 2.108-1.406 0-2.108-.703-2.108-2.109V208.17l-3.544 1.33c-.07.07-.366.105-.885.105-.591 0-1.108-.221-1.55-.664-.444-.443-.665-.96-.665-1.55v-6.856c0-1.11.478-1.813 1.435-2.109l5.209-1.771v-18.16l-3.544 1.223c-.07.07-.366.106-.885.106-.591 0-1.108-.222-1.55-.665-.444-.442-.665-.96-.665-1.55v-6.874c0-1.027.478-1.689 1.435-1.984l5.209-2.002v-17.823c0-1.405.702-2.108 2.108-2.108 1.405 0 2.108.703 2.108 2.108v16.388l9.408-3.543v-17.93c0-1.405.7-2.108 2.1-2.108 1.399 0 2.099.703 2.099 2.109v16.494l3.667-1.33c.07-.07.325-.105.762-.105.52 0 1.075.218 1.665.655.449.449.673.969.673 1.56v6.855c0 1.04-.52 1.743-1.559 2.109l-5.208 1.771v18.16l3.667-1.223c.07-.07.325-.106.762-.106.52 0 1.075.225 1.665.673.449.437.673.951.673 1.542v6.874c0 .956-.52 1.618-1.559 1.984l-5.208 2.002v17.823m-4.2-46.063l-9.407 3.313v18.16l9.408-3.314v-18.16"/><path class="LedgerLine" fill="none" stroke="#000" stroke-width="4.54" stroke-linecap="square" stroke-linejoin="bevel" d="M1272.92 113.386h54.32M1272.92 141.732h54.32M1272.92 170.079h54.32M1272.92 198.425h54.32M1272.92 226.772h54.32M1272.92 255.118h54.32M1272.92 283.465h54.32M1167.06 113.386h54.33M1167.06 141.732h54.33M1167.06 170.079h54.33M1167.06 198.425h54.33M1167.06 226.772h54.33M1167.06 255.118h54.33M1167.06 283.465h54.33M1061.2 141.732h54.33M1061.2 170.079h54.33M1061.2 198.425h54.33M1061.2 226.772h54.33M1061.2 255.118h54.33M1061.2 283.465h54.33M955.348 141.732h54.332M955.348 170.079h54.332M955.348 198.425h54.332M955.348 226.772h54.332M955.348 255.118h54.332M955.348 283.465h54.332M805.838 170.079h54.328M805.838 198.425h54.328M805.838 226.772h54.328M805.838 255.118h54.328M805.838 283.465h54.328M699.982 198.425h54.328M699.982 226.772h54.328M699.982 255.118h54.328M699.982 283.465h54.328M594.126 198.425h54.328M594.126 226.772h54.328M594.126 255.118h54.328M594.126 283.465h54.328M488.27 226.772h54.328M488.27 255.118h54.328M488.27 283.465h54.328M364.626 255.118h54.328M364.626 283.465h54.328M124.654 453.543h54.327"/><path class="Stem" fill="none" stroke="#000" stroke-width="3.69" stroke-linecap="round" stroke-linejoin="bevel" d="M1283.26 104.536v263.968M1177.41 118.71v249.794M1071.55 132.883v235.621M965.694 147.056v221.448M816.185 161.229v207.275M710.329 189.576v178.928M604.473 203.749v164.755M498.617 232.096v136.408M374.972 260.442v108.062M294.981 302.962v93.888M214.991 359.655v86.802M168.635 448.219v-93.888"/><path class="Note" d="M1306.33 83.604c3.543 0 6.537.922 8.982 2.764 2.28 1.996 3.42 4.506 3.42 7.53 0 5.09-2.617 9.85-7.85 14.28-5.314 4.428-11.001 6.643-17.06 6.643-3.544 0-6.532-.921-8.965-2.764-2.291-1.996-3.437-4.506-3.437-7.53 0-5.09 2.657-9.85 7.972-14.279 5.174-4.43 10.82-6.644 16.938-6.644M1200.47 97.778c3.543 0 6.537.921 8.982 2.764 2.28 1.996 3.42 4.505 3.42 7.529 0 5.09-2.617 9.85-7.85 14.28-5.314 4.429-11.001 6.643-17.06 6.643-3.544 0-6.532-.921-8.965-2.764-2.291-1.996-3.437-4.505-3.437-7.529 0-5.09 2.657-9.85 7.972-14.28 5.174-4.429 10.82-6.643 16.938-6.643M1094.62 111.95c3.543 0 6.537.922 8.982 2.765 2.28 1.996 3.42 4.505 3.42 7.529 0 5.09-2.617 9.85-7.85 14.28-5.314 4.429-11.001 6.643-17.06 6.643-3.544 0-6.532-.921-8.965-2.764-2.291-1.996-3.437-4.505-3.437-7.529 0-5.09 2.657-9.85 7.972-14.28 5.174-4.429 10.82-6.643 16.938-6.643M988.762 126.124c3.543 0 6.537.921 8.982 2.764 2.28 1.996 3.42 4.505 3.42 7.529 0 5.09-2.617 9.85-7.85 14.28-5.314 4.429-11.001 6.643-17.06 6.643-3.544 0-6.532-.921-8.965-2.764-2.291-1.996-3.437-4.505-3.437-7.529 0-5.09 2.657-9.85 7.972-14.28 5.174-4.429 10.82-6.643 16.938-6.643M839.252 140.298c3.543 0 6.537.921 8.982 2.764 2.28 1.996 3.42 4.505 3.42 7.529 0 5.09-2.617 9.85-7.85 14.28-5.314 4.429-11.001 6.643-17.06 6.643-3.544 0-6.532-.921-8.965-2.764-2.291-1.996-3.437-4.505-3.437-7.529 0-5.09 2.657-9.85 7.972-14.28 5.174-4.429 10.82-6.643 16.938-6.643M733.396 168.644c3.543 0 6.537.921 8.982 2.764 2.28 1.996 3.42 4.505 3.42 7.529 0 5.09-2.617 9.85-7.85 14.28-5.314 4.429-11.001 6.643-17.06 6.643-3.544 0-6.532-.921-8.965-2.764-2.291-1.996-3.437-4.505-3.437-7.529 0-5.09 2.657-9.85 7.972-14.28 5.174-4.429 10.82-6.643 16.938-6.643M627.54 182.817c3.543 0 6.537.921 8.982 2.764 2.28 1.996 3.42 4.505 3.42 7.529 0 5.09-2.617 9.85-7.85 14.28-5.314 4.429-11.001 6.643-17.06 6.643-3.544 0-6.532-.921-8.965-2.764-2.291-1.996-3.437-4.505-3.437-7.529 0-5.09 2.657-9.85 7.972-14.28 5.174-4.429 10.82-6.643 16.938-6.643M521.684 211.164c3.543 0 6.537.921 8.982 2.764 2.28 1.996 3.42 4.505 3.42 7.529 0 5.09-2.617 9.85-7.85 14.28-5.314 4.429-11.001 6.643-17.06 6.643-3.544 0-6.532-.921-8.965-2.764-2.291-1.996-3.437-4.505-3.437-7.529 0-5.09 2.657-9.85 7.972-14.28 5.174-4.429 10.82-6.643 16.938-6.643M398.04 239.51c3.543 0 6.537.921 8.982 2.764 2.28 1.996 3.42 4.505 3.42 7.529 0 5.09-2.617 9.85-7.85 14.28-5.314 4.429-11.001 6.643-17.06 6.643-3.544 0-6.532-.921-8.965-2.764-2.291-1.996-3.437-4.505-3.437-7.529 0-5.09 2.657-9.85 7.972-14.28 5.174-4.429 10.82-6.643 16.938-6.643M318.049 282.03c3.543 0 6.537.921 8.982 2.764 2.28 1.996 3.42 4.505 3.42 7.529 0 5.09-2.617 9.85-7.85 14.28-5.314 4.429-11.001 6.643-17.06 6.643-3.544 0-6.532-.921-8.965-2.764-2.291-1.996-3.437-4.505-3.437-7.529 0-5.09 2.657-9.85 7.972-14.28 5.174-4.429 10.82-6.643 16.938-6.643M238.058 338.723c3.543 0 6.537.921 8.982 2.764 2.28 1.996 3.42 4.505 3.42 7.529 0 5.09-2.617 9.85-7.85 14.28-5.314 4.429-11.001 6.643-17.06 6.643-3.544 0-6.532-.921-8.965-2.764-2.291-1.996-3.437-4.505-3.437-7.529 0-5.09 2.657-9.85 7.972-14.28 5.174-4.429 10.82-6.643 16.938-6.643M158.067 437.935c3.543 0 6.537.921 8.982 2.764 2.28 1.996 3.42 4.505 3.42 7.529 0 5.09-2.617 9.85-7.85 14.28-5.314 4.429-11.001 6.643-17.06 6.643-3.544 0-6.532-.921-8.965-2.764-2.291-1.996-3.437-4.505-3.437-7.529 0-5.09 2.657-9.85 7.972-14.28 5.174-4.429 10.82-6.643 16.938-6.643"/><path class="Clef" d="M64.311 367.83h.673c.296-.07.55-.106.762-.106 8.268 0 15.06 2.917 20.374 8.752 5.315 5.752 7.973 12.467 7.973 20.144 0 9.531-3.945 17.285-11.835 23.262-2.067 1.63-4.766 2.958-8.096 3.986.378 4.795.567 8.67.567 11.622 0 .59-.077 2.734-.23 6.43-.296 6.863-2.658 12.804-7.088 17.824-4.275 4.949-9.59 7.423-15.944 7.423-5.977 0-11.067-2.102-15.272-6.307-4.217-4.287-6.325-9.455-6.325-15.502 0-3.177 1.223-5.876 3.667-8.097 2.504-2.208 5.416-3.312 8.735-3.312 2.952 0 5.427 1.145 7.423 3.436 2.067 2.138 3.1 4.796 3.1 7.973 0 2.87-1.033 5.339-3.1 7.405-2.067 2.067-4.541 3.1-7.423 3.1a9.169 9.169 0 0 1-3.42-.655c3.248 4.796 7.565 7.193 12.951 7.193 5.09 0 9.26-2.067 12.508-6.2 3.402-4.276 5.25-9.26 5.545-14.953.142-3.544.213-5.57.213-6.077 0-4.134-.148-7.53-.443-10.187-3.685.59-6.968.886-9.85.886-10.264 0-19.01-4.063-26.239-12.19-7.086-8.196-10.63-17.94-10.63-29.232 0-2.362.219-4.76.656-7.193a130.972 130.972 0 0 1 1.665-6.537c.367-1.335 1.365-3.478 2.994-6.431.591-.886 1.255-1.993 1.994-3.322.738-1.329 1.255-2.212 1.55-2.649.732-1.476 2.167-3.472 4.305-5.988a43.848 43.848 0 0 0 1.834-2.205 61.78 61.78 0 0 1 1.612-1.994c.443-.52.773-.927.992-1.222.218-.295 1.88-2.25 4.987-5.864a38.534 38.534 0 0 0 2.153-2.383 59.008 59.008 0 0 1 1.718-1.993 22.46 22.46 0 0 1 1.001-1.045c-2.657-8.788-4.323-15.804-4.996-21.048-.508-4.204-.762-9.962-.762-17.273 0-6.426 1.477-12.443 4.43-18.054 2.87-5.822 6.891-10.582 12.064-14.28.296-.223.662-.335 1.099-.335.52 0 .892.112 1.116.335 3.98 4.797 7.411 11.033 10.293 18.71 2.953 7.677 4.43 14.657 4.43 20.94 0 7.087-1.695 13.73-5.085 19.932-3.839 6.567-8.788 13.358-14.847 20.374 1.548 4.866 3.615 12.502 6.201 22.907m9.408 51.502c3.838-1.405 6.832-3.803 8.982-7.193 2.362-3.248 3.543-6.903 3.543-10.966 0-5.244-1.771-9.898-5.315-13.96-3.626-4.206-8.244-6.568-13.854-7.087 3.177 15.578 5.392 28.647 6.644 39.206M30.88 393.75c0 7.31 2.953 13.736 8.858 19.275 6.047 5.386 12.839 8.079 20.374 8.079 3.095 0 6.118-.224 9.071-.673-1.18-11.22-3.508-24.656-6.98-40.305-4.205.448-7.56 1.925-10.063 4.429-2.445 2.586-3.667 5.504-3.667 8.752 0 5.61 2.994 10.151 8.982 13.624.508.52.762 1.075.762 1.665 0 .59-.254 1.14-.762 1.648-.45.52-1.004.78-1.666.78-.07 0-.401-.072-.992-.213-4.216-2.292-7.464-5.244-9.744-8.859-2.15-3.85-3.224-7.73-3.224-11.64 0-5.09 1.588-9.702 4.766-13.836 3.318-4.134 7.635-6.791 12.95-7.973-2.067-8.267-3.761-14.728-5.084-19.381a9341.283 9341.283 0 0 0-4.261 4.818c-1.66 1.878-2.637 3.006-2.932 3.384-2.658 3.461-4.69 6.154-6.095 8.08-2.515 3.472-4.364 6.46-5.545 8.964-1.252 2.81-2.356 5.876-3.313 9.195-.957 3.177-1.435 6.572-1.435 10.187m36.974-112.607c-5.539 2.729-9.891 6.638-13.057 11.729-3.248 5.244-4.872 10.89-4.872 16.937 0 5.315 1.329 12.478 3.987 21.49 5.314-6.426 9.3-12.366 11.958-17.823 2.8-5.764 4.199-11.782 4.199-18.053 0-4.725-.738-9.485-2.215-14.28"/></svg>