<svg xmlns="http://www.w3.org/2000/svg" viewBox="0 0 600 453"><path d="M95 1c-.1 2.3-.4 4.6-.4 7-.1 77.8-.1 155.6-.1 233.4 0 7 0 7-7.2 7.1-10.3.1-10.3.1-10.3 10.4v189.4c0 2.2-.3 4.4 2 5.7h-5c1.4-1.9 1.4-4 1.3-6.2-.5-15.8-.5-31.6-.3-47.4.4-49.4-.2-98.9.5-148.3 0-3-.9-3.8-3.5-3.8-6.2.1-12.4-.3-18.5.2-4.9.4-5.8-1.4-5.8-5.8.1-44.6 0-89.3 0-133.9V6.9c0-2 .2-4 .3-6C63.7 1 79.3 1 95 1zM313 1c-.1 2.5-.4 5-.4 7.4-.1 77.3-.1 154.5-.2 231.8 0 8.3.7 8.6-7.5 8.2-3.9-.2-3.3 2.2-3.3 4.5 0 20.8.1 41.6.1 62.4 0 25.8-.1 51.6-.1 77.4v55c0 2.2 0 4.3 1.4 6.2h-4c.6-2.1.9-4.2.8-6.4-.5-15.8-.5-31.6-.3-47.4.5-49.3-.1-98.6.5-147.9 0-3.3-1.1-4-3.9-4-8 .1-16-.3-24 .2-5.1.3-6.4-1-6.4-6.2.2-56.5.1-113 0-169.5v-66c0-2 .2-4 .3-6 15.7.3 31.3.3 47 .3zM149 454c1-2.3 1.2-4.8 1.1-7.3-.5-15.5-.5-31-.3-46.4.5-49.5-.2-98.9.5-148.4 0-2.4-.4-3.5-2.8-3.4H145c-11.2-.1-11.2-.1-11.2-11.6 0-76.5-.1-153-.1-229.5 0-2.1.3-4.3.4-6.4h46c.1 2 .4 4 .4 6 0 78.1 0 156.2-.1 234.4 0 7.1 0 7.1-7.1 7.1-5.5 0-11 .2-16.5-.1-3.9-.2-5 1-5 4.9.2 27.1.2 54.3.2 81.5 0 18.8-.1 37.6-.1 56.5v56.6c0 2.2 0 4.3 1.1 6.2-1.3-.1-2.7-.1-4-.1zM374 454c.8-2.2.9-4.5.8-6.8-.5-15.6-.6-31.2-.4-46.8.6-49.4-.1-98.8.5-148.3 0-3.1-1-3.7-3.6-3.7-5.2.1-10.3-.1-15.5.2-3.1.2-4.2-.8-4.1-3.9.1-5.3 0-10.7 0-16 0-73.9-.1-147.9-.1-221.8 0-2 .3-4 .4-5.9h46c.1 2 .4 4 .4 6 0 78.1 0 156.3-.1 234.4 0 7.1 0 6.9-7.1 7.1-4.8.1-10.8-2.2-13.9 1.1-2.8 3-.9 8.9-.9 13.5-.1 43.3 0 86.6 0 130v54.4c0 2.3-.1 4.7 1.7 6.5H374zM484 1c.1 1.7.2 3.3.2 5 0 78.7-.1 157.3 0 236 0 5-1.4 6.8-6.4 6.5-7.6-.4-15.3.1-23-.1-2.8 0-3.7.9-3.7 3.7.1 48 0 96 0 144v51.4c0 2.3-.3 4.7 1.8 6.4h-4c.2-2 .7-3.9.7-5.9 0-65.4 0-130.8.1-196.1 0-3.7-1.9-3.5-4.3-3.6-7.9-.3-7.9-.3-7.9-8.1 0-77.6-.1-155.2-.1-232.8 0-2.1-.4-4.3.5-6.4H484zM598 454c1.4-1.8 1.7-3.9 1.6-6.1-.7-15.8-.8-31.6-.5-47.3.9-49.4-.3-98.9.5-148.3 0-2.9-.7-3.8-3.5-3.8-6.3.1-12.7-.3-19 .1-4.3.3-5.4-1.2-5.3-5.3.1-25.7 0-51.3 0-77 0-53.3-.1-106.6-.1-159.9 0-1.8.2-3.6.3-5.5 8.8 0 17.7.1 26.5-.1 2.2 0 3 .4 2.5 2.6-.1.5 0 1 0 1.5v445c0 2.1 1 5-3 4.1zM227 1c-.1 8.8-.2 17.6-.2 26.5 0 121.3-.1 242.5-.1 363.8v56c0 2.3-.2 4.7 1.2 6.7h-4c1-2.2 1-4.5 1-6.8-.5-15.6-.5-31.3-.4-46.9 1-130.8 0-261.5.3-392.3 0-2.3.1-4.7.2-7h2zM523 454c1.5-1.6 1.7-3.5 1.6-5.6-.5-15.9-.7-31.9-.4-47.8.7-37.8.2-75.5.3-113.3.2-93.1 0-186.3 0-279.4 0-2.3-.4-4.7.5-6.9h1c.1 25.1.2 50.3.2 75.4 0 105.8 0 211.5-.1 317.3v54.4c0 2.2-.1 4.3 1.9 5.9h-5zM2 1c0 24.6.1 49.3.1 73.9 0 105.3 0 210.5-.1 315.8v57.4c0 2.2-.2 4.4 1.9 5.8-1.6-.1-3.9.6-3-2.5.2-.6 0-1.3 0-2 0-148 0-296 .1-444C1.1 4-.1 2.1 2 1z"/><path d="M172.7 326.7c0-7.3.1-14.7-.1-22-.1-2.9.7-4.1 3.9-4.1 8.2.2 16.3 0 24.5.1 1.5 0 3.5-.6 3.3 2.3-.2 2.3-1.5 2.6-3.3 2.6-5.5 0-11 .1-16.5 0-2.9-.1-4.1 1-4.2 4-.7 14-.7 14 13 14h5c1.7 0 2.3.8 2.4 2.5 0 1.7-.7 2.4-2.4 2.4-4.3 0-8.7.2-13 0-3.6-.2-5.3.9-5 4.8.2 3.1.2 6.3 0 9.5-.3 3.6 1.3 4.6 4.7 4.5 5.7-.2 11.3 0 17 0 1.7 0 3.3 0 3.3 2.5 0 2.6-1.8 2.4-3.4 2.4-8.5 0-17-.1-25.5.1-2.8 0-3.8-.8-3.7-3.7.1-7.3 0-14.6 0-21.9zM163.8 437.5c0-6.4-.8-12 .3-17.1.6-2.6 5.2-1.7 8.1-1.5 1 .1 1.7 1 3.2.6 5.9-1.6 6.7-.9 6.8 5.1 0 2.7.1 5.3 0 8-.1 1.4 1 4.1-1.4 3.9-2.1-.1-1.2-2.7-1.2-4.2-.2-2.7 0-5.3-.1-8 0-1.5.1-3.4-1.8-3.6-2.2-.1-3.2 1.6-3.3 3.6-.2 2.2.1 4.3-.1 6.5-.2 2 1 5.6-1.2 5.5-2.9-.1-1.2-3.7-1.5-5.8-.3-1.9 0-4-.1-6-.1-1.6.4-3.8-2-3.8-2.2 0-3 1.8-3.1 3.8-.1 2.5 0 5-.1 7.5-.3 1.5.5 3.3-2.5 5.5zM189.7 419.6c7.8-2.1 8.4-1.7 8.4 5.5v4c0 5.6 0 5.6 5.2 7.2h-13.5c9-1 4.8-7.9 5.5-12.6.7-4.3-3.5-2.8-5.6-4.1zM542.9 326.4c-.2-9.6 1.9-18.4 11-23.5 8.4-4.8 17.2-4.3 25.9-.4 1.2.5 3.8 1 2.2 3.4-1.1 1.8-2.4 3.8-5.1 2.4-.4-.2-.9-.5-1.3-.7-10.8-5.4-21-.7-23.8 11-1.3 5.7-1.3 11.6.4 17.3 3.1 10.4 13.3 14.8 23 9.9 1-.5 2-1.3 3-1.7 2.5-.9 3.7 1 4.8 2.6 1.3 2-.8 2.6-1.9 3.3-15.4 10.1-36.2.3-38.1-18-.3-1.9-.1-3.8-.1-5.6zM558.3 424.2c0 1.3-.1 2.7 0 4 .5 4.7.7 8.9-6.1 8.8-3-.1-6.2.8-8.1-2.1-2.6-3.9-2.5-8.2-.8-12.4 1.2-3 3.9-4.4 6.8-3.8 4.1.8 5.9-.1 5.3-4.5-.1-1-.3-2.7 1.3-2.8 2.1-.1 1.5 1.8 1.5 3 .2 3.1.1 6.4.1 9.8zm-3 3.5c.3-3.5 0-6.9-4.5-7.4-2.9-.3-5.7 3.5-5.5 7.6.2 3.4.8 7.2 5.2 7.1 4.3-.1 5.2-3.5 4.8-7.3zM574.5 437.1c-5.5-.1-8.2-3.4-8.1-9.6.1-6 3.1-9.2 8.7-9.1 5.5.1 8.3 3.4 8.1 9.6-.1 6-3.2 9.2-8.7 9.1zm5.6-9.8c-.3-3.1-.8-6.9-5.1-6.9-4.6 0-5.3 3.8-5.3 7.5 0 3.5.6 6.9 5 7.3 3 .3 5.4-3.3 5.4-7.9zM17.8 326.4c-.1-9.6 2-18.4 11.1-23.5 8.4-4.8 17.2-4.3 25.9-.4 1.2.5 3.7 1 2.2 3.5-1.2 1.8-2.4 3.8-5.2 2.3-.4-.2-.9-.5-1.3-.7-10.8-5.4-21-.7-23.7 11.1-1.4 5.9-1.3 11.9.5 17.8 3.1 9.7 12.7 13.9 22 9.8 1.1-.5 2-1.1 3-1.7 2.6-1.6 4.1 0 5.4 1.9 1.8 2.6-.8 3.1-2.2 3.9-16.6 9.9-36.6-.7-37.7-19.8-.1-1.6 0-2.9 0-4.2zM38.3 424.2v4c0 7 0 7-6.2 8.6-3 .7-6.2.9-8.1-2.1-2.5-3.9-2.5-8.2-.7-12.4 1.3-3 3.9-4.4 6.9-3.8 4.3.9 5.8-.4 5.2-4.6-.1-1.1-.2-2.7 1.4-2.7 2 0 1.4 1.9 1.5 3.1.1 3.3 0 6.6 0 9.9zm-3 3c.4-3.4-.3-6.9-4.7-6.8-4.1.1-5.2 3.8-5.2 7.3 0 3.4.6 7.3 5 7.3 4.6 0 5.2-3.7 4.9-7.8zM62.3 427.6c0 6.1-2.9 9.5-8.3 9.6-5.6.1-8.5-3-8.5-9.2 0-6.1 2.8-9.4 8.3-9.5 5.5-.2 8.4 2.9 8.5 9.1zm-3.2.2c0-4.5-2.3-8-5.4-7.5-4.2.6-5 3.9-5 7.4 0 3.4.5 6.9 4.8 7.5 3.1.4 5.6-3.1 5.6-7.4zM248.7 326.7c0-7.3.1-14.6-.1-21.9-.1-2.9.6-4.2 3.8-4.1 8.5.2 17 0 25.4.1 1.5 0 3.6-.8 3.5 2.1-.1 2.6-1.7 2.8-3.7 2.8-5.7 0-11.3.1-17 0-3.1-.1-4.4 1-4.5 4.3-.5 14.2-.6 14.2 13.4 14.2h5c1.8 0 3.3.1 3.2 2.6-.1 2.5-1.7 2.4-3.4 2.4-4.5 0-9 .2-13.5 0-3.8-.2-4.9 1.3-4.7 4.9.3 4.8-.1 9.6.1 14.5.1 3.1-1.1 4-4 3.9-2.8 0-3.7-1-3.7-3.8.3-7.4.2-14.7.2-22zM260 419.8c3.7-1.8 7.1-1.9 10.5-.5 3.4 1.4 2.7 4.6 2.7 7.4.1 3.3-.5 6.6 2.1 10.7-4.1-2-7.1-.6-10.2-.2-3.5.4-6.5-.6-6.9-4.7-.5-4 2.1-5.6 5.6-6.3.7-.1 1.3-.1 2-.2 1.6-.3 4.3.8 4.2-2-.1-2.9-2.4-3.6-5-3.7-1.4-.2-3 1.3-5-.5zm7.7 7.3c-3.3 0-5.8 1-6.2 4.1-.4 2.5 1.4 4.3 3.7 4.2 2.8-.1 4.9-1.8 5.1-5 .2-2-.4-3.5-2.6-3.3zM254 412.3c-4.6.6-9.1-1.9-10.1 3.8-.8 4.9 3.4 3.4 6.2 4.7-7.5-.2-6.1 4.7-6.3 8.9-.2 2.3 1.7 6.6-1.5 6.6-2.8 0-.9-4.4-1.4-6.8-.1-.5 0-1 0-1.5.1-3.3.8-6.9-4.8-7.2 3.6-.6 4.9-1.8 5-5.1.1-5.1 5.2-6.7 12.9-3.4zM411.9 339.2h-1.5c-10.5.2-8-1.5-11.6 8.3-.6 1.7-.4 4.4-3 4.7-1.9.2-4.3 1-5.8-.5-1.3-1.3.3-3.1.8-4.6 4.8-14.2 9.9-28.3 14.4-42.5 1.4-4.5 4.2-3.7 7.3-3.9 3.1-.2 4.7.6 5.8 3.8 4.7 14.4 9.8 28.7 14.5 43 .5 1.4 2.7 3.8-.2 4.5-2.5.6-6.2 2-7.5-2.4-.1-.5-.3-1-.5-1.4-3-9.1-3-9.1-12.7-9zm.5-28.7c-.5.1-.9.1-1.4.2-1.3 3.7-2.6 7.5-3.8 11.2-4.1 13-4.1 13 9.6 11.9.5 0 1 0 1.5-.1 1.1-.1 1.4-.8 1.1-1.7-2.3-7.2-4.6-14.4-7-21.5zM440.5 436.7c-3-1.1-5.5-.4-8.2.2-4.5 1-7.7-1-8-4.5-.4-4.7 2.8-5.9 6.6-6.5.7-.1 1.3-.1 2-.1 1.4-.1 3.3.3 3.3-2 0-1.9-1.3-3.2-3-3.5-2.2-.3-4.4-.1-7.9-.1 4.4-2.5 7.9-2.5 11.3-1.1 3.4 1.3 2.7 4.6 2.8 7.3 0 3.4-.6 6.8 1.1 10.3zm-6.9-9.6c-3.4.1-5.8 1.2-6.1 4.3-.2 2.4 1.5 4.3 3.9 4.1 2.7-.3 4.8-1.9 5-5.2 0-2.2-.8-3.4-2.8-3.2zM400.6 411.4c7.8-1.8 8.2-1.5 8.2 6.2v10c0 7.2 0 7.2 7.1 8-2.4 2.4-5 1.8-7.4.9-2.5-.9-2.5-3.3-2.5-5.5v-11c.1-6.7.1-6.7-5.4-8.6zM496.2 325.2c6.6 1.8 10.4 5.5 10.2 12.5-.2 7.1-2.6 10.8-9.3 13.1-8.1 2.7-16.5 1.3-24.8 1.5-2.5.1-2.2-2-2.2-3.6v-44.4c0-2.5.9-3.6 3.5-3.5 5.3.1 10.7-.3 16 .2 5.8.6 11.8 1.6 14 8.4 1.9 6 .1 10-7.4 15.8zm-18 12.2c0 10.4.9 11.2 11.2 9.4 5.6-1 8.7-4.2 8.6-9.2 0-5.3-3.1-8.6-9-9.4-10.6-1.6-10.8-1.4-10.8 9.2zm0-23.9c0 9.1 0 9.1 5.8 9.1 8.1 0 12-2.9 11.9-8.8-.1-5.6-4.1-7.9-12.4-8.3-7.7-.4-4.7 5-5.3 8zM487 420.9c-3 1.1-4.9-1.1-7.2-.7-1.7.3-3.5.5-3.8 2.5-.3 1.9 1.2 2.6 2.7 3.1 1.9.7 3.8 1.3 5.6 1.9 2.2.8 3.1 2.4 3 4.6-.1 2.3-1.5 3.5-3.6 4.2-2.9.9-5.9 1-8.8.1-1-.3-2.8-.4-2.4-1.9.5-1.7 1.9-.6 2.8-.2 1.9.7 3.8 1.2 5.8.5 1.4-.6 2.7-1.4 2.8-3.1.1-1.6-1.3-2.3-2.5-2.7-2-.8-4.1-1.3-6.1-2s-2.6-2.3-2.5-4.3c.1-2 1.2-3.2 2.9-3.6 3.7-1.1 7.5-1.8 11.3 1.6zM497.6 436c3.3-.7 6.7-1 5.7-5.6-.8-4 3.3-10.4-5.9-10.5 7.3-2.7 8.6-1.8 8.6 4.9 0 1.2.1 2.3 0 3.5-.3 4-.3 7.6 5.5 7.6-4.7 1.3-9.2 1.1-13.9.1zM356.3 337.3v4c0 8.7-.3 9-9.1 11.1-4.5 1-9 1.1-13.4.6-7.2-.7-12.4-4.6-15.1-11.4-3.5-9-3.8-18.3-.6-27.4 4.8-13.7 23.1-19.4 35-11.1 1.1.8 3.2 1.4 1.7 3.3-1.2 1.5-2.4 3.5-4.9 2.5-1.1-.4-2-1.3-3-1.8-7.4-4.1-16-1.7-19.5 5.9-4.2 9.2-4.2 18.8.2 28 3.2 6.8 12.9 8.9 19.1 4.9 1.4-.9 1.5-2.1 1.6-3.4V337c0-7.3 0-7.4-7.4-7.7-2.1-.1-3.6-.5-3.7-2.9-.2-3.2 2.2-2.1 3.8-2.3.7-.1 1.3 0 2 0 13.3 0 13.3 0 13.3 13.2zM346.3 427.5c0 6.1-2.9 9.5-8.3 9.6-5.6.1-8.5-3-8.6-9.2-.1-6.1 2.8-9.4 8.3-9.5 5.6-.1 8.5 3 8.6 9.1zm-3.2.4c.1-4.5-2.2-8-5.2-7.7-4.2.5-5 3.7-5.2 7.3-.2 4.7 2 8 5.2 7.6 4.1-.4 5-3.6 5.2-7.2zM321.1 421.4c-2-.4-4-1-6-1.2-1.7-.2-3.5.2-4 2.2-.6 2.2 1.2 2.8 2.8 3.4 1.9.7 3.8 1.2 5.6 1.9 2.2.8 2.9 2.6 2.7 4.8-.2 2.1-1.4 3.2-3.3 3.9-2.9 1-5.9 1.1-8.8.2-1.1-.3-3.2-.4-2.6-2.2.5-1.5 2-.3 3 .1 1.7.6 3.5 1.1 5.3.5 1.5-.5 2.8-1.3 3-3 .3-1.9-1.3-2.6-2.7-3.1-1.7-.7-3.5-1.1-5.2-1.7-2.1-.7-3.3-2-3.3-4.4.1-2.5 1.5-3.6 3.6-4 3.6-.6 7.2-1 9.9 2.6zM353.1 411.6c8.5-1.9 8.8-1.7 8.8 6.1v9.5c0 7.5 0 7.5 6.7 8.4-5.1 3.2-9.3 1.4-9.4-4.2-.1-3.7 0-7.3 0-11-.2-4.1 1.5-9.2-6.1-8.8zM94.1 326c0-7 .1-14 0-21-.1-3.1.7-4.6 4.2-4.4 6.4.4 13-.6 19.4 1.2 8.2 2.4 13.1 7.6 14.3 16.1.8 5.3.8 10.6.1 15.9-1.5 10.6-8 17-18.8 18.1-5.3.6-10.6.2-16 .3-2.9.1-3.1-1.7-3.1-3.9-.1-7.3-.1-14.8-.1-22.3zm8.1.3c0 5.8.1 11.6 0 17.4 0 2.5.9 3.5 3.5 3.6 8.6.5 15.2-4.1 17.4-12.4 1.4-5.2 1.4-10.6.4-15.8-1.7-9.2-8.5-14.2-17.9-13.5-2.6.2-3.4 1.2-3.4 3.7v17zM131.4 434.4c-3.6 3.3-8.4 3.5-11.5 1.1-3.1-2.5-4.2-8.2-2.4-12.4 1.9-4.2 5.4-5 9.5-4.5 2.8.3 4.5 1.9 5.5 4.5 1.2 3.2 1.1 5.6-3.4 5.1-1.6-.2-3.3-.1-5 0-1.4.1-3.3-.8-3.9 1.2-.6 2 .8 3.4 2.2 4.7 2.8 2.4 5.9.2 9 .3zm-6.5-7.5c1.8-.6 4.9 1 4.9-2.5-.1-2.5-2.1-4.1-4.7-4.1s-4.7 1.5-4.8 4c-.3 3.6 2.9 1.9 4.6 2.6zM94.8 419.6c.7-.4 1.1-.8 1.3-.7 3.7 1.3 7.3.3 11.1-.2 5.5-.7 2.3 3.1 2.3 5.3-2.6 0-.9-4-3.9-3.1-2.3.7-3.7 2.5-4.2 4.6-.8 3.8-2.9 8.1 3.4 10.7-3.5 1-6.2.6-9.7.5 3.2-2.8 2.9-6 2.6-9.1-.3-2.9 1.7-6.5-2.9-8z"/></svg>