<?xml version="1.0" encoding="utf-8"?>
<!-- Generator: Adobe Illustrator 23.0.0, SVG Export Plug-In . SVG Version: 6.00 Build 0)  -->
<svg version="1.1" id="Layer_1" xmlns="http://www.w3.org/2000/svg" xmlns:xlink="http://www.w3.org/1999/xlink" x="0px" y="0px"
	 viewBox="0 0 1366 768" style="enable-background:new 0 0 1366 768;" xml:space="preserve">
<style type="text/css">
	.st0{fill:#FEFEFE;}
	.st1{fill:#231E1A;}
	.st2{fill:#1C1713;}
	.st3{fill:#18130F;}
	.st4{fill:#1F1A16;}
	.st5{fill:#201B17;}
	.st6{fill:#211C18;}
	.st7{fill:#221D19;}
	.st8{fill:#1E1915;}
	.st9{fill:#1E1914;}
	.st10{fill:#231F1B;}
	.st11{fill:#312C28;}
	.st12{fill:#332B29;}
	.st13{fill:#0C0805;}
	.st14{fill:#2C2824;}
	.st15{fill:#2E2925;}
	.st16{fill:#25201C;}
	.st17{fill:#312C2A;}
	.st18{fill:#030303;}
	.st19{fill:#352F2C;}
	.st20{fill:#010101;}
	.st21{fill:#35322E;}
	.st22{fill:#201B18;}
	.st23{fill:#342A29;}
	.st24{fill:#0E0D0C;}
	.st25{fill:#2D2926;}
	.st26{fill:#3D3634;}
	.st27{fill:#020202;}
	.st28{fill:#2D2824;}
	.st29{fill:#28221F;}
	.st30{fill:#413C39;}
	.st31{fill:#35312E;}
	.st32{fill:#1B1712;}
	.st33{fill:#312E29;}
	.st34{fill:#433E3B;}
	.st35{fill:#393431;}
	.st36{fill:#3A3531;}
	.st37{fill:#342F2B;}
	.st38{fill:#28231F;}
	.st39{fill:#413C38;}
	.st40{fill:#312826;}
	.st41{fill:#37322E;}
	.st42{fill:#2E2926;}
	.st43{fill:#2A2521;}
	.st44{fill:#36332F;}
	.st45{fill:#4C4744;}
	.st46{fill:#4D4845;}
	.st47{fill:#4B4843;}
	.st48{fill:#47413F;}
	.st49{fill:#504746;}
	.st50{fill:#433F3B;}
	.st51{fill:#14100D;}
	.st52{fill:#16110D;}
	.st53{fill:#3A3632;}
	.st54{fill:#403C38;}
	.st55{fill:#413A38;}
	.st56{fill:#37322F;}
	.st57{fill:#3E3A36;}
	.st58{fill:#3B3632;}
	.st59{fill:#403A37;}
	.st60{fill:#2C2924;}
	.st61{fill:#4F4A46;}
	.st62{fill:#BEBCBA;}
	.st63{fill:#5A5652;}
	.st64{fill:#5C5955;}
	.st65{fill:#2B2623;}
	.st66{fill:#4E4945;}
	.st67{fill:#463C3B;}
	.st68{fill:#393430;}
	.st69{fill:#292522;}
	.st70{fill:#413C36;}
	.st71{fill:#807D7A;}
	.st72{fill:#3D3433;}
	.st73{fill:#392F2E;}
	.st74{fill:#1F1A17;}
	.st75{fill:#54504C;}
	.st76{fill:#241F19;}
	.st77{fill:#403B37;}
	.st78{fill:#A6A4A2;}
	.st79{fill:#504B45;}
	.st80{fill:#453B3A;}
	.st81{fill:#494440;}
	.st82{fill:#615C59;}
	.st83{fill:#575350;}
	.st84{fill:#544A49;}
	.st85{fill:#4A4541;}
	.st86{fill:#4D4945;}
	.st87{fill:#352D2B;}
	.st88{fill:#55534F;}
	.st89{fill:#635F5B;}
	.st90{fill:#5D5955;}
	.st91{fill:#56514F;}
	.st92{fill:#181310;}
	.st93{fill:#1A1511;}
	.st94{fill:#120D09;}
	.st95{fill:#24201B;}
	.st96{fill:#27221E;}
	.st97{fill:#2C2723;}
	.st98{fill:#292420;}
	.st99{fill:#0C0703;}
	.st100{fill:#130E0A;}
	.st101{fill:#25201D;}
	.st102{fill:#36312D;}
	.st103{fill:#191410;}
	.st104{fill:#0F0A06;}
	.st105{fill:#322D29;}
	.st106{fill:#1B1612;}
	.st107{fill:#332E2A;}
	.st108{fill:#110C08;}
	.st109{fill:#241F1B;}
	.st110{fill:#070706;}
	.st111{fill:#050504;}
	.st112{fill:#FDFDFD;}
	.st113{fill:#FCFCFC;}
	.st114{fill:#080707;}
	.st115{fill:#160C0B;}
	.st116{fill:#15100C;}
	.st117{fill:#1F1B18;}
	.st118{fill:#1C1714;}
	.st119{fill:#130E0B;}
	.st120{fill:#EFEFEF;}
	.st121{fill:#26211D;}
	.st122{fill:#332E2B;}
	.st123{fill:#37342F;}
	.st124{fill:#221E19;}
	.st125{fill:#25221D;}
	.st126{fill:#2F2A26;}
	.st127{fill:#211E19;}
	.st128{fill:#38332F;}
	.st129{fill:#302B27;}
	.st130{fill:#35302D;}
	.st131{fill:#3F3B37;}
	.st132{fill:#3F3A36;}
	.st133{fill:#35302C;}
	.st134{fill:#4C4743;}
	.st135{fill:#FBFBFB;}
	.st136{fill:#27221F;}
	.st137{fill:#36312C;}
	.st138{fill:#423D39;}
	.st139{fill:#201B16;}
	.st140{fill:#FAF9F9;}
	.st141{fill:#231E19;}
</style>
<g>
	<path class="st0" d="M684,110c123.8,0,247.7,0,371.5-0.1c3.7,0,4.6,0.8,4.6,4.6c-0.1,180.3-0.1,360.7,0,541c0,3.7-0.8,4.6-4.6,4.6
		c-247.7-0.1-495.3-0.1-743,0c-3.7,0-4.6-0.8-4.6-4.6c0.1-180.3,0.1-360.7,0-541c0-3.7,0.8-4.6,4.6-4.6C436.3,110,560.2,110,684,110
		z"/>
	<path d="M998.9,569.8c-2.8-3.5-6-5.8-6.7-10.5c12.2,6.7,25,9.5,37.9,12.7c-12.7,3.2-25.4,6.1-37.5,12.8c0.3-4.8,3.5-7,5.8-9.9
		c-1.2-1.5-2.8-0.8-4.2-0.8c-186.3,0-372.7,0-559-0.1c-3.6,0-4.4,0.9-4.3,4.4c0.2,14.3,0.1,28.7,0,43c0,1.3,1.3,3.5-1.7,3.7
		c-3.3,0.2-2.2-2.3-2.2-3.8c-0.1-14.5-0.1-29,0-43.5c0-3.1-0.8-3.9-3.8-3.8c-15.2,0.2-30.3,0.1-45.5,0c-1.5,0-4,1.1-3.7-2.2
		c0.2-3,2.4-1.7,3.7-1.7c15.2-0.1,30.3-0.2,45.5,0c3.1,0,3.8-0.7,3.8-3.8c-0.1-97.3-0.1-194.7-0.1-292c0-30.8-0.1-61.7-0.2-92.5
		c0-1.6,0-3.2,0-5.7c-3.4,3-6.1,5.4-10.8,7.9c6.4-13.2,10.2-25.9,12.9-39.2c3.3,12.8,6.4,25.5,12.9,37.7c-4.8-0.6-7.2-3.6-10-6.1
		c-1.4,1-0.7,2.4-0.7,3.6c0,50.2,0,100.3-0.1,150.5c0,3.8,1,5,4.6,4.5c2.8-0.3,5.7-0.2,8.5,0c1.5,0.1,4.1-1.3,3.9,2.1
		c-0.2,3.2-2.7,1.7-4.1,1.8c-3.3,0.2-6.7,0.2-10,0c-2.2-0.1-3.1,0.5-2.8,2.8c0.1,0.8,0,1.7,0,2.5c0,73.5,0,147-0.1,220.5
		c0,4.3,0.9,5.5,5.3,5.4c16.7-0.3,33.3-0.2,50,0c3.1,0,4.1-0.7,3.8-3.8c-0.3-3.8-0.1-7.7-0.1-11.5c0-1.2,0-2.3,1.8-2.3
		c1.8-0.1,2.3,0.7,2.3,2.4c-0.1,3.8,0.2,7.7-0.1,11.5c-0.3,3.2,0.9,3.8,3.9,3.8c23.8-0.1,47.7-0.1,71.5-0.1
		c77.2,0,154.3,0,231.5,0.1c4.5,0,5.8-1.1,5.3-5.4c-0.4-3.1-0.1-6.3-0.1-9.5c0-1.3-0.3-2.7,1.8-2.8c2.4-0.1,2.2,1.4,2.2,2.9
		c0,3.5,0.3,7-0.1,10.5c-0.4,3.7,1.1,4.3,4.4,4.2c35.2-0.2,70.3-0.3,105.5-0.2c3.7,0,4.5-1.2,4.2-4.5c-0.2-2.5,0-5-0.1-7.5
		c0-1.5,0.6-2,2.1-2c1.6,0,2,0.7,2,2.1c-0.1,3,0.1,6,0,9c-0.1,2.1,0.5,2.9,2.8,2.9C953.2,569.8,975.6,569.8,998.9,569.8z"/>
	<path class="st1" d="M497.7,333.9c4.4-1.3,8.9-0.7,13.3-0.7c45.8-0.5,91.5-0.7,137.3-1.2c44.4-0.5,88.8-1.4,133.2-2.2
		c8.1-0.1,16.3-0.5,24.4-0.8c0.7-0.4,1.1-0.2,1.3,0.6c-1.9,4.1-5.7,2.6-8.9,2.9c-10,0-20-0.6-30,0.2c-16.8,1.4-33.6,0-50.3,1.4
		c-5.9,0.5-11.9,0.3-17.9,0.4c-18.9,0.3-37.8-0.2-56.7-0.1c-3,0-5.9-0.1-8.9,0c-3.1,0-6.1,1.5-9.3,0.6c-2.1-0.8-4.3-0.7-6.5-0.6
		c-3,0.1-6.1-0.3-9.1,0.7c-2.6,0.4-5.2,0.3-7.9,0.3c-6.9-1.6-13.8,0.1-20.7,0.2c-13.6,0.1-27.2-0.4-40.8,0.2
		c-2.9-0.2-5.9-0.3-8.8-0.3c-9.1,0-18.1,0.4-27.2,0.1C502,335.5,499.5,335.9,497.7,333.9z"/>
	<path class="st2" d="M706,402.1c-6.7,4.4-14,7.4-21.6,10.1c-1.5,0.3-2.9,0.9-4.4,0.6c-2.4-1.8-0.6-2.7,0.8-3.5
		c2.1-1.2,4.5-1.9,6.7-3c1.4-0.7,2.7-1.6,0.7-3.2c-6.8-5.8-12.5-12.5-18-19.5c-0.2-1.5-1.7-3.4,1.2-4c0.5,0.1,0.9,0.3,1.3,0.6
		c5.5,6.5,12,11.9,17.5,18.2c0.7,0.8,1.6,1.1,2.6,1.3c1.6,0.2,3.2,0.2,4.8,0.1c3.6,0,6.4-2.1,9.4-3.7c1.7-0.9,1.6-2.2,0.7-3.7
		c-0.2-0.4-0.2-0.9-0.2-1.4c0.2-0.8,0.6-1.2,1.4-1.5c1-0.1,1.8,0.3,2.7,0.8c5.6,1.7,13.6-2.2,15.4-7.5c-0.6-1.9-2.3-3-3.6-4.4
		c-1.1-1.4-2.9-2.3-2.5-4.5c0.4-0.3,0.8-0.4,1.3-0.5c3,0.7,4.4,3.4,6.6,5.1c2,2.4,4.5,2.5,7.2,1.4c3-1.3,5.3-3.4,7.8-5.3
		c1.5-1.2,1.4-2.5,0.4-3.9c-1-1.5-2.7-2.6-2.7-4.7c0.2-0.7,0.6-1.2,1.3-1.4c2.5-0.1,3.1,2.4,4.8,3.4c1.3,1,2.7,1.9,4.5,1.2
		c2.7-0.8,4.8-2.5,6.9-4.3c0.3-0.3,0.7-0.5,1.1-0.8c1.6-0.8,3.2-1.7,4.6-2.8c1.7-1,3.2-0.8,4.5,0.6c0.2,0.5,0.1,0.9-0.1,1.3
		c-4.7,3.7-9.7,7.1-14.9,10.2c-2.1,1.2-4.2,2.6-6.2,4c-2.7,2.5-6.3,3.6-9.1,6.1c-8.7,5.1-17.5,10.2-26.4,15
		C710.3,399.6,707.9,400.2,706,402.1z"/>
	<path class="st3" d="M799,331c2.7-0.5,6,1.3,8-2c0.5-1.5,1.9-2.1,2.9-3.1l0,0.1c3.7-2.6,6.5-6.2,9.9-9.3
		c7.7-7.6,15.1-15.5,23.1-22.8c0-0.3,0.1-0.6,0.2-0.9c6-5.6,11.1-12.1,16.4-18.4c1.4-1.6,2.7-3.3,4.2-4.8c2.4-3.5,4.2-7.5,8.3-9.5
		c0.7-0.1,1.4,0.1,2,0.5c0,3.3-2.6,5.2-4.3,7.5c-5.7,7.3-11.6,14.4-17.8,21.3c-4.7,6.4-10.4,11.8-15.8,17.5
		c-1.2,1.3-2.5,2.6-3.2,4.3c-3.2,4.5-7,8.3-11.5,11.5c-2.8,1.2-4.7,3.5-6.8,5.5c1.3,1.2,2.6,0.6,3.6,0.9c1.9,0.5,3.9,0.2,5.7,1.2
		c0.9,0.7,1.4,1.4,1.1,2.6c-3.7,1.6-7.6,0.9-11.5,1c-4.6,0.1-8.4,1.1-12.1,4.4c-7.4,6.5-15,12.8-23.6,17.8c-1.1,0.4-1.9,0.2-2.4-0.8
		c-0.3-2.1,1.5-2.7,2.7-3.6c1.6-1.3,2.9-2.6,2.2-4.9c0.1-0.7,0.6-1.2,1.3-1.5c5.3,0.9,8.1-3.1,11.6-5.9c1.7-1.5,4.4-2.4,3.2-5.5
		C796.5,332.3,797.9,331.8,799,331z"/>
	<path class="st4" d="M923.9,171.8c3.5-0.7,3.9-0.4,3.9,4c0.1,9.8,0,19.6,0,29.5c0.1,26.3-0.2,52.6,0.4,78.8
		c0.3,14.8,0.5,29.6,0.6,44.4c0,1.5,0.9,3.3-0.9,4.5c-2.1-2.3-1.4-5.2-1.5-7.9c-0.1-2.8-0.1-5.5-0.6-8.3c-0.8-11.5-0.2-23-0.4-34.4
		c-0.1-6.3,0.2-12.6-0.5-18.9c0.5-8.5,0.1-16.9-0.3-25.4c0.7-12.4-0.4-24.7-0.2-37.1c0-0.8-0.4-1.6-0.8-2.3c-1.8-3.4,0-7.6-1.9-11.1
		c-1.9,0.2-1.8,2.7-3.6,2.6c-1-0.5-1.4-1.3-1.6-2.3C918.2,182.2,922.1,177.5,923.9,171.8z"/>
	<path class="st5" d="M497.7,333.9c11.4,0.1,22.9,0.1,34.3,0.2c0.7,1.4,0.2,2.5-1.4,2.2c-2.6-0.5-5.2,0.7-7.5,0.1
		c-0.9,0,0.1,1.1-0.2,0.5c-0.1-0.1,0-0.2,0.3-0.2c5.7-0.4,11.4-1.5,17.2-0.8c5.3,1.3,7.5,3.6,7.7,8.1c-0.8,0.3-1.8,0.3-2.3-0.3
		c-4.4-5.3-10.5-4.4-16.3-4.4c-2.3-0.1-4.6-0.2-6.9,0c-1.5,0.2-1.5,0.9-0.6,1.9c0.6,0.6,1.2,1.3,1.7,2c1.3,1.9,2.8,3.5,4.7,4.8
		c1.3,0.9,2.4,1.9,3.2,3.2c0.8,1.3,1.8,2.3,2.8,3.3c0.7,0.7,1.5,1.5,2.1,2.4c0.7,1.1,1.6,1.9,2.7,2.6c1.8,1.5,3.5,3.2,5,5.1
		c0.7,1.3,1.8,2.3,3.1,3.1c1.6,1.3,3,2.7,4.2,4.3c0.6,1.3,1.6,2.7,0.2,3.9c-1,0.9-2.1-0.2-3.1-0.7c-0.4-0.3-0.7-0.6-1-0.9
		c-0.5-1-1.4-1.7-2.4-2.1c-7.4-6.8-14.5-13.9-21.1-21.5c-0.7-2.1-2.2-3.6-3.7-5c-0.9-0.9-2-1.5-3.1-2c-0.6-0.4-1-0.8-1.3-1.4
		c-0.8-1.9-2.2-3.1-4.2-3.6c-5.8,0.5-11.5,1-17.3-0.1c-1.3-2.2-4.1-2-5.8-3.7C491.7,333.2,494.7,333.8,497.7,333.9z"/>
	<path class="st6" d="M778,356c8.7-6.8,17.5-13.6,26-20.6c2.5-2,5.4-1.5,8-2c4.2-0.7,8.6-0.3,13-0.4c2.4-2.2,5.5-2.3,8.4-2.2
		c9.4,0.3,18.7,0.6,28.1,0.2c14.6-0.6,29.2-0.3,43.7-0.4c0.6,0,1.2,0,1.8,0c2.9,0,5.9-0.1,8.8,0c2,0.1,4.1-0.1,6.2,0.3
		c1.1,0.4,2.5,0.6,1.9,2.3c-27,1.2-54.1,0.1-81.1,1.2c-10.6,0.4-21.2,0.3-31.9,0.6c-4.2,0.1-7.8,1.5-9.2,6c-1.9,1.2-3.3,3.3-5.8,3.6
		c-4.3,3.2-8.7,6.5-12.9,9.8c-1.2,0.9-2.2,2.1-3.9,1.8C778.7,356.4,778.3,356.4,778,356z"/>
	<path class="st2" d="M580,445.9c-11,3.6-22.4,4.9-33.7,6.8c-17.2,3-34.7,4.5-52.2,5.5c-1.8-1.7-1.5-3.7-0.8-5.7
		c4.9,1.6,9.9-1,14.8,0.4c0.5,0.6-0.1,1.4,0.3,2c4.6-2.6,9.6-0.7,14.4-1.5c14.5-1.8,28.7-4.9,43.2-7c4.5-0.6,8.8-3.1,13.6-2
		C580.2,444.9,580.3,445.3,580,445.9z"/>
	<path class="st7" d="M923.9,171.8c-0.4,6.2-5.1,10.6-6.9,16.2c0.4,1.8-0.5,3.2-1.2,4.7c-8.5,18.3-19.3,35.3-31,51.6
		c-2.5,3.5-4,7.8-8,10c-0.9,0-1.3-0.5-1.5-1.3c17.3-22.8,31.8-47.4,44-73.3C920.5,177,922.3,174.5,923.9,171.8z"/>
	<path class="st8" d="M679,412c1.8,0,3.6,0.1,5.4,0.1c-15.3,7.2-31,13.6-47.4,17.9c-0.6-1.6-1.8-1.3-3.2-1.3c-2.2,0-4.5-0.3-4.1-3.6
		c4.7-0.6,9.4-1.2,13.8-3.2c2-0.9,3.4-1.9,2.8-4.4c0.8-2.5-3.2-4.1-1.2-6.8c3.4,0.5,5,2.7,5.7,5.8c2.1,6.1,2.1,6.2-4.6,8.3
		c-1.4,0.4-2.7,1.1-4.1,1.5c12.1-4.5,24.1-9.6,36.2-14.2C678.5,412.1,678.8,412.1,679,412z"/>
	<path class="st9" d="M630,425c0.8,2.8,2.6,3.3,5.2,2.4c3.4-1.2,1.6,1.4,1.8,2.6c-0.6,1.2-1.8,0.9-2.8,1.1
		c-6.2,1.8-12.4,3.7-18.7,5.3c-2.1-0.1-4-0.9-5.6-2.3c1.1-3.9,4.6-1.6,6.9-2.6c0.4-0.1,0.9-0.3,1.3-0.4c2-0.3,3.9-0.6,5.4-2.2
		c2.3-1.3,1.8-2.6,0.2-4.2c-2.9-2.9-5.9-5.7-7.9-9.3c0.2-1.5,1.2-2,2.5-2.1c0.5,0,0.9,0.2,1.3,0.4c1.9,1.3,3.2,3.3,5.3,4.2
		C627.3,419.8,630,421.5,630,425z"/>
	<path class="st10" d="M488.9,422.3c-0.1-0.1-0.3-0.3-0.3-0.4c1.3-14.4-1.5-28.8,0.3-43.1c0.5-3.7-0.7-7.2-0.9-10.9
		c-0.4-8.3,1.8-16.5,0.2-24.7c-0.3-1.4,0-3-1.2-4.2c0.8-0.6,1.6-0.6,2.4,0.1c2.1,5.1,2.5,10.3,1.7,15.7c-1,5.3-0.1,10.7,0,16.1
		c0.1,4.4,0.6,8.8,0,13.3c-0.7,2.2-1,4.5-0.3,6.8c0.3,1.3-0.1,2.7,0.2,4c0.8,5.9,0.4,11.9,0.4,17.8c-0.1,2.3,0.1,4.6-0.5,6.9
		C490.5,420.7,490,421.8,488.9,422.3z"/>
	<path class="st11" d="M642.1,473.3c0.5-1.4,1.3-1.4,1.8-1.2c3.7,1,7.4,3.8,11.2,0c0.4-0.4,1.6,0,1.8,1.1c0.2,1.2-0.2,2.1-1.5,1.9
		c-4.2-0.5-5,2.5-5.4,5.5c-0.4,3.5,0.8,6.5,4.7,7.7c-2.4,3.6-4.1,3.6-6.7,0.1c-1.8-2.6-2.5-4.7-2-7.8
		C646.7,477.3,645.5,474.4,642.1,473.3z"/>
	<path class="st12" d="M408.7,330.1c-1-0.5-0.7-1.3-0.7-2.1c0.4-0.8,0.8-1.4,1.8-1c3.4,6.3,5.6,12.8,3,20c-1.4,3.9-4.1,6.6-7.7,9
		c3.9-6.1,5.3-12.7,4.6-19.7C408.8,334.4,410.5,331.9,408.7,330.1z"/>
	<path class="st13" d="M494,452c0,2.1,0.1,4.2,0.1,6.3c0,1.6-0.1,3.3-0.1,4.9c0,1.4,0.4,2.9-2.1,2.9c-2.5,0-1.9-1.7-1.9-3
		c0-1,0-2,0-3c-1-4.7-0.4-9.4-0.4-14.1c0-3.7,2-4.1,4.8-2.2C495.7,446.6,496,449.4,494,452z"/>
	<path class="st14" d="M395.9,599.9c1.1-4.4,3.1-8.3,7-10.9c3.9-1,1.9,1.9,2.2,3.3c-1.8,5-4.8,9.7-3.8,15.3
		c-0.2,1.3,0.8,3.1-1.1,3.7c-1.7,0.5-2.4-1.2-3.3-2.3l0,0C395.7,606.1,394.8,603.1,395.9,599.9z"/>
	<path class="st15" d="M563.9,492c-1.9-5.9,1.4-13-3.7-18.3c-0.8-0.8,0.1-1.4,1-1.7c2.1-0.5,4.2-0.5,4.7,2.1
		c0.6,3.2,0.8,6.5,1.2,9.8c0.9,1.1,2.5,0,3.3,1.1c-1.2,2.7-2.9,5.1-5.2,7C564.7,492.5,564.3,492.4,563.9,492z"/>
	<path class="st16" d="M664.1,472c-0.2-1.4-0.5-2.8,0.4-4.3c6.7,9,7.6,16.1,1.3,27.2c-2.4,0.9-2.4-0.4-1.9-2.1
		c0.1-0.9,0.2-1.9,0.3-2.8C666.3,484,666.4,478,664.1,472z"/>
	<path class="st17" d="M930.9,579.1c0,1.4,0.3,2.8-0.9,3.9c-2.3,3.8,0.7,4.1,3.1,4.8c0.4,0.6,0.5,1.2,0.2,1.9
		c-1.4,1.3-3.9,0.5-4.9,2.5c-2.5,3.8-3.1,8.1-2.8,12.5c-0.4,1.6-1.2,2.2-2.8,1.3c-0.3-0.3-0.6-0.6-0.9-0.9c-0.7-2.1-0.7-4.2,0-6.3
		c0.1-0.6,0.2-1.2,0.2-1.9c1.8-4.5,2.7-9.3,3.8-14c0-0.6-0.1-1.3-0.1-1.9C926.1,576.6,928.9,578.9,930.9,579.1z"/>
	<path class="st18" d="M810,376.6c0,2.6,0,5.3,0,7.9c0,1.4-0.4,2.1-2,2.1c-1.5,0-2.1-0.6-2.1-2c0-5.3,0-10.6,0-15.8
		c0-1.7,0.9-1.7,2.2-1.8c1.7-0.1,1.8,0.9,1.8,2.2C810,371.6,810,374.1,810,376.6z"/>
	<path class="st19" d="M383,331.1c0.1,0.3,0,0.6-0.2,0.9c-0.6,4.7-0.7,9.3,0,14c-0.7,3.6,2.5,5.8,3.1,8.9c0.2,0.3,0.3,0.5,0.2,0.8
		c-0.1,0.2-0.2,0.4-0.3,0.4c-6.9-5.8-9.5-13.7-6.9-21.1c0.6-2,0.8-4.1,1.9-6l0,0c0.4-0.7,1.1-1.4,1.9-0.9
		C383.9,328.9,383.6,330.1,383,331.1z"/>
	<path class="st18" d="M806,482.5c0-2.3,0-4.6,0-6.9c0-1.3-0.2-2.6,1.9-2.6c1.9,0,2.2,0.8,2.1,2.4c-0.1,4.9,0,9.9,0,14.8
		c0,1.5-0.3,2.5-2.2,2.4c-2.1-0.1-1.9-1.4-1.9-2.7C806,487.4,806,484.9,806,482.5z"/>
	<path class="st18" d="M494,482.9c0,2.3,0,4.6,0,6.9c0,1.3,0.2,2.6-1.8,2.7c-2.4,0.1-2.2-1.4-2.2-2.9c0-4.8,0-9.6,0-14.3
		c0-1.5,0.2-2.4,2.1-2.4c2.1,0,1.9,1.2,1.9,2.6C494,478,494,480.5,494,482.9z"/>
	<path class="st18" d="M806,429.5c0-2.3,0-4.6,0-6.9c0-1.3-0.2-2.6,1.9-2.6c1.8,0,2.2,0.7,2.2,2.3c-0.1,4.9,0,9.9,0,14.8
		c0,1.5-0.2,2.5-2.1,2.5c-2,0-1.9-1.3-1.9-2.7C806,434.5,806,432,806,429.5z"/>
	<path class="st18" d="M806,349.9c0-2.5,0-5,0-7.4c0-1.4,0.4-2.1,2-2.1c1.4,0.1,2.1,0.5,2.1,2c0,5.3-0.1,10.6,0,15.8
		c0,1.7-1,1.7-2.2,1.7c-1.2,0-1.8-0.4-1.8-1.7C806,355.5,806,352.7,806,349.9C806,349.9,806,349.9,806,349.9z"/>
	<path class="st20" d="M489,339c-0.7,0-1.4,0-2.1,0c-3.5,0-7-0.1-10.5,0c-1.6,0-2.4-0.4-2.3-2.3c0.1-1.7,1.1-1.8,2.3-1.8
		c4.2,0,8.3,0,12.5,0c1.8,0.8,5.5-1.5,5.1,3c-0.3,1.1-1.1,1.6-2.2,1.9C490.7,340,489.8,339.8,489,339z"/>
	<path class="st21" d="M506,598c0,1.2-0.1,2.3-0.1,3.5c-0.1,6.4-0.1,6.4-6.4,5c-1.4-0.3-2.5,0.7-3.7,1c-2.1,0.4-4.6,1.8-5.8-1.4
		c0.9-3.3,1.2-6.8,1.8-10.2c0.3-1.9,1.8-2.9,3.2-3.9c1-0.7,1.8-0.5,2.4,0.5c0,2.6-1.5,4.7-2.2,7c-0.3,1.1-1,2.3,0.2,3.1
		c1,0.7,1.8-0.2,2.6-0.8c1-0.6,1.8-1.5,3.1-1.1c0.9,0.9,0.5,2.2,1.3,3.3C504,602.3,502.4,598.5,506,598z"/>
	<path d="M810,403.6c0,2.5,0,5,0,7.5c0,1.5-0.5,2-2,2c-1.5,0-2-0.6-2-2c0-5.1,0-10.3,0-15.4c0-1.5,0.5-2,2-2c1.5,0,2,0.6,2,2
		C810,398.2,810,400.9,810,403.6z"/>
	<path d="M810,509.5c0,2.5,0,5,0,7.5c0,1.5-0.5,2-2,2c-1.5,0-2-0.5-2-2c0.1-5.1,0-10.3,0-15.4c0-1.4,0.4-2.1,2-2.1
		c1.5,0,2.1,0.6,2,2C810,504.2,810,506.9,810,509.5z"/>
	<path d="M494,509.8c0,2.5,0,5,0,7.5c0,1.2-0.5,1.8-1.8,1.7c-1.3,0-2.3,0-2.3-1.8c0.1-5.3,0-10.6,0-15.9c0-1.2,0.5-1.8,1.8-1.8
		c1.3,0,2.3,0.1,2.2,1.8C493.9,504.2,494,507,494,509.8z"/>
	<path d="M810,535.9c0,2.5,0,5,0,7.5c0,1.4-0.3,2.1-1.9,2.1c-1.4,0-2.1-0.4-2.1-2c0-5.1,0-10.3,0-15.4c0-1.4,0.4-2,1.9-2.1
		c2-0.1,2.1,0.9,2.1,2.4C810,530.9,810,533.4,810,535.9z"/>
	<path d="M810,456.5c0,2.5,0,5,0,7.5c0,1.5-0.5,2-2,2c-1.5,0-2-0.5-2-2c0.1-5.1,0-10.3,0-15.4c0-1.4,0.4-2.1,2-2.1
		c1.5,0,2.1,0.6,2,2C810,451.2,810,453.9,810,456.5z"/>
	<path class="st18" d="M460.8,339c-2.3,0-4.7,0-7,0c-1.4,0-2.1-0.4-2.1-2c0-1.5,0.5-2.1,2-2.1c4.8,0.1,9.7,0.1,14.5,0
		c1.6,0,2.5,0.4,2.4,2.2c-0.1,1.7-1,1.8-2.3,1.8C465.8,339,463.3,339,460.8,339z"/>
	<path d="M494,536c0,2.5,0,5,0,7.5c0,1.5-0.5,2-2,2c-1.6,0-2-0.6-2-2.1c0-5.1,0-10.3,0-15.4c0-1.5,0.5-2,2-2c1.5,0,2,0.6,2,2
		C494,530.6,494,533.3,494,536z"/>
	<path class="st22" d="M494,444c-2.6-0.9-4.1-0.3-4,2.8c0.1,4.4,0,8.9,0,13.3c-1.6-4.8-0.7-9.7-0.9-14.6c-0.3-7.7-0.2-15.5-0.2-23.2
		c0.1-0.9,0.2-1.8,1.1-2.3c0.2,0.2,0.4,0.4,0.6,0.5c1.6,4.3,0.6,8.8,0.8,13.2c0.1,2.4,0,4.8,2.4,6.8c-1.5-3.1-1.3-6-0.4-9
		c1.4-1.6,2.2-0.1,3.2,0.6c0.9,1,1.7,1.9,2,3.3C496.7,438.1,497.4,442.1,494,444z"/>
	<path class="st23" d="M394.2,333c0.1-4.3,5.2-3.3,6.2-6.7c2.3,5.8-1.8,9.6-3.6,13.9c-0.6,1.3-0.4,2.5-0.7,3.7
		c-1.1,1.6,1.7,3.3,0,4.9c-3.5,2.3-4.3,0.3-3.9-2.7c0.3-2.1,1.3-4.1,2-6.2c1-2.1,1.7-4.2,1.5-6.6c0.2-0.7,0.8-0.5,1.3-0.8
		c-0.7-0.5-1.1,0.1-1.5,0.4C394.9,333.3,394.5,333.3,394.2,333z"/>
	<path class="st24" d="M923.9,333.2c-0.3-1-1-1.2-1.9-1.2c-0.3-0.3-0.5-0.6-0.6-1.1c0-0.4,0.1-0.8,0.3-1.2c0.8-1,1.1-2.2,1-3.5
		c0-0.9-0.1-1.9-0.1-2.8c0.1-2.4-0.4-4.8,0.8-7c1.5-1.4,2.5-0.1,3.5,0.7c2.1,5.2,0.4,10.7,1,16C926.7,333.9,925.4,335,923.9,333.2z"
		/>
	<path class="st25" d="M506,598c-1.3,1.6-1.9,3.5-1.9,5.5c0,1.4,1.1,3.5-1.5,3.1c-1.5-0.2-2.9-1.7-2-3.8c0.2-0.6,0.2-1.3,0.3-1.9
		c-1-3.5,1.1-6.8,0.6-10.2c0.6-1.1,1.5-1.3,2.6-0.7c3.6-0.4,4.8,1,3.1,4.4C506.7,595.5,506.4,596.8,506,598z"/>
	<path class="st26" d="M364.2,334.1c-2,7.1-3,14.6-7.1,21c-1.8,0-1.7-1-1.1-2.2c1.2-4.8,2.5-9.5,3.6-14.3c0.4-1.6,1.1-3.1-0.6-4.9
		c-1.8-1.9,0.4-2.5,2-2.9c0.5,0.5,0.7,1.1,0.8,1.7C362.1,335,362.1,335,364.2,334.1z"/>
	<path class="st27" d="M928,351.6c0,2,0,4,0,5.9c0,1.5-0.3,2.5-2.2,2.4c-1.6-0.1-1.9-0.9-1.9-2.2c0-4,0-7.9,0-11.9
		c0-1.4,0.3-2.1,1.9-2.1c1.9-0.1,2.2,0.8,2.1,2.4C927.9,348,928,349.8,928,351.6z"/>
	<path class="st20" d="M928,511.4c0,1.8,0,3.6,0,5.4c0,1.3-0.2,2.2-1.9,2.2c-1.3,0-2.2-0.2-2.2-1.8c0.1-4.1,0.1-8.2,0-12.4
		c0-1.6,0.7-1.9,2.1-1.9c1.6,0,2,0.7,1.9,2.1C928,507.1,928,509.3,928,511.4z"/>
	<path class="st20" d="M928,404.9c0,2,0,4,0,5.9c0,1.3-0.3,2.1-1.9,2.1c-1.4,0-2.1-0.4-2.1-1.9c0-4.1,0.1-8.3,0-12.4
		c0-1.6,0.8-1.8,2.2-1.9c1.6,0,1.9,0.8,1.9,2.1C928,400.9,928,402.9,928,404.9z"/>
	<path class="st18" d="M928,537.4c0,2,0,4,0,6c0,1.4-0.4,2.1-1.9,2.1c-1.4,0-2.1-0.4-2.1-2c0.1-4,0-7.9,0-11.9
		c0-1.6,0.3-2.5,2.2-2.4c1.7,0.1,1.8,1,1.8,2.3C928,533.5,928,535.4,928,537.4z"/>
	<path class="st20" d="M928,458.4c0,1.8,0,3.6,0,5.5c0,1.3-0.2,2.2-1.8,2.2c-1.3,0-2.2-0.2-2.2-1.8c0.1-4.1,0.1-8.3,0-12.4
		c0-1.6,0.7-1.9,2.1-1.9c1.6,0,2,0.7,1.9,2.1C928,454.1,928,456.2,928,458.4z"/>
	<path class="st18" d="M928,484.5c0,2.1,0,4.3,0,6.4c0,1.4-0.9,1.5-2,1.5c-1.1,0-2-0.1-2-1.5c0-4.3,0-8.6,0-12.9
		c0-1.6,0.9-1.8,2.2-1.8c1.3,0,1.8,0.6,1.8,1.8C928,480.2,928,482.3,928,484.5C928,484.5,928,484.5,928,484.5z"/>
	<path class="st27" d="M924,378.1c0-2,0-4,0-5.9c0-1.4,0.4-2.1,2-2.1c1.5,0,2,0.6,2,2c0,4.1,0,8.2,0,12.3c0,1.7-1,1.7-2.2,1.8
		c-1.2,0-1.8-0.5-1.8-1.7C924,382.4,924,380.3,924,378.1z"/>
	<path class="st27" d="M928,431.3c0,2,0,4,0,5.9c0,1.4-0.4,2.1-1.9,2.1c-1.4,0-2.1-0.4-2.1-1.9c0.1-4.1,0-8.3,0-12.4
		c0-1.5,0.8-1.9,2.2-1.9c1.7,0,1.8,1,1.8,2.2C928,427.4,928,429.3,928,431.3z"/>
	<path class="st28" d="M604.9,492.8c1.3-4.7,2.6-9.3,3.9-14c0.2,0.1,0.4,0.2,0.5,0.3c0.1,0.1,0.2,0.2,0.3,0.4
		c0.3,0.5,0.3,0.4,0.4-0.1c0.6-2.7-1.7-7.1,4-6.7c0.3,0.3,0.3,0.5,0.2,0.8c-0.1,0.3-0.2,0.4-0.3,0.4c-1.7,3.4-2.1,7.2-3.1,10.8
		c-1.1,4.1-2.4,8.3-5.8,11.3C604.3,495,604.4,493.9,604.9,492.8z"/>
	<path class="st29" d="M417,607.8c-2,1.4-3.3,3.7-6,4c-0.7-0.2-1.3-0.5-1.3-1.4c0.5-2.2,2.4-3.3,3.8-4.7c2.4-3.2,3.8-6.8,4.1-10.9
		c0.1-1.8-0.2-3.8,1.5-5.2c4.3,0.7,2.2,4.2,2.9,6.5C421.5,600.6,419.6,604.3,417,607.8z"/>
	<path class="st30" d="M581,472c7-1.8,13.9-1.3,20.8,0.9c-7,0.9-14,2.1-21,0.2c2.3-0.5,2.3-0.5,5.6,0.2
		C584.2,471.9,582.3,473.1,581,472z"/>
	<path class="st11" d="M712,398c9.1-4.8,17.5-10.8,26.9-15c0.5-0.4,0.9-0.4,1.3,0.1c-8.8,6.3-18.4,11.4-28.2,16
		c-0.3-0.2-0.4-0.5-0.3-0.7C711.8,398.1,711.9,398,712,398z"/>
	<path class="st31" d="M811.1,585c1.3,1.3,1.2,2.7,0.2,4c-3,3.9-3.9,8.2-3.1,13c0.4,2.2-0.5,4-2.9,4.3c-2,0.2-3.6-0.6-3.1-3.2
		c0.3-0.3,0.7-0.5,1.1-0.6c2.4-5.3,2.6-11.4,5.7-16.5c0.2-0.4,0.5-0.8,0.9-1.1C810.3,584.6,810.7,584.6,811.1,585z"/>
	<path class="st32" d="M864,270.1c-4.8,7.2-11.1,13.2-16.5,19.9c-1.1,1.4-2.2,3-4.4,3.1c5.9-8.2,13.1-15.4,19.7-23.1
		C863.3,269.5,863.7,269.5,864,270.1z"/>
	<path class="st33" d="M843,293.9c-7.1,8.3-14.9,15.8-22.9,23.2c-0.5,0.4-0.9,0.4-1.3-0.1c6.9-6.9,13.8-13.8,20.6-20.7
		C840.4,295.2,841.2,293.9,843,293.9z"/>
	<path class="st34" d="M1013.8,596.1c-0.5-0.5-1.1-0.8-1.3-1.4c-0.6-1.3-3.3-2.1-1.6-3.9c1.5-1.6,3.5-0.6,4.9,0.7
		c1.8,1.7,3.3,1.8,5.1,0.1c0.8-0.8,1.7-2.4,3.3-1.2c0.7,0.6,1.8,1.5,1.8,2.2c0,2-2,1.2-3.1,1.6c-1.6,0.6-2.9,1.4-3.5,3
		c-0.9-0.2-1.4-0.9-2.1-1.4c-0.9,0-1.2-2.7-2.6-0.5C1014.4,595.7,1014.1,596,1013.8,596.1z"/>
	<path class="st8" d="M778,356c0.4,0,0.8,0,1.1,0.1c-2.3,3.1-5.3,5.5-8.8,7.1c-0.5,0.4-0.9,0.3-1.3-0.2c0-0.3,0-0.7,0-1
		c-0.4-1.6-3.9-0.6-2.8-3.4c3.4-0.7,5.9-4.1,9.8-3.6C776.4,355.8,777.2,356,778,356z"/>
	<path class="st35" d="M1017.9,595.1c1,0.4,1.1,1.4,1.3,2.2c0.6,2.7-0.2,5.8,3.2,7.6c1.7,0.9,0.6,2.9-0.7,4.2
		c-1.2,1.2-2.5,1.6-3.8,0.3c-0.9-0.9-1.9-1.8-2-3.2c-0.4-0.6-0.5-1.2-0.3-1.8c1.6-1.2,1.9,0.3,2.5,1.1c0.6-0.6-0.3-1-0.3-1.5
		C1016.5,600.9,1016,598,1017.9,595.1z"/>
	<path class="st36" d="M580.9,480c0.4-1.9,0.4-2,1.9-2c4.7,0,9.5,0.1,14.2,0.2c1.1,1.1,3.8-0.9,4.1,1.9l0,0
		C594.4,480.7,587.6,480.8,580.9,480z"/>
	<path class="st37" d="M400.1,177c-0.1-1.6-0.1-3.1-0.2-4.7c-0.8-2.6-0.4-5.2-0.3-7.7c0.1-2,1-2.2,2.2-0.6c-2,2.7,2.1,4.4,1.2,7
		c0.7,0.7,1.9,0.8,2,2c-1.1,1.3-2.2,2.6-3.2,3.9C401.2,177.5,400.7,177.6,400.1,177z"/>
	<path class="st38" d="M615,436c6.4-1.8,12.5-4.5,19.2-4.9c-7.4,3.4-15.3,5.2-23.1,7.1c-0.4-0.4-0.5-0.9-0.3-1.5
		C612,435.2,613.4,435.1,615,436z"/>
	<path class="st39" d="M363.7,326.8c1.7-3.7,3.8-6.7,8.5-5.7c0.9,0.2,1.8,1,1.7,2.1c-0.1,0.8-0.8,0.8-1.5,0.8
		c-6,0.3-7.1,1.8-5.7,7.9c0.1,0.5-0.2,0.9-0.8,0.9C362.5,331.8,364.1,328.9,363.7,326.8z"/>
	<path class="st40" d="M933,590c0-0.7,0-1.3,0-2c3-1.2,3.5,1.6,5,3c0.2,0.2,0.3,0.4,0.2,0.6c1.1,3.7-0.7,6.6-2.8,9.4
		c-0.7,0.8-1.6,1.9-2.7,0.4c-0.1-0.4-0.2-0.9-0.1-1.4c0.8-1.9,1.9-3.8,0.7-6c-0.3-0.5-0.6-1.1-0.7-1.7
		C932.5,591.5,932.9,590.8,933,590z"/>
	<path class="st38" d="M580,445.9c0-0.3,0-0.6,0-0.9c1.2-1.6,3-2,4.8-2.3c7.3-1.2,14.2-4.8,21.8-4.6c0.5,0.2,1,0.5,1.3,0.9
		C598.9,442.3,589.5,444.3,580,445.9z"/>
	<path class="st15" d="M632.9,495.1c-6-6-5.4-13.5-4.7-21c3.2,1.1,1.8,3.8,2,5.9c0.2,1.8,0.1,3.6,0,5.5c0,0.1,0.1,0.3,0.3,0.4
		c0.1,0.1,0.3,0,0.5-0.1c0.4-0.1,0.7,0,0.9,0.3c0.8,2.4,0.2,5.2,2.1,7.3C634.7,494.5,634.6,495.3,632.9,495.1z"/>
	<path class="st41" d="M401.8,164c-1.1-0.4-1.8-0.4-1.8,1.1c0,2.4-0.1,4.8-0.1,7.2c-1.2-1.8-0.9-3.8-0.8-5.8c0.1-3-0.7-5.5-3.9-6.8
		c1.5-1.5,3.2-2.4,4.9-1.5C402.3,159.5,402.1,161.8,401.8,164z"/>
	<path class="st15" d="M864,270.1c-0.4-0.1-0.8-0.1-1.2-0.2c4.1-5.6,8.2-11.3,12.4-16.9c0.3,0.3,0.6,0.7,0.8,1
		c1.3,1.9-0.3,3-1.1,4.3c-0.8,1.1-1.8,2-3,2.7C868.3,263.1,866.7,267.1,864,270.1z"/>
	<path class="st42" d="M769,363c0.4,0.1,0.9,0.1,1.3,0.2c-5,4.2-10.2,8.3-16.3,10.9c-0.3-0.2-0.4-0.4-0.4-0.7
		c0.1-0.2,0.2-0.4,0.3-0.4C759,369.8,763.5,365.7,769,363z"/>
	<path class="st43" d="M363.7,326.8c2.5,1.3-0.2,4.7,2.3,6c-0.6,0.4-1.2,0.8-1.8,1.3c-0.8,1-1.7,1.9-2.9,3.3
		c-0.1-2.4-1.3-4.3-0.4-6.5C361.8,329.5,362.7,328.1,363.7,326.8z"/>
	<path class="st44" d="M421,597c-0.7-2.3,1.6-5.6-2.1-7c-1,0.5-1.7-0.1-2.4-0.6c-1-0.9-1.9-1.9-2.1-3.3c0-0.5,0.2-0.9,0.4-1.3
		c0.4-0.2,0.9-0.2,1.2,0.1c6.6,3.6,8,6.7,6,13.2C421.5,598,421.4,597.4,421,597z"/>
	<path class="st45" d="M397,609c1.2,0.2,1.8,2.1,3.1,1.4c0.3-0.2,0-1.7,0-2.6c2.9,0.8,5.7,2,8.6,2.6c1.5,0.7-0.7,1.8,0.3,2.5
		C403.7,614.9,399.9,613.6,397,609z"/>
	<path class="st46" d="M1016,604c0,0.7,0,1.4,0,2.1c-2.6-1.7-3.1,1.3-4.7,2c-1.3,1.1-2.6,2-4.4,0.9c-1.3-1.3-1.8-3.1,0.5-2.9
		c3.7,0.3,4.6-2.5,6.4-4.4c0.6,0.1,1,0.4,1.4,0.8C1015.7,603,1016,603.5,1016,604z"/>
	<path class="st47" d="M415.1,585.2c-0.1,0.3-0.2,0.7-0.3,1c-4.2,0.8-6.8,4.7-10.9,5.8c-0.4-1,1.5-2.8-1-3.1
		c1.9-2.6,4.5-3.9,7.8-4.1C412.3,584.5,413.8,584,415.1,585.2z"/>
	<path class="st31" d="M803.9,595c-0.2-2.3,0.9-4.5,0-7c-0.6-1.9,2.7-2.5,4-4c1.1-0.6,2-0.8,2,0.9l-0.1,0.1
		c-2.7,2.8-2.9,6.8-4.7,9.9C804.8,595.3,804.4,595.2,803.9,595z"/>
	<path class="st48" d="M932.9,599.9c0.3,2,1.3,1.6,2.1,0.5c1.9-2.6,3.2-5.4,3.1-8.7c2.5,5.9-1.5,9.1-5.1,12.5
		c-1.1,0.7-2,0.4-2.5-0.8C930.5,601.6,930.8,600.1,932.9,599.9z"/>
	<path class="st49" d="M355.9,352.9c0.1,0.9,0.2,1.7,1.1,2.2c-4.2,4.8-6,5.2-9.3,1.5C350.6,355.4,354.7,356.9,355.9,352.9z"/>
	<path class="st35" d="M614,474c0-0.3,0-0.7,0-1c-1.7-0.7,0.2-3.1-1.7-3.7c-0.1-0.1-0.3-0.2-0.4-0.3c0.1-2.5,1.9-4.1,3.3-5.9
		c1.1-0.7,1.8-0.7,1.8,0.9c-1,2.6-2.6,5-1.3,8.1C616.1,472.9,615,473.7,614,474z"/>
	<path class="st15" d="M628.2,473c0.9-1.7,1.8-3.4,2.7-5.1c1.9-0.1,1.8,0.9,1.2,2.2c-0.1,0.6-0.2,1.3-0.2,1.9
		c-0.9,3.6,0.2,7.3-0.6,10.9c-3,0-1.4-2.3-1.6-3.6C629.1,477.3,630.5,474.8,628.2,473z"/>
	<path class="st50" d="M604.9,492.8c0,1.1,0.1,2.2,0.1,3.3c-1.3,2.1-3.3,3-5.6,3c-1.2,0-2.3-0.9-2.2-2.1c0.1-1.2,1.2-2.2,2.4-1.4
		C603.4,498.3,603.4,494.2,604.9,492.8z"/>
	<path class="st51" d="M491.7,595.8c0.9,3.7,1.5,7.3-1.8,10.2l0,0c-0.8-2.4-0.7-4.7,0.1-7C489.8,597.5,490.7,596.6,491.7,595.8z"/>
	<path class="st52" d="M628.2,473c2.4,0.5,1.7,2.4,1.8,3.9c0.2,2.1-0.7,4.3,0.9,6.2c0.9,0.9,0.8,1.9,0.1,2.9c0,0.5,0,1-0.1,1.5
		c-0.4,1.2-0.8,0.5-1.2-0.1c-1.1-2-0.6-4.1-0.8-6.2c-0.2-2.4,0.8-4.9-0.8-7.1C628.2,473.7,628.2,473.4,628.2,473z"/>
	<path class="st53" d="M573.9,476.8c-0.1-1.7-3.3-2.9-1-5.1c1-1,1.9-0.3,2.5,0.4c1.6,1.9,1.8,3.8-0.3,5.5c-0.1,0.1-0.1,0.3-0.2,0.4
		C573.9,478.1,573.4,477.8,573.9,476.8z"/>
	<path class="st54" d="M580.9,480c6.7,0,13.5,0,20.2,0C594.4,481.3,587.6,481.5,580.9,480z"/>
	<path class="st42" d="M740.3,383.1c-0.4,0-0.9-0.1-1.3-0.1c2.3-3.1,5.9-4.3,9.1-6c0.5-0.4,0.9-0.4,1.2,0.2
		C746.6,379.7,743.8,381.9,740.3,383.1z"/>
	<path class="st37" d="M664.1,472c1.1,0.2,1.8,0.8,1.8,2c0,4.7,0,9.3,0,14c0,1.2-0.7,1.8-1.8,2C665.6,484,665.7,478,664.1,472z"/>
	<path class="st55" d="M938,591c-1.8-0.8-2.6-3.1-5-3c-1.8,0-3.6,0.2-4.5-2c-0.6-1.7,0.2-2.4,1.5-3c-0.4,2.5,0.7,3.6,3.2,3.9
		C935.7,587.2,937.8,588.1,938,591z"/>
	<path class="st56" d="M926,583c-0.3,4.9-0.6,9.9-3.8,14C922.7,592.1,924.1,587.5,926,583z"/>
	<path class="st57" d="M562.2,495c-1.3,1.3-2.3,2.8-3.8,3.8c-0.9,0.6-2.7,1.1-3.2-0.8c-0.4-1.4,0.6-2,2-2.1c1.3-0.1,2.5-0.6,3.7-0.9
		C561.4,494.5,561.8,494.5,562.2,495z"/>
	<path class="st58" d="M410.3,164.9c-0.4-1.6-0.2-2.8-1.4-3.6c-1-0.6-1.2-1.7-0.8-2.6c0.2-0.4,1.1-0.7,1.6-0.6
		c1.4,0.1,1.9,1.2,2.1,2.4C412.3,162,411.3,163.3,410.3,164.9z"/>
	<path class="st59" d="M383,331.1c-0.3-1.1,0.6-3.3-2-2.1c1.1-2.2,1.6-4.7,3.9-6c1.1-0.3,1.4,0.2,1.1,1.2
		C385.1,326.5,384.1,328.8,383,331.1z"/>
	<path class="st60" d="M818.8,316.9c0.4,0,0.8,0.1,1.3,0.1c-3.1,3.2-5.5,7.4-10.1,8.9C812.9,323,815.9,319.9,818.8,316.9z"/>
	<path class="st61" d="M573.9,476.8c0.3,0.4,0.7,0.8,1,1.2c-0.1,3.2-2.4,5.1-4.5,7.1c-1.2-0.1-2.6,0.4-3.3-1.1
		C572.3,484.5,571.5,479.1,573.9,476.8z"/>
	<path class="st62" d="M795.9,344.5c1.5-1.9,3-3.8,5.8-3.6C801.9,343.4,798.6,345.4,795.9,344.5z"/>
	<path class="st28" d="M608.8,478.8c0.1-1,0.6-2.3,0.2-2.9c-3-4.1,0.3-5.4,2.9-7c0.1,0.2,0.2,0.3,0.3,0.5c-0.4,3.5-1.6,6.7-2.9,9.8
		C609.1,479.1,609,478.9,608.8,478.8z"/>
	<path class="st63" d="M405,173c-0.9-0.4-1.9-0.8-2-2c1.8,0.9,2.2-0.9,3-1.7c0.9-0.8,1.6-1.9,2.9-3.5
		C408.6,169.4,406.9,171.2,405,173z"/>
	<path class="st64" d="M504.1,589.9c-0.7,0.4-1.4,0.8-2.1,1.1c-1.5,1.1-2.9,2.4-5,1.7c-0.7-0.3-1.3-0.5-2-0.8
		C497.6,589.7,500.4,587.9,504.1,589.9z"/>
	<path class="st65" d="M421,597c0.3,0.4,0.7,0.8,1,1.2c-0.7,3.7-1.7,7.3-5.1,9.7C417.9,604,421.2,601.2,421,597z"/>
	<path class="st66" d="M663.9,492.9c0.2,1.1,0.5,2,1.9,2.1c-1.6,1.7-3.1,3.4-6.8,4.5C661.1,496.5,662.5,494.7,663.9,492.9z"/>
	<path class="st67" d="M382.9,346c-1.5-4.7-1.5-9.3,0-14C382.9,336.7,382.9,341.3,382.9,346z"/>
	<path class="st41" d="M631,486c0-1-0.1-1.9-0.1-2.9c0.6-3.7-0.9-7.5,0.9-11.1c0,4.7,0.1,9.3,0.1,14C631.6,486,631.3,486,631,486z"
		/>
	<path class="st68" d="M643.5,488.5c-1.5,1.4-2.6,3.4-4.8,1.8c-0.6-0.4-1.1-1.2-0.6-1.6C639.8,487,641.7,488.5,643.5,488.5z"/>
	<path class="st69" d="M803.9,595c0.4,0,0.7,0,1.1,0c0.3,2.9,0,5.7-2,8c-0.3,0-0.5,0-0.8,0C801.7,600.1,802.6,597.5,803.9,595z"/>
	<path class="st70" d="M659.9,463.4c2.4-0.6,3.6,0.5,4.3,2.2c0.3,0.6-0.1,1.5-0.8,1.4C661.5,466.7,660.5,465.3,659.9,463.4z"/>
	<path class="st54" d="M619,461.2c0.9-0.5,1.8-0.6,2.7,0c1.3,0.8,1.9,2.2,1,3.2c-1.4,1.4-2.1-0.3-2.8-1.3
		C619.6,462.5,618.5,462.2,619,461.2z"/>
	<path class="st71" d="M930.9,602.9c0.7,0.4,1.4,0.8,2.2,1.2c-1.4,0.7-2.5,2-4.2,1.7c-0.8-0.9-3.5,0.8-2.9-2.1
		C927.5,602.7,929.1,601.8,930.9,602.9z"/>
	<path class="st4" d="M749.2,377.1c-0.4-0.1-0.8-0.1-1.2-0.2c1.5-2,3.6-3.1,5.9-3.9c0,0.4,0,0.7,0.1,1.1
		C752.6,375.4,751.2,376.7,749.2,377.1z"/>
	<path class="st72" d="M396,348.9c0.2-1.6-2.1-3.3,0-4.9C395.9,345.6,401.1,347.3,396,348.9z"/>
	<path class="st45" d="M395.9,599.9c0.3,3,0.7,6.1,1,9.1C394.7,606.2,394.2,603.2,395.9,599.9z"/>
	<path class="st73" d="M409.9,327c-0.6,0.3-1.2,0.7-1.8,1c-0.8-1.3-2.3-2.1-2.2-3.8c-0.5-1,0.1-1.2,0.9-1.1
		C407.9,324.4,408.9,325.7,409.9,327z"/>
	<path class="st74" d="M712,398c0,0.4,0,0.7,0,1.1c-1.7,1.6-3.8,2.5-6,3C707,399.2,709.9,399.1,712,398z"/>
	<path class="st41" d="M632,470.1c-0.1-0.9-0.3-1.7-1.2-2.2c0.1-1.4,0.8-2.4,2.1-3c1-0.3,1.4,0.1,1.1,1.1
		C633.9,467.7,633.2,469,632,470.1z"/>
	<path class="st75" d="M634,466.1c-0.4-0.4-0.7-0.7-1.1-1.1c1-1.1,1.9-2.4,3.8-2.7C636.7,464.4,635.1,465,634,466.1z"/>
	<path class="st76" d="M393,184.9c-1.6,0.4-2.3-0.5-1.8-1.8c0.7-1.9,2.5-0.8,3.8-0.9C395.5,183.9,393.9,184.2,393,184.9z"/>
	<path class="st72" d="M396,333.1c0.1,2.5,0.3,5.1-1.9,6.9c-0.3-2.3,2.1-4.6,0.1-7c0.3,0,0.6,0,0.9,0
		C395.5,332.6,395.7,332.6,396,333.1z"/>
	<path class="st77" d="M632.9,495.1c0.8-0.3,1-1,1.1-1.8c1,1.4,2.1,2.7,3.5,4.6C634.6,498.2,634,496.2,632.9,495.1z"/>
	<path class="st56" d="M925.9,604.2c0.5,1.5,2.2,0.6,3,1.6c-2,0-3.9,2.8-6,0.2c1.3-0.1,2.1-0.6,2.1-2c0.2-0.1,0.4-0.2,0.6-0.2
		C925.6,603.9,925.7,604.1,925.9,604.2z"/>
	<path class="st21" d="M490,599c0,2.3,0,4.7-0.1,7C487.6,603.7,488.5,601.4,490,599z"/>
	<path class="st78" d="M930.9,579.1c-1.9,0.1-4.4-1.6-5,1.9c-0.8-0.7-1.4-1.9-0.4-2.4C927.2,577.9,929.3,576.7,930.9,579.1z"/>
	<path class="st79" d="M386.1,324.2c-0.4-0.4-0.8-0.8-1.1-1.2c1-1,1.9-2.1,3.8-1.7C388.8,323.2,387.1,323.4,386.1,324.2z"/>
	<path class="st7" d="M581,472c1.6,0.4,3.5-0.5,5.4,0.8c-2.2,0.1-3.9,0.2-5.7,0.3C579.7,472.5,580,472.2,581,472z"/>
	<path class="st59" d="M381,329c0,2.2-0.7,4.2-1.9,6C378.6,332.6,379.5,330.7,381,329z"/>
	<path class="st35" d="M1015,603c-0.4-0.4-0.8-0.8-1.1-1.2c0-1.9-0.1-3.8-0.1-5.6c0.2-0.1,0.4-0.1,0.5-0.2
		C1017.3,598,1016.6,600.5,1015,603z"/>
	<path class="st80" d="M406.9,323c-0.3,0.4-0.6,0.8-0.9,1.1c-0.9-0.8-1.9-1.7-3-2.7C405.1,320.6,406.2,321.3,406.9,323z"/>
	<path class="st81" d="M619,461.2c0.3,0.6,0.6,1.3,0.9,1.9c-1.3-0.8-1.9,0.7-3,0.8c-0.6-0.3-1.2-0.6-1.8-0.9
		C615.9,461.3,618,462.3,619,461.2z"/>
	<path class="st54" d="M601.1,480.1c-0.9-1.7-3.1-0.5-4.1-1.9C598.4,478.9,601.4,475.9,601.1,480.1z"/>
	<path class="st82" d="M562.2,495c-0.4,0-0.9-0.1-1.3-0.1c1-1,2-2,3-3c0.4,0,0.8,0,1.2,0.1C564.6,493.5,563.6,494.4,562.2,495z"/>
	<path class="st73" d="M408.7,330.1c2.3,1.7,0.9,4.1,1.2,6.2C409.5,334.2,409.1,332.2,408.7,330.1z"/>
	<path class="st83" d="M810,584.9c-0.7-0.3-1.4-0.6-2-0.9c0.6-0.7,0.9-2,2-1.8c1.6,0.3,0.9,1.8,1.1,2.8
		C810.7,585,810.4,584.9,810,584.9z"/>
	<path class="st56" d="M921.9,598.9c0,2.1,0,4.2,0,6.3C920.3,603,920.5,601,921.9,598.9z"/>
	<path class="st84" d="M386,356c0-0.4,0-0.8,0.1-1.1c1.6,0.1,2.8,0.6,3,3C387.7,357.4,386.6,357.3,386,356z"/>
	<path class="st85" d="M393,184.9c0.7-0.9,1.3-1.8,2-2.7c0.3-0.2,0.6-0.2,1-0.2c0.5-0.4,1-0.4,1.5,0.1
		C396.2,183.4,395.1,185,393,184.9z"/>
	<path class="st86" d="M809.9,325.9c-0.5,1.5-1.7,2.3-2.9,3.1c-0.4,0-0.7-0.1-1.1-0.1C807.1,327.7,808.1,326.2,809.9,325.9z"/>
	<path class="st87" d="M409,613c-0.6-0.1-1.3-0.2-1.9-0.3c0.7-0.5,1.3-1.1,2-1.6c0.2-0.4,0.5-0.4,0.8-0.2c0.4,0.3,0.8,0.6,1.1,0.9
		C410.3,612.2,409.6,612.6,409,613z"/>
	<path class="st88" d="M415.1,585.2c-1.5-0.1-2.9-0.2-4.4-0.3c1.8-1.1,3.6-1.1,5.3,0.1C415.8,585.1,415.5,585.2,415.1,585.2z"/>
	<path class="st5" d="M608,439c-0.3-0.1-0.6-0.1-0.9-0.2c0.6-2.3,2.2-2.3,4-1.8c0,0.4,0,0.8,0.1,1.2C610.2,439.3,609,438.8,608,439z
		"/>
	<path class="st89" d="M397.3,182.1c-0.5,0-1-0.1-1.5-0.1c1-1,2.1-2,3.1-3c0.5,0.4,0.5,0.8,0.1,1.2
		C398.5,180.8,397.9,181.4,397.3,182.1z"/>
	<path class="st90" d="M399,180.1c0-0.4,0-0.8-0.1-1.2c0.4-0.6,0.8-1.3,1.1-1.9c0.6,0,1.1,0,1.7,0
		C401.3,178.4,400.6,179.6,399,180.1z"/>
	<path class="st91" d="M1006.9,609c1.5-0.3,2.9-0.6,4.4-0.9C1010.3,610.4,1008.7,610.4,1006.9,609z"/>
	<path class="st92" d="M799,331c-0.7,1-1.3,2-2,3c-2.4,2.1-5.4,1.1-8.1,1.3c-2.5,0.2-5-0.1-7.4,0.1c-1.7,0.1-4.1-0.8-4.9,1.3
		c-0.8,2,1.7,2.9,2.7,4.3c1.1,1.6,3.3,2.6,2.7,5.1c-0.3,0.3-0.7,0.7-1,1c-0.3,0.4-0.8,0.5-1.3,0.6c-1.3-0.2-2-1.1-2.6-2.2
		c-1-2.7-3.4-4.2-5.2-6.3c-1.7-2.8-4.3-3.8-7.6-3.8c-4.8,0.1-9.6,0-14.5,0c-2.8,0-3.9,0.9-1.8,3.4c0.2,0.3,0.5,0.5,0.6,0.8
		c0.8,1.3,2.8,2.9,1,4.2c-1.5,1.2-2.9-0.8-4.1-1.8c-1.9-1.6-3.4-3.7-5.7-4.8c-0.9-0.4-1.9-0.6-2.9-0.7c-4.6-0.1-9.1-0.1-13.7,0
		c-1.8,0-3.6-0.3-5.1,1.1c-1.1,1-1.6,2.8-3.4,3c-6.8-3.9-14.3-3.1-21.6-3.1c-5.1-2.5-2.9,1.5-3,3.4c-0.3,0.4-0.7,0.6-1.2,0.7
		c-1.6,0-2.7-1-3.8-1.8c-0.6-0.4-1.1-0.9-1.6-1.4c-7-2.2-14.1-0.8-21.2-0.8c-1.1,0-0.7,1.2-0.5,2c0.5,1.7,0.4,3-1.8,3.1
		c-1.4-0.2-2.3-1-3-2.1c-2.1-3.9-5.7-4.4-9.6-4.3c-2.2,0-4.4-0.1-6.5,0.6c-2.1,0.5-4.4,0.9-6.4,0.3c-3.6-1.1-1.6,1.9-2.3,2.8
		c-0.6,0.6-1.3,0.8-2.2,0.8c-1.5-0.2-2.5-1.2-3.5-2.1c-2-1.8-4.4-1.1-6.7-1.2c-5.1-0.2-10.3,0.4-15.4-0.4c-1.3-0.6-2.8-1.1-2.6-2.9
		c2.7,0,5.3,0,8,0c2.9-1,5.9-0.3,8.9-0.5c2,0.2,4.2-0.5,6.2,0.5c3.1,0.5,6-0.8,9-1c3,1.2,6,0.9,9,0c12.8,0,25.6-0.4,38.4,0.1
		c9.6,0.4,19.2-0.4,28.8-0.9c4.5-0.2,9.1,0,13.7-0.1C748.9,331.5,773.9,331.4,799,331z"/>
	<path class="st93" d="M602,334c0.7,0.7,1.3,1.3,2,2c0.2,1.7,1.3,2.9,2,4.4c0.8,1.5,0.8,2.9-1.3,3.2c-0.5-0.1-0.9-0.3-1.2-0.6
		c-2.3-2.3-3.9-5.8-8-5.7c-6.3-0.2-12.5,0.3-19.5,0.6c2.5,3.8,5.6,6.3,8.2,9.1c0.9,1,2,1.8,3.1,2.6c1.8,2,3.4,4.2,5.2,6.2
		c0.5,1.4,1.9,3.1-0.8,3.8c-0.5-0.1-0.9-0.3-1.2-0.6c-1.5-1.6-2.5-3.6-4.7-4.4c-0.6-0.3-1.1-0.7-1.4-1.2c-0.5-1.1-1.1-2.2-2.1-3
		c-1-1.1-2.2-2-3.6-2.8c-1.3-0.8-2.8-1.5-3.6-2.7c-6.3-9.4-15.4-4.3-23.5-5.1c2.6,4.7,6.5,7.8,9.9,11.4c2.9,3,6,5.8,8.7,8.9
		c1.1,1.3,2.1,2.8,0.4,4.4c-1.4,1.3-3.2,1.6-4.5,0.3c-6-6.5-12.6-12.3-18.1-19.2c-0.3-0.4-0.2-1-0.1-1.4c-1-3.7-3.5-5.9-7-7.1
		c-0.5-0.5-1.5-0.8-1-1.9c1.5-1.7,3.4-1,5.2-1c13.8-0.1,27.5,0,41.3-0.1C591.6,334,596.8,332.4,602,334z"/>
	<path class="st94" d="M540,335c0.3,0.6,0.6,1.3,1,1.9c-6.2,0-12.4,0-18.7,0c2.7-0.3,5-2.4,7.8-1.4c1.4,0.5,1.7-0.4,2-1.5
		C534.7,334.2,537.5,333.5,540,335z"/>
	<path class="st8" d="M643,333c-3,1.7-6,2.4-9,0C637,333,640,333,643,333z"/>
	<path class="st8" d="M619,334c-3,0-6,0-9,0c2.8-1.9,6-0.6,9-0.9c0.3,0.2,0.4,0.4,0.3,0.6C619.2,333.9,619.1,334,619,334z"/>
	<path class="st93" d="M619,334c0-0.3,0-0.6,0-0.9c2,0.2,4.2-0.8,6,0.9C623,334,621,334,619,334z"/>
	<path class="st0" d="M627.9,338.3c0.2,1.1,0.9,1.6,2,1.8c3.8,1.5,5.6,5.2,8.5,7.6c2.7,3.7,6.1,6.6,9.3,9.8c7,6.8,13,14.6,20.2,21.2
		c1.3,1.3,2.2,2.9,3.1,4.5c5.8,6.5,11.5,13,17.9,18.9c2.2,2.7,0,3.9-2,4.8c-3,1.4-6.1,2.6-8.9,4.3c-3.7,2.2-6.3-0.1-8.6-2.7
		c-7-7.8-14.4-15.3-21.6-22.8c-0.8-0.9-1.3-2-2.1-2.8c-10-9.5-18.9-20.2-28.8-29.7c-3.9-4.2-8.6-7.7-11.2-13.1
		c-1-2.2-0.4-3.4,1.6-3.4c6.1-0.2,12.2-0.3,18.3,0.1C626.4,336.7,627.3,337.4,627.9,338.3z"/>
	<path class="st0" d="M658,340.1c0.4,0.9,1,1.6,2,1.9c4,2,6.5,5.5,9.3,8.7c2.3,2.7,4.8,5,7.2,7.5c2,2.1,4,4.1,6.1,6.2
		c2,2.1,4,4,6,6.1c0.9,1,1.5,2.2,2.4,3.2c3.7,4,7.7,7.8,11.6,11.6c1.7,2.1,4,3.5,5.4,5.9c0,0.3,0.1,0.6,0.2,0.8
		c1.6,2.7-0.3,4.1-2.2,5.2c-2.6,1.5-5.3,2.8-8.1,3.8c-1.8,0-3.7-0.1-5.5-0.1c-6.7-7-14-13.5-20.4-20.9l0,0c-5-2.9-8.7-7.2-12.3-11.5
		c-3.8-4.5-7.8-8.6-12.2-12.4c-2.1-1.4-3.1-3.9-5.2-5.2c-2.1-1.5-3.9-3.4-5.2-5.6c-0.5-1.5-1.7-2.5-2.7-3.6
		c-2.7-4.8-2.6-5.1,2.7-5.2c4.3,0,8.6-0.8,12.9-0.5C653.3,336.2,656.2,337,658,340.1z"/>
	<path class="st0" d="M752,370c-2.2,2.3-3.2-0.3-4.6-1.2c-7.2-7.9-15.1-15.1-22.6-22.6c-1.6-1.7-3.3-3.2-4.8-4.9
		c-1-1.1-2.1-2.3-1.3-3.9c0.7-1.5,2.4-1.9,3.8-1.7c4.9,0.7,9.8-0.6,14.7-0.1c2.3,0.5,4.3,1.4,6,3.2c6.2,6.5,13.5,12,19.1,19.1
		c2.8,3.6,0.4,5.5-2.4,7.1l0,0C757.3,366.6,755,368.8,752,370z"/>
	<path class="st8" d="M648.2,384.9c7.5,6.7,14.3,14.1,20.8,21.6c3.4,4,6.3,5.9,11.1,2.4c1.8-1.3,4.1-2,6.3-2.8
		c2.1-0.7,3-1.9,2.3-4.1c3,1.5,3.6,2.7,0.1,4.8c-3.2,1.9-7.5,1.8-9.9,5.1c-2.1,2.9-6.4-0.8-8.7,3.2c-1.6,2.9-6.1,1.9-8.9,3.9
		c-1.1,0.8-2.7,1.3-4.2,0.3c-0.4-3.9,3.1-3.7,5.2-4.5c5.6-2.4,5.6-2.3,1.5-6.8c-9.3-10.2-19.2-19.8-28.3-30.2
		c-1-1.1-2.1-2.2-2.4-3.7c0.4-3.4,1.9-2.3,3.4-0.8C640.6,377.1,644.5,380.9,648.2,384.9z"/>
	<path class="st95" d="M688.9,341c0.3,0,0.7-0.1,1-0.1c0.8,0.1,1.6-0.5,2.4-0.1c2.5,1.4,4.3,3.7,6.3,5.6
		c8.4,8.3,16.7,16.7,25.2,24.9c1.9,1.8,4,3.6,4.7,6.3c0,0.5-0.2,0.9-0.5,1.3c-2-1.7-4-3.3-6-5c-1.2-0.8-2.3-1.7-3.2-2.8
		c0.6,1,1.8,1.7,2.2,2.8c1,1.3,2,2.7,3,4c0.3,0.3,0.4,0.5,0.2,0.8c-0.1,0.3-0.2,0.4-0.3,0.4c-1.9,0.3-3-1.1-4.2-2.3
		c-10.2-10-19.6-20.8-29.8-30.9c-0.8-0.8-1.5-1.8-1.7-3C688.2,342.3,688.4,341.6,688.9,341z"/>
	<path class="st96" d="M648,355.2c9,7.3,15.9,16.6,24,24.8c-2.7,0.3-0.6,2.2-1.1,3.2c-8-8.4-16-16.8-24-25.2
		C647.5,357.2,647.3,356,648,355.2z"/>
	<path class="st74" d="M707.9,391.2c-3-0.5-4.2-3.1-6-5c-3.4-4.6-7.6-8.4-11.9-12.1c-1.5-0.4-1.4-2-2.2-2.9c0.2-0.7,0.7-1.2,1.4-1.4
		c2.6,0.2,3.7,2.5,5.5,3.9c2.7,2.7,5.3,5.6,8.4,7.9c0.3,0.3,0.6,0.6,0.9,1c1.3,2.8,5.2,3.8,5,7.6
		C708.6,390.4,708.3,390.8,707.9,391.2z"/>
	<path class="st97" d="M726,346c6.5,6.3,12.9,12.7,19.4,19c1,1,2.1,2.1,2,3.8c-2.6,0-2.4-3.3-4.4-3.8c-2.6-1.1-4.6-2.9-6.6-4.8
		c-2.4-3.6-5.9-6.2-8.7-9.4c-1.3-1.4-3.2-2.5-2.8-4.9C725.3,345.6,725.7,345.6,726,346z"/>
	<path class="st96" d="M672,380c6.9,6.9,14.1,13.5,20.4,20.9c-5.3-2.4-8.1-7.5-12.1-11.3C677.2,386.7,673.2,384.5,672,380z"/>
	<path class="st97" d="M742,366c1,1.3,2,2.6,3.1,4c-0.4,0.3-0.8,0.5-1.3,0.6c-7.5-4.7-13-11.7-18.9-18.1c-0.6-0.6-0.5-1.5-0.1-2.4
		c1.8-1,2.8,0.5,3.8,1.5c2.9,2.9,6.1,5.7,8.5,9C738.8,362.3,741.2,363.4,742,366z"/>
	<path class="st42" d="M744,370c0.4,0,0.7,0,1.1,0c2.5,2.3,2,4.2-0.7,5.9c-3,1.7-5.3,4.3-8.7,5.5c-3.3,1.1-5.8,0.9-7.6-2.3
		c0-0.4,0.1-0.8,0.1-1.2C735.6,379.6,741.7,376.6,744,370z"/>
	<path class="st11" d="M728,382c2.2,4.1-1.7,5-3.7,6c-4.2,2.2-8,6.8-13.6,3.1c0.2-0.2,0.3-0.4,0.5-0.6c6-1.4,11.6-3.5,15.5-8.6
		C727.2,381.6,727.6,381.6,728,382z"/>
	<path class="st98" d="M697.9,401c2-2,4.8-2.6,7.2-3.9c2.1-1.1,3.5-2.4,3.1-5c3,1.1,2.3,3.4,0.5,4.4
		C705.3,398.4,702.1,400.9,697.9,401z"/>
	<path class="st98" d="M709,390c-2-2.4-4-4.7-6-7.1c4.7,0.2,7.9,3.4,8,8c0,0-0.3,0.1-0.3,0.1C710.2,390.7,709.6,390.4,709,390z"/>
	<path class="st42" d="M759.9,365c1.5-2,4.8-3.5,2-6.8c0.2-0.1,0.4-0.3,0.6-0.4c0.8,0,1.4,0.3,2,0.9c0.7,1,1.5,2,0.5,3.3
		C763.9,364,762.1,364.7,759.9,365z"/>
	<path class="st4" d="M742,366c-2-1.3-3.7-3-5-5c-0.3-0.2-0.4-0.5-0.3-0.7c0.1-0.2,0.2-0.3,0.3-0.3c2.5,1.1,4.7,2.6,6,5
		C742.7,365.3,742.3,365.7,742,366z"/>
	<path class="st42" d="M752,370c2.6-1.8,4.7-4.3,8-5.1C758.1,367.9,755.5,369.7,752,370z"/>
	<path class="st99" d="M765,362c-0.3-1-0.7-2-1-3c-0.5-0.8,0.1-1.1,0.7-1.3c0.7,0.2,1.1,0.6,1.2,1.3c0.1,1.9,4.4-0.5,3,3
		C767.7,362,766.4,361,765,362z"/>
	<path class="st4" d="M721,374c-2-1.2-3.6-2.8-4.1-5.5c1.7,1.8,3.4,3.7,5.1,5.5C721.7,374,721.3,374,721,374z"/>
	<path class="st4" d="M728,382c-0.4,0-0.8,0.1-1.3,0.1c-1.9-0.1-3-0.9-2.8-3c0-0.4,0-0.7,0-1.1C725.7,379,727.1,380.3,728,382z"/>
	<path class="st0" d="M821.1,322.1c3.8-3.5,7.8-6.8,11-10.9c4.7-6.4,11.2-11.2,16.2-17.3c0.8-1,1.8-1.9,2.4-3.1
		c12-13.1,22.9-27.1,32.7-41.9c3.4-5.3,9.9-7.5,13-13c3.6-3.8,7.4-7.5,11-11.3c4.3-4,8.2-8.4,12.6-12.3c1.2-0.7,2.4-1.1,3.5,0
		c1.8,7.9,2.2,15.5-5.3,21.1c-1.6,1.2-2.9,2.7-4,4.4c-2.6,3.7-6.2,6.5-9.4,9.7c-3.5,3.5-7.4,6.7-10.2,10.8c-3,3.5-6.5,6.6-9.6,9.9
		c-0.2,0.2-0.5,0.5-0.4,0.8c0.1,0.2,0.5,0.2,0.8,0c1.9-1.1,3.3-2.8,5.1-4c4-3.3,7.7-6.9,10.8-11c0.9-1.3,2.1-2.3,3.1-3.5
		c1.7-1.7,3.6-3.3,4.9-5.4c0.7-1,1.6-1.8,2.6-2.5c2.5-2,4.4-4.6,6.9-6.5c2.8-2.1,4.9-1.4,5.2,2c0.5,5.6,0.8,11.4-0.2,16.9
		c-0.9,5.1-5.8,7.5-8.7,11.2c-1.8,1.9-4,3.4-4.9,6c2.9-0.9,4.5-3.5,6.7-5.3c1.6-1.3,2.8-3.8,5.3-2.8c2.3,0.9,1.5,3.4,1.7,5.3
		c0.6,4.8-0.4,9.3-2.9,13.4c-0.2,0.4-0.4,0.8-0.7,1.2c-0.2,0.4-0.6,1.1-0.4,1.4c6.8,6.3,3,14,2.8,21.2c-2,3.7-5.8,5.9-8.1,9.3
		c-1.1,1-2.1,2.1-2.7,3.5c-0.2,0.4-0.5,0.7-0.8,1c-1.8,1.2-3.3,2.7-4.8,4.3c-1.2,1.1-2.2,2.3-3.5,3.3c-5.4,2.3-11.1,1.2-16.7,0.9
		c-3.2-0.2-3.3-1.5-0.6-7c-3.9,1.6-5.5,5.2-8.7,6.8c-3.8,1.1-7.6,0.7-11.4,0.5c-4.3-0.2-5.2-2.4-2.5-5.9c2.2-2.9,5-5.3,7-8.4
		c-4.4,2.9-7.8,6.9-11.2,10.7c-3,3.4-6.4,5.1-10.9,4.8c-3.7-0.2-7.3,0-11-0.1c-1.5-0.1-3.2-0.1-4-1.6c-0.9-1.8,0.5-3.1,1.6-4.4
		c0.9-1,1.8-1.9,2.5-3.1c6.5-7.1,13.6-13.7,20.3-20.6c3-3.1,6.2-6,7.6-10.4c-12,10.5-22.2,22.8-33.6,34c-3.4,3.8-7,7.1-12.8,5.6
		c-3.2-0.8-3.7-1.9-1.4-4.2C818.2,324.3,819.4,322.9,821.1,322.1z"/>
	<path class="st100" d="M922,330c0,0.3,0,0.7,0,1c-1.9,1.2-4.1-0.3-6,0.9c-3,0-6,0-9,0c-0.3-0.8-0.7-0.9-1,0c-27,0-54,0.2-81,1
		c-0.3-0.7-0.7-1.3-1-2c0.1-0.7,0.5-1.2,1-1.6c1-0.8,1.8-2,3.2-2.2c1.2-0.1,2.2,0.4,3.2,1.1c1.8,2.6,4.6,0.7,6.8,1.5
		c2.5,0.4,5.1,0.4,7.6-0.1c3.4-0.8,7.5,1.5,10.4-2.2c0.7-0.3,1.3-0.4,2-0.2c0.4,0.1,0.8,0.4,1.1,0.7c0.7,1.2,1.8,1.6,3.2,1.3
		c0.5,0,0.9,0,1.4,0c3.3,0.6,6.6,0.7,9.9-0.1c0.7-0.1,1.5-0.1,2.2-0.1c3.2,0.2,6.3,1.3,9.5,0.2c0.5-0.1,1-0.2,1.5-0.2
		c4.6-0.2,9.2,0.1,13.8-0.2c1.2-0.4,2.1-1.2,3-2c0.4-0.3,0.9-0.4,1.4-0.3c1,0.1,1.9,0.4,2.9,0.6c3.2,1,6.6,0.1,9.8,1
		C919.3,328.6,920.9,328.7,922,330z"/>
	<path class="st101" d="M766,359c-0.3-0.3-0.7-0.7-1-1c-1,0.2-1.8-2.6-2.9-0.2l-0.1,0.3c-6.5-5.3-11.8-11.7-17.7-17.5
		c-1.9-1.9-3.8-3.6-6.2-4.7c-0.3-0.2-0.5-0.4-0.4-0.7c0.1-0.2,0.2-0.3,0.3-0.3c5.3,0.6,7.3,6,12,8.7c-0.7-2.8-2.6-3.9-3.9-5.4
		c-2.6-3-1-4.1,1.8-4.2c6.5-0.2,13-0.2,19.4,0c3,0.1,4.7,2.2,5.7,4.9c-0.4,0.3-0.8,0.5-1.3,0.5c-6.9-3.9-14.3-1.8-22.3-2.4
		c2.2,4,5.4,6.2,7.9,8.9c2,2.2,4.4,4.1,6.3,6.4c2.9,3.6,5.8,3.6,9.4,1.1c2.7-1.8,4.9-4,6.8-6.5c0.4,0,0.8,0,1.1-0.1
		c1,1.2,2.8,2.2,0.4,3.8c-1.9,1.3-3.6,2.8-5.4,4.2C772.7,356.4,770.1,359.7,766,359z"/>
	<path class="st15" d="M884.1,249.2c-5.4,9.2-12.2,17.4-18.8,25.7c-4.5,5.6-8.6,11.6-14.1,16.4c-0.7-0.7-0.7-1.5-0.1-2.3
		c7.7-9.3,15.3-18.7,23-28c0.1-0.7,0.3-1.3,0.7-1.9c2.4-3.3,4.3-7,7.1-9.9c0.7-0.7,1.2-1.6,2.4-1.2
		C884.4,248.4,884.4,248.8,884.1,249.2z"/>
	<path class="st42" d="M779,342.1c-1.9-1.9-5.7-3.1-4.5-6.2c1-2.7,4.6-1.8,7.2-1.8c5.1-0.1,10.2,0,15.3,0c4.3,4.7-1.7,4.3-3,6.2
		c-0.1-0.2-0.3-0.4-0.4-0.5c-0.4-2.3-1.4-3.6-4-3.5c-1.7,0.1-3.3,0-5,0c-6.2,0-6.2,0-4.4,5.7C779.8,342.3,779.4,342.4,779,342.1z"/>
	<path class="st60" d="M851,289c0,0.8,0.1,1.5,0.1,2.3c-5.5,7.4-12.4,13.5-19.1,19.9c0.6-3.8,3.8-5.7,6.1-8
		C842.8,298.7,846.7,293.7,851,289z"/>
	<path class="st102" d="M828,328c-1,0.7-2,1.3-3,2c-2.3,0.8-4.7,0.7-7,0c-1.6-0.2-3.5,1.9-4.7-0.6c-1-2.3,1.3-2.6,2.4-3.6
		c1.6-1.5,2.7-3.8,5.4-3.8c-0.4,0.5-0.8,1-1.2,1.6c-1.1,1.7-4.6,2.6-3.3,4.8c0.9,1.6,4,0.5,6.1,0.5c4.1-0.1,5.3-4.2,8.2-6
		C832.6,326.2,829.6,326.7,828,328z"/>
	<path class="st8" d="M779,342.1c0.3,0,0.7-0.1,1-0.1c4.1,1.4,7.9,1.6,11-2.2c0.6-0.8,1.8-0.7,2.8-0.1c0,0.2,0.1,0.4,0.2,0.5
		c-3.5,2.9-5.8,8.4-12,5.8C781,344.7,780,343.4,779,342.1z"/>
	<path class="st6" d="M818,330.1c2.3,0,4.7,0,7,0c-0.3,0.3-0.7,0.7-1,1C822,330.7,819.8,331.8,818,330.1z"/>
	<path class="st32" d="M875,260c-0.3,0.3-0.7,0.7-1,1c-0.7,0-1.3,0-2,0c0.7-1,1.4-2,2-3C874.8,258.5,874.9,259.2,875,260z"/>
	<path class="st103" d="M875,260c-0.8-0.4-0.9-1.2-1-2c0.6-1.4,2.1-2.3,2-4c7.7-9.5,14.4-19.7,21-29.9c7.5-11.6,13.7-23.9,20-36.1
		c0.8,0.4,1,1.2,1,2c0.8,0.9,0.6,1.9,0.1,2.7c-2.8,4.6-4.8,9.6-7.3,14.3c-2.6,3.3-3.8,7.4-5.7,11.1c-0.6,1.6-2.2,2.8-2,4.8
		c1.2,0.6,2.1-0.8,3.2-0.4c2.6,1.8,0.5,3-0.5,4.2c-2.9,3.3-6.4,6.1-9.2,9.5c-2.8,5.4-8.7,7.5-12.5,11.8C881,252,878,256,875,260z"/>
	<path class="st93" d="M927,317c-1-0.3-2-0.6-3-1c-0.8-0.5-1.1-1.5-2-1.9c-1.7-0.5-2.7,1.2-4.3,1.2c-0.8-0.2-1.2-0.7-1.2-1.5
		c1.2-2.8,3.9-4.3,5.7-6.5c2-5.4,0.7-11.1,1.2-16.6c0.1-1.5-0.6-3.4-2.5-3.8c-3.3-0.7-1.4-2.6-1-4.1l-0.1,0c3.1-2.2,3.7-5.4,3.8-8.8
		c0.1-3.5,0.2-7-0.3-10.4c0.6-1.8,1.5-2.4,2.8-0.6c1,4,1,8.1,1,12.1C927,289.1,927,303,927,317z"/>
	<path class="st104" d="M924.1,198c1.4,0.2,1.9,1.1,1.9,2.4c0,12.5,0,25,0,37.5c-0.7,0.6-1.4,0.6-2.2,0.1c-0.2-2-1.7-3.4-2-5.3
		c-0.2-1.4-0.1-2.8,0.5-4.2c2.3-5.5,0.9-11.2,0.9-16.9c-0.9-1.8-1.6-3.7-1.3-5.8C923.1,203.4,921.9,200.3,924.1,198z"/>
	<path class="st105" d="M924.1,198c-0.2,2.7,0.5,5.5-1,8c-2.4,3.1-4.1,7-8.2,8.5c-0.5-0.1-0.9-0.3-1.2-0.7c-0.7-2.4,0.9-3.9,2.4-5
		c6-4.5,6.5-10.5,5.4-17.4c-3,4.3-4.8,8.8-7.1,13.2c-0.9,1.8-1.7,3.7-4.2,3.6c-0.3-0.2-0.4-0.5-0.4-0.8c0-0.3,0.1-0.4,0.2-0.4
		c1.8-6.1,5.4-11.3,8.1-17c1.7-1.3,1-5.2,3.5-4.6c2.6,0.6,2.3,3.8,2.4,6.2C924.1,193.8,924,195.9,924.1,198z"/>
	<path class="st106" d="M924.1,238c0.6,0,1.3,0,1.9,0c0.3,7.1,0.6,14.1,0.8,21.2c0,1.3-0.5,2.5-0.8,3.8c-0.7-0.1-1.4-1.1-2,0.1
		c-1.5,0.4-2.7-0.1-3.4-1.5c-0.1-0.6,0-1.1,0.3-1.6c2.2-2.1,2.8-4.7,2.8-7.7C923.7,247.5,922.8,242.7,924.1,238z"/>
	<path class="st0" d="M548,344.1c6,6.3,12.1,12.7,18.1,19c1.3,1.4,2.7,2.3,4.2,0.8c1.8-1.8-0.6-2.5-1.5-3.4
		c-5.9-6.1-11.8-12.2-17.8-18.2c-1-1-2.7-2.1-2.1-3.6c0.7-1.7,2.7-0.7,4-0.8c3.5-0.1,7,0.2,10.5-0.1c5.3-0.5,9.3,1,12.1,5.8
		c0.9,1.5,2.6,2.4,4,3.6c1.2,0.5,1.6,1.8,2.6,2.6c1,1.1,2.1,2,2.8,3.3c0.3,0.3,0.7,0.7,1,1c2.1,1.2,3.6,3.1,5,5l0,0
		c6.1,3.9,10.4,9.6,15.5,14.6c2.8,3.6,5.9,6.8,9.1,9.9c7.5,6.8,13.6,14.9,20.9,21.9c3.5,3.8,7.6,7.1,10,11.8
		c2.8,2.9,2.4,4.8-1.8,5.6c-4.9,0.9-9.3,5.4-14.9,2.2c-1.9-2-3.8-4.1-5.7-6.1c-1.8-1.6-3.2-3.6-5.3-5l0,0c-4.2-2-6-6.5-9.5-9.3
		c-1.9-1.5-3.4-3.6-5.7-4.9c2.2,3.5,5.5,6.1,8.2,9.1c1.6,1.8,3.9,3.2,3.8,6.1c3.1,3.1,5.9,6.5,9.2,9.3c3.4,2.9,2.3,4.3-1.2,5.5
		c-1.7,1.5-4,1.4-6,2.1l0.1,0c-2.5,1.4-5.2,0.2-7.7,0.7c-3.5-0.3-4.9-3.5-7.2-5.4c-1.5-1.3-2.7-2.8-4.4-3.9
		c-1.1-0.8-2.2-1.7-3.2-2.6c-1.5-1.6-3.1-3.1-4.3-4.9c-0.3-0.2-0.6-1-1-0.5c-0.3,0.3,0.3,0.9,0.6,1.3c1.5,1.8,3.3,3.4,4.9,5
		c1.9,2.1,4.1,3.9,5.9,6.2c0.8,1.4,2.1,2.3,3.3,3.3c0.5,0.5,0.9,1.2,1,1.9c0.1,1-0.1,2.2-1,2.6c-5.8,2.4-11.6,5.5-18.3,3.6
		c-2.8-2-5.1-4.5-7.7-6.6c-1.6-2.5-4-4.4-5.7-6.9c-5.3-6.9-12.4-12-18.6-18.1c-4.4-6.7-10.1-12.2-15.8-17.7c-0.5-0.5-1-1-1.5-1.5
		c-7.3-8.2-16.3-14.6-23.6-22.8c-0.8-1.1-1.5-2.3-2.3-3.4c-1.2-2-2.9-3.6-4.7-5.2c-3.4-3.4-6.9-6.8-10.2-10.2
		c-1.8-1.9-3.2-4-2.1-6.7c1.1-2.8,3.7-1.4,5.7-1.5c3.4-0.3,7,0.7,10.3-0.8c3,0.3,5.2,1.7,6.7,4.4c0.3,0.3,0.6,0.6,1,1
		c1.3,0.7,2.3,1.8,3.4,2.8c1.3,1.3,2.8,2.6,3.7,4.3c7.1,7.3,14.1,14.6,21.2,21.9c0.8,0.4,1.5,0.9,1.9,1.8c0.1,0.3,0.4,0.4,0.7,0.3
		c1.2,0.5,1.7,3.1,3.3,1.8c1.4-1.2-0.3-2.5-1-3.7c-1.4-1.4-2.7-2.8-4.1-4.2c-1.1-0.8-2.1-1.7-2.9-2.9c-1.7-1.7-3.4-3.4-5.1-5.1
		c-0.9-1-2.1-1.7-2.9-2.9c-0.6-0.7-1.3-1.4-1.9-2.1c-0.8-1.2-1.9-2.2-3-3.1c-1-1-1.9-2-2.9-2.9c-1.5-1.9-3.2-3.6-5.1-5.1
		c-0.4-0.6-0.8-1.2-1.3-1.8c-0.8-0.8-2.2-1.4-1.8-2.6c0.4-1.4,1.9-0.7,3-0.8c2.1-0.2,4.3,0.3,6.3-0.4c0.7,0,1.3,0.2,2,0.1
		C538,337,543.7,338.4,548,344.1z"/>
	<path class="st16" d="M512.1,361.9c1,0.7,2.2,1.2,2,2.8c0.4,1,0.8,1.9,0.3,3c-3.9,1.2-5.1-2.3-6.9-4.2c-3.2-3.3-6-6.9-10.3-9.8
		c-1.7,3.6-0.6,7.1-0.9,10.4c-0.3,3.1,0.9,6.3-1.3,9.1c-0.6,0.1-1.1,0-1.4-0.5c-1.1-1.8-0.9-3.8-0.9-5.7c0-2.2,0-4.3,0-6.5
		c0.3-4.5-0.4-9.1,0.9-13.6c0.7-2.6-2-5.1-1.5-8c0.6-0.3,1.3-0.7,1.9-1c6.4,0,12.7-0.1,19.1-0.1c-0.7,0.9-1.5,0.6-2.4,0.3
		c-3.9,1.3-7.9,0.2-11.8,0.6c-1.4,0.1-3.2-0.8-3.9,1.2c-0.7,1.8,0,3.5,1.3,5c3.9,4,7.8,8.1,11.7,12.1
		C509.1,358.8,510.8,360.3,512.1,361.9z"/>
	<path class="st107" d="M529.3,338.1c-2,0.9-4.1,0.7-6.2,0.6c-4-0.3-2.7,1.4-1.4,3.3c-1.6-0.3-2.9-1-2.5-2.8
		c0.4-1.6,2.1-1.3,3.3-1.3C524.8,337.9,527.1,338.1,529.3,338.1z"/>
	<path class="st1" d="M551,372.2c2.2,0.8,3,3,1.6,4.2c-2,1.7-2.9-0.8-3.9-2.3c0.9,0.4,2.2,1.4,2.5,1.1
		C552.5,374.3,550.7,373.3,551,372.2z"/>
	<path class="st28" d="M523.1,343.9c2.4,1,4.2,2.6,5.1,5.1C525.9,347.8,524.2,346.1,523.1,343.9z"/>
	<path class="st107" d="M510.7,338.1c0.8-0.1,1.6-0.2,2.4-0.3c2.2,0.6,3.8,1.8,3.9,4.2C515.2,340.3,513.3,338.6,510.7,338.1z"/>
	<path class="st28" d="M525,350.1c-1.3-1.4-2.6-2.7-4-4.1c-0.3-0.2-0.4-0.4-0.3-0.7c0.1-0.2,0.2-0.3,0.3-0.3
		C522.8,346.3,524.8,347.5,525,350.1z"/>
	<path class="st16" d="M536,357.1c1.2,0.7,3,0.8,2.9,2.9C537.1,359.9,536.1,358.9,536,357.1z"/>
	<path class="st107" d="M521,345c0,0.3,0,0.7,0,1c-1-1-2.1-2-3.1-3C519.4,342.9,520.4,343.7,521,345z"/>
	<path class="st1" d="M544,365.1c1.4,0.5,2.3,1.5,2.9,2.9C545.1,367.9,544.1,367,544,365.1z"/>
	<path class="st1" d="M548,373.8c-0.9-0.3-1.7-0.7-1.9-1.8c0.7-0.3,1.6-1,2.1,0C548.5,372.4,548.1,373.2,548,373.8z"/>
	<path class="st16" d="M531,351.9c1.8,0.2,2.9,1.3,3,3.1C532.7,354.4,531.6,353.4,531,351.9z"/>
	<path class="st93" d="M916,332c1.8-1.7,4-0.7,6-0.9c0,0.3,0,0.6,0,0.9C920,331.9,918,332,916,332z"/>
	<path class="st93" d="M906,332c-0.4-0.5-0.8-1-1.2-1.5c0.6-0.1,1.2-0.5,1.7-0.4c1.4,0.3,0.6,1.2,0.5,1.9
		C906.7,332,906.3,332,906,332z"/>
	<path class="st93" d="M579.1,431.9c3.1,1.1,5.3,3.2,6.9,6c1.5,1.5,3.3,1.6,5.4,1.4c4.3-0.5,8.1-2.4,12.2-3.5c2.1-0.6,3.2-1.7,1-3.6
		c-0.2-0.3-0.4-0.6-0.6-1c-0.3-0.7-1.5-1.1-0.9-2.1c0.5-0.9,1.4-0.8,2.1-0.2c1.3,1,2.4,2.3,3.6,3.4c0.6,0.4,0.9,1,1.2,1.7
		c1.9-0.1,3.7,0.4,5,2c-1.4-0.1-2.7,0.3-4,1c-1.3,0.6-2.7,1.2-4,1.8c-8.2,1-16,4-24.1,5.7c-1,0.2-1.9,0.3-2.9,0.5
		c-19,3.7-38,7.2-57.1,9.9c-0.9-1-3.3-0.5-3-2.8c1-1.3,2.5-1.5,4-1.4c4.6,0.4,8.6-1.2,12.5-3.2c8.7,3.2,16.4-1.8,24.5-3.2
		c5.8,0.2,11.4-1.2,17.1-2.5c4.4-1,4.8-1.6,2.1-5.4c-0.8-1.2-2-2.3-1.5-4C578.8,432.3,578.9,432.1,579.1,431.9z"/>
	<path class="st6" d="M494,444c1.3-3,1.3-6.5,4-8.8c0.6-0.5,1.3-0.5,1.8-0.1c4.6,4.1,9.6,7.8,12.6,13.4c-0.1,0.5-0.3,0.9-0.6,1.2
		c-1.4,0.9-0.3,4.6-3.7,3.4c-3.5,2.2-7.8-0.4-11.4,1.9c-0.6,0.4-1-2.6-2.7-3C494,449.3,494,446.7,494,444z"/>
	<path class="st108" d="M508.1,453.1c3.4,0.4,0.2-3.9,2.9-4c1.3,0.7,2.4,1.5,3.6,2.3c1.5,1.4,3.7,0.7,5.4,1.6c1.4,0,2.4,0.6,2.9,1.9
		c-5.3,0.4-10.7-0.6-16.1,1.1C507.3,454.8,507.7,453.9,508.1,453.1z"/>
	<path class="st0" d="M634,374.1c10.9,11.7,21.9,23.4,32.8,35c3.6,3.8,3.5,4.2-1.6,6c-2.9,1-6,1.7-8.5,3.7c-3,2.2-4.8,0.6-6.4-2
		c-1.2-2.4-3.2-4.2-5.3-5.9c-3.9-1.7-6.3-5.1-9-8.1c-2.1-2.5-4.2-5-6.6-7.2c-4.6-4.7-9.3-9.3-13.9-14c-1.1-1.1-2.2-2.2-3.2-3.5
		c-1-2.8-4.3-2.6-5.9-4.7c-0.2-0.4-0.4-0.8-0.6-1.2c-0.5-2.1-2.1-3.4-3.7-4.5c-3.6-3.7-6.5-8-10.2-11.6c-2.3-1.6-3.8-3.8-5.3-6.1
		c-1.2-1.2-2.4-2.4-3.6-3.5c-1.9-1.9-3.9-3.6-5.6-5.7c-1.6-1.9-1.4-3.7,1.4-3.6c5.6,0.1,11.1-1.5,16.7-0.4c4.4-0.1,6,3.6,8.4,6.2
		l0,0c5.6,3.4,9.6,8.6,14.1,13.2c1.3,1.3,2.4,2.7,3.7,4C625.4,365.2,631.1,368.5,634,374.1z"/>
	<path class="st9" d="M650.3,416.8c2.1,0.8,3.7,3.2,6.4,2c4.7,0.7,8.2-2.7,12.5-3.8c1.9-0.5,1.6-2.5,0.8-5.3c3.1,3.6,6.2,2,9.1,2.2
		c-2.3,4-7,3.8-10.5,5.4c-8.6,4.1-17.8,6.9-26.7,10.1c-0.6,0.2-1.2,0.2-2.9,0.5c4-4.8,9.6-3.5,13.3-6.6
		C652.1,419.8,647.3,419.8,650.3,416.8z"/>
	<path class="st9" d="M630,395c5,5.3,10,10.7,15,16c-1.1,2.5,4.7,3.2,1.6,6.2c-4.1-3.2-7.1-7.4-10.6-11.2c-2-3-5-5.2-7.3-7.9
		C626.9,395.9,627.1,395.5,630,395z"/>
	<path class="st109" d="M615.9,415c-3.9-4.2-7.8-8.4-11.8-12.5c-1.4-1.5-2.8-2.8-1.5-5.5c6.4,4.9,11.6,10.7,16.4,17
		C618,414.3,616.9,414.7,615.9,415z"/>
	<path class="st38" d="M610,434c-0.3-0.3-0.7-0.7-1-1c-0.3-0.3-0.4-0.5-0.3-0.7c0.1-0.2,0.2-0.3,0.3-0.3c3,0,5.9-0.1,8.9-0.1
		C615.8,434.5,612.2,431.6,610,434z"/>
	<path class="st109" d="M619,413.9c2.8,0.6,4,2.8,5.3,5C621.9,418,620.3,416.1,619,413.9z"/>
	<path class="st38" d="M617.9,431.9c2-0.7,4-1.4,6-2.1C622.5,432.1,620.2,432.1,617.9,431.9z"/>
	<path class="st110" d="M493.9,367.1c0,2,0.1,3.9,0.1,5.9c3.4,1.7,2.2,4.3,1.4,6.8c-0.2,2.2,0.1,4.4-0.5,6.5
		c-1.2,2.3-2.9,4.5-0.6,7.1c0,0.5-0.3,0.9-0.7,1.2c-1.6,0.8-3,0.5-4.3-0.5c0.2-1,0.5-2,0.7-3c-0.7-2-0.7-4,0-6
		c0.2-8.8-0.2-17.6-0.8-26.4c-0.1-1.3-0.3-2.7,0.9-3.7c1.4,1.4,1.7,3.6,3.2,4.9C494.2,362.2,492.5,364.8,493.9,367.1z"/>
	<path class="st111" d="M493,360c-4.1,0.2-2.8-2.9-3.1-5.1c0.7-5.4-1-10.6-1-16c1,0,2,0,3,0c1.8,3.1,3.8,5.7,2.2,10
		c-1.2,3.2-0.3,7.2-0.3,10.8C493.7,360.4,493.4,360.5,493,360z"/>
	<path class="st18" d="M489.3,394c1.5,0,3.1,0,4.6,0c2.4,6,3.4,12.1,1,18.3c-0.2,0.5-0.6,0.9-1.1,1.2c-0.8,0.3-1.6,0.4-2.4,0.3
		c-0.5-0.2-1-0.5-1.3-0.9C489.6,406.7,490.9,400.3,489.3,394z"/>
	<path class="st93" d="M490,413c0.3,0,0.6,0,0.9,0.1c1.4,2.6,2.7,5.1-1,7c0,0,0,0,0,0C490,417.6,490,415.3,490,413z"/>
	<path class="st22" d="M489.9,385c0,2,0,4,0,6C488.5,389,488.5,387,489.9,385z"/>
	<path class="st112" d="M409.9,611c-0.3,0-0.6,0-0.8,0.2c-3.6,0.5-6.8,0-8.9-3.3c-1.1-5.9,1.6-10.8,3.9-15.8
		c2.9-3.3,5.9-6.5,10.9-5.8c0.8,0.9,1.5,1.8,2.3,2.7c1.5,2,1.4,4.4,1.3,6.8c-1.2,3.9-2.3,7.8-4.7,11.2
		C412.5,608.3,411.2,609.6,409.9,611z"/>
	<path class="st56" d="M924.9,604c-1.3-4.9,0-9.2,3.1-13c0.4,0.4,0.6,0.8,0.8,1.3c-0.9,4-1.2,8.1-3.6,11.6L924.9,604z"/>
	<path class="st55" d="M928.2,592.4c-0.1-0.5-0.1-0.9-0.2-1.4c1.4-1.7,3-2.3,5-1c1,0.6,1,1.3,0.1,2
		C931.5,592.2,929.9,593.1,928.2,592.4z"/>
	<path class="st113" d="M496.9,592.8c1.5-1,2.8-2.7,5-1.7c2.6,3.6-0.2,6.6-1,9.8c-2.1,1.6-3.5,5.7-6.6,3.7c-3.5-2.2-0.3-5.3,0.6-7.9
		C495.4,595.3,496.3,594.1,496.9,592.8z"/>
	<path class="st112" d="M512,449c-4.5-4.8-8.8-9.7-14-13.8c-0.7-0.7-1.4-1.5-2.1-2.2c-1.2-6.6-3.1-13.1-1.5-19.9
		c1.2-5.1,2-5.4,6.1-2c0.5,0.4,1,0.9,1.4,1.4c4,4.3,8.2,8.6,12.2,12.9c1.1,1.3,2.1,2.8,3.4,4c0.9,0.9,2.1,1.6,3,2.5
		c1.8,1.7,3.2,3.8,5,5.5c2.4,2.5,4.9,4.9,7.4,7.4c0.9,1,1.7,1.9,1.6,3.4c-0.6,1.6-2.2,2.2-3.5,2.4c-5.3,0.6-10.6,1.9-16.1,1.1
		C513.5,451.3,512.6,450.3,512,449z"/>
	<path class="st43" d="M501.9,414c-2.4-0.9-3.6-5.4-5.9-4.1c-2.5,1.3-0.9,5.1-0.9,7.9c0.1,5.1,0.5,10.2,0.7,15.3
		c-0.6-0.7-1.2-1.3-1.8-2c-2.6-3.3-1.3-7.2-1.5-10.8c0.2-2.4-0.4-5,1.4-7.2c1.9-6.3-0.1-12.6-0.1-18.9c0-0.3,0.1-0.6,0.1-0.9
		c-1.2-2.1-1.2-4.1,0-6.2c0-2.6,0.1-5.3,0.1-7.9c2.1-2.3,3.6-2.3,4.1,1.1c-1.6,1.5-1.8,3.4-1.8,5.4c0,2.6,0.2,5.3-0.1,7.9
		c-0.6,5.6,1.4,9.8,5.7,13.4c2.8,2.3,6,4.8,6.2,9.1C505.4,417.7,504.1,414.5,501.9,414z"/>
	<path class="st114" d="M494,420c0,3.6,0.1,7.3,0.1,10.9c0,3.3,0,6.6,0,9.9c-3,0.2-4.3-0.8-4.1-3.9c0.3-5.7,0.1-11.3,0.1-17
		c1.9-2.1,0.6-4.7,1-7c0.7,0,1.4,0,2,0C494.1,415.3,491.8,417.9,494,420z"/>
	<path class="st115" d="M396,333.1c-0.3-0.1-0.6-0.1-0.9-0.1c0.7-1.4,1.7-2.5,3.3-1.4c0.7,0.5,0.2,1.5-0.3,2.1
		C397,335.1,396.8,333,396,333.1z"/>
	<path class="st37" d="M918,315c1.2-1.9,2.7-3.1,5-2c1.3,3.6-0.3,7.4,0.9,11c0,1,0,2,0,2.9c-1.3,2.5-3.6,2.4-5.9,2.4
		c-3.6-0.8-7.5,0.6-11.1-1.3c-0.5-1.7,0.6-2.2,1.9-2.6c0.5,0,1,0,1.4,0.2c1.9,1,3.8,0.6,5.8,0.5c3.7-0.2,5-2,4.6-5.5
		c-0.1-1,0-2-0.1-3.3c-3.3,1.4-4.6,5.3-8.1,6c-0.5-0.1-0.9-0.3-1.1-0.8c-0.1-0.5-0.1-0.9,0-1.4C913.1,318.5,915.1,316.3,918,315z"/>
	<path class="st93" d="M918.1,329.3c2-0.8,3.9-1.6,5.9-2.4c0.1,1.5,0.1,2.9-1.9,3.1C920.7,329.9,919.2,330.4,918.1,329.3z"/>
	<path class="st98" d="M923.9,324c-1.9-3.5-0.4-7.3-0.9-11c1.2,0.7,1,1.9,1,3C924,318.7,923.9,321.3,923.9,324z"/>
	<path class="st116" d="M609.3,479.2c1.5-3.1-0.1-7.2,2.9-9.8c1.8-0.2,1.8-0.2,1.8,3.6c-2.3,0.3-3,1.7-3,3.8c0,1.8,0.1,3.7-1.3,5.3
		C608.6,481.2,609.2,480.1,609.3,479.2z"/>
	<path class="st65" d="M413.8,606.9c1.4-3.6,2.8-7.3,4.3-10.9c0.2-0.4,0.5-0.5,0.9-0.1C417.9,599.9,417.2,604,413.8,606.9z"/>
	<path class="st88" d="M418.9,595.9c-0.3,0.1-0.6,0.1-0.9,0.1c-0.3-2.3-0.6-4.7-0.9-7c0.6,0.3,1.2,0.7,1.8,1
		C418.9,592,418.9,593.9,418.9,595.9z"/>
	<path class="st117" d="M803,603c0.7-2.7,1.3-5.3,2-8c0.6-3.8,0.8-7.9,4.9-9.9c-1.2,4.1-2.4,8.3-3.7,12.4c-0.4,1.4-1,2.5-0.6,4.2
		C806.2,604.1,805,604.6,803,603z"/>
	<path class="st118" d="M1015,603c-0.2-2.4,0.7-4.8-0.7-7.1c-0.5-1.1-1.1-2.3-1.7-3.5c2.8-1,3.5,1.9,5.3,2.6
		c0.2,3.3-0.2,6.7,1.1,9.9c0,0.8-0.3,1.6-1,2c-0.7-1-1.4-2-2-3C1015.6,603.7,1015.3,603.3,1015,603z"/>
	<path class="st119" d="M1018,607c0-0.8,0.2-1.6,1-2c0.7,0.5,1.9,1,1.2,2.1C1019.6,608,1018.7,608.1,1018,607z"/>
	<path class="st120" d="M928.2,592.4c1.6-0.6,3.1-2.6,4.9-0.4c0.2,0.4,0.4,0.7,0.6,1.1c1.5,2.5,0.8,4.7-0.9,6.8c0,0,0,0,0,0
		c-0.7,1-1.3,2-2,3c-1.8,0.1-3.1,1.8-5,1.3c-0.2-0.2-0.5-0.3-0.8-0.3C925,599.7,926.6,596.1,928.2,592.4z"/>
	<path class="st48" d="M932.9,599.9c1-2.2,1.5-4.4,0.9-6.8C935.8,595.7,935.9,598,932.9,599.9z"/>
	<path class="st0" d="M724,379.1c0.9,1,1.8,2,2.8,3c0.1,1.1,0.5,2.5-0.7,3.1c-4.8,2.4-8.8,6.9-15,5.7c-1.5-3.9-4.3-6.4-8-8
		c0-0.3-0.1-0.6-0.3-0.9c-3.2-2.7-5.9-5.8-8.9-8.7c-2.1-2.1-4.1-4.2-6.8-5.6c-7.3-5.3-11-13.9-18-19.6c-3.2-2.6-6.3-5.4-7.8-9.4
		c-0.4-1.1-0.4-2.1,1-2.1c6.8-0.1,13.5-0.3,20.3,0.1c1,0.1,1.8,0.7,2.3,1.7c0.3,0.2,0.6,0.5,0.9,0.7c1.3,1.1,2.2,2.6,3.3,3.8
		C700.8,354.9,711.7,367.6,724,379.1z"/>
	<path class="st0" d="M744,370c1.4,2,1.7,3.7-1,5.1c-2,1-4,2.2-5.8,3.6c-3.5,2.9-6.4,2.4-9.1-1c-12.1-12.6-24.4-24.9-37-36.9
		c-0.8-1.3-2.4-2.5-1.4-4.3c0.8-1.4,2.1-1.3,3.3-0.5c4.1,0.1,8.1,0.3,12.2,0.2c3.8-0.1,7.1,0.8,9.7,3.8c4.3,2.4,7.8,5.5,9.8,10.1
		C730.5,357.3,737.4,363.5,744,370z"/>
	<path class="st0" d="M779.9,347.1c1.2,2.2-0.3,3.4-1.7,4.5c-8.3,7.1-9.9,7.1-17.7-0.4c-4.1-3.9-7.9-8-11.9-12
		c-0.7-0.7-1.8-1.4-1.4-2.4c0.5-1.5,2-0.9,3-0.9c4.5-0.1,9,0.2,13.4-0.1c3.4-0.2,6.1,0.5,8.3,3.2c2.5,1.5,4.6,3.5,6.1,6.1
		C778.6,345.8,779.2,346.4,779.9,347.1z"/>
	<path class="st121" d="M662.1,340c9.5,8.3,17.3,18.1,25.9,27.2c0.5,0.9,1.7,1.5,1,2.8c-0.4,0.4-0.8,0.7-1.2,1.1
		c-2.3-1.6-4.2-3.6-5.9-5.9c-1.4-2.6-3.6-4.4-5.9-6.1c-6-5.1-10.8-11.2-16.1-16.9c1.7,0,1.7-0.9,1.1-2.1
		C661.4,339.5,661.7,339.5,662.1,340z"/>
	<path class="st1" d="M621.2,361c-5.7-6-11.5-12-17.2-18c2-0.3,2.1-1.2,0.9-2.6c-1.1-1.3-3-2.5-0.9-4.4c6.4,0,12.7,0,19.1,0
		c1.9,0,4.1-0.3,4.8,2.3c-7.6-2.7-15.1-0.9-23.5-1.1c4,6.9,9.6,10.6,13.6,15.8c1.2,2.1,3.4,3.5,4.8,5.5
		C624,360.2,623.9,360.2,621.2,361z"/>
	<path class="st121" d="M724.7,350.1c-3.3-3.4-6.5-6.7-9.8-10.1c0.7-1,1.4-2.1,2.1-3.1c2.3,3.3,5.7,5.7,8,9c3,3.2,6.1,6.4,9.1,9.6
		c1.2,1.3,2.9,2.3,2.9,4.4c0,0.3,0,0.7,0,1C732.3,358,729.7,352.7,724.7,350.1z"/>
	<path class="st122" d="M725,346c-3-2.7-6.7-4.8-8-9c1.1-2.3,3.2-2,5.2-2c5.3,0,10.6,0,15.8,0c0,0.3,0,0.7,0,1
		c-5.1-0.4-10.2,1.2-15.3,0.3c-1.1-0.2-3,0.4-3.5,1.3c-0.9,1.5,1,2.1,1.9,3c1.7,1.8,3.4,3.6,5,5.4C725.7,346,725.3,346,725,346z"/>
	<path class="st121" d="M658,340.1c-2.7-2.9-6-3.6-9.8-3.3c-3.3,0.3-6.6,0.1-9.9,0.2c-1.6,0.1-3.7-0.9-4.6,0.7
		c-1.2,2,1.7,2.8,2.2,4.4c-0.3,0.3-0.7,0.4-1.2,0.5c-1.4-0.3-2.4-1.1-2.7-2.5c-0.4-1.2-0.8-2.4-1.4-4.1c3.7,0,7,0,10.4,0
		c2.2-1.1,4.8,0.4,7-0.9C652.2,335,656.2,335.3,658,340.1z"/>
	<path class="st123" d="M662.1,340c-0.4,0-0.7,0-1.1,0c-0.5-1-2.2-1.3-1.8-2.8c0.4-1.5,1.8-1.2,2.9-1.2c6.2-0.1,12.3-0.1,18.5-0.1
		c1.8,0,3.8,0.1,4.2,2.5c-3.9-2.9-8.3-1.2-12.5-1.4c-2.8-0.2-5.6,0.1-8.5,0C661,336.8,661.4,338.2,662.1,340z"/>
	<path class="st8" d="M632,340c1,0.7,2,1.4,3,2.1c1.4,0.6,2.2,1.8,3.1,2.9c1.6,1.7,3.3,3.4,4.9,5.1c0.8,1.9,0.1,2.4-1.6,1.6
		c-1.6-0.8-2.2-2.7-3.9-3.5c-3.4-1.9-5-5.5-7.7-8.1C630.6,340,631.3,340,632,340z"/>
	<path class="st123" d="M693,336.1c-5.4-0.3-2.2,2.8-1.9,4.8c-0.3,0.9-0.7,0.7-1.1,0.1c-0.5-1.7-3.2-2.9-1.1-5
		C690,334.7,691.6,334.5,693,336.1z"/>
	<path class="st42" d="M777.9,345.1c-2-2-4-4.1-6.1-6.1c0.4,0,0.8,0,1.1-0.1C775.1,340.7,777.7,342,777.9,345.1z"/>
	<path class="st4" d="M648,335c-2.1,1.8-4.7,0.7-7,0.9C643.2,334.2,645.7,335.3,648,335z"/>
	<path class="st123" d="M689,343c-1.4-1-2.6-2.2-3.3-3.8c1.1,0.6,2.1,1.3,3.2,1.9C689,341.7,689,342.3,689,343z"/>
	<path class="st124" d="M592,356.2c5.1,2.2,7.4,7.3,11,11c1.3,1.7,2.9,3.1,4.1,4.8c0,0.3,0,0.7,0,1c-0.4,0.4-0.5,1-1.1,1.1
		c-5.5-4.5-10.1-10-14.9-15.2C593.6,358.8,591.7,357.1,592,356.2z"/>
	<path class="st43" d="M596,337.1c-5.2,0.3-10.4,0.5-15.6,0.8c-1.2,0.1-2.8-1.1-3.4,0.7c-0.5,1.5,1.2,2.1,2,3.1
		c1.6,1.9,3.3,3.6,4.9,5.4c0.3,0.3,0.4,0.5,0.3,0.7c-0.1,0.2-0.3,0.3-0.4,0.3c-3.5-3.1-7.1-6-9.5-10.8c7.3-1.6,14.4-1.2,21.6-1.2
		c0.3,0.2,0.5,0.5,0.4,0.7C596.3,337,596.1,337.1,596,337.1z"/>
	<path class="st1" d="M596,337.1c0-0.4,0-0.7,0-1.1c4.3,0.4,6.6,3.3,8,7C601.2,341.2,599.7,337.7,596,337.1z"/>
	<path class="st124" d="M591,359c-1.7-1.7-3.3-3.3-5-5C589,354.3,590.2,356.4,591,359z"/>
	<path class="st43" d="M582.1,350c-0.8-0.9-1.7-1.9-2.5-2.8c1.7,0.2,2.6,1.5,3.5,2.7C582.8,350.4,582.5,350.4,582.1,350z"/>
	<path class="st39" d="M583.9,348.1c0-0.3,0.1-0.7,0.1-1c1.2,0.7,2.3,1.6,2.7,3C585.3,350,584.6,349,583.9,348.1z"/>
	<path class="st39" d="M582.1,350c0.3,0,0.6-0.1,0.9-0.1c1.1,0.8,2.1,1.6,1.9,3.1C583.7,352.3,582.7,351.3,582.1,350z"/>
	<path class="st38" d="M621.2,361c2.8-0.7,1.1-1.9,0.3-3c-1.3-1.6-3.4-2.6-3.5-5c10.4,10.3,20.6,20.8,30.2,31.9
		c-4.7-2.9-7.8-7.5-11.8-11c-0.8-0.7-1.9-2.8-2.4,0.2C629.5,370,625,365.8,621.2,361z"/>
	<path class="st125" d="M637.5,348.2c1.8,0.1,2.6,1.6,3.8,2.6c1.1,1,1.6,0.6,1.7-0.7c2.6,0.8,2.7,4,5,5.2c-0.2,1,1.5,2.7-1.1,2.8
		C643.4,355.1,640.3,351.8,637.5,348.2z"/>
	<path class="st98" d="M690,374c5.1,2.9,9.3,6.7,11.9,12.1C698,382.1,694,378,690,374z"/>
	<path class="st126" d="M676,359c3.1,1,5.3,2.8,5.9,6.1C680,363.1,678,361,676,359z"/>
	<path class="st125" d="M638.1,345c-1.4-0.6-2.3-1.7-3.1-2.9c0.3-0.1,0.6-0.1,0.9-0.1C637.2,342.6,638,343.5,638.1,345z"/>
	<path class="st98" d="M694,373c3.1,2.8,6.5,5.4,8.8,9c-4-1.5-6.1-5-8.8-8c-0.3-0.2-0.4-0.5-0.3-0.7C693.8,373.1,693.9,373,694,373z
		"/>
	<path class="st38" d="M694,373c0,0.3,0,0.7,0,1c-1.7-1.3-3.3-2.7-5-4c-0.3-0.9-0.7-1.9-1-2.8C690.5,368.6,692.2,370.8,694,373z"/>
	<path class="st8" d="M762,357.8c-0.4-1.1-2.1-1.6-1.4-3.5c2.3,0.3,3.3,2.1,4.4,3.8c-0.3,0.3-0.7,0.6-1,1
		C763.3,358.6,762.7,358.2,762,357.8z"/>
	<path class="st127" d="M828,328c0.6-1.9,3.1-2.7,3-5c11.4-11.9,22.7-23.9,34.2-35.9c2.4,3.2,1.1,5.3-0.9,7.3
		c-8.6,8.9-17.3,17.8-25.9,26.7c-2.9,2.3-5.1,5.1-7.4,7.9C830,328.7,829,328.4,828,328z"/>
	<path class="st98" d="M831,329c1.2-3.8,3.6-6.5,7.4-7.9c-1.1,2.8-6,4.4-4.8,6.8c1.4,2.8,5.7,0.4,8.7,1c7.9,1.6,13.9-1.2,18.7-7.7
		c2.2-3,5.3-5.3,7.8-8.1c1.1-1.2,2.2-1.7,3.4-0.8c1.5,1.1,0.6,2.3-0.4,3.3c-2.9,3.1-5.9,6.2-8.8,9.4c-0.6,0.7-1.6,1.6-0.8,2.6
		c0.4,0.5,1.5,0.4,2.2,0.4c4.1,0,8.3-0.1,12.4-0.2c0.4-0.3,0.8-0.4,1.2-0.1c0.5,1.9-1.5,1.3-2.1,2.1c-0.7,0-1.3,0-2,0
		c-3.7,1.1-7.3,0.3-11,0c-0.3,0-0.7,0-1,0c-2.4,1.4-2.2-1.1-3-2c-0.7-2.4-1.3,0.1-2,0c-3,3.9-7.3,1.7-11,2.1c-2.7,0.7-5.4,0.7-8.1,0
		C835.6,329.9,832.9,331.9,831,329z"/>
	<path class="st97" d="M923,229c0,1.3,0,2.7,0,4c-4,3.3-7.6,6.9-11,10.8c-0.7,0.7-1.5,1.5-2.2,2.2c-1.8,1.5-3.8,2.9-4.7,5.3
		c-0.8,1.1-1.5,2.3-2.9,2.8c-3.5,4.2-8,7.5-11.2,11.9c-2.2,1-3.1,4.1-6,4c-1-0.4-1.6-1-1.1-2.2c3.2-3.3,6.5-6.6,9.7-9.9
		c3.5-3.6,7.4-6.8,10.4-10.9c2.4-3.5,5.6-6.1,8.5-9.1C916.4,235.3,918.1,230.4,923,229z"/>
	<path class="st5" d="M890.8,303.7c-0.1-0.3,0-0.5,0.3-0.7c3.5-4.1-0.4-6.3-2.4-8.9c-2.4-1-3.3-3.3-4.7-5.1
		c-0.9-3.2-0.9-6.2,0.9-9.1c0.3-0.3,0.7-0.6,1-1c1.1,0.2,1.9,0.9,2.1,2.1c-2,1.6-1.9,3.6-1,5.8c2.3,2.1,4.6,4.2,6.7,6.5
		c4,4.6,3.8,7.3-0.7,11.8c-0.3,1.1-1.2,0.9-1.9,1c-0.2-0.2-0.3-0.3-0.5-0.5C890.3,305,890.4,304.3,890.8,303.7z"/>
	<path class="st128" d="M908.2,295.7c1.2,4.2,0.9,5.3-3,10.5c0.2,0.2,0.3,0.6,0.5,0.7c1.3,0.6,3.9-1,4,1.5c0.1,2-2,2.8-4,2.7
		c-1.2-0.1-2.3,0.1-3.5,0c-3.3-0.1-3.7-1.7-1.7-4c2.4-2.9,5.5-5.4,4.3-9.9C907.2,299.8,906.9,295.9,908.2,295.7z"/>
	<path class="st107" d="M921,262c1,0.3,2,0.7,2.9,1c0,4.3,0.1,8.5,0,12.8c-0.1,3.1-0.8,5.9-4.2,7c4.3-4.8,2.6-10.9,3.2-16.5
		c0.2-2.4-1.7-1.9-2.9-0.7c-2.4,2.3-4.7,4.6-6.9,7.1c-1.3,1.5-2.8,2.7-4.5,0.9c-1.6-1.7,0.2-3,1.4-4.1c1.3-1.3,2.6-2.4,4-3.6
		c0.2,0.2,0.3,0.3,0.5,0.5c0.4,1.8-0.8,2.6-2,3.5C915.6,267.6,916.9,263.3,921,262z"/>
	<path class="st129" d="M912,243.8c2.6-4.6,6.1-8.4,11-10.8c0.4,1.7,0.7,3.3,1.1,5c0,4.7-0.3,9.3,0,14c0.2,3.6-0.6,6.5-3.1,9
		c-2,2.1-3,5.4-6.7,5.2l-0.4-0.3c8.9-6.5,10.4-15.6,9.1-25.7c-0.2-1.7,0.9-4.2-1.2-4.8c-1.6-0.5-2.5,1.8-3.6,2.9
		C916.1,240.1,914.6,242.6,912,243.8z"/>
	<path class="st15" d="M878,328c-0.4,0-0.8-0.1-1.2-0.1c2.2-2.2,4.3-4.5,6.5-6.7c1.2-1.2,2.4-1.8,3.9-0.4c1.5,1.5-0.1,2.3-0.8,3.3
		c-0.7,1-2.5,1.7-1.7,3.2c0.7,1.5,2.4,0.8,3.6,0.7c4.9-0.3,9.9,1,14.7-1c0.4-0.5,0.8-0.4,1.1,0.1c-0.7,0.6-1.4,1.3-2.1,1.9
		c-5.3,1.4-10.7-0.5-16,1l0,0c-4.6-0.3-5.1-1.2-2.9-5.6c-0.9,0.7-1.3,1.8-2.1,2.5C880.2,327.7,879.3,328.5,878,328z"/>
	<path class="st37" d="M891.1,306.2c0,0.3-0.1,0.6-0.3,0.8c-2.3,0.8-4.6,0.7-6.9,0.1c-6.8,0-6.8,0-3.9-9.3c2.1,2.6,2.4,6.6,6,7.4
		c1.5,1,3.5-0.6,5,0.8L891.1,306.2z"/>
	<path class="st43" d="M913.8,213.9c0.4,0,0.8,0.1,1.3,0.1c0.6,0.3,1.2,0.6,1.3,1.4c-2.1,3.8-6.2,5.9-8.3,9.6
		c-3.2,4-6.8,7.8-10.8,11c-0.4,0.5-0.8,0.5-1.2-0.1c2.9-3.1,5.9-6.1,8.7-9.3c0.9-1,3.3-1.8,1.2-3.8c-0.2-0.7,0.2-1.3,0.6-1.8
		c1.8-1.6,3.7-3.1,4.6-5.4C911.7,214.7,912.4,213.7,913.8,213.9z"/>
	<path class="st98" d="M919.8,282.8c0,0.9,0,2.7,0.1,2.7c4.9,0.6,3.9,4.4,4,7.4c0.1,3.5,0,6.9,0,10.4c0,1.9,0,3.7-1.9,4.8
		c-0.4-0.2-0.5-0.4-0.4-0.7c0.1-0.3,0.2-0.4,0.3-0.4c0.3-5,0.7-9.9,0.8-14.9c0-1.8,0.1-3.7-2.6-4.5
		C917.3,286.7,917.4,284.6,919.8,282.8z"/>
	<path class="st130" d="M888.1,281c-1-0.4-1.8-1-2.1-2.1c3.5-1.8,7.1-1.6,10.6-0.1c5.2-0.3,2.2,3.2,2.4,5.2
		c-0.7,1.5-1.8,2.6-2.8,0.5c-0.6-1.3-1.8-2.1-2.3-3.4c-1.6-1.3-3.3-0.9-5-0.3C888.7,281,888.4,281,888.1,281z"/>
	<path class="st43" d="M908.2,295.7c-0.3,1.5,0.2,3.2-1.1,4.6c-1.8-0.4-0.5-2.9-2.3-3.2c-0.9-0.5-1.7-1.7-2.9-0.5
		c-1,0.9-2,1.1-2.6-0.4c-0.5-1.5,0.6-2,1.6-2.5C903.9,292.1,906.3,292.8,908.2,295.7z"/>
	<path class="st129" d="M923,229c-4,2.4-6,7.1-10.5,8.9c0.5-0.7,0.8-1.5,1.5-2c8.5-5.8,10.5-14.1,8.9-23.7c-0.2-0.3-0.3-0.5-0.3-0.8
		c0-0.3,0.1-0.4,0.2-0.4c0.4-0.3,0.8-0.3,1.2,0C923.5,217,925.2,223.1,923,229z"/>
	<path class="st28" d="M893,305.1c4.1-6.5,3.9-7.4-1.5-13.1c-1.6-1.6-3.6-2.9-4.5-5.2c4.2,1.9,7.1,5.2,9,9.2
		C897.8,299.6,897.7,303.3,893,305.1z"/>
	<path class="st131" d="M896,236c0.4,0,0.8,0,1.2,0.1c-3,5.7-9.3,8.2-13.1,13.1c0-0.4-0.1-0.8-0.1-1.2
		C886.8,242.8,893.2,241.2,896,236z"/>
	<path class="st105" d="M908,225.1c1-4.6,6-6.2,8-10.1c1.1-1.4,1.7-3.4,4-3.2c0.3,0.2,0.4,0.5,0.3,0.7c-0.1,0.2-0.2,0.4-0.3,0.4
		C916.3,217.3,912.3,221.3,908,225.1z"/>
	<path class="st37" d="M891,266c2.5-5.2,6.9-8.5,11.2-11.9C899.2,258.7,895.2,262.5,891,266z"/>
	<path class="st37" d="M904,246.9c-2.1,5-6.1,8-10.4,10.9C896.5,253.7,900.1,250.2,904,246.9z"/>
	<path class="st98" d="M918,315c-1.6,2.4-3.6,4.4-6,6c-0.8-0.4-0.3-1.5-1-2c0.5-1.4,0.6-3.1,2.8-3.1c1.1-0.5,1.3-2.6,3.2-1.9
		C917.3,314.3,917.6,314.6,918,315z"/>
	<path class="st93" d="M911,319c0.8,0.4,1,1.2,1,2c0,0.3-0.1,0.6-0.1,0.9c-0.7,1.5-1.1,3.3-3,3.9c-0.6,0.7-1.3,1.4-1.9,2.1
		c-0.9,0-1.6-0.2-2-1.1c-0.5-1.1,0.3-1.6,0.9-2.2c1.8-1.5,3.2-3.4,5-4.9C910.9,319.5,910.9,319.3,911,319z"/>
	<path class="st37" d="M917,314c-1.1,0.6-2.1,1.3-3.2,1.9c1.8-3.8,5.3-6.1,8.2-8.9c0,0.4,0.1,0.7,0.1,1.1
		C920.4,310.1,918.7,312,917,314z"/>
	<path class="st28" d="M888.7,294.1c4.7,3.2,5.4,5.9,2.4,8.9C893.6,299.2,889.9,297,888.7,294.1z"/>
	<path class="st54" d="M885,279.9c-0.8,3-1.2,6-0.9,9.1C882.2,285.7,882.1,282.7,885,279.9z"/>
	<path class="st98" d="M910.9,319.8c-1.3,2.1-2.4,4.3-4.8,5.2c-0.6-0.3-0.6-0.7-0.1-1.1C907.4,322.3,908.4,320.2,910.9,319.8z"/>
	<path class="st129" d="M905.1,251.3c0.2-3,2-4.5,4.7-5.3C909.1,248.5,906.8,249.6,905.1,251.3z"/>
	<path class="st54" d="M899,284c-0.3-2,1-4.7-2.4-5.2C900.4,278.2,900.8,279.1,899,284z"/>
	<path class="st132" d="M883.9,307c2.3,0,4.6,0,6.9-0.1C888.5,308.7,886.2,308.3,883.9,307z"/>
	<path class="st132" d="M891,305.9c-1.7-0.1-3.5,0.7-5-0.8c1.8,0.1,3.3-0.6,4.8-1.5C890.9,304.4,890.9,305.2,891,305.9z"/>
	<path class="st133" d="M883.9,267.8c0.4,0.7,0.7,1.5,1.1,2.2c-0.7,0.9-1.9,1.3-2.5,0.5C881.8,269.4,883,268.5,883.9,267.8z"/>
	<path class="st81" d="M920,212.9c-0.1-0.3-0.1-0.6-0.1-1c-0.5-1.4-0.1-2.3,1.3-2.5c1-0.2,2,0.1,1.9,1.5c0,0.4-0.1,0.8-0.1,1.2
		C921.7,211.7,920.9,212.5,920,212.9z"/>
	<path class="st54" d="M889,280.8c1.8-1.7,3.4-2,5,0.3C892.4,280.3,890.7,281,889,280.8z"/>
	<path class="st134" d="M906,323.9c0,0.4,0.1,0.7,0.1,1.1c-0.4,0.6-0.7,1.3-1.1,1.9c-0.3,0-0.6,0.1-0.9,0.2c-0.4,0-0.7-0.1-1.1-0.1
		C904,326,905,325,906,323.9z"/>
	<path class="st93" d="M878,328c1.2-1.1,2.5-2.1,3.7-3.3c1.2-1.1,2.3-2.2,4.2-3.9c-0.4,3.6-7.5,6.8,0.1,9.1c-3.3,2.2-6.7,0.7-10,0
		C876.7,329.3,877.3,328.7,878,328z"/>
	<path class="st93" d="M886,330c5.2-2,10.7-0.4,16-1C896.8,331.1,891.3,329.5,886,330z"/>
	<path class="st93" d="M863,330c3.7,0,7.3,0,11,0C870.3,331.7,866.7,331.3,863,330z"/>
	<path class="st6" d="M838,330c2.7,0,5.4,0,8.1,0C843.3,331.5,840.7,331.5,838,330z"/>
	<path class="st93" d="M857,328c1-1.2,2.1-2.4,3.3-3.8c0.9,2.1-1.1,2.6-1.3,3.8C858.3,328,857.7,328,857,328z"/>
	<path class="st93" d="M859,328c1,0.6,1.5,2.2,3,2C859.2,332.1,859.1,330.1,859,328z"/>
	<path class="st135" d="M793.8,339.7c-1.6,0.1-2.6,1.3-3.6,2.3c-3.4,3.6-6.8,4.2-10.2,0c-0.6-2.3-4.9-3.2-3.5-5.7
		c1.1-1.9,4.5-1.2,7-1.2c2.6-0.1,5.2,0,7.9-0.1C795.3,334.9,795.7,336.7,793.8,339.7z"/>
	<path class="st81" d="M907,222c-0.3,0.3-0.7,0.6-1,0.9c-1.5,0.3-2.3,3.5-3.8,1.9c-2.4-2.6,0.8-4.6,1.9-6.8c0.3-0.4,0.6-0.5,1.1-0.3
		c0.9,0.9,1.4,2.1,2.2,3.1C907.4,221.3,907.3,221.7,907,222z"/>
	<path class="st7" d="M905,218c-0.3,0-0.6,0-0.9,0.1c1.8-3.8,2.5-8.2,5.9-11.1c0.1,0.4,0.1,0.8,0.2,1.2
		C910.7,212.2,908.8,215.9,905,218z"/>
	<path class="st4" d="M923,211c-1.7-1.7-2.6-0.9-3.2,1c-1.3,1-2.5,2-3.8,3.1c-0.3-0.3-0.6-0.7-1-1c2.9-2.5,4.5-6.1,8-8
		c0.3,1.7,0.6,3.3,1,5C923.7,211,923.3,211,923,211z"/>
	<path class="st113" d="M905,218c1.8-3.2,4.4-6.1,5.1-9.8c4.2-4.6,5.7-10.7,9-15.8c0.9-1.3,1-3.2,2.7-4c2.9,6.6,1.4,15.1-3.3,19.8
		c-1.7,1.7-3.7,3.3-4.7,5.7c-1,0.3-1.6,0.9-1.8,2c-1.3,2-2.7,4-5,4.9C904.1,221.3,905.3,219.1,905,218z"/>
	<path class="st4" d="M914.3,266.2c2.9-0.8,4.1-4,6.7-5.2c0,0.4,0,0.7,0,1.1c-3.1,4-6.9,7.4-11,10.6
		C910.6,270,913.7,268.9,914.3,266.2z"/>
	<path class="st7" d="M574.9,393c-2.2-2.4-4.4-4.8-6.5-7.3c-4-4.7-3.1-8.8,2.5-12c0.8,0.7,0.6,1.5,0.1,2.3c-2.1,2.7-0.4,4.8,1.2,6.9
		c1.9,2.4,4.6,4.1,5.8,7.1c0.7,2.6,0.8,5.2,0,7.7c-1,0.8-2,1.6-2.9,2.4c-0.4-0.3-0.6-0.7-0.5-1.2C575.1,397,576.4,395.1,574.9,393z"
		/>
	<path class="st7" d="M514,368.1c0.1-1.1,0.1-2.3,0.2-3.4c7.9,7.9,16.8,14.7,23.9,23.3c-0.3,0.9-0.9,1.5-1.7,2.1
		c-0.4,0.2-0.8,0.3-1.3,0.3c-5.8-4-10.3-9.3-14.8-14.7c-0.5-1.5-1.5-2.4-2.9-3C515.8,371.5,514,370.4,514,368.1z"/>
	<path class="st43" d="M539,389c6.1,5.3,11.8,11,16,18c0,1-0.3,1.9-1.4,2.3c-1.3,0-2.2-0.7-3-1.5c-4.4-4.5-8.8-8.9-13.1-13.4
		c-1-1.1-2.7-2.2-1.6-4.2l0.2-0.3C537,389.4,538,389.1,539,389z"/>
	<path class="st96" d="M554,409.1c0-0.8,0.2-1.6,1-2.1c6.7,5.6,13.4,11.1,18.8,18c-0.7,1.1-0.7,2.6-2.1,3.3
		C564.4,423.2,558.4,416.9,554,409.1z"/>
	<path class="st136" d="M630,395c-3.3,0.8-1.2,2.1-0.3,3.2c2,2.7,5.5,4.1,6.2,7.8c-7.5-6.8-13.9-14.7-21-22
		c-0.3-0.3-0.5-0.7-0.4-1.2c0.3-0.9,0.6-1.7,1.5-2.1C620.7,385.5,625.4,390.2,630,395z"/>
	<path class="st96" d="M575,399c0,0.4,0,0.8,0.1,1.1c-2,2.1-10.9,2.7-13.4,0.7c-1.5-1.1,0.3-1.9,0.5-2.9c0.7-0.8,0-2.8,2.2-2.2
		c2,4.4,5.3,5.1,9.4,3C574.2,398.4,574.6,398.4,575,399z"/>
	<path class="st137" d="M588.1,394.4c0.1,3-1.2,6,0.6,9c0.9,1.4-0.5,1.6-1.5,1.6c-1,0-2.2,0-1.8-1.5c1-4.2,1.1-8.4-0.4-12.6
		c-0.4-1.1,0.3-2.1,1.3-2.3c1.1-0.2,1.7,0.9,1.7,1.9C588.2,391.8,588.1,393.1,588.1,394.4z"/>
	<path class="st38" d="M604.6,432.2c2.4,0.7,3.3,2.4,0.8,3.5c-5.2,2.2-10.4,4.6-16.3,4.3c-1.5-0.1-2.5-0.7-3-2.1
		c6.6,1.8,12.4-1.6,18.5-3.2C605.7,434.5,604.8,433.1,604.6,432.2z"/>
	<path class="st105" d="M572,373.2c3.6-0.7,6.9,1.6,10.6,1c-0.4,2.4-0.8,4.5-1.2,7c-3.1-1.2-2.6-6.2-6.5-6.3
		C574.2,373.9,572.1,375.5,572,373.2z"/>
	<path class="st15" d="M615,382.9c0,0.4,0,0.7,0,1.1c-3.4-3-6.7-5.9-9-9.9c0.4-0.4,0.7-0.8,1.1-1.1c2.7,0.8,5.3,1.8,6.2,4.9
		c-0.2,0.4-1.9,0.2-0.4,1.3C614.1,380,615.4,381,615,382.9z"/>
	<path class="st7" d="M609,431.9c0,0.4,0,0.7-0.1,1.1c-1.3-1.1-2.5-2.5-3.9-3.3c-2.2-1.1-1.1,0.7-1.1,1.5c-1.8-0.2-2.6-1.6-3.3-3.1
		c0.8-2.4-3.5-3.3-1.6-5.9C602.9,424.9,605.8,428.6,609,431.9z"/>
	<path class="st6" d="M572,428c0-1.3-0.2-2.8,1.8-3c1.3,2.6,4.9,3.6,5.3,6.9l-0.1,0.3c-0.7,0.5-0.1,1.7-1.1,2.1
		c-0.7,0-1.2-0.5-1.6-1c-0.6-1.2-1.6-2-2.8-2.5C572.5,430,571.4,429.4,572,428z"/>
	<path class="st5" d="M599,422.2c0.1,1.9,1.6,2.8,2.6,3.9c1.4,1.6,0.3,1.8-1,2c-1.9-2-3.8-4-5.7-6c-0.6-1.3-0.7-2.3,1.2-2.2
		C597.1,420.7,598.1,421.4,599,422.2z"/>
	<path class="st7" d="M596.2,419.9c-0.9,0.4-1.2,1.3-1.2,2.2c-2-1.4-3.7-3-5-5.1c-0.4-1-1.8-2-0.8-3c1.1-1.1,2-0.1,2.6,1
		C593.3,416.6,594.7,418.3,596.2,419.9z"/>
	<path class="st126" d="M591.9,415c-0.7-0.2-1.4-0.4-2.1-0.6c0.1,0.9,0.1,1.8,0.2,2.6c-1.1-1-3.2-2-1-3.6
		C590.1,412.5,591.9,412.7,591.9,415z"/>
	<path class="st126" d="M512.1,361.9c-2-1.1-3.9-2.4-4.1-5C509.8,358.3,511.4,359.7,512.1,361.9z"/>
	<path class="st138" d="M564.3,395.8c-0.7,0.7-1.4,1.4-2.2,2.2c0-0.8-0.2-1.6-0.1-2.5c0.1-0.9-0.4-2.4,0.9-2.4
		C564.6,393.2,564,394.8,564.3,395.8z"/>
	<path class="st11" d="M578,397.7c0-2.6,0-5.2,0-7.7C579.7,392.5,579.7,395.1,578,397.7z"/>
	<path class="st139" d="M539,389c-0.6,1.5-1.5,2-2.9,0.9c-0.1-1.4,0.7-1.8,1.9-1.9C538.4,388.3,538.7,388.6,539,389z"/>
	<path class="st11" d="M575,399c-0.4,0-0.9-0.1-1.3-0.1c0.6-1.9,1.8-3.7,1.2-5.8C577,395,575.8,397,575,399z"/>
	<path class="st133" d="M572,373.2c1,0.5,2,1.1,2.9,1.6c-1.3,0.4-2.6,0.8-4,1.2c0-0.8-0.1-1.5-0.1-2.3
		C571.1,373.1,571.5,373,572,373.2z"/>
	<path class="st0" d="M577,433.1c0.3,0.3,0.7,0.6,1,0.9c0.9,0.4,1.6,1.1,2.3,1.8c1.1,1.2,2.8,2.2,2,4.1c-0.8,1.7-2.5,2-4.2,2
		c-2.7,0.1-5.1,1.3-7.6,2c-3,0.8-5.8,0.8-8.6-0.7c-1.1-0.6-2-1.5-2.8-2.5c-7.3-8.7-15.8-16.1-23.5-24.4c-3.2-4-6.7-7.7-10.8-10.7
		c-1.1-0.8-2-1.9-2.8-3c-1.2-1.9-2.8-3.4-4.5-4.7c-0.5-0.4-1-0.8-1.5-1.3c-1.1-1.1-2.4-2.1-3.1-3.5c-4.1-4.3-7.7-9-12.1-13
		c-2.3-2.1-4.4-4.4-5.9-7.2c0-6.1-0.1-12.3-0.1-18.4c0-1.2-0.8-2.9,0.9-3.5c1.5-0.5,2.3,1.1,3.2,2c5,5,10,10,14.9,15
		c1.3,1.3,2.7,2.6,4,3.9c1.3,0.7,2.4,1.7,3,3.1c4.9,5.1,9.4,10.6,14.9,15c5.3,7,11.8,12.9,18.1,18.9c6,6.3,12,12.6,18,18.9
		c0.7,0.7,1.3,1.3,2,2C575.2,430.8,576.3,431.7,577,433.1z"/>
	<path class="st1" d="M495,373c6.4,6.6,13.6,12.4,18.9,20c-1.4,1.1-3-0.2-4.4,0.4c-5-2.4-7.8-7.2-11.6-10.9c-0.6-0.6-0.5-1.5,0-2.3
		c-0.7-2.4-2.1-2.3-3.9-1.2c1.4-2,1.4-4,0-6C494.4,373,494.7,373,495,373z"/>
	<path class="st10" d="M493,360c0.3,0,0.6-0.1,0.9-0.2c0,2.4,0,4.8,0,7.2c-0.6-0.5-2.6,0.3-1.7-1.1C493.4,364,492.7,362,493,360z"/>
	<path class="st6" d="M562,442.3c2.9,2.7,6,1.6,9.2,0.8c1.6-0.4,3.2-0.9,4.7-1.3c7.3-1.9,7.3-1.9,2.1-7.8c0-0.8,0.1-1.5,0.9-1.9
		c0.2,2.1,1.9,3,3.1,4.4c2.7,3.4,2,5.8-2.1,6.2c-6.3,0.7-12.3,4-18.9,2.2c-0.1-0.2-0.2-0.4-0.3-0.6
		C560.7,443.5,561.2,442.8,562,442.3z"/>
	<path class="st6" d="M561,445c-6.5,3.1-13.6,3.8-20.4,5.3c-1,0.2-2.4-1.5-3.6-2.3c-0.7-0.3-1.3-0.7-1.5-1.5c0-0.8,0.1-1.5,1-1.8
		c7.8,3.7,15,0.9,22.2-1.8C560.5,442.4,560.5,444,561,445L561,445z"/>
	<path class="st5" d="M536,447c0.3,0.3,0.7,0.7,1,1c-3.1,2.8-6.6,4.1-10.8,4.1c-2.1,0-4.4-0.9-6.2,0.9c-2.3,1.2-4.2,0.6-6-1
		c-0.2-0.3-0.3-0.5-0.2-0.7c0.1-0.2,0.2-0.4,0.3-0.4c5.9,1.1,11.6-0.7,17.5-1.1c1.2-0.1,3.1-0.5,2.4-2.8
		C534.6,446.5,535.3,446.4,536,447z"/>
	<path class="st113" d="M495.8,445.7c0.6-2.1-1-5.2,0.9-6c2.5-1,3.4,2.3,5,3.9c1.9,2,3.9,4,5.8,6c0.7,0.8,1.3,2-0.1,2.3
		c-3,0.6-6.3,1.6-9.2,0.9C494.2,452,496.3,448.2,495.8,445.7z"/>
	<path class="st2" d="M514,450.9c0,0.4,0,0.7,0,1.1c-1.9,0-2.2-1.7-3-2.9c0.4,0,0.7-0.1,1.1-0.1C512.7,449.6,513.4,450.3,514,450.9z
		"/>
	<path class="st116" d="M615,382.9c-1.8-2-3.6-4.1-5.6-6.3c1.8-0.8,2.4,1.5,3.8,1.3c1,1,1.9,1.9,2.9,2.9
		C616,381.6,616,382.5,615,382.9z"/>
	<path class="st28" d="M607.1,372c-1.9-1.2-3.7-2.4-4.1-4.8C604.9,368.3,606.5,369.8,607.1,372z"/>
	<path class="st22" d="M493.9,386.9c0,2.1,0,4.1,0,6.2C491.1,391.6,491.1,389.8,493.9,386.9z"/>
	<path class="st93" d="M494,420c-4.3-1.8-0.8-4.7-0.9-7c0.3,0,0.6,0,0.9-0.1C493.9,415.3,494,417.7,494,420z"/>
	<path class="st101" d="M501.9,414c2.5-0.7,3.9,2.2,6.3,1.9c4.6,1.9,8,4.8,9.3,9.8c-0.2,0.7-0.7,1.2-1.4,1.6
		c-1.2,0.4-1.6-0.7-2.3-1.2C509.3,422.6,505.8,418.1,501.9,414z"/>
	<path class="st97" d="M525,438c-2.1-1.7-4.1-3.4-5.3-5.9c1.4-1.4-1.4-3,0.3-4.3c3.5,0.4,5.2,2.8,6.3,5.7c-0.3,1.3-0.6,2.6-0.9,3.9
		C525.3,437.6,525.2,437.8,525,438z"/>
	<path class="st4" d="M520,428.2c0.4,0.8,0.7,1.7,1.2,2.5c1.7,2.7-0.5,1.4-1.5,1.4c-1.3-0.2-2.2-0.8-2.7-2.1c-0.4-1-1.6-1.7-1-3
		c0.4-0.4,0.8-0.7,1.1-1.1C518.9,425.7,519.7,426.6,520,428.2z"/>
	<path class="st97" d="M531.9,445.2c-2.3-2.4-4.6-4.8-6.9-7.2l0.2-0.2c4.1-0.4,5.4,2.9,7.3,5.4C532.7,443.9,532.6,444.7,531.9,445.2
		z"/>
	<path class="st2" d="M531.9,445.2c0-0.7,0-1.5,0.1-2.2c0.4-0.3,0.8-0.5,1.2-0.5c1.5,0.3,2.6,1.1,2.8,2.7c0,0.6,0,1.2,0,1.8
		c-0.7,0-1.4,0-2.1,0C533.2,446.4,532.6,445.8,531.9,445.2z"/>
	<path class="st129" d="M516,427c0.3,1,0.7,2,1,3c-1.3-1.1-2.9-2-3.1-4C514.6,426.4,515.3,426.7,516,427z"/>
	<path class="st0" d="M536,445.2c-0.9-0.7-1.9-1.5-2.8-2.2c-1.1-0.5-1.8-1.2-2.3-2.3c-0.8-1.6-2.1-2.8-3.6-3.8
		c-0.9-0.7-1.8-1.5-1.5-2.8c-1.4-2.5-3.3-4.4-5.8-5.8c-1-0.8-1.9-1.5-2.9-2.3c-1.9-4.3-5.8-6.8-8.9-10.1c-1.7-2-3-4.6-5.1-5.9
		c-11.5-7.1-7.7-18.5-8.2-28.6c-0.1-2.4,1.7-1.2,2.9-1.1c3.5,4.8,7.8,8.8,12.1,12.9c3.1,0.8,4.5,3.7,6.9,5.5
		c13.1,14.1,26.9,27.6,40.1,41.6c0.8,0.8,1.5,1.7,1.7,2.9c0,0.5,0.2,1.2-0.1,1.4C554.3,447.9,540.1,448.3,536,445.2z"/>
	<path class="st140" d="M912.1,323.2c3.6-2.3,5.5-6.6,9.8-9.1c-0.2,4.7,2.1,9.9-1.1,12.5c-1.8,1.5-7.3,3.3-10.7-0.5
		C910.5,324.9,911,323.9,912.1,323.2z"/>
	<path class="st98" d="M912.1,323.2c-0.3,1.2-0.6,2.4-2,2.8c-0.4,0-0.8-0.1-1.2-0.1c0.9-1.4,1.3-3.2,3-3.9
		C912,322.4,912.1,322.8,912.1,323.2z"/>
	<path class="st105" d="M906.9,220.8c1.7-1.6,3.4-3.3,5-4.9c-0.3,3.1-2.8,4.5-5,6.1C906.9,221.6,906.9,221.2,906.9,220.8z"/>
	<path class="st16" d="M521,375.1c-1-1-2-2-3-3.1C519.9,372.1,520.9,373.1,521,375.1z"/>
	<path class="st107" d="M577,433.1c-1-1-2-2-3-3.1C575.9,430.1,576.9,431.1,577,433.1z"/>
	<path class="st6" d="M556.8,441.4c-8.6-8.7-17.3-17.2-25.8-26c-5.2-5.3-10.1-10.8-15.1-16.2c-0.3-1-1.5-1.9-0.8-3.1
		c0.4-0.7,1.1-0.4,1.7,0c0.4,0.4,0.8,0.8,1.2,1.2c1.4,1.8,3,3.4,4.8,4.8c0.7,1,1.5,2,2.2,3c4.1,3.3,7.6,7.2,11.2,10.9
		c8.3,7.6,16.3,15.5,23.6,24.1C558.9,440.8,557.6,440.6,556.8,441.4z"/>
	<path class="st141" d="M516.8,396c-2.5,0.4-0.4,2.2-0.9,3.2c-2-2-4-4-6-6.1c1.2-4.4,2.7,1.1,3.9-0.1C514.9,394,515.9,395,516.8,396
		z"/>
	<path class="st97" d="M536.2,415.9c-4.4-3-7.9-6.9-11.2-10.9C529.8,407.5,533.3,411.4,536.2,415.9z"/>
	<path class="st93" d="M556.8,441.4c-0.8-4.3,2.1-0.7,2.9-1.4c0.7,0.8,1.5,1.5,2.2,2.3c-0.3,0.9-0.7,1.8-1,2.7
		c-0.8-0.6-1.6-1.2-2.4-1.8C557.4,443.2,556.8,442.6,556.8,441.4z"/>
	<path class="st141" d="M522.8,402c-2.6-0.6-4.2-2.2-4.8-4.8C520.1,398.3,521.7,399.9,522.8,402z"/>
	<path class="st5" d="M531.8,440c0.5,1,0.9,1.9,1.4,2.9c-0.4,0-0.8,0-1.2,0.1c-2.6-1.3-3.8-4.4-6.7-5.3c0.1-1.3-2.7-2.9,0.5-3.7
		c0.7,0.7,1.5,1.5,2.2,2.2C529.1,437.7,530.3,438.9,531.8,440z"/>
	<path class="st97" d="M531.8,440c-2.1-0.4-3.4-1.6-3.8-3.8C529.9,436.9,530.8,438.5,531.8,440z"/>
</g>
</svg>
