<svg version="1.1" id="Layer_1" xmlns="http://www.w3.org/2000/svg" x="0" y="0" viewBox="0 0 1052.7 769.5" xml:space="preserve"><style>.st0{fill:#fefefe}.st1{fill:#231e1a}.st2{fill:#1c1713}.st4{fill:#1f1a16}.st5{fill:#201b17}.st6{fill:#211c18}.st7{fill:#221d19}.st8{fill:#1e1915}.st9{fill:#1e1914}.st10{fill:#231f1b}.st11{fill:#312c28}.st14{fill:#25201c}.st16{fill:#2e2925}.st17{fill:#030303}.st19{fill:#010101}.st21{fill:#35322e}.st22{fill:#201b18}.st27{fill:#020202}.st28{fill:#2c2723}.st31{fill:#1b1712}.st32{fill:#35312e}.st35{fill:#393431}.st37{fill:#342f2b}.st38{fill:#413c38}.st40{fill:#28231f}.st41{fill:#37322e}.st43{fill:#2e2926}.st45{fill:#2a2521}.st46{fill:#4c4744}.st49{fill:#47413f}.st55{fill:#403c38}.st56{fill:#413a38}.st57{fill:#37322f}.st60{fill:#403a37}.st61{fill:#2c2924}.st64{fill:#2b2623}.st72{fill:#1f1a17}.st73{fill:#392f2e}.st74{fill:#3e3433}.st79{fill:#494440}.st89{fill:#55534f}.st92{fill:#1a1511}.st95{fill:#27221e}.st96{fill:#292420}.st99{fill:#25201d}.st103{fill:#322d29}.st105{fill:#332e2a}.st106{fill:#2d2824}.st108{fill:#241f1b}.st111{fill:#fdfdfd}.st113{fill:#fcfcfc}.st116{fill:#15100c}.st121{fill:#26211d}.st123{fill:#37342f}.st124{fill:#221e19}.st125{fill:#25221d}.st126{fill:#2f2a26}.st129{fill:#302b27}.st132{fill:#35302c}.st133{fill:#3f3a36}.st142{fill:#231e19}</style><path class="st0" d="M526.9 769.4c-173.1 0-346.3 0-519.4.1-5.2 0-6.4-1.2-6.4-6.4.1-251.8.1-503.6-.1-755.4 0-5.2 1.2-6.4 6.4-6.4 346.3.1 692.6.1 1038.9 0 5.2 0 6.4 1.2 6.4 6.4-.1 251.8-.1 503.6 0 755.4 0 5.2-1.2 6.4-6.4 6.4-173.1-.2-346.3-.1-519.4-.1z"/><path d="M167.3 93.1c-5.1 4.9-9 8.4-15.5 11.3 9.3-18 13.9-36 18.2-54.4 4.4 17.8 8.7 35.5 17.9 52.6-6.7-.8-10.2-5.1-15-9.5v7.1c0 69.6.1 139.2-.1 208.7 0 5.5 1.3 7.3 6.8 6.7 4.1-.5 8.4-.2 12.6 0 1.8.1 4.3-1.1 4.5 2.5.2 4.1-2.7 2.9-4.8 3-4.9.1-9.8.2-14.7 0-3.3-.2-4.6.7-4.3 4.2.3 3.5.1 7 .1 10.5 0 100.3.1 200.6-.1 300.9 0 5.7 1.1 7.3 7.1 7.2 23.3-.4 46.5-.3 69.8-.1 4.4 0 6.2-.9 5.8-5.6-.4-5.1-.1-10.2-.1-15.4 0-1.9-.1-3.7 2.8-3.7 2.8 0 2.8 1.7 2.8 3.6 0 5.6.2 11.2-.1 16.8-.2 3.4 1 4.7 4.3 4.2 1.1-.2 2.3 0 3.5 0 140.1 0 280.2 0 420.3.2 6.4 0 8.5-1.6 7.8-7.9-.5-4.4-.1-8.8-.1-13.3 0-2 .1-3.6 2.9-3.6 2.9 0 2.7 1.8 2.7 3.7 0 5.4.1 10.7 0 16.1-.1 3.2.2 4.9 4.3 4.9 50.3-.2 100.5-.3 150.8-.3 3.6 0 4.3-1.4 4.1-4.5-.2-3.9 0-7.9-.1-11.9 0-1.7.1-3.1 2.5-3.2 2.5-.1 3.4.9 3.1 3.2-.1.9 0 1.9 0 2.8.1 13.4.1 13.4 13.2 13.4h85.2c-2.7-5-8.1-7.8-8.5-14.5 16.7 8.9 34.5 13.2 52.7 17.4-17.7 4.7-35.6 8.6-52.6 18 .9-6.7 5-10.1 9.6-15.1h-8.8c-259.2 0-518.5 0-777.7-.1-5.8 0-7.3 1.3-7.1 7.1.4 19.5.2 39.1.1 58.6 0 2 1.9 5.6-2.7 5.6s-2.7-3.6-2.7-5.6c-.1-20-.2-40 0-60 .1-4.5-1.1-5.8-5.7-5.7-20.9.3-41.9.2-62.8 0-2 0-5.6 2-5.6-2.7s3.5-2.7 5.5-2.7c20.9-.1 41.9-.2 62.8 0 4.5.1 5.8-1 5.8-5.7-.1-135.7-.1-271.3-.1-407-.4-45.1-.4-90.5-.4-137.8z"/><path class="st1" d="M266.1 314c6.1-1.8 12.4-.9 18.6-1 63.9-.7 127.8-.9 191.7-1.7 62-.8 124-2 185.9-3.1 11.4-.2 22.7-.7 34.1-1.1.9-.5 1.5-.2 1.8.8-2.7 5.7-8 3.6-12.4 4.1-13.9 0-28-.9-41.8.3-23.4 2-46.8 0-70.2 2-8.2.7-16.7.5-25 .6-26.4.4-52.8-.2-79.2-.1-4.2 0-8.3-.1-12.5 0-4.3 0-8.6 2-13 .8-2.9-1-6-.9-9.1-.9-4.2.1-8.5-.5-12.7 1-3.7.6-7.3.4-11 .4-9.7-2.3-19.3.2-29 .3-19 .2-38-.6-57 .3-4.1-.3-8.2-.4-12.3-.5-12.7 0-25.3.5-38 .2-3-.2-6.4.4-8.9-2.4z"/><path class="st2" d="M557 409.2c-9.4 6.1-19.6 10.4-30.1 14-2 .4-4 1.2-6.2.8-3.3-2.4-.8-3.8 1.1-4.9 3-1.7 6.3-2.6 9.3-4.2 2-1 3.8-2.3 1-4.4-9.4-8.1-17.5-17.4-25.1-27.2-.3-2.1-2.3-4.7 1.6-5.6.7.1 1.3.4 1.8.8 7.6 9 16.7 16.6 24.5 25.5.9 1.1 2.3 1.6 3.7 1.7 2.2.3 4.4.2 6.6.2 5.1 0 9-2.9 13.1-5.2 2.4-1.3 2.2-3.1.9-5.1-.2-.6-.3-1.3-.3-1.9.3-1.1.9-1.7 1.9-2 1.4-.2 2.6.4 3.7 1.1 7.8 2.4 18.9-3 21.5-10.4-.9-2.7-3.1-4.2-5-6.1-1.5-1.9-4.1-3.2-3.4-6.3.5-.4 1.1-.6 1.8-.7 4.2.9 6.1 4.7 9.2 7.1 2.8 3.4 6.2 3.5 10.1 1.9 4.2-1.7 7.4-4.7 11-7.4 2.1-1.6 1.9-3.5.6-5.5-1.3-2.2-3.8-3.7-3.8-6.6.2-1 .8-1.7 1.9-2 3.4-.1 4.3 3.4 6.6 4.8 1.9 1.4 3.8 2.6 6.3 1.7 3.8-1.1 6.8-3.5 9.7-5.9.5-.4 1-.8 1.6-1.1 2.3-1.1 4.4-2.4 6.4-4 2.3-1.4 4.4-1.2 6.3.8.2.7.2 1.3-.2 1.9-6.6 5.2-13.5 10-20.8 14.2-3 1.7-5.8 3.6-8.6 5.6-3.8 3.4-8.8 5.1-12.7 8.5-12.2 7.1-24.4 14.3-36.9 20.9-3.1 1.5-6.6 2.5-9.1 5z"/><path d="M686.8 310c3.8-.7 8.4 1.8 11.2-2.7.6-2.1 2.7-3 4.1-4.4v.1c5.2-3.6 9.1-8.7 13.8-13 10.8-10.6 21.1-21.7 32.3-31.9 0-.4.1-.8.3-1.2 8.4-7.9 15.4-17 22.9-25.7 1.9-2.3 3.8-4.6 5.9-6.7 3.3-4.9 5.9-10.4 11.5-13.3 1-.1 2 .1 2.8.8-.1 4.6-3.6 7.3-6.1 10.4-7.9 10.2-16.2 20.1-24.9 29.7-6.5 8.9-14.6 16.4-22 24.5-1.7 1.8-3.5 3.6-4.4 6.1-4.4 6.3-9.7 11.6-16 16-3.8 1.8-6.7 4.6-9.3 7.9 1.7 1.6 3.4.6 4.9 1.2 2.6.7 5.5.3 8 1.6 1.2.9 2 2 1.5 3.6-5.2 2.2-10.7 1.3-16 1.4-6.4.1-11.7 1.6-16.8 6.1-10.3 9.1-21 17.8-32.9 24.9-1.5.6-2.6.2-3.4-1.1-.4-2.9 2.1-3.8 3.8-5.1 2.3-1.8 4.1-3.6 3-6.8.2-1 .8-1.7 1.8-2.1 7.4 1.2 11.4-4.3 16.1-8.3 2.4-2.1 6.1-3.3 4.5-7.7-.1-2.5 1.9-3.2 3.4-4.3z" fill="#18130f"/><path class="st4" d="M861.2 87.7c4.9-1 5.5-.6 5.5 5.5.1 13.7 0 27.4 0 41.1.1 36.7-.3 73.4.5 110.1.4 20.7.7 41.3.8 62 0 2.1 1.3 4.6-1.2 6.3-3-3.2-2-7.3-2.1-11-.1-3.9-.1-7.7-.9-11.5-1.2-16-.2-32.1-.5-48.1-.2-8.8.2-17.6-.8-26.4.7-11.8.2-23.6-.4-35.4 1-17.3-.6-34.5-.2-51.8 0-1.2-.5-2.2-1.2-3.2-2.7-4.7.1-10.5-2.7-15.2-2.6 0-2.6 3.5-5.1 3.2-1.4-.7-2-1.9-2.2-3.3 2.5-7.9 8-14.4 10.5-22.3z"/><path class="st5" d="M266.1 314l47.9.3c.9 2 .2 3.6-1.9 3.1-3.7-.8-7.2 1.1-10.3.2-1.5.1-.1 1.6-.5.7-.1-.2.1-.3.4-.3 8-.5 15.9-2.1 24-1.1 7.4 1.8 10.5 5 10.8 11.3-1.2.5-2.5.4-3.2-.5-6.2-7.4-14.6-6.1-22.7-6.1-3.2-.1-6.4-.3-9.6 0-2.1.2-2.1 1.3-.8 2.6.9.9 1.7 1.8 2.4 2.8 1.7 2.7 3.9 4.9 6.6 6.7 1.8 1.2 3.3 2.6 4.5 4.5 1.1 1.7 2.4 3.2 3.9 4.6 1 1 2 2.1 2.9 3.3 1 1.5 2.3 2.7 3.8 3.6 2.6 2.1 4.9 4.5 7 7.1 1 1.8 2.5 3.2 4.3 4.3 2.2 1.8 4.2 3.7 5.8 6 .8 1.8 2.3 3.8.3 5.5-1.4 1.2-2.9-.2-4.3-1-.5-.4-1-.8-1.4-1.3-.7-1.4-1.9-2.3-3.3-2.9-10.4-9.5-20.3-19.4-29.5-30-1-2.9-3-5-5.2-7-1.2-1.3-2.8-2.1-4.3-2.9-.8-.5-1.4-1.2-1.8-1.9-1.1-2.6-3.1-4.3-5.9-5-8.1.8-16.1 1.3-24.2-.1-1.8-3.1-5.8-2.7-8.1-5.1 4-2.4 8.2-1.5 12.4-1.4z"/><path class="st6" d="M657.4 344.9c12.1-9.6 24.4-19 36.3-28.8 3.5-2.9 7.5-2.2 11.2-2.8 5.9-1 12.1-.4 18.1-.5 3.4-3 7.6-3.2 11.8-3.1 13.1.5 26.1.8 39.2.3 20.3-.8 40.7-.4 61.1-.5h2.5c4.1 0 8.2-.1 12.3 0 2.9.1 5.7-.1 8.6.4 1.5.6 3.4.8 2.7 3.3-37.7 1.7-75.5.2-113.3 1.7-14.8.6-29.7.4-44.5.8-5.9.2-10.8 2.1-12.8 8.3-2.7 1.7-4.6 4.7-8.1 5-6 4.5-12.1 9-18.1 13.6-1.7 1.3-3 2.9-5.4 2.5-.5.4-1.1.4-1.6-.2z"/><path class="st2" d="M381 470.5c-15.1 4.9-30.9 6.8-46.4 9.5-24.3 4.2-48.9 6.5-73.5 7.7-2.5-2.4-2.2-5.1-1.1-7.9 6.8 2.2 13.9-1.4 20.7.6.8.8-.1 1.9.4 2.8 6.4-3.7 13.4-1 20.1-2 20.2-2.6 40.1-6.9 60.3-9.7 6.3-.9 12.3-4.3 19-2.9.7.4.9 1 .5 1.9z"/><path class="st7" d="M861.2 87.7c-.6 8.7-7.1 14.8-9.7 22.6.6 2.5-.8 4.4-1.7 6.5-11.9 25.5-26.9 49.2-43.3 72.1-3.5 4.8-5.6 10.8-11.2 13.9-1.3.1-1.9-.7-2.1-1.8 24.2-31.9 44.4-66.1 61.4-102.3 1.8-3.8 4.4-7.3 6.6-11z"/><path class="st8" d="M519.2 423.1c2.5.1 5.1.1 7.6.2-21.4 10.1-43.3 19-66.2 24.9-.9-2.2-2.5-1.8-4.5-1.8-3 0-6.3-.5-5.7-5 6.6-.8 13.1-1.7 19.2-4.4 2.9-1.3 4.8-2.7 3.9-6.1 1.1-3.5-4.4-5.8-1.6-9.5 4.8.6 7 3.8 8 8.1 2.9 8.6 2.9 8.6-6.4 11.6-2 .6-3.8 1.5-5.8 2.1 17-6.3 33.6-13.4 50.5-19.8.4-.2.7-.2 1-.3z"/><path class="st9" d="M450.8 441.3c1.2 3.8 3.7 4.6 7.2 3.4 4.8-1.7 2.3 2 2.5 3.6-.9 1.6-2.5 1.3-3.9 1.5-8.7 2.5-17.4 5.2-26.1 7.4-3-.2-5.6-1.2-7.8-3.2 1.6-5.4 6.5-2.2 9.6-3.6.6-.2 1.2-.4 1.9-.5 2.8-.4 5.5-.9 7.5-3 3.2-1.8 2.5-3.6.3-5.9-4-4-8.3-7.9-11.1-13 .3-2 1.7-2.7 3.5-2.9.7.1 1.3.3 1.9.6 2.6 1.8 4.4 4.6 7.5 5.8 3.2 2.5 7 4.8 7 9.8z"/><path class="st10" d="M253.7 437.5c-.2-.2-.4-.4-.4-.5 1.8-20.1-2.1-40.2.4-60.2.6-5.2-1-10.1-1.2-15.2-.6-11.5 2.5-23 .2-34.5-.4-2 0-4.2-1.6-5.8 1.2-.9 2.3-.8 3.4.1 2.9 7.1 3.5 14.4 2.4 21.9-1.4 7.5-.1 15 0 22.4.1 6.2.8 12.3 0 18.5-1 3.1-1.4 6.3-.5 9.6.4 1.8-.1 3.7.3 5.5 1.1 8.3.6 16.6.6 24.9-.2 3.2.2 6.4-.7 9.6-.6 1.5-1.3 2.9-2.9 3.7z"/><path class="st11" d="M468.2 507.2c1.1-.1 2.6-.7 3.4-.2 4.6 2.7 8.9 5.2 13.6 0 .6-.7 2.8-.5 3.2 1.4.4 1.6-.2 2.9-2 2.7-5.8-.6-7.1 3.5-7.5 7.6-.5 4.9.8 9.3 6.7 10.7-3.5 5.1-5.9 5.3-9.4.3-2.5-3.6-3.7-6.5-2.7-10.9.8-4.7-1.7-8.2-5.3-11.6z"/><path d="M143.5 304.4c4.8 8.8 7.8 17.8 4.2 27.9-1.9 5.5-6 9.1-10.6 12.7 5.3-8.7 7.2-17.9 6.3-27.7-1.5-2.7.8-6.1-1.6-8.6-1.4-.6-1-1.8-.9-2.9.6-1.1 1.1-2 2.6-1.4z" fill="#332b29"/><path d="M124 685.4c1.5-6.2 4.3-11.6 9.8-15.2 5.4-1.3 2.6 2.7 3.1 4.6-2.5 7-6.7 13.5-5.3 21.4-.3 1.8 1.1 4.4-1.6 5.1-2.3.6-3.3-1.7-4.6-3.2-1.8-4-3-8.2-1.4-12.7z" fill="#2c2824"/><path class="st14" d="M498.2 536c.1-1.3.2-2.6.4-4 3-8.4 3.1-16.8 0-25.2-.1-1.4-.2-2.8-.2-4.1 0-.6.5-1.1.8-1.8 9.3 12.5 10.5 22.4 1.7 37.9-3.5 1.4-3.5-.4-2.7-2.8z"/><path d="M858.4 684c.1-.9.2-1.7.3-2.6 2.5-6.3 3.8-13 5.3-19.6 0-.9-.1-1.8-.1-2.7.3-6.2 4.2-3.1 7-2.7 0 1.9.5 3.9-1.2 5.4-3.2 5.2 1 5.7 4.4 6.7.6.8.7 1.7.3 2.7-1.9 1.9-5.4.7-6.9 3.4-3.5 5.3-4.3 11.3-4 17.5-.5 2.2-1.7 3-3.8 1.9-.4-.4-.9-.8-1.3-1.3-.9-2.9-.9-5.8 0-8.7z" fill="#312c2a"/><path class="st16" d="M358.5 529.3c-1.9-2-.8-4.4-.9-6.6-.2-5.3.1-10.6-5.7-14.6 6.1-2.3 9.4-1.9 9.7 4.6.1 3.7.9 7.3 1.3 11 1.2 1.5 3.4 0 4.6 1.5-1.2 3.3-3.4 5.9-5.9 8.3-3.8.5-1.1-3.6-3.1-4.2z"/><path class="st17" d="M702.1 448.1v11.1c0 1.7-.7 2.5-2.5 2.5-1.9 0-3.1-.3-3.1-2.6 0-7.4.1-14.7 0-22.1 0-2.1.8-2.7 2.9-2.7 2.1 0 2.8.8 2.8 2.8-.1 3.6-.1 7.3-.1 11zM702.1 336.7c0 3.7-.1 7.4 0 11.1.1 2.1-.8 2.8-2.8 2.8-2.1 0-2.8-.7-2.8-2.8.1-7.4 0-14.7 0-22.1 0-1.7.6-2.5 2.4-2.5 1.7.1 3.2.2 3.2 2.5v11zM702.1 521.9c0 3.5-.1 6.9 0 10.4 0 2.2-.5 3.5-3.1 3.4-2.3-.1-2.6-1.3-2.6-3.1v-21.4c0-2 .5-2.8 2.7-2.9 2.7-.1 3 1.2 2.9 3.4.1 3.3.1 6.8.1 10.2zM260.9 522.1v9.7c0 1.8.3 3.7-2.6 3.8-3.3.1-3-1.9-3-4v-20c0-2.1.3-3.4 2.9-3.4 2.9 0 2.7 1.7 2.7 3.6v10.3z"/><path d="M105.8 330.9c-1 5 3.5 8.1 4.4 12.4.3.4.4.7.3 1.1-.1.3-.3.5-.4.5-9.6-8.1-13.2-19.2-9.6-29.4.8-2.8 1.2-5.7 2.6-8.3.6-1 1.5-2 2.6-1.2 1.4 1.1 1 2.7.3 4.1.1.5.1.9-.2 1.3-1 6.5-1 13 0 19.5z" fill="#352f2c"/><path class="st17" d="M702.1 373.6v11.1c0 1.9-.5 3-2.7 3-2 0-2.9-.7-2.9-2.8 0-7.4.1-14.7 0-22.1 0-2.3 1.3-2.5 3.1-2.5 2.3-.1 2.6 1.2 2.6 3-.1 3.4-.1 6.8-.1 10.3z"/><path class="st19" d="M253.9 321.2H251c-4.9 0-9.8-.1-14.6 0-2.3 0-3.4-.6-3.3-3.2.1-2.4 1.5-2.4 3.2-2.5 5.8 0 11.6 0 17.4-.1 2.5 1.1 7.7-2.1 7.1 4.2-.4 1.6-1.6 2.3-3 2.6-1.5.4-2.8 0-3.9-1z"/><path d="M260.9 478.9c0 2.9.1 5.8.1 8.7-.1 2.3-.1 4.6-.1 6.9 0 2 .5 4.1-2.9 4-3.5-.1-2.6-2.3-2.7-4.2-.1-1.4 0-2.8-.1-4.1-1.3-6.1-.3-12.2-.6-18.3 1.9-3.7 4.4-2.5 6.9-.9 1.5 2.8 1.6 5.4-.6 7.9z" fill="#050505"/><path class="st21" d="M257.7 679.8c.5-2.6 2.5-4 4.5-5.4 1.4-1 2.5-.7 3.3.7 0 3.6-2.1 6.5-3.1 9.8-.5 1.5-1.4 3.2.3 4.4 1.4 1 2.6-.3 3.7-1 1.3-.9 2.5-2.1 4.4-1.5 1.2 1.2.7 3 1.8 4.7 2.4-2.6 0-8 5.1-8.6-.1 1.6-.2 3.2-.2 4.8-.1 8.9-.1 8.9-9 7-2-.4-3.4 1-5.2 1.4-2.9.6-6.4 2.5-8.1-2 1.3-4.7 1.7-9.6 2.5-14.3z"/><path d="M702.1 559.2c0 3.5-.1 7 0 10.4 0 2-.6 2.9-2.8 2.9-2.1 0-2.9-.6-2.9-2.8.1-7.2.1-14.4 0-21.6 0-2 .6-2.9 2.8-2.9 2.1 0 2.9.7 2.9 2.8v11.2zM702.1 411.3c0 3.5-.1 7 0 10.4.1 2.1-.7 2.8-2.8 2.8-2.1 0-2.8-.7-2.8-2.8.1-7.2.1-14.4 0-21.6 0-2 .7-2.9 2.8-2.9 2.1 0 2.9.8 2.8 2.8v11.3z"/><path class="st17" d="M215 315.6h10.4c2 0 2.9.7 2.9 2.8 0 2.1-1 2.8-2.9 2.8-6.9 0-13.8-.1-20.7 0-2.1 0-2.8-.8-2.8-2.9 0-2.1.8-2.8 2.8-2.8 3.4.1 6.8.1 10.3.1z"/><path d="M260.9 559.2c0 3.5-.1 7 0 10.4 0 2-.6 2.9-2.8 2.9-2.1 0-2.9-.6-2.9-2.8.1-7.2.1-14.4 0-21.6 0-2 .6-2.9 2.8-2.9 2.1 0 2.9.7 2.9 2.8-.1 3.8 0 7.5 0 11.2zM696.6 484.5c0-3.5.1-7 0-10.4-.1-2.1.8-2.8 2.9-2.8 2.2 0 2.8 1 2.7 2.9-.1 7.2-.1 14.4 0 21.6 0 2.1-.8 2.7-2.9 2.7-2.2 0-2.8-.9-2.7-2.9v-11.1zM702.1 595.7c0 3.7-.1 7.4 0 11.1.1 2.3-1.2 2.6-3.1 2.6-1.7 0-2.5-.7-2.5-2.4v-22.3c0-2.4 1.3-2.5 3.1-2.5 2.4-.1 2.6 1.3 2.5 3.1v10.4zM260.9 595.6c0 3.5-.1 7 0 10.4 0 2.1-.2 3.5-2.9 3.4-2.2-.1-2.7-1.1-2.7-3 0-7.2.1-14.4 0-21.6 0-2.2.9-2.7 2.9-2.7 2.2 0 2.7 1 2.7 2.9-.1 3.6 0 7.1 0 10.6z"/><path class="st22" d="M255.4 470.6c-.1 6.5-.1 13.1-.2 19.6-2.3-6.7-1-13.6-1.2-20.3-.4-10.8-.2-21.6-.3-32.4.2-1.2.3-2.5 1.6-3.3.3.2.5.5.8.7 2.2 6 .8 12.2 1.1 18.4.2 3.4 0 6.8 3.3 9.5-2-4.4-1.9-8.4-.5-12.5 2-2.3 3.1-.2 4.4.9 1.2 1.3 2.4 2.7 2.8 4.5-2 4.1-2.9 8.6-5.2 12.6-2 1.1-4.8.4-6.6 2.3z"/><path d="M124 334.9c-1.4.5-2.3 2.5-4.2 1-1.8-1.4-1.7-3.4-1.3-5.1.8-3.3 1.9-6.5 3-9.7 1.9-2.4 2-5.2 2-7.9.2-.9 1.2-.5 1.7-1-.9-.5-1.5.2-2.1.7-.6.4-1.1.3-1.5-.1.3-5.7 6.9-5 9-10.1 3 8.9-2.8 14.2-5.4 20.3-.8 1.8-.6 3.5-1 5.2-1.6 2.2 2.3 4.5-.2 6.7z" fill="#342a29"/><path d="M861.2 313c-.4-1.4-1.4-1.6-2.6-1.7-.5-.4-.8-.9-.9-1.5 0-.6.2-1.2.5-1.7 1.2-1.4 1.5-3.1 1.4-4.9-.1-1.3-.1-2.6-.1-3.9.2-3.3-.6-6.7 1.1-9.8 2.1-2 3.4-.2 4.9.9 2.9 7.3.6 15 1.4 22.4-1.8 1.3-3.7 2.7-5.7.2z" fill="#0e0d0c"/><path d="M277.6 682.8c-1.9 2.2-2.6 4.8-2.6 7.7 0 1.9 1.6 4.8-2.1 4.3-2.2-.3-4-2.3-2.8-5.3.3-.8.3-1.8.5-2.7-1.4-4.8 1.5-9.4.8-14.2.9-1.6 2.1-1.9 3.6-1 5.1-.5 6.7 1.4 4.4 6.2-.8 1.5-1.2 3.3-1.8 5z" fill="#2d2926"/><path d="M68.1 340.5c1.7-6.7 3.5-13.3 5-20 .5-2.3 1.5-4.3-.9-6.8-2.5-2.7.6-3.5 2.8-4 .7.7 1 1.5 1.1 2.4.5 3.4.5 3.4 3.4 2.1-2.7 10-4.2 20.4-9.9 29.3-2.5.1-2.3-1.3-1.5-3z" fill="#3d3634"/><path class="st27" d="M861.3 450v-8.3c0-1.8.4-3 2.6-3 2.1 0 3 .7 3 2.7 0 5.8-.1 11.5 0 17.3 0 2.2-1.1 2.6-3 2.6-2.3 0-2.7-1.2-2.6-3 .1-2.8 0-5.6 0-8.3z"/><path class="st19" d="M866.9 487.7c0 2.8-.1 5.5 0 8.3.1 2.3-1.3 2.5-3.1 2.5s-2.5-.7-2.5-2.4v-17.3c0-2 .7-2.8 2.8-2.8 2.1 0 2.9.7 2.8 2.8-.1 2.9 0 5.9 0 8.9z"/><path class="st17" d="M866.9 598.3c0 2.8-.1 5.5 0 8.3.1 2.1-.7 2.8-2.8 2.8-2.1 0-2.8-.8-2.8-2.8.1-5.8 0-11.5 0-17.3 0-2.2 1.3-2.5 3.2-2.5 1.8 0 2.4.9 2.4 2.5v9zM861.3 523.6v-8.3c0-2.2 1.3-2.5 3.1-2.5s2.4.9 2.4 2.5v18c0 2-1.2 2.1-2.8 2.1-1.5 0-2.8-.1-2.8-2.1.1-3.2.1-6.5.1-9.7z"/><path class="st27" d="M866.9 376.1c0 2.8-.1 5.5 0 8.3.1 2-.6 2.8-2.8 2.8-2 0-2.9-.6-2.9-2.7.1-5.7.1-11.5 0-17.2 0-2.2 1.2-2.6 3.1-2.5 1.8 0 2.5.8 2.5 2.4.1 2.9.1 5.9.1 8.9z"/><path class="st19" d="M866.9 561.7c0 2.8-.1 5.5 0 8.3.1 2.3-1.3 2.5-3.1 2.5-1.7 0-2.5-.7-2.5-2.4v-17.3c0-2 .7-2.8 2.8-2.8 2.1 0 2.9.7 2.8 2.8-.1 2.9 0 5.9 0 8.9z"/><path class="st27" d="M866.9 339.6v8.3c0 1.7-.7 2.4-2.5 2.4-1.9 0-3.1-.3-3.1-2.5 0-5.7.1-11.5 0-17.2 0-2.1.8-2.7 2.9-2.7 2.1 0 2.8.8 2.8 2.8-.2 3-.1 5.9-.1 8.9z"/><path class="st19" d="M861.3 412.6v-8.3c0-1.7.8-2.4 2.5-2.4 1.8 0 3.1.1 3.1 2.5-.1 5.8-.1 11.5 0 17.3 0 2-.7 2.8-2.9 2.8s-2.8-.9-2.8-2.9c.2-3 .1-6 .1-9z"/><path class="st28" d="M428.4 509.6c-2.4 7.8-4.8 15.6-7.3 23.5-.7 2.3-1.9 4.5-4 5.9-2.6 0-1.9-1.5-1.3-3l5.4-19.5c.3.2.5.3.7.4.1.2.2.4.4.5.5.6.5.5.6-.3.5-3.8-1.9-9.5 5.6-9.2.4.4.5.7.3 1.1-.1.4-.2.6-.4.6z"/><path d="M153.4 696.5c-2.8 1.9-4.6 5.2-8.4 5.6-1-.2-1.8-.8-1.9-1.9.6-3.1 3.3-4.6 5.4-6.6 3.4-4.5 5.3-9.6 5.8-15.2.2-2.6-.2-5.3 2-7.3 6 1 3.1 5.9 4 9.1-.6 6.2-3.3 11.4-6.9 16.3z" fill="#28221f"/><path d="M382.3 506.8c9.8-2.5 19.5-1.8 29.1 1.3-9.8 1.3-19.6 2.9-29.4.3 2.2-1.5 4.4-.8 6.6-.5-1.7-1.2-4.4.5-6.3-1.1z" fill="#413c39"/><path class="st11" d="M565.3 403.5c12.7-6.7 24.4-15.1 37.6-21 .7-.6 1.3-.5 1.8.2-12.4 8.8-25.7 16-39.4 22.3-.5-.3-.6-.7-.5-1 .2-.3.4-.5.5-.5z"/><path class="st31" d="M777.6 224.9c-6.7 10.1-15.5 18.4-23.1 27.7-1.5 1.9-3.1 4.2-6.1 4.3 8.3-11.5 18.2-21.6 27.5-32.2.6-.6 1.2-.6 1.7.2z"/><path class="st32" d="M703.6 664.6c1.8 1.8 1.7 3.7.3 5.6-4.1 5.4-5.4 11.4-4.3 18.1.5 3-.7 5.6-4.1 6-2.9.3-5-.9-4.3-4.5.5-.4 1-.7 1.6-.8 3.4-7.4 3.7-15.9 7.9-23.1.3-.6.7-1.1 1.2-1.5.6-.4 1.2-.3 1.7.2z"/><path d="M986.7 680.2c-.6-.6-1.5-1.2-1.9-1.9-.9-1.8-4.7-2.9-2.3-5.5 2.1-2.3 4.9-.8 6.8.9 2.5 2.3 4.5 2.6 7.1.2 1.2-1.1 2.4-3.4 4.5-1.6 1 .8 2.5 2.1 2.5 3.1 0 2.7-2.8 1.7-4.3 2.3-2.2.8-4 1.9-4.9 4.1-1.2-.3-2-1.3-2.9-2-1.3 0-1.7-3.8-3.6-.7-.2.5-.5.9-1 1.1z" fill="#433e3b"/><path d="M748.1 258.2c-9.9 11.6-20.8 22-32 32.3-.7.6-1.2.6-1.8-.2l28.8-28.8c1.5-1.5 2.6-3.4 5-3.3z" fill="#312e29"/><path class="st8" d="M657.4 344.9c.5 0 1.1 0 1.6.1-3.2 4.4-7.3 7.7-12.3 9.9-.7.5-1.3.4-1.8-.2v-1.4c-.5-2.3-5.4-.9-3.9-4.8 4.8-1 8.3-5.7 13.7-5 .6 1.1 1.6 1.4 2.7 1.4z"/><path class="st35" d="M992.4 678.7c1.4.6 1.5 1.9 1.8 3.1.9 3.8-.2 8.1 4.5 10.6 2.3 1.2.8 4.1-.9 5.9-1.6 1.7-3.5 2.2-5.4.4-1.3-1.3-2.7-2.5-2.8-4.5-.5-.8-.7-1.6-.5-2.6 2.2-1.7 2.6.4 3.4 1.5.8-.9-.5-1.4-.4-2.1-1.6-4.1-2.3-8.2.3-12.3z"/><path d="M382.2 518.1c.6-2.7.6-2.8 2.7-2.8 6.6 0 13.2.1 19.8.2 1.6 1.6 5.3-1.3 5.7 2.7-9.3.8-18.8 1-28.2-.1z" fill="#3a3531"/><path class="st37" d="M136.6 89.4c-1.5 1.8-3 3.7-4.5 5.5-.8.8-1.5 1-2.3 0-.1-2.2-.2-4.3-.3-6.5-1.1-3.6-.5-7.2-.4-10.8.1-2.7 1.4-3.1 3.1-.8-2.8 3.8 2.9 6.2 1.7 9.8.9.9 2.5 1.1 2.7 2.8z"/><path class="st38" d="M78.9 304.1c2.3-5.1 5.3-9.3 11.9-8 1.3.3 2.5 1.3 2.4 2.9-.1 1.2-1.2 1.1-2.1 1.2-8.4.4-9.9 2.5-7.9 11.1.2.8-.3 1.2-1.1 1.2-4.8-1.4-2.6-5.4-3.2-8.4z"/><path d="M873.9 671.6v-2.7c4.2-1.7 5 2.2 6.9 4.2.3.2.4.5.3.9 1.6 5.2-.9 9.3-3.9 13.1-.9 1.2-2.2 2.6-3.8.6-.2-.6-.3-1.3-.2-1.9 1.1-2.7 2.7-5.3 1-8.4-.4-.7-.8-1.5-.9-2.4-.1-1.3.4-2.3.6-3.4z" fill="#312826"/><path class="st40" d="M429.8 456.6c8.9-2.5 17.5-6.2 26.8-6.8-10.3 4.8-21.3 7.2-32.3 10-.5-.6-.6-1.3-.4-2.1 1.7-2.3 3.7-2.3 5.9-1.1z"/><path class="st16" d="M453.5 526.4c1.1 3.4.2 7.3 2.9 10.2 1 1.7.8 2.8-1.5 2.5-8.4-8.4-7.5-18.9-6.6-29.4 4.4 1.5 2.5 5.4 2.8 8.2.3 2.5.1 5.1.1 7.6 0 .2.2.5.4.6.2.1.4 0 .7-.1.4-.2.8 0 1.2.4z"/><path class="st40" d="M381 470.5v-1.3c1.7-2.3 4.2-2.9 6.7-3.3 10.2-1.7 19.8-6.8 30.4-6.5.8.3 1.4.7 1.9 1.3-12.7 4.6-25.8 7.5-39 9.8z"/><path class="st41" d="M132.2 76.8c-1.5-.6-2.6-.6-2.6 1.5 0 3.4-.1 6.7-.1 10.1-1.7-2.5-1.2-5.3-1.1-8 .1-4.2-1-7.6-5.5-9.5 2.2-2.1 4.4-3.3 6.8-2.1 3.2 1.7 2.9 4.9 2.5 8z"/><path class="st16" d="M777.6 224.9c-.6-.1-1.1-.1-1.7-.2 5.8-7.9 11.5-15.7 17.3-23.6.4.5.8.9 1.2 1.4 1.8 2.6-.4 4.1-1.6 5.9-1.1 1.6-2.5 2.8-4.1 3.8-5.2 3-7.4 8.5-11.1 12.7z"/><path d="M358.5 529.3c1 1.4 2 2.8 3.1 4.2-2.9 3.3-5.7 6.6-8.7 9.8-1.5 1.5-3.6 2.2-5.8 1.2-1-.4-1.1-1.5-.8-2.4.8-2 2.6-2.5 4.5-2.7 6-.8 8.4-4.3 7.7-10.1z" fill="#3e3a36"/><path class="st43" d="M644.9 354.6c.6.1 1.2.1 1.8.2-7 5.9-14.2 11.6-22.7 15.2-.4-.3-.6-.6-.5-.9.1-.3.2-.5.4-.5 7.1-4.5 13.4-10.2 21-14z"/><path d="M159 681.4c-1-3.2 2.3-7.8-3-9.7-1.4.7-2.3-.1-3.4-.8-1.4-1.3-2.7-2.6-2.9-4.7 0-.6.2-1.2.6-1.8.6-.3 1.2-.2 1.7.2 9.2 5.1 11.2 9.4 8.4 18.4-.8-.2-.9-1.1-1.4-1.6z" fill="#36332f"/><path class="st45" d="M78.9 304.1c3.5 1.8-.3 6.5 3.2 8.4-.8.6-1.6 1.2-2.5 1.8-1.2 1.3-2.3 2.7-4 4.6-.2-3.3-1.8-6-.5-9.1 1.3-1.9 2.5-3.8 3.8-5.7z"/><path class="st46" d="M125.4 698.2c1.7.2 2.5 2.9 4.4 2 .5-.2 0-2.4 0-3.6 4 1.2 7.9 2.8 12 3.6 2.1 1-1 2.5.4 3.5-7.4 2.7-12.8.9-16.8-5.5z"/><path d="M989.7 691.2v2.9c-3.6-2.4-4.4 1.8-6.5 2.7-1.8 1.5-3.6 2.8-6.1 1.3-1.8-1.8-2.5-4.3.7-4 5.2.5 6.4-3.5 9-6.1.8.1 1.4.5 2 1.1.5.7.9 1.3.9 2.1z" fill="#4d4845"/><path d="M150.8 664.9c-.1.5-.2 1-.4 1.4-5.9 1.1-9.5 6.6-15.2 8.1-.5-1.4 2.1-3.9-1.5-4.3 2.7-3.7 6.3-5.5 10.8-5.7 2.3-.5 4.4-1.1 6.3.5z" fill="#4b4843"/><path class="st49" d="M873.8 685.5c.4 2.8 1.7 2.3 3 .6 2.7-3.6 4.5-7.6 4.4-12.2 3.5 8.2-2.1 12.7-7.1 17.4-1.6.9-2.8.5-3.6-1.1-.1-2.4.3-4.4 3.3-4.7z"/><path d="M415.8 536c.1 1.1.2 2.3 1.3 3-1.6 4-5 5.6-8.9 5.8-1.7.1-3.2-1.2-3.1-2.9.1-1.7 1.6-3.2 3.4-2 5.2 3.7 5.2-1.9 7.3-3.9z" fill="#433f3b"/><path d="M68.1 340.5c.1 1.2.3 2.4 1.6 3-5.8 6.7-8.4 7.2-13 2.1 4-1.5 9.6.5 11.4-5.1z" fill="#504746"/><path class="st32" d="M693.7 678.6c-.2-3.2 1.2-6.2 0-9.8-.9-2.7 3.8-3.5 5.6-5.5 1.6-.9 2.8-1.1 2.9 1.3l-.1.2c-3.7 3.9-4 9.4-6.6 13.9-.6.3-1.2.3-1.8-.1z"/><path class="st35" d="M428.4 509.6v-1.4c-1.5-1.2-.9-3.3-1.9-4.7-.4-.2-.8-.5-1.1-1 .2-3.5 2.6-5.8 4.7-8.3 1.5-1 2.6-1 2.5 1.2-1.4 3.6-3.7 7-1.8 11.3.6 1.4-1 2.5-2.4 2.9z"/><path class="st16" d="M448.2 508.3c1.2-2.4 2.5-4.7 3.7-7.1 2.6-.1 2.5 1.3 1.7 3.1l-.3 2.7c-1.2 5 .3 10.2-.9 15.3-4.1-.1-1.9-3.2-2.3-5-.6-3 1.4-6.6-1.9-9z"/><path d="M257.7 679.8c1.2 5.1 2.1 10.2-2.5 14.3-1.2-3.3-1-6.6.1-9.8-.3-2.1.9-3.4 2.4-4.5z" fill="#14100d"/><path d="M448.2 508.3c3.4.7 2.3 3.3 2.6 5.5.3 2.9-.9 6 1.2 8.6 1.2 1.3 1.1 2.6.2 4 0 .7 0 1.4-.2 2-.6 1.6-1.1.7-1.6-.1-1.6-2.8-.8-5.8-1.1-8.7-.3-3.3 1.1-6.8-1.1-9.9.1-.5.1-.9 0-1.4z" fill="#16110d"/><path d="M372.4 513.5c-.2-2.4-4.6-4.1-1.4-7.2 1.5-1.4 2.7-.4 3.5.6 2.2 2.6 2.5 5.3-.5 7.6-.2.1-.2.4-.3.6-1.2.3-2-.1-1.3-1.6z" fill="#3a3632"/><path class="st55" d="M382.2 518.1c9.4 0 18.8 0 28.2.1-9.3 1.6-18.8 1.9-28.2-.1z"/><path class="st43" d="M604.7 382.7c-.6-.1-1.2-.1-1.8-.2 3.2-4.3 8.2-6 12.6-8.4.7-.6 1.2-.5 1.7.2-3.6 3.7-7.5 6.7-12.5 8.4z"/><path class="st37" d="M498.5 506.8c1.5.3 2.5 1.2 2.5 2.8v19.5c0 1.6-.9 2.5-2.5 2.8 1.9-8.3 2.1-16.7 0-25.1z"/><path class="st56" d="M880.8 673c-2.5-1.1-3.7-4.4-6.9-4.2-2.5 0-5.1.3-6.2-2.8-.9-2.3.3-3.4 2.1-4.2-.5 3.5 1 5.1 4.5 5.4 3.3.5 6.2 1.7 6.5 5.8z"/><path class="st57" d="M864.1 661.8c-.5 6.9-.9 13.8-5.3 19.6.7-6.8 2.6-13.3 5.3-19.6z"/><path class="st28" d="M425.4 502.6c.5 0 1.1.1 1.6.1.1.2.4.5.4.5-2.7 4.2-3.5 9.2-5.6 13.6-.2-.1-.4-.3-.6-.4.1-1.4.9-3.2.3-4.1-4-5.5.1-7.5 3.9-9.7z"/><path d="M144.4 78.5c-1.1-2.4-.5-4.3-2.1-5.4-1.5-1-2.1-2.6-.9-4.1.4-.5 1.8-.7 2.5-.5 1.6.6 2.7 2.1 2.4 3.8-.3 1.8-1 3.5-1.9 6.2z" fill="#3b3632"/><path d="M372.4 513.5c.5.6.9 1.1 1.4 1.7-.2 4.5-3.3 7.2-6.3 9.9-1.7-.1-3.6.6-4.6-1.5 7.4.7 6.3-6.8 9.5-10.1z" fill="#4f4a46"/><path class="st60" d="M106 310.1c-.3-1.6.8-4.6-2.8-2.9 1.5-3 2.2-6.6 5.5-8.4 1.5-.4 1.9.3 1.6 1.7-1.5 3.2-2.9 6.4-4.3 9.6z"/><path class="st61" d="M714.4 290.3c.6.1 1.2.1 1.8.2-4.4 4.5-7.7 10.3-14.1 12.5 4.1-4.2 8.2-8.5 12.3-12.7z"/><path d="M682.5 328.9c2.1-2.6 4.2-5.4 8.1-5 .2 3.4-4.4 6.2-8.1 5z" fill="#bebcba"/><path d="M136.6 89.4c-1.3-.6-2.7-1.1-2.8-2.8 4.8.7 4.4-5.2 8.2-6.2-.3 3.9-2.7 6.5-5.4 9z" fill="#5a5652"/><path class="st64" d="M159 681.4c.5.5 1 1.1 1.4 1.6-1 5.2-2.4 10.2-7.1 13.5 1.3-5.3 6-9.3 5.7-15.1z"/><path d="M275 671.5c-1 .5-2 1-3 1.6-2.1 1.5-4.1 3.4-7 2.4-.9-.4-1.9-.8-2.8-1.1 3.8-3.3 7.7-5.8 12.8-2.9z" fill="#5c5955"/><path d="M498.2 536c.2 1.5.7 2.9 2.6 2.9-2.2 2.3-4.4 4.7-9.5 6.3 3-4.1 4.9-6.6 6.9-9.2z" fill="#4e4945"/><path class="st41" d="M452.2 526.4c-.1-1.3-.1-2.7-.2-4 .8-5.1-1.2-10.5 1.3-15.5 0 6.5.1 13 .1 19.5h-1.2z"/><path d="M105.8 330.9c-2.1-6.5-2.1-13 0-19.5v19.5z" fill="#463c3b"/><path d="M693.7 678.6h1.5c.5 4.1 0 7.9-2.8 11.2h-1.1c-.8-4.1.6-7.7 2.4-11.2z" fill="#292522"/><path d="M471.6 529.1c-3.8 2.8-5.5 5.1-8.5 3.3-.8-.5-1.7-1.6-1-2.2 2.2-2.2 5-.7 9.5-1.1z" fill="#393430"/><path class="st55" d="M435.5 491.8c1.3-.6 2.5-.9 3.8 0 1.8 1.1 2.7 3.1 1.3 4.5-1.9 2-2.9-.4-3.9-1.8-.5-.9-1.9-1.3-1.2-2.7z"/><path d="M491.7 494.7c4.2-.6 5.9.9 6.8 3.4.2.4-.4 1.6-.7 1.7-3 .2-3.8-2.4-6.1-5.1z" fill="#413c36"/><path d="M871 689.6c1 .6 2 1.1 3 1.7-1.9 1-3.5 2.8-5.9 2.4-1.1-1.2-4.9 1.1-4-2.9 2.1-1.5 4.3-2.7 6.9-1.2z" fill="#807d7a"/><path class="st72" d="M565.3 403.5v1.5c-2.4 2.2-5.2 3.5-8.4 4.2 1.4-4 5.4-4.1 8.4-5.7z"/><path class="st4" d="M617.3 374.4c-.6-.1-1.1-.2-1.7-.2 2.2-2.7 5.1-4.3 8.3-5.5 0 .5.1 1 .1 1.5-2 1.8-4 3.6-6.7 4.2z"/><path class="st73" d="M143.5 304.4c-.9.5-1.7.9-2.6 1.4-1.1-1.8-3.2-2.9-3-5.4-.6-1.4.2-1.6 1.3-1.6 1.4 1.9 2.9 3.8 4.3 5.6z"/><path class="st46" d="M124 685.4c.5 4.3 1 8.5 1.4 12.8-3.2-3.9-3.9-8.2-1.4-12.8z"/><path class="st41" d="M453.6 504.2c-.1-1.3-.4-2.4-1.7-3.1.1-2 1.1-3.3 2.9-4.1 1.4-.4 1.9.2 1.6 1.6-.1 2.2-1.1 4.1-2.8 5.6z"/><path class="st74" d="M124 334.9c.3-2.3-3-4.5 0-6.8 3.2 4.8 3.2 4.8 0 6.8z"/><path d="M454.8 539.1c1.1-.5 1.4-1.4 1.5-2.5 1.5 1.9 2.9 3.8 4.9 6.4-4 .4-4.9-2.3-6.4-3.9z" fill="#403b37"/><path d="M456.4 498.6l-1.6-1.6c1.4-1.6 2.6-3.4 5.3-3.8.1 3.1-2.2 4-3.7 5.4z" fill="#54504c"/><path d="M119.8 105.9c-2.2.5-3.3-.7-2.6-2.5 1-2.6 3.4-1.1 5.3-1.2.8 2.4-1.4 2.7-2.7 3.7z" fill="#241f19"/><path class="st57" d="M863.9 691.5c.7 2.1 3.1.9 4.2 2.2-2.8 0-5.4 3.8-8.4.3 1.8-.1 2.9-.9 2.9-2.8.3-.1.5-.2.8-.3.2.2.4.4.5.6z"/><path d="M870.9 656.4c-2.6.2-6.2-2.2-7 2.7-1.1-1-2-2.7-.5-3.3 2.4-1 5.3-2.8 7.5.6z" fill="#a6a4a2"/><path class="st21" d="M255.3 684.2c0 3.3-.1 6.5-.1 9.8-3.2-3.2-2-6.5.1-9.8z"/><path class="st74" d="M121.5 312.8c.4 0 .9 0 1.3-.1.5-.5.9-.5 1.2.2-.2 3 1 6.3-2.5 8.3.5-2.9 2.2-5.6 0-8.4z"/><path class="st79" d="M435.5 491.8c.4.9.9 1.8 1.3 2.7-1.8-1.1-2.7 1-4.2 1.1-.8-.4-1.7-.8-2.5-1.2 1.1-2.5 3.9-1.1 5.4-2.6z"/><path class="st7" d="M382.3 506.8c2.3.1 4.7.2 7 .3v.9c-2.4.1-4.9.3-7.3.4-1.4-.8-1-1.3.3-1.6z"/><path class="st60" d="M103.1 307.2c0 3.1-.9 5.8-2.6 8.3-.7-3.2.5-5.9 2.6-8.3z"/><path class="st35" d="M988.4 689.8c-.5-.6-1.1-1.1-1.6-1.7 0-2.6-.1-5.3-.1-7.9.2-.1.5-.2.7-.3 4.3 2.9 3.2 6.3 1 9.9z"/><path d="M139.2 298.8c-.4.5-.9 1.1-1.3 1.6-1.3-1.2-2.6-2.3-4.2-3.8 3.1-1.1 4.6-.2 5.5 2.2z" fill="#453b3a"/><path d="M110.2 300.4c-.5-.6-1.1-1.1-1.6-1.7 1.4-1.3 2.7-3 5.3-2.4.1 2.8-2.3 3-3.7 4.1z" fill="#504b45"/><path d="M110.1 345c0-.5.1-1.1.1-1.6 2.2.2 3.9.9 4.2 4.2-1.9-.8-3.4-.9-4.3-2.6z" fill="#544a49"/><path class="st73" d="M141.8 308.7c3.2 2.4 1.3 5.7 1.6 8.6-.5-2.8-1-5.7-1.6-8.6z"/><path d="M142.1 703.7c-.9-.1-1.8-.2-2.7-.4.9-.7 1.9-1.5 2.8-2.2.3-.5.7-.6 1.2-.3.5.4 1 .8 1.6 1.2-1 .6-1.9 1.2-2.9 1.7z" fill="#352d2b"/><path d="M702.1 302.9c-.7 2.1-2.4 3.2-4.1 4.4-.5-.1-1-.1-1.5-.2 1.5-1.8 2.9-3.8 5.6-4.2z" fill="#4d4945"/><path d="M119.8 105.9c.9-1.3 1.8-2.5 2.7-3.8.4-.2.9-.3 1.3-.3.7-.6 1.4-.5 2 .2-1.5 1.9-3 4.1-6 3.9z" fill="#4a4541"/><path class="st57" d="M858.4 684v8.8c-2.3-3-2-5.9 0-8.8z"/><path class="st55" d="M410.5 518.2c-1.2-2.4-4.3-.8-5.7-2.7 1.8.9 6.1-3.2 5.7 2.7z"/><path d="M702.2 664.6c-1-.4-1.9-.9-2.9-1.3.8-1 1.3-2.8 2.8-2.6 2.3.4 1.2 2.5 1.5 3.9h-1.4z" fill="#575350"/><path class="st5" d="M420 460.8c-.4-.1-.9-.2-1.3-.2.8-3.2 3-3.2 5.6-2.5 0 .6.1 1.1.1 1.7-1.2 1.3-2.9.8-4.4 1z"/><path d="M125.9 102c-.7-.1-1.4-.1-2-.2 1.4-1.4 2.9-2.8 4.3-4.2.7.5.7 1.1.1 1.6-.8 1-1.6 1.9-2.4 2.8z" fill="#635f5b"/><path d="M128.3 99.3c0-.5-.1-1.1-.1-1.6.5-.9 1.1-1.8 1.6-2.7h2.3c-.6 1.9-1.6 3.6-3.8 4.3z" fill="#5d5955"/><path class="st89" d="M150.8 664.9c-2-.1-4.1-.3-6.1-.4 2.5-1.5 5-1.5 7.4.1-.4.2-.9.3-1.3.3z"/><path d="M977.1 698.2c2-.4 4.1-.9 6.1-1.3-1.5 3.2-3.6 3.2-6.1 1.3z" fill="#56514f"/><path d="M663 330.9l-1.4 1.4c-.5.5-1.1.8-1.8.8-1.8-.3-2.9-1.6-3.7-3.1-1.4-3.7-4.8-5.9-7.2-8.8-2.4-4-6-5.4-10.6-5.3-6.7.2-13.5 0-20.2.1-4 0-5.4 1.2-2.5 4.7.3.4.6.7.9 1.1 1.2 1.8 3.9 4 1.4 5.9-2.1 1.6-4.1-1.1-5.8-2.5-2.6-2.3-4.7-5.2-7.9-6.7-1.3-.6-2.6-.9-4-.9-6.4-.1-12.7-.1-19.1 0-2.5 0-5.1-.4-7.1 1.6-1.6 1.4-2.2 3.9-4.8 4.2-9.5-5.5-19.9-4.3-30.2-4.3-7.2-3.6-4 2.1-4.2 4.7-.4.5-1 .9-1.6 1-2.2 0-3.7-1.4-5.4-2.5-.8-.6-1.6-1.2-2.3-1.9-9.7-3.1-19.7-1.1-29.5-1.2-1.6 0-.9 1.7-.7 2.8.7 2.4.5 4.2-2.6 4.4-1.9-.2-3.2-1.4-4.2-3-2.9-5.5-8-6.1-13.4-6-3.1.1-6.2-.2-9.1.8-3 .7-6.2 1.2-8.9.4-5-1.5-2.3 2.6-3.3 3.9-.8.9-1.9 1.1-3 1.1-2-.3-3.5-1.6-4.9-3-2.7-2.5-6.1-1.6-9.3-1.7-7.2-.3-14.3.6-21.5-.6-1.8-.8-3.8-1.5-3.6-4.1h11.2c4.1-1.4 8.2-.4 12.4-.7 2.9.3 5.8-.7 8.6.7 4.3.7 8.4-1.1 12.6-1.4 4.2 1.6 8.4 1.2 12.6 0 17.9 0 35.7-.5 53.6.1 13.5.5 26.8-.6 40.2-1.2 6.3-.3 12.7 0 19.1-.1 35-.9 70-1.1 104.9-1.6-.9 1.4-1.9 2.8-2.8 4.2-3.4 3-7.5 1.6-11.3 1.8-3.4.2-6.9-.1-10.4.1-2.4.1-5.7-1.1-6.9 1.8-1.1 2.8 2.4 4 3.8 6 1.7 2.1 4.8 3.5 3.9 7z" fill="#181310"/><path class="st92" d="M411.7 314.2c.9.9 1.9 1.8 2.8 2.8.3 2.3 1.8 4.1 2.8 6.1 1.1 2.1 1.2 4-1.9 4.4-.6-.1-1.2-.4-1.7-.8-3.3-3.3-5.4-8.1-11.1-8-8.7-.2-17.5.1-27.1 1 3.4 5.1 7.7 8.6 11.4 12.5 1.3 1.4 2.8 2.5 4.3 3.6 2.5 2.8 4.8 5.8 7.2 8.6.7 2 2.7 4.3-1.1 5.3-.6-.1-1.2-.4-1.7-.8-2.1-2.2-3.6-5-6.6-6.2-.8-.4-1.5-.9-2-1.7-.8-1.5-1.6-3-2.9-4.2-1.5-1.5-3.1-2.8-5-3.9-1.8-1.1-3.8-2-5-3.7-8.8-13.1-21.5-6-32.9-7.1 3.6 6.6 9.1 10.9 13.8 15.9 4 4.2 8.4 8 12.1 12.5 1.5 1.8 2.9 3.9.6 6.1-1.9 1.8-4.5 2.3-6.3.4-8.3-9-17.6-17.1-25.2-26.8-.4-.5-.3-1.3-.1-2-1.4-5.1-4.9-8.2-9.8-10-.8-.7-2.1-1.2-1.3-2.7 2-2.3 4.8-1.4 7.2-1.4 19.2-.1 38.5 0 57.7-.1 7.3.1 14.6-2.1 21.8.2z"/><path d="M325.1 315.6c.4.9.9 1.8 1.3 2.7h-26.1c3.7-.4 6.9-3.4 10.9-2 1.9.7 2.4-.6 2.7-2 3.9.1 7.7-.9 11.2 1.3z" fill="#120d09"/><path class="st8" d="M469 312.8c-4.2 2.4-8.4 3.4-12.6 0H469zM435.4 314.2h-12.6c4-2.7 8.4-.8 12.6-1.3.4.3.6.6.4.9-.1.2-.2.4-.4.4z"/><path class="st92" d="M435.4 314.2v-1.3c2.8.3 5.9-1.2 8.4 1.3h-8.4z"/><path class="st0" d="M447.9 320.2c.3 1.5 1.3 2.3 2.7 2.5 5.3 2 7.8 7.2 11.9 10.6 3.8 5.1 8.6 9.3 13 13.7 9.8 9.5 18.2 20.3 28.1 29.7 1.9 1.7 3.1 4 4.3 6.3 8.1 9 16.1 18.1 24.9 26.4 3 3.8.1 5.4-2.7 6.6-4.2 1.9-8.5 3.6-12.5 6-5.1 3.1-8.8-.2-12-3.8-9.8-10.8-20-21.3-30.1-31.9-1.1-1.2-1.8-2.7-2.9-3.9-14-13.3-26.3-28.1-40.3-41.5-5.5-5.9-12.1-10.7-15.7-18.3-1.5-3.1-.6-4.7 2.3-4.8 8.5-.2 17.1-.4 25.6.1 1.3.1 2.6 1 3.4 2.3z"/><path class="st0" d="M489.8 322.7c.5 1.3 1.4 2.2 2.7 2.7 5.5 2.8 9.1 7.6 13 12.2 3.2 3.7 6.7 7 10.1 10.5 2.8 3 5.7 5.8 8.7 8.7 2.7 2.8 5.4 5.4 8.1 8.2.7.7 1.3 1.5 1.8 2.2 3 4.6 7.1 8.1 11.2 11.6 4.7 5.1 10 9.6 14.2 15.2 0 .4.1.8.3 1.1 2.2 3.7-.4 5.7-3 7.2-3.6 2.1-7.3 3.9-11.3 5.3-2.6 0-5.1-.1-7.7-.1-9.4-9.8-19.6-18.8-28.4-29.2-7-4-12.1-10.1-17.2-16.1-5.3-6.2-10.9-12-17.1-17.3-2.9-2-4.3-5.4-7.3-7.2-3-2.1-5.4-4.7-7.3-7.9-.7-2-2.3-3.5-3.7-5-3.8-6.8-3.6-7.1 3.8-7.2 6-.1 11.9-1.1 18-.7 4.6.3 8.6 1.5 11.1 5.8zM621.2 364.4c-3.1 3.2-4.4-.4-6.4-1.6-10.1-11-21-21.1-31.6-31.6-2.2-2.3-4.6-4.5-6.7-6.9-1.3-1.6-2.9-3.2-1.8-5.5 1-2.1 3.3-2.7 5.3-2.4 6.9 1 13.7-.8 20.5-.1 3.2.7 6 2 8.3 4.4 8.7 9.1 18.8 16.8 26.7 26.7 3.9 5 .6 7.6-3.4 10-3.5 2.3-6.8 5.4-10.9 7z"/><path class="st8" d="M476.2 385.3c10.4 9.4 19.9 19.7 29.1 30.2 4.8 5.5 8.9 8.2 15.5 3.3 2.5-1.8 5.7-2.8 8.8-3.9 2.9-1 4.2-2.6 3.2-5.7 4.2 2.1 5.1 3.8.2 6.7-4.5 2.7-10.4 2.5-13.8 7.2-3 4.1-9-1.2-12.1 4.5-2.3 4.1-8.5 2.7-12.4 5.4-1.6 1.1-3.8 1.9-5.9.5-.5-5.5 4.3-5.1 7.3-6.3 7.8-3.3 7.8-3.2 2.1-9.5-13-14.2-26.8-27.7-39.5-42.2-1.4-1.6-2.9-3-3.3-5.2.6-4.7 2.7-3.2 4.8-1.1 5.4 5.2 10.9 10.5 16 16.1z"/><path d="M533.1 324c.5 0 .9-.1 1.4-.1 1.1.1 2.2-.7 3.4-.2 3.6 1.9 6 5.1 8.8 7.9 11.7 11.6 23.4 23.3 35.2 34.8 2.6 2.5 5.5 5 6.5 8.9 0 .7-.3 1.3-.8 1.8-2.8-2.3-5.6-4.7-8.3-7-1.6-1.2-3.3-2.3-4.5-4 .9 1.4 2.5 2.3 3.1 4 1.4 1.9 2.8 3.7 4.2 5.6.4.4.5.8.3 1.1-.1.4-.3.5-.4.5-2.7.4-4.2-1.6-5.9-3.2-14.3-14-27.4-29.1-41.6-43.1-1.2-1.1-2.1-2.5-2.4-4.2 0-1 .2-2 1-2.8z" fill="#24201b"/><path class="st95" d="M475.9 343.8c12.5 10.2 22.2 23.2 33.5 34.6-3.7.4-.8 3.1-1.5 4.5-11.2-11.7-22.3-23.4-33.5-35.1.8-1.3.5-2.9 1.5-4z"/><path class="st72" d="M559.6 394c-6.9-2.9-10.2-9.5-15.3-14.4-3.5-4.4-7.8-8.1-11.6-12.2l-1.2-1.5c.3-1 .9-1.7 1.9-2 6.5 1.9 9.1 8.5 14.5 11.7 2.4 1.6 4.4 3.6 6 6.1 1.7 3.9 7.3 5.4 7 10.6-.3.6-.8 1.1-1.3 1.7z"/><path class="st28" d="M584.9 330.9c9 8.9 18.1 17.7 27 26.6 1.4 1.4 3 3 2.8 5.3-3.6 0-3.3-4.5-6.2-5.4-3.6-1.5-6.4-4.1-9.2-6.7-3.4-5-8.2-8.7-12.2-13.1-1.8-2-4.5-3.5-3.9-6.8.6-.5 1.2-.5 1.7.1z"/><path class="st95" d="M509.5 378.4c9.6 9.6 19.6 18.8 28.4 29.2-7.4-3.4-11.4-10.5-16.9-15.8-4.3-4.1-9.9-7.2-11.5-13.4z"/><path class="st28" d="M607.2 358.9c1.4 1.8 2.8 3.7 4.3 5.5-.5.5-1.1.7-1.8.8-10.5-6.6-18.1-16.3-26.4-25.2-.8-.9-.7-2.2-.2-3.3 2.6-1.4 3.9.7 5.2 2 4.1 4.1 8.5 7.9 11.9 12.6 2.5 2.3 5.8 4 7 7.6z"/><path class="st43" d="M609.9 364.5h1.5c3.5 3.2 2.8 5.9-1 8.2-4.1 2.4-7.4 6.1-12.2 7.7-4.6 1.5-8.1 1.3-10.6-3.2 0-.6.1-1.1.1-1.7 10.6 2.4 19.1-1.8 22.2-11z"/><path class="st11" d="M587.6 381.2c3.1 5.7-2.3 6.9-5.2 8.4-5.8 3-11.2 9.5-18.9 4.3.2-.3.4-.5.6-.8 8.3-2 16.2-4.9 21.7-12.1.7-.3 1.3-.3 1.8.2z"/><path class="st96" d="M545.6 407.7c2.8-2.8 6.7-3.7 10.1-5.5 2.9-1.6 4.9-3.4 4.3-7 4.3 1.6 3.2 4.7.7 6.2-4.7 2.7-9.2 6.2-15.1 6.3z"/><path class="st43" d="M632.2 357.4c2.1-2.8 6.7-4.9 2.7-9.5l.9-.6c1.1 0 2 .5 2.8 1.2 1 1.4 2.1 2.8.7 4.6-1.5 2.9-4.1 4-7.1 4.3z"/><path class="st96" d="M561.1 392.4c-2.8-3.3-5.6-6.6-8.3-9.9 6.5.3 11 4.8 11.2 11.2l-.5.2-2.4-1.5z"/><path class="st4" d="M607.2 358.9c-2.8-1.8-5.2-4.1-7-7-.4-.3-.6-.6-.4-.9.1-.3.3-.5.4-.5 3.5 1.5 6.5 3.6 8.4 7-.5.4-.9.9-1.4 1.4z"/><path class="st43" d="M621.2 364.4c3.6-2.5 6.6-6 11.1-7.1-2.6 4.2-6.2 6.7-11.1 7.1z"/><path d="M639.4 353.2c-.5-1.4-1-2.8-1.5-4.1-.6-1.2.1-1.5 1-1.8 1 .2 1.5.9 1.7 1.8.2 2.7 6.2-.7 4.2 4.1-1.8 0-3.6-1.3-5.4 0z" fill="#0c0703"/><path class="st4" d="M577.9 370c-2.8-1.7-5-3.9-5.7-7.7 2.4 2.6 4.8 5.1 7.1 7.7h-1.4zM587.6 381.2c-.6 0-1.2.1-1.8.1-2.7-.1-4.3-1.3-3.9-4.2 0-.5 0-1 .1-1.5 2.4 1.4 4.3 3.2 5.6 5.6z"/><path class="st0" d="M717.6 297.5c5.3-4.9 10.9-9.5 15.3-15.3 6.6-8.9 15.6-15.6 22.6-24.2 1.2-1.4 2.5-2.7 3.4-4.3 16.7-18.4 32-37.8 45.6-58.6 4.8-7.3 13.8-10.4 18.2-18.2 5.1-5.3 10.4-10.4 15.4-15.8 6-5.6 11.4-11.7 17.5-17.2 1.7-1 3.3-1.5 4.9.1 2.4 11.1 3 21.6-7.5 29.5-2.2 1.7-4.1 3.8-5.6 6.2-3.7 5.2-8.7 9.1-13.1 13.6-4.8 4.9-10.3 9.3-14.2 15.1-4.2 4.9-9 9.2-13.4 13.8-.3.3-.7.8-.6 1.1.1.3.7.3 1.2 0 2.6-1.5 4.6-3.9 7.1-5.6 5.6-4.6 10.8-9.6 15.1-15.4 1.3-1.8 2.9-3.3 4.4-4.8 2.4-2.4 5-4.7 6.8-7.6 1-1.4 2.2-2.6 3.6-3.5 3.4-2.8 6.2-6.4 9.7-9.1 3.9-3 6.8-2 7.3 2.8.7 7.9 1.2 15.9-.2 23.6-1.3 7.1-8.1 10.5-12.2 15.7-2.5 2.6-5.6 4.7-6.9 8.4 4.1-1.3 6.3-4.9 9.3-7.4 2.2-1.8 3.9-5.3 7.4-3.9 3.2 1.3 2.1 4.8 2.4 7.4.8 6.7-.5 12.9-4.1 18.7-.3.6-.6 1.1-.9 1.7-.3.6-.9 1.6-.5 1.9 9.5 8.8 4.2 19.6 3.9 29.7-2.9 5.1-8.1 8.2-11.3 13-1.5 1.5-2.9 3-3.8 4.9-.3.5-.7 1-1.1 1.4-2.5 1.7-4.6 3.8-6.7 6-1.6 1.6-3.1 3.3-4.9 4.6-7.6 3.2-15.6 2.2-23.3 1.2-7.5-1-1.7-5.7-1.1-9.6-5.2 2.1-7.4 7.2-11.9 9.4-5.3 1.5-10.6 1-15.9.7-5.9-.3-7.2-3.4-3.5-8.3 3-4.1 7-7.4 9.7-11.8-6.1 4.1-10.9 9.6-15.7 15-4.2 4.8-8.9 7.1-15.3 6.7-5.1-.3-10.2 0-15.3-.1-2.1-.1-4.5-.1-5.5-2.2-1.3-2.6.7-4.4 2.2-6.1 1.2-1.4 2.6-2.7 3.5-4.3 9.1-10 19-19.1 28.4-28.8 4.2-4.3 8.4-8.6 10.5-14.6-8.2 7.5-16.2 15.1-23.6 23.4-7.5 8.3-15.3 16.2-23.2 24.1-4.8 5.3-9.7 9.9-17.9 7.8-4.4-1.1-5.1-2.6-1.9-5.8 1.7-1.9 3.4-3.8 5.7-5z"/><path d="M858.5 308.6v1.4c-2.6 1.7-5.8-.4-8.4 1.3h-12.5c-.5-1.2-1-1.3-1.4 0-37.7 0-75.4.2-113.1 1.4-.5-.9-.9-1.8-1.4-2.8.1-1 .7-1.7 1.5-2.2 1.4-1.1 2.5-2.8 4.5-3.1 1.7-.1 3.1.6 4.4 1.5 2.6 3.6 6.5.9 9.6 2 3.5.5 7.1.6 10.6-.1 4.8-1.2 10.5 2 14.5-3 .9-.5 1.9-.5 2.8-.3.6.2 1.1.5 1.6 1 1 1.7 2.5 2.3 4.4 1.8.6-.1 1.3 0 1.9 0 4.6.8 9.2 1 13.8-.1 1-.2 2-.2 3.1-.2 4.4.3 8.8 1.8 13.2.3.7-.2 1.4-.3 2.1-.3 6.4-.2 12.8.2 19.2-.2 1.7-.5 2.9-1.6 4.1-2.9.6-.4 1.2-.5 1.9-.5 1.4.2 2.7.6 4 .9 4.4 1.5 9.1.2 13.6 1.3 2.2.8 4.5.9 6 2.8z" fill="#130e0a"/><path class="st99" d="M640.6 349.1l-1.4-1.4c-1.4.3-2.5-3.6-4.1-.3l-.2.5c-9-7.3-16.5-16.3-24.8-24.4-2.6-2.6-5.2-5-8.6-6.5-.5-.3-.6-.6-.5-.9.2-.3.3-.5.5-.5 7.5.9 10.1 8.3 16.7 12.2-1-3.9-3.7-5.5-5.5-7.6-3.7-4.2-1.4-5.8 2.6-5.9 9-.3 18.1-.3 27.1 0 4.2.1 6.5 3.1 8 6.8-.5.5-1.1.7-1.8.7-9.6-5.4-19.9-2.5-31.1-3.3 3.1 5.6 7.5 8.7 11 12.4 2.8 3.1 6.2 5.7 8.8 9 4.1 5.1 8.1 5 13.2 1.5 3.7-2.6 6.8-5.5 9.5-9.1.5 0 1.1-.1 1.6-.1 1.4 1.7 3.9 3.1.6 5.4-2.6 1.8-5 3.9-7.6 5.8-4.6 2-8.2 6.6-14 5.7z"/><path class="st16" d="M805.6 195.8c-7.6 12.8-17.1 24.3-26.3 35.9-6.3 7.8-12 16.2-19.7 22.9-1-1-1-2.1-.2-3.2 10.7-13 21.4-26.1 32.1-39.1.1-1 .5-1.9 1-2.7 3.4-4.6 6-9.7 9.9-13.9.9-1 1.7-2.2 3.3-1.7.4.6.3 1.2-.1 1.8z"/><path class="st43" d="M658.9 325.5c-2.6-2.6-7.9-4.3-6.2-8.7 1.4-3.8 6.4-2.5 10-2.6 7.1-.1 14.3 0 21.4 0 6 6.5-2.4 6-4.2 8.7-.2-.2-.4-.5-.6-.7-.5-3.2-2-5.1-5.5-4.9-2.3.1-4.6 0-7 0-8.6.1-8.6.1-6.1 8-.7.5-1.2.6-1.8.2z"/><path class="st61" d="M759.4 251.3c.1 1.1.1 2.1.2 3.2-7.7 10.4-17.3 18.9-26.6 27.7.8-5.3 5.3-8 8.5-11.2 6.4-6.1 11.9-13.1 17.9-19.7z"/><path d="M727.3 305.8c-1.4.9-2.8 1.9-4.2 2.8-3.3 1-6.5.9-9.8.1-2.2-.3-4.9 2.7-6.5-.9-1.4-3.1 1.9-3.7 3.3-5 2.2-2.1 3.8-5.3 7.5-5.3-.5.7-1.1 1.4-1.6 2.2-1.6 2.3-6.4 3.6-4.6 6.7 1.3 2.2 5.6.8 8.5.7 5.7-.1 7.4-5.9 11.4-8.3 2.4 4.5-1.8 5.2-4 7z" fill="#36312d"/><path class="st8" d="M658.9 325.5c.5 0 .9-.1 1.4-.1 5.7 1.9 11 2.3 15.4-3.1.9-1.1 2.5-1 3.9-.1.1.3.2.5.3.7-5 4-8.1 11.7-16.7 8.1-1.6-1.9-3-3.7-4.3-5.5z"/><path class="st6" d="M713.3 308.7c3.3 0 6.5 0 9.8-.1l-1.4 1.4c-2.8-.4-5.9 1-8.4-1.3z"/><path class="st31" d="M792.8 210.8l-1.4 1.4h-2.8c.9-1.4 1.9-2.8 2.8-4.1 1.1.6 1.4 1.6 1.4 2.7z"/><path d="M792.8 210.8c-1.1-.6-1.3-1.6-1.3-2.7.8-2 2.9-3.2 2.8-5.6 10.7-13.3 20.1-27.5 29.3-41.8 10.4-16.2 19.1-33.3 28-50.3 1.1.6 1.4 1.7 1.4 2.8 1.1 1.2.8 2.6.1 3.8-3.9 6.4-6.8 13.3-10.2 20-3.6 4.7-5.3 10.3-8 15.5-.9 2.2-2.8 4.1-3 6.7 1.8.9 3.1-1.1 4.7-.5 3.7 2.5.7 4.2-.8 5.9-4.1 4.6-8.9 8.5-12.8 13.2-3.9 7.5-12.1 10.5-17.5 16.4-4.3 5.5-8.5 11-12.7 16.6z" fill="#191410"/><path class="st92" d="M865.5 290.4c-1.4-.4-2.8-.9-4.2-1.3-1.2-.7-1.6-2.1-2.8-2.7-2.4-.7-3.8 1.6-5.9 1.7-1.1-.3-1.6-1-1.7-2.1 1.7-3.9 5.4-6 8-9.1 2.7-7.6.9-15.4 1.6-23.2.2-2.1-.8-4.8-3.5-5.3-4.6-1-1.9-3.6-1.5-5.8h-.1c4.3-3 5.1-7.6 5.2-12.3.1-4.9.2-9.7-.4-14.6.8-2.6 2-3.3 3.9-.8 1.4 5.6 1.4 11.3 1.4 16.9v58.6z"/><path d="M861.4 124.3c2 .2 2.7 1.5 2.7 3.3V180c-1 .9-2 .8-3.1.1-.2-2.7-2.4-4.8-2.8-7.4-.2-2-.1-4 .7-5.8 3.3-7.7 1.3-15.7 1.3-23.5-1.3-2.5-2.2-5.1-1.8-8 1.6-3.5-.1-7.9 3-11.1z" fill="#0f0a06"/><path class="st103" d="M861.4 124.3c-.3 3.7.7 7.7-1.4 11.2-3.4 4.4-5.7 9.8-11.4 11.9-.7-.1-1.2-.5-1.7-1-1-3.3 1.5-5.1 3.3-7.1 9-9.8 9.1-10.1 7.4-24.1-4 5.9-6.7 12.2-9.9 18.3-1.3 2.4-2.4 5.1-5.8 5-.4-.3-.6-.7-.5-1.1.1-.4.2-.6.3-.6 2.6-8.5 7.5-15.8 11.3-23.7.5-.8 1.1-1.5 1.4-2.3.7-2 1.8-4.3 4-4 2.4.3 2.4 3.3 2.6 5.1.5 4.1.3 8.3.4 12.4z"/><path d="M861.4 180.1h2.7c.4 9.9.9 19.8 1.1 29.6 0 1.8-.7 3.5-1.1 5.3-1-.2-2-1.5-2.9.1-2.2.6-3.8-.1-4.8-2.1-.2-.8 0-1.6.4-2.3 3-3 3.9-6.5 3.9-10.7.1-6.6-1-13.3.7-19.9z" fill="#1b1612"/><path class="st0" d="M387.9 340.8l1.4 1.4c3 1.6 5 4.3 7 6.9 8.5 5.4 14.6 13.4 21.7 20.4 3.8 5 8.2 9.5 12.7 13.8 10.4 9.6 19 20.9 29.2 30.6 4.8 5.4 10.7 9.9 14 16.5 3.9 4.1 3.3 6.7-2.5 7.8-6.9 1.3-13 7.5-20.8 3.1-2.6-2.9-5.3-5.7-7.9-8.6-2.5-2.3-4.5-5.1-7.4-6.9-5.9-2.8-8.4-9-13.3-12.9-2.7-2.2-4.8-5-8-6.8 3.1 4.9 7.6 8.5 11.5 12.7 2.3 2.5 5.5 4.4 5.3 8.5 4.3 4.4 8.3 9 12.9 13 4.8 4.1 3.2 6-1.7 7.6-2.4 2.1-5.6 2-8.4 2.9l.1-.1c-3.5 2-7.2.3-10.8 1-4.9-.4-6.9-4.9-10.1-7.6-2.1-1.7-3.8-3.9-6.1-5.5-1.6-1.1-3.1-2.3-4.5-3.7-2.1-2.2-4.4-4.3-6-6.9-.5-.3-.8-1.4-1.5-.6-.4.4.4 1.2.8 1.8 2.1 2.5 4.5 4.7 6.9 7 2.7 2.9 5.7 5.5 8.2 8.6 1.1 1.9 2.9 3.2 4.6 4.6.7.8 1.2 1.7 1.4 2.7.1 1.5-.1 3.1-1.5 3.6-8.2 3.4-16.2 7.7-25.5 5.1-3.9-2.7-7.1-6.2-10.8-9.2-2.3-3.5-5.6-6.1-8-9.6-7.4-9.6-17.4-16.7-25.9-25.2-6.1-9.3-14.1-17-22.1-24.8-.7-.7-1.4-1.3-2-2-10.1-11.5-22.7-20.5-32.9-31.9-1.1-1.6-2.1-3.2-3.2-4.7-1.7-2.9-4.1-5-6.5-7.2-4.8-4.7-9.6-9.4-14.3-14.3-2.5-2.6-4.5-5.6-3-9.4 1.6-3.9 5.1-1.9 7.9-2.1 4.8-.4 9.8 1 14.4-1.1 4.1.5 7.3 2.4 9.3 6.1l1.3 1.3c1.9.9 3.2 2.5 4.7 3.9 1.8 1.9 3.9 3.6 5.2 5.9 9.9 10.2 19.7 20.4 29.6 30.6 1.2.5 2.1 1.3 2.6 2.5.2.4.5.6 1 .5 1.6.7 2.4 4.3 4.6 2.4 2-1.7-.4-3.5-1.4-5.1-1.9-1.9-3.8-3.9-5.7-5.8-1.6-1.1-2.9-2.4-4.1-4-2.4-2.4-4.7-4.8-7.1-7.2-1.2-1.5-3-2.4-4.1-4l-2.7-3c-1.1-1.7-2.6-3.1-4.2-4.4l-4.1-4.1c-2-2.7-4.4-5-7.1-7.1-.6-.9-1.2-1.7-1.8-2.6-1.1-1.1-3-2-2.5-3.7.6-1.9 2.7-1 4.2-1.2 2.9-.3 5.9.5 8.8-.6.9 0 1.9.2 2.8.1 9.3-1.7 17.3.3 23.2 8.3 8.4 8.9 16.9 17.7 25.3 26.6 1.8 1.9 3.8 3.2 5.9 1.2 2.5-2.5-.9-3.5-2-4.7-8.2-8.6-16.5-17-24.8-25.5-1.4-1.5-3.7-2.9-2.9-5 .9-2.4 3.7-1 5.6-1.1 4.9-.2 9.8.3 14.6-.2 7.4-.7 13 1.5 17 8.1 1.2 2 3.6 3.3 5.5 5 1.7.7 2.3 2.5 3.6 3.6 1.9 1.5 3.4 2.9 4.4 4.7z"/><path class="st14" d="M286.2 353.2c1.4.9 3.1 1.7 2.7 3.9.6 1.4 1.1 2.7.4 4.2-5.4 1.7-7.1-3.2-9.7-5.9-4.4-4.6-8.4-9.7-14.3-13.7-2.3 5.1-.8 9.9-1.3 14.5-.5 4.3 1.2 8.8-1.8 12.7-.8.2-1.5 0-2-.7-1.5-2.5-1.3-5.2-1.3-8v-9c.5-6.3-.5-12.6 1.3-19 1-3.7-2.8-7.1-2.1-11.1.9-.5 1.8-1 2.7-1.4 8.9-.1 17.8-.1 26.6-.2-1 1.2-2.1.9-3.3.4-5.4 1.8-11 .3-16.5.9-1.9.2-4.5-1.1-5.5 1.6-.9 2.6-.1 4.9 1.9 6.9 5.5 5.6 10.9 11.2 16.4 16.9 1.6 2.6 3.9 4.7 5.8 7z"/><path class="st105" d="M310.2 319.9c-2.8 1.3-5.7 1-8.6.8-5.6-.4-3.8 2-1.9 4.6-2.3-.4-4.1-1.4-3.5-3.9.5-2.3 2.9-1.8 4.6-1.8 3.1.1 6.3.2 9.4.3z"/><path class="st1" d="M340.5 367.5c3 1.1 4.2 4.2 2.2 5.8-2.8 2.4-4.1-1.1-5.4-3.2 1.2.6 3 2 3.6 1.6 1.7-1.2-.9-2.7-.4-4.2z"/><path class="st106" d="M301.5 327.9c3.4 1.4 5.8 3.6 7.1 7.1-3.1-1.6-5.5-3.9-7.1-7.1z"/><path class="st105" d="M284.2 319.9c1.1-.1 2.2-.3 3.3-.4 3.1.8 5.3 2.4 5.5 5.9-2.6-2.4-5.2-4.8-8.8-5.5z"/><path class="st106" d="M304.1 336.6c-1.8-1.9-3.7-3.8-5.5-5.7-.4-.3-.6-.6-.4-.9.1-.3.3-.5.4-.5 2.6 1.8 5.3 3.5 5.5 7.1z"/><path class="st14" d="M319.5 346.5c1.7 1 4.2 1.1 4.1 4-2.5-.2-3.9-1.5-4.1-4z"/><path class="st105" d="M298.6 329.5v1.4c-1.4-1.4-2.9-2.8-4.3-4.1 2.1-.1 3.5.9 4.3 2.7z"/><path class="st1" d="M330.7 357.7c1.9.7 3.3 2.1 4.1 4-2.5-.2-3.9-1.5-4.1-4z"/><path class="st14" d="M312.6 339.1c2.6.3 4 1.8 4.2 4.4-1.9-.9-3.4-2.3-4.2-4.4z"/><path class="st1" d="M336.3 369.7c-1.2-.4-2.4-1-2.6-2.5 1-.4 2.2-1.4 3 0 .3.6-.2 1.6-.4 2.5z"/><path class="st92" d="M850.1 311.3c2.5-2.4 5.6-.9 8.4-1.3 0 .4 0 .9.1 1.3h-8.5zM836.2 311.4c-.5-.7-1.1-1.4-1.6-2.1.8-.2 1.7-.6 2.4-.5 1.9.4.8 1.7.6 2.6h-1.4zM379.7 450.9c4.3 1.6 7.4 4.5 9.7 8.4 2.2 2.1 4.6 2.4 7.5 1.9 5.9-1 11.3-3.4 17-4.8 3-.8 4.5-2.4 1.4-5.1-.3-.4-.6-.9-.9-1.3-.5-.9-2-1.5-1.2-2.9.7-1.2 2-1.1 3-.3 1.9 1.4 3.4 3.1 5 4.8.8.6 1.3 1.5 1.7 2.3 2.7-.1 5.1.6 7 2.8-2-.2-3.8.5-5.5 1.4-1.9.8-3.7 1.7-5.6 2.5-11.5 1.4-22.3 5.6-33.6 8-1.4.3-2.7.5-4.1.7-26.5 5.2-53 10-79.8 13.8-1.3-1.4-4.5-.7-4.2-3.9 1.4-1.9 3.6-2.1 5.6-1.9 6.4.6 12-1.7 17.5-4.5 12.2 4.4 22.9-2.5 34.3-4.5 8.1.2 16-1.7 23.8-3.5 6.2-1.4 6.6-2.2 3-7.5-1.2-1.7-2.8-3.2-2.1-5.6.1-.3.3-.6.5-.8z"/><path class="st6" d="M260.9 467.8c1.8-4.1 1.9-9 5.6-12.3.8-.7 1.8-.7 2.5-.1 6.4 5.7 13.3 10.9 17.5 18.7-.1.6-.4 1.2-.8 1.7-2 1.2-.5 6.4-5.1 4.7-4.9 3.1-10.8-.6-15.9 2.6-.8.5-1.4-3.6-3.7-4.1 0-2.8-.1-5.6-.1-8.4-.9-1-.8-1.9 0-2.8z"/><path d="M280.5 480.4c4.7.6.3-5.5 4-5.6 1.8.9 3.4 2.2 5.1 3.2 2.2 1.9 5.2 1 7.6 2.3 1.9 0 3.3.8 4 2.6-7.4.5-14.9-.8-22.5 1.5.8-1.5 1.3-2.8 1.8-4z" fill="#110c08"/><path class="st0" d="M456.3 370.2c15.3 16.3 30.5 32.6 45.8 48.9 5 5.3 4.8 5.9-2.3 8.4-4.1 1.4-8.3 2.4-11.8 5.2-4.2 3-6.8.8-8.9-2.8-1.7-3.4-4.4-5.9-7.4-8.2-5.5-2.3-8.8-7.1-12.5-11.3-3-3.4-5.9-6.9-9.2-10.1-6.4-6.6-13-13-19.5-19.5-1.5-1.6-3.1-3.1-4.4-4.9-1.4-3.9-6-3.6-8.2-6.5-.3-.5-.6-1.1-.8-1.7-.7-3-2.9-4.7-5.2-6.3-5-5.2-9.1-11.2-14.2-16.2-3.2-2.2-5.3-5.4-7.4-8.5-1.6-1.7-3.3-3.3-5-4.9-2.6-2.6-5.4-5.1-7.8-7.9-2.2-2.6-2-5.1 1.9-5.1 7.8.1 15.5-2.1 23.3-.6 6.1-.1 8.4 5 11.8 8.7 7.9 4.7 13.4 12 19.7 18.4 1.8 1.8 3.4 3.8 5.1 5.6 5.1 6.9 13 11.4 17 19.3z"/><path class="st9" d="M479.2 429.8c2.9 1.1 5.1 4.5 8.9 2.8 6.6.9 11.5-3.8 17.4-5.3 2.3-.6 3-3.3 1.4-6.3 4 3.9 8.3 1.6 12.3 2-3.2 5.6-9.8 5.3-14.6 7.6-12 5.7-24.8 9.6-37.3 14.2-.8.3-1.7.3-4.1.6 5.6-6.7 13.4-4.9 18.5-9.3-.1-2.1-6.7-2.2-2.5-6.3zM450.8 399.3c7 7.4 13.9 14.9 20.9 22.3-1.6 3.5 6.6 4.4 2.3 8.6-5.7-4.5-9.9-10.4-14.8-15.6-2.8-4.3-7-7.2-10.2-11.1-2.6-2.9-2.3-3.4 1.8-4.2z"/><path class="st108" d="M431.1 427.3c-5.5-5.8-10.9-11.7-16.5-17.5-2-2.1-4-3.9-2-7.7 8.9 6.8 16.2 14.9 22.9 23.6-1.4.6-2.9 1.1-4.4 1.6z"/><path class="st40" d="M422.9 453.8c-.5-.5-1-.9-1.4-1.4-.4-.4-.5-.7-.4-1 .2-.3.3-.5.5-.5 4.2 0 8.3-.1 12.5-.1-3.1 3.8-8.2-.3-11.2 3z"/><path class="st108" d="M435.5 425.8c3.9.8 5.6 3.9 7.4 6.9-3.5-1.3-5.6-3.9-7.4-6.9z"/><path class="st40" d="M433.9 450.9c2.8-1 5.6-2 8.4-2.9-2 3.2-5.2 3.1-8.4 2.9z"/><path d="M260.8 360.4c0 2.7.1 5.5.1 8.2 4.8 2.3 3.1 5.9 1.9 9.5-.3 3 .2 6.1-.7 9.1-1.7 3.2-4.1 6.3-.8 9.9-.1.7-.4 1.3-1 1.7-2.2 1.1-4.2.7-6.1-.8.3-1.4.7-2.8 1-4.2-1-2.8-1-5.6 0-8.3.3-12.3-.3-24.6-1.2-36.8-.1-1.8-.4-3.7 1.2-5.1 1.9 2 2.3 5 4.5 6.8 1.4 3.1-.8 6.8 1.1 10z" fill="#070706"/><path d="M259.6 350.5c-5.8.3-3.9-4.1-4.3-7.1 1-7.5-1.4-14.8-1.4-22.3h4.2c2.5 4.3 5.3 8 3.1 14-1.6 4.5-.4 10.1-.5 15.1-.2.9-.6 1-1.1.3z" fill="#050504"/><path class="st17" d="M254.3 398h6.4c3.3 8.4 4.7 16.9 1.3 25.6-.3.7-.8 1.3-1.5 1.7-1.1.5-2.2.6-3.3.4-.7-.3-1.3-.7-1.9-1.2-.5-8.9 1.3-17.8-1-26.5z"/><path class="st92" d="M255.4 424.4c.4 0 .9.1 1.3.1 2 3.6 3.8 7.2-1.4 9.8 0-3.3 0-6.6.1-9.9z"/><path class="st22" d="M255.2 385.4v8.3c-2-2.7-1.9-5.5 0-8.3z"/><path class="st111" d="M143.4 700.9c-.4 0-.8.1-1.2.3-5 .7-9.4 0-12.5-4.6-1.6-8.2 2.2-15.1 5.5-22.1 4-4.6 8.2-9 15.2-8.1 1.1 1.3 2.1 2.5 3.2 3.8 2.1 2.9 2 6.1 1.9 9.4-1.7 5.4-3.3 10.9-6.5 15.6-1.9 1.9-3.8 3.8-5.6 5.7z"/><path class="st57" d="M862.6 691.2c-1.8-6.8-.1-12.8 4.3-18.2.6.5.9 1.1 1.1 1.9-1.2 5.5-1.6 11.3-5.1 16.1l-.3.2z"/><path class="st56" d="M867.2 674.9c-.1-.6-.2-1.3-.3-1.9 2-2.3 4.2-3.2 7-1.4 1.3.9 1.4 1.8.2 2.8-2.3.3-4.6 1.5-6.9.5z"/><path d="M260.9 467.8v2.8c-1.8 1.2-3.6 1.3-5.4 0-.2-4.6 2.9-3.2 5.4-2.8z" fill="#0c0805"/><path class="st113" d="M265 675.5c2.1-1.4 3.9-3.8 7-2.4 3.6 5-.3 9.2-1.5 13.6-2.9 2.2-4.9 7.9-9.3 5.1-4.9-3.1-.4-7.4.9-11 .8-1.8 2-3.5 2.9-5.3z"/><path class="st111" d="M286.1 474.7c-6.2-6.7-12.4-13.6-19.6-19.2-1-1-2-2.1-3-3.1-1.7-9.2-4.3-18.3-2.1-27.8 1.6-7.2 2.8-7.6 8.5-2.8.7.6 1.3 1.3 2 1.9l17.1 18c1.6 1.9 2.9 4 4.7 5.6 1.3 1.3 2.9 2.3 4.2 3.5 2.5 2.4 4.5 5.3 7 7.7 3.3 3.5 6.8 6.9 10.3 10.3 1.2 1.4 2.4 2.7 2.3 4.7-.8 2.3-3 3.1-4.9 3.3-7.4.8-14.9 2.6-22.4 1.6-2.1-.4-3.3-1.8-4.1-3.7z"/><path class="st45" d="M272 425.9c-3.4-1.3-5-7.5-8.2-5.8-3.4 1.8-1.3 7.2-1.3 11 .1 7.1.7 14.2 1 21.3-.8-.9-1.7-1.9-2.5-2.8-3.6-4.6-1.8-10-2.1-15.1.3-3.4-.5-7 1.9-10 2.7-8.8-.1-17.6-.1-26.4.1-.4.1-.9.1-1.3-1.7-2.9-1.7-5.7.1-8.6 0-3.7.1-7.4.1-11.1 3-3.3 5-3.2 5.8 1.6-2.2 2.1-2.6 4.7-2.6 7.6 0 3.7.3 7.4-.1 11-.8 7.8 1.9 13.7 8 18.7 4 3.3 8.4 6.7 8.7 12.7-4 2.4-5.8-2.1-8.8-2.8z"/><path d="M260.9 434.3c0 5.1.1 10.2.1 15.3v13.8c-4.2.2-6-1-5.8-5.4.4-7.9.1-15.8.1-23.7 2.7-2.9.9-6.5 1.4-9.8h2.8c1.5 3.1-1.7 6.9 1.4 9.8z" fill="#080707"/><path d="M124 312.9c-.4-.1-.8-.1-1.2-.2 1-2 2.3-3.5 4.6-1.9 1 .7.2 2.1-.4 3-1.5 1.9-1.9-1-3-.9z" fill="#160c0b"/><path class="st37" d="M852.9 287.6c1.7-2.7 3.7-4.3 7-2.7 1.8 5-.4 10.3 1.3 15.3v4.1c-1.8 3.5-5 3.3-8.2 3.3-5.1-1.1-10.5.9-15.4-1.8-.7-2.3.9-3.1 2.6-3.6.7 0 1.3 0 2 .2 2.6 1.5 5.3.9 8.1.7 5.2-.2 7-2.8 6.4-7.6-.2-1.4.1-2.8-.2-4.6-4.5 1.9-6.3 7.4-11.2 8.4-.7-.1-1.2-.5-1.5-1.1-.2-.7-.2-1.3 0-2 2.3-3.7 5.1-6.8 9.1-8.6z"/><path class="st92" d="M853.1 307.6c2.7-1.1 5.4-2.2 8.2-3.3.1 2.1.2 4.1-2.7 4.3-1.9-.2-3.9.5-5.5-1z"/><path class="st96" d="M861.2 300.2c-2.7-4.9-.6-10.3-1.3-15.3 1.7 1 1.3 2.7 1.4 4.2 0 3.7-.1 7.4-.1 11.1z"/><path class="st116" d="M421.8 516.9c1.3-4.9.9-10.4 5.2-14.2 1.5 1.2 1.5 1.2 1.3 5.5-3.2.4-4.2 2.4-4.2 5.3 0 2.5.2 5.1-1.8 7.5-1.4-1.2-.5-2.8-.5-4.1z"/><path class="st64" d="M148.9 695.3c2-5.1 4-10.2 6-15.2.3-.6.7-.7 1.2-.2-1.5 5.5-2.4 11.3-7.2 15.4z"/><path class="st89" d="M156.1 679.8c-.4.1-.8.2-1.2.2-.4-3.3-.9-6.5-1.3-9.8.8.5 1.7.9 2.5 1.4v8.2z"/><path d="M692.4 689.8c.9-3.7 1.9-7.4 2.8-11.2.9-5.3 1.1-11 6.9-13.9-1.7 5.8-3.4 11.6-5.2 17.3-.6 1.9-1.3 3.5-.8 5.8.8 3.5-1 4.3-3.7 2z" fill="#1f1b18"/><path d="M988.4 689.8c-.2-3.3.9-6.7-1-9.9-.8-1.6-1.5-3.2-2.4-4.9 3.9-1.4 4.9 2.7 7.4 3.7.2 4.6-.3 9.4 1.6 13.8-.1 1.2-.4 2.2-1.5 2.8-.9-1.4-1.9-2.8-2.8-4.1-.4-.4-.9-.9-1.3-1.4z" fill="#1c1714"/><path d="M992.6 695.4c0-1.2.3-2.2 1.5-2.8 1 .7 2.6 1.3 1.6 2.9-.8 1.2-2.1 1.4-3.1-.1z" fill="#130e0b"/><path d="M867.2 674.9c2.2-.8 4.3-3.6 6.9-.5l.9 1.5c2.1 3.5 1.2 6.6-1.2 9.6-.9 1.4-1.8 2.8-2.8 4.2-2.5.2-4.4 2.5-7 1.9-.3-.3-.7-.5-1.1-.5-.2-5.9 2.1-11 4.3-16.2z" fill="#efefef"/><path class="st49" d="M873.7 685.5c1.4-3.1 2.1-6.2 1.2-9.6 2.8 3.7 3 6.9-1.2 9.6z"/><path class="st0" d="M582 377.1l3.9 4.2c.1 1.6.8 3.5-.9 4.4-6.7 3.4-12.3 9.6-20.9 8-2-5.4-6.1-8.9-11.2-11.2-1.2-2.4-3.3-4-5.4-5.5-5.2-5.6-10-11.6-16.8-15.5-10.3-7.4-15.4-19.5-25.2-27.5-4.4-3.6-8.8-7.6-11-13.2-.5-1.5-.6-2.9 1.4-2.9 9.4-.1 18.9-.4 28.3.2 1.3.1 2.5 1 3.2 2.3.4.3.8.7 1.3 1 1.9 1.5 3 3.6 4.6 5.4 16.3 16.6 31.6 34.3 48.7 50.3zM609.9 364.5c1.9 2.8 2.4 5.2-1.4 7.1-2.8 1.4-5.6 3.1-8 5.1-4.9 4.1-8.9 3.3-12.8-1.3-16.8-17.6-34.1-34.7-51.7-51.5-1.2-1.9-3.4-3.5-2-6.1 1.1-2 2.9-1.9 4.7-.6 5.7.1 11.3.4 17 .3 5.3-.1 10 1.2 13.6 5.2 6 3.3 10.9 7.6 13.7 14 8.2 10 17.8 18.7 26.9 27.8zM660.1 332.4c1.7 3-.5 4.7-2.4 6.3-11.6 9.9-13.8 9.9-24.7-.5-5.7-5.4-11.1-11.2-16.6-16.8-.9-1-2.4-1.9-2-3.4.7-2.1 2.7-1.2 4.2-1.2 6.3-.1 12.5.3 18.8-.1 4.8-.3 8.6.8 11.5 4.5 3.5 2.2 6.4 5 8.5 8.5l2.7 2.7z"/><path class="st121" d="M495.6 322.5c13.3 11.5 24.1 25.3 36.1 38 .7 1.2 2.3 2.1 1.4 3.9-.5.5-1.1 1-1.6 1.5-3.3-2.2-5.9-5.1-8.2-8.3-2-3.6-5-6.2-8.3-8.6-8.3-7.1-15.1-15.7-22.5-23.7 2.4 0 2.4-1.2 1.5-2.9.6-.5 1.1-.6 1.6.1z"/><path class="st1" d="M438.5 351.9c-8-8.4-16-16.7-24-25.1 2.8-.4 2.9-1.6 1.3-3.6-1.5-1.8-4.2-3.5-1.2-6.2h26.7c2.7 0 5.7-.4 6.7 3.2-10.6-3.8-21.1-1.3-32.8-1.5 5.6 9.6 13.4 14.8 19 22.1 1.7 3 4.7 4.9 6.7 7.7 1.5 2.2 1.3 2.3-2.4 3.4z"/><path class="st121" d="M583 336.7c-4.6-4.7-9.1-9.4-13.7-14 1-1.4 2-2.9 2.9-4.3 3.3 4.6 8 7.9 11.2 12.6 4.2 4.5 8.5 8.9 12.7 13.4 1.7 1.8 4 3.2 4 6.1v1.4c-6.4-4.2-10.1-11.6-17.1-15.2z"/><path d="M583.4 330.9c-4.1-3.8-9.4-6.7-11.2-12.6 1.5-3.2 4.5-2.7 7.2-2.7h22.1v1.4c-7.1-.5-14.2 1.7-21.4.4-1.6-.3-4.2.6-4.9 1.7-1.2 2 1.5 2.9 2.7 4.2 2.4 2.5 4.7 5.1 7 7.6h-1.5z" fill="#332e2b"/><path class="st121" d="M489.8 322.7c-3.7-4-8.4-5.1-13.7-4.7-4.6.4-9.2.1-13.8.3-2.2.1-5.2-1.3-6.5.9-1.6 2.8 2.4 3.9 3 6.2-.5.4-1 .6-1.6.6-1.9-.4-3.3-1.5-3.7-3.5-.5-1.7-1.1-3.3-1.9-5.7h14.5c3.1-1.5 6.7.5 9.8-1.2 5.9 0 11.5.4 13.9 7.1z"/><path class="st123" d="M495.6 322.5h-1.5c-.7-1.4-3-1.8-2.5-3.8.6-2.1 2.5-1.7 4.1-1.7 8.6-.1 17.2-.2 25.8-.2 2.6 0 5.3.1 5.9 3.5-5.4-4-11.6-1.7-17.5-2-3.9-.2-7.9.2-11.8 0-4-.3-3.4 1.8-2.5 4.2z"/><path class="st8" d="M453.6 322.5c1.4 1 2.8 2 4.2 2.9 1.9.8 3.1 2.5 4.3 4.1 2.3 2.4 4.6 4.7 6.9 7.1 1.2 2.7.1 3.4-2.3 2.2-2.2-1.1-3.1-3.8-5.4-4.9-4.7-2.7-7-7.7-10.7-11.3 1 0 2 0 3-.1z"/><path class="st123" d="M538.7 317.1c-7.5-.4-3.1 4-2.7 6.7-.4 1.2-1 1-1.5.1-.8-2.3-4.5-4.1-1.6-7 1.7-1.7 3.9-2.1 5.8.2z"/><path class="st43" d="M657.4 329.7c-2.8-2.8-5.6-5.7-8.5-8.5.5 0 1.1-.1 1.6-.1 2.9 2.4 6.5 4.2 6.9 8.6z"/><path class="st4" d="M475.9 315.6c-3 2.5-6.5.9-9.8 1.2 3.1-2.4 6.6-.8 9.8-1.2z"/><path class="st123" d="M533.2 326.7c-1.9-1.4-3.7-3.1-4.6-5.4l4.5 2.7c0 .9.1 1.8.1 2.7z"/><path class="st124" d="M418.8 367.2v1.4c-.5.5-.7 1.4-1.6 1.6-7.7-6.3-14.1-13.9-20.8-21.2 3.6-.2.9-2.6 1.4-3.9 7.2 3.1 10.3 10.2 15.4 15.4 1.7 2.4 3.9 4.3 5.6 6.7z"/><path class="st45" d="M403.4 318.5c-7.2.4-14.5.7-21.7 1.1-1.6.1-3.9-1.5-4.8 1-.7 2.1 1.7 3 2.8 4.3 2.2 2.6 4.6 5 6.9 7.5.4.4.6.7.4 1-.2.3-.4.4-.5.4-4.8-4.3-9.9-8.4-13.2-15.1 10.2-2.3 20.2-1.6 30.1-1.7.5.3.7.6.5 1-.2.3-.4.5-.5.5z"/><path class="st1" d="M403.4 318.5c0-.5 0-1-.1-1.5 6 .6 9.2 4.5 11.2 9.8-3.9-2.5-6-7.4-11.1-8.3z"/><path class="st124" d="M396.4 349.1c-2.3-2.3-4.7-4.6-7-6.9 4.2.3 5.9 3.3 7 6.9z"/><path class="st38" d="M386.4 333.8c0-.5.1-.9.1-1.4 1.7 1 3.2 2.2 3.8 4.2-1.9-.1-2.9-1.4-3.9-2.8zM387.9 340.8c-1.8-1-3.2-2.4-4-4.3.4-.5.8-.5 1.3-.1 1.6 1 2.9 2.2 2.7 4.4z"/><path class="st45" d="M385.2 336.4c-.4 0-.9 0-1.3.1-1.2-1.3-2.4-2.6-3.5-3.9 2.4.2 3.6 2 4.8 3.8z"/><path class="st40" d="M438.5 351.9c4-1 1.6-2.7.4-4.2-1.8-2.2-4.8-3.6-4.9-7 14.5 14.4 28.8 29.1 42.2 44.6-6.5-4.1-10.8-10.4-16.5-15.4-1.1-.9-2.6-3.9-3.4.3-6.2-5.8-12.5-11.6-17.8-18.3z"/><path class="st125" d="M461.3 334c2.5.1 3.6 2.2 5.2 3.6 1.5 1.3 2.2.8 2.4-1 3.7 1.1 3.8 5.6 7 7.2-.3 1.4 2.1 3.8-1.5 3.9-4.9-4.1-9.3-8.6-13.1-13.7z"/><path class="st40" d="M532.8 367.4c4.8 3.1 9.3 6.7 11.6 12.2-4.6-3.5-8.3-7.6-11.6-12.2z"/><path class="st126" d="M515.1 349.1c4.3 1.3 7.4 3.9 8.3 8.6-2.8-2.9-5.6-5.8-8.3-8.6z"/><path class="st125" d="M462.1 329.5c-2-.8-3.3-2.3-4.3-4.1.4-.1.8-.1 1.2-.1 1.9.8 2.9 2.2 3.1 4.2z"/><path class="st40" d="M533.2 364.4c-.5-1.3-.9-2.6-1.4-3.9 5.8 4.9 11.8 9.5 15.6 16.4-5.7-3.1-8.8-9.1-14.2-12.5z"/><path class="st8" d="M635.2 347.4c-.7-1.5-2.7-2.4-2.2-5 3.4.5 4.8 2.9 6.3 5.3-.5.4-.9.9-1.4 1.3-.9-.5-1.8-1-2.7-1.6z"/><path d="M727.3 305.8c.9-2.6 4.4-3.8 4.1-7 15.8-16.7 31.3-33.8 48-49.8 3.1 4.1 1.3 7-1.5 9.9-12.1 12.4-24.1 24.9-36.2 37.3-4 3.2-7.1 7.1-10.3 11.1-1.4-.5-2.7-1-4.1-1.5z" fill="#211e19"/><path class="st96" d="M731.4 307.2c1.7-5.3 5-9.1 10.3-11.1-1.6 3.9-8.3 6.2-6.7 9.5 1.9 3.9 8 .6 12.2 1.4 11.1 2.2 19.4-1.7 26.1-10.7 3.1-4.2 7.5-7.4 11-11.4 1.5-1.7 3.1-2.3 4.7-1.1 2.1 1.5.8 3.2-.5 4.6-4.1 4.4-8.2 8.7-12.3 13.2-.8.9-2.3 2.2-1.1 3.6.5.6 2.1.6 3.1.6 5.8 0 11.6-.1 17.4-.2.5-.5 1.1-.5 1.7-.1.7 2.6-2.1 1.9-2.9 3h-2.8c-5.1 1.6-10.2.4-15.4 0h-1.4c-3.4 2-3-1.5-4.2-2.8-.9-3.3-1.9.2-2.8 0-4.3 5.4-10.1 2.3-15.3 2.9-3.8 1-7.5 1-11.3 0-3.3-.1-7 2.7-9.8-1.4z"/><path class="st28" d="M859.9 167.6v5.6c-5.5 4.6-10.6 9.6-15.3 15.1-1 1-2 2-3 3.1-2.5 2.1-5.3 4.1-6.6 7.3-1.1 1.5-2 3.3-4 3.9-4.9 5.8-11.1 10.5-15.7 16.7-3.1 1.4-4.3 5.7-8.4 5.6-1.4-.6-2.3-1.4-1.5-3.1 4.5-4.6 9-9.2 13.5-13.9 4.9-5 10.4-9.5 14.5-15.3 3.3-4.8 7.9-8.5 11.9-12.7 5.3-3.5 7.8-10.4 14.6-12.3z"/><path class="st5" d="M818.1 273.9c-.4 1.5-1.7 1.2-2.7 1.4l-.7-.7c-.4-1-.2-1.9.3-2.8-.1-.4 0-.7.4-.9 4.9-5.7-.5-8.7-3.3-12.4-3.3-1.3-4.6-4.5-6.6-7.2-1.3-4.4-1.3-8.7 1.3-12.7.5-.5 1-.9 1.4-1.4 1.6.3 2.6 1.3 3 2.9-2.8 2.3-2.6 5.1-1.4 8.1 3 2.8 6.1 5.5 8.8 8.6 6 6.8 5.9 10.6-.5 17.1z"/><path d="M839.2 260.6c3.5 6.3-1.7 10-4.2 14.6.2.3.4.8.7.9 1.9.8 5.4-1.4 5.5 2 .1 2.8-2.7 3.9-5.6 3.8-1.6-.1-3.2.1-4.8 0-4.7-.2-5.1-2.3-2.3-5.6 3.4-4 7.7-7.6 6-13.8 3.4 4 3-1.5 4.7-1.9z" fill="#38332f"/><path class="st105" d="M857.1 213.7c1.4.5 2.7 1 4.1 1.4 0 5.9.1 11.9 0 17.8-.1 4.3-1.1 8.2-5.9 9.7 6.1-6.8 3.6-15.3 4.4-23 .3-3.4-2.3-2.7-4.1-1-3.3 3.2-6.5 6.5-9.7 9.9-1.9 2.1-4 3.8-6.2 1.3-2.2-2.4.3-4.2 1.9-5.7 1.8-1.8 3.7-3.4 5.5-5.1l.7.7c.6 2.5-1.2 3.6-2.8 4.9 4.5-3.1 6.4-9.2 12.1-10.9z"/><path class="st129" d="M844.6 188.2c3.7-6.5 8.5-11.7 15.3-15.1l1.5 6.9c0 6.5-.4 13 0 19.5.3 5-.9 9.1-4.3 12.6-2.8 2.9-4.2 7.5-9.4 7.3l-.5-.4c12.5-9.1 14.5-21.8 12.7-35.9-.3-2.4 1.3-5.8-1.7-6.8-2.2-.7-3.4 2.6-5.1 4.1-2.8 2.7-4.9 6.1-8.5 7.8z"/><path class="st16" d="M797.1 305.8c-.5 0-1.1-.1-1.6-.1 3-3.1 6-6.3 9.1-9.3 1.6-1.6 3.4-2.5 5.4-.5 2.2 2.1-.2 3.2-1.1 4.6-.9 1.5-3.4 2.4-2.4 4.5 1 2 3.3 1.1 5 1 6.8-.4 13.8 1.3 20.5-1.4.6-.7 1.1-.6 1.5.2-1 .9-1.9 1.7-2.9 2.6-7.4 2-15-.7-22.4 1.4-6.4-.5-7.1-1.7-4-7.8-1.2 1-1.8 2.5-3 3.5-1.1.9-2.2 2.1-4.1 1.3z"/><path class="st37" d="M805.3 276.5c-9.6-.1-9.6-.1-5.5-13 3 3.7 3.3 9.2 8.4 10.4 2.1 1.5 4.9-.8 7 1.1l.1.3c.1.5-.1.8-.4 1.1-3.1 1.2-6.4 1.1-9.6.1z"/><path class="st45" d="M847 146.5c.6.1 1.2.1 1.7.2.9.4 1.7.9 1.9 2-2.9 5.3-8.6 8.2-11.6 13.4-4.5 5.7-9.5 10.9-15.1 15.4-.6.7-1.1.7-1.6-.1 4.1-4.3 8.2-8.5 12.1-13 1.2-1.4 4.7-2.4 1.7-5.3-.3-1 .2-1.8.9-2.5 2.5-2.2 5.1-4.3 6.4-7.6.8-1.4 1.7-2.8 3.6-2.5z"/><path class="st96" d="M855.4 242.6c.1 1.3 0 3.8.2 3.8 6.9.8 5.5 6.1 5.6 10.4.2 4.8 0 9.7 0 14.5 0 2.6 0 5.1-2.7 6.6-.5-.3-.7-.6-.6-.9.1-.4.3-.5.4-.5.4-6.9.9-13.9 1.1-20.8 0-2.5.2-5.2-3.7-6.3-3.7-1.2-3.6-4.3-.3-6.8z"/><path d="M811.2 240.2c-1.4-.6-2.5-1.5-3-2.9 4.9-2.6 9.9-2.2 14.8-.1 7.3-.4 3.1 4.4 3.4 7.2-1 2.1-2.5 3.7-3.8.7-.8-1.9-2.5-3-3.2-4.8-2.2-1.9-4.6-1.2-6.9-.4-.4.2-.9.3-1.3.3z" fill="#35302d"/><path class="st45" d="M839.2 260.6c-.4 2.1.3 4.5-1.5 6.4-2.5-.6-.7-4.1-3.2-4.4-1.3-.6-2.3-2.4-4.1-.8-1.4 1.3-2.8 1.6-3.6-.6-.8-2 .8-2.8 2.3-3.5 4.2-2 7.6-1.1 10.1 2.9z"/><path class="st129" d="M859.9 167.6c-5.6 3.3-8.4 9.9-14.6 12.4.7-.9 1.2-2.1 2.1-2.7 11.9-8.2 14.7-19.7 12.4-33.1-.3-.4-.4-.8-.4-1.2.1-.4.1-.6.2-.6.6-.4 1.2-.4 1.7.1-.6 8.3 1.7 16.8-1.4 25.1z"/><path class="st106" d="M818.1 273.9c5.7-9.1 5.5-10.4-2.1-18.3-2.2-2.3-5.1-4-6.2-7.2 5.8 2.7 9.9 7.3 12.6 12.8 2.4 4.9 2.2 10.1-4.3 12.7z"/><path d="M822.2 177.4c.5 0 1.1.1 1.6.1-4.2 8-13 11.4-18.3 18.3 0-.6-.1-1.1-.1-1.7 4-7.2 12.8-9.6 16.8-16.7z" fill="#3f3b37"/><path class="st103" d="M839 162.1c1.4-6.5 8.4-8.6 11.1-14 1.5-1.9 2.3-4.7 5.6-4.5.4.3.5.7.4 1-.1.3-.3.5-.4.5-5.1 6.1-10.7 11.7-16.7 17z"/><path class="st37" d="M815.2 219.2c3.4-7.2 9.6-11.9 15.7-16.7-4.2 6.6-9.8 11.8-15.7 16.7z"/><path class="st96" d="M852.9 287.6c-2.2 3.4-5 6.2-8.3 8.4-1.1-.6-.5-2.1-1.4-2.8.7-2 .9-4.4 3.9-4.3 1.6-.7 1.8-3.6 4.5-2.7.4.5.8.9 1.3 1.4z"/><path class="st37" d="M833.4 192.6c-2.9 6.9-8.6 11.2-14.5 15.3 4-5.9 9.1-10.7 14.5-15.3z"/><path class="st92" d="M843.2 293.2c1.1.6 1.3 1.7 1.4 2.8 0 .4-.1.9-.1 1.3-1 2.1-1.5 4.7-4.2 5.5-.9 1-1.8 1.9-2.7 2.9-1.2 0-2.3-.3-2.8-1.5-.7-1.5.4-2.2 1.3-3.1 2.5-2.1 4.5-4.8 7-6.9-.1-.2-.1-.6.1-1z"/><path class="st37" d="M851.5 286.2l-4.5 2.7c2.5-5.3 7.4-8.5 11.5-12.4 0 .5.1 1 .1 1.5-2.3 2.7-4.7 5.5-7.1 8.2z"/><path class="st106" d="M812.1 258.5c6.6 4.5 7.6 8.2 3.3 12.4 3.5-5.4-1.6-8.4-3.3-12.4z"/><path class="st55" d="M806.8 238.6c-1.2 4.1-1.7 8.4-1.3 12.7-2.6-4.5-2.7-8.8 1.3-12.7z"/><path class="st96" d="M843 294.3c-1.8 2.9-3.3 6-6.7 7.3-.8-.4-.9-.9-.2-1.5 2.1-2.2 3.5-5.2 6.9-5.8z"/><path class="st129" d="M834.9 198.6c.3-4.2 2.8-6.3 6.6-7.3-1 3.5-4.2 5-6.6 7.3z"/><path class="st55" d="M826.4 244.4c-.4-2.7 1.4-6.5-3.3-7.2 5.3-.9 5.8.2 3.3 7.2z"/><path class="st79" d="M855.7 145.1c-.1-.4-.1-.9-.2-1.3-.7-1.9-.1-3.2 1.9-3.5 1.4-.2 2.7.2 2.6 2.1-.1.6-.1 1.1-.2 1.7-1.6-.7-2.8.4-4.1 1z"/><path class="st132" d="M805.3 221.7c.5 1 1 2.1 1.5 3.1-1 1.2-2.7 1.8-3.4.6-.9-1.5.7-2.7 1.9-3.7z"/><path class="st133" d="M805.3 276.5c3.2 0 6.4 0 9.6-.1-3.1 2.4-6.3 1.9-9.6.1zM815.2 275c-2.3-.2-4.9.9-7-1.1 2.5.1 4.7-.8 6.7-2.1.2 1.1.3 2.1.3 3.2z"/><path class="st55" d="M812.5 239.9c2.5-2.3 4.8-2.8 6.9.4-2.3-1.1-4.6-.2-6.9-.4z"/><path d="M836.1 300.1c.1.5.1 1 .2 1.5-.5.9-1 1.8-1.5 2.6-.4 0-.9.1-1.3.3-.5-.1-1-.1-1.5-.2 1.4-1.3 2.7-2.8 4.1-4.2z" fill="#4c4743"/><path class="st92" d="M797.1 305.8c3.4-3 6.8-6 11-9.8-.6 4.9-10.5 9.4.1 12.5-4.7 3.1-9.3 1-14 0 1-.8 2-1.8 2.9-2.7zM808.2 308.6c7.3-2.8 14.9-.6 22.4-1.4-7.3 2.9-14.9.7-22.4 1.4zM776.1 308.6h15.4c-5.1 2.4-10.2 1.9-15.4 0z"/><path class="st6" d="M741.2 308.7h11.3c-3.8 2-7.6 2-11.3 0z"/><path class="st92" d="M767.7 305.8c1.2-2 2.5-3.7 4.8-4.7 1 2.4-1.8 3-2 4.7h-2.8zM770.6 305.8c1.4.9 2 3 4.2 2.8-4 2.9-4.2.1-4.2-2.8z"/><path d="M679.5 322.2c-2.3.1-3.6 1.8-5 3.3-4.8 5-9.5 5.9-14.2-.1-.9-3.3-6.9-4.5-4.9-7.9 1.5-2.7 6.3-1.6 9.7-1.7 3.7-.1 7.3 0 11-.1 5.5-.2 6.1 2.2 3.4 6.5z" fill="#fbfbfb"/><path class="st79" d="M837.5 157.8c-.5.4-1 .9-1.5 1.3-2.1.4-3.2 4.9-5.2 2.7-3.4-3.7 1.1-6.4 2.6-9.4.4-.5.9-.7 1.5-.4 1.2 1.3 2 2.9 3.1 4.3.2.5 0 1.1-.5 1.5z"/><path class="st7" d="M834.8 152.2c-.4 0-.9 0-1.3.1 2.6-5.3 3.5-11.4 8.2-15.5.1.5.1 1.1.2 1.6.9 5.6-1.8 10.9-7.1 13.8z"/><path class="st4" d="M859.9 142.4c-2.3-2.3-3.6-1.3-4.5 1.3-1.8 1.4-3.6 2.8-5.3 4.3l-1.4-1.4c4-3.5 6.3-8.6 11.2-11.2.5 2.3.9 4.6 1.4 6.9-.4.1-.9.1-1.4.1z"/><path class="st113" d="M834.8 152.2c2.6-4.5 6.1-8.5 7.1-13.7 5.9-6.4 8-14.9 12.6-22 1.2-1.9 1.4-4.5 3.8-5.5 4 9.2 1.9 21.1-4.7 27.6-2.4 2.4-5.2 4.7-6.5 8-1.4.4-2.3 1.3-2.5 2.7-1.8 2.8-3.8 5.5-7 6.9-4.1.7-2.4-2.4-2.8-4z"/><path class="st4" d="M847.7 219.5c4.1-1.2 5.7-5.5 9.4-7.3v1.5c-4.4 5.6-9.7 10.4-15.3 14.8.8-3.8 5.1-5.3 5.9-9z"/><path class="st7" d="M378.1 403.1c-1.4 1.1-2.7 2.3-4.1 3.4-.5-.4-.8-1-.7-1.7.8-2.7 2.6-5.3.5-8.2-3.1-3.4-6.2-6.7-9.1-10.2-5.6-6.5-4.3-12.3 3.6-16.7 1.1 1 .9 2.1.1 3.2-2.9 3.8-.5 6.7 1.7 9.6 2.6 3.4 6.4 5.8 8.1 9.9 1 3.5 1.1 7.1-.1 10.7zM288.8 361.8c.1-1.6.1-3.2.2-4.8 11 11 23.4 20.5 33.4 32.5-.4 1.2-1.3 2.1-2.3 2.9-.6.3-1.2.5-1.8.4-8.1-5.6-14.4-13.1-20.7-20.5-.7-2.1-2-3.4-4.1-4.1-2.2-1.6-4.6-3.1-4.7-6.4z"/><path class="st45" d="M323.7 390.9c8.5 7.4 16.5 15.4 22.4 25.2-.1 1.4-.4 2.7-1.9 3.2-1.8 0-3.1-1-4.2-2.1-6.1-6.3-12.3-12.5-18.4-18.8-1.5-1.5-3.7-3.1-2.2-5.9l.3-.4c1.3-.6 2.6-1 4-1.2z"/><path class="st95" d="M344.6 419c0-1.2.3-2.3 1.5-2.9 9.3 7.8 18.7 15.5 26.2 25.2-.9 1.6-.9 3.7-2.9 4.5-10.3-7.1-18.6-15.9-24.8-26.8z"/><path d="M450.8 399.3c-4.6 1.1-1.6 2.9-.4 4.5 2.8 3.7 7.7 5.7 8.7 10.9-10.5-9.5-19.5-20.6-29.3-30.7-.5-.5-.6-1-.6-1.6.4-1.2.9-2.3 2.1-2.9 6.6 6.6 13.1 13.2 19.5 19.8z" fill="#27221f"/><path class="st95" d="M374 404.9c0 .5.1 1.1.1 1.6-2.8 2.9-15.2 3.7-18.7 1-2.1-1.6.4-2.7.7-4 1-1.1.1-4 3-3 2.8 6.2 7.3 7.1 13.1 4.2.6-.6 1.3-.6 1.8.2z"/><path d="M392.3 398.2c.2 4.2-1.8 8.5.7 12.5.5.8.9 1.9-.3 2.2-1 .3-2.3.3-3.4.1-1.1-.2-.9-1.2-.7-2.2 1-5.7 1.6-11.3-.6-17-.5-1.4-.1-3 1.5-3.4 2.2-.6 2.6 1.3 2.7 2.9.3 1.7.1 3.3.1 4.9z" fill="#36312c"/><path class="st40" d="M415.3 451.2c3.4 1 4.6 3.5 1 4.9-7.3 2.8-14.5 6.5-22.7 6.1-2-.1-3.5-.9-4.2-2.9 9.3 2.5 17.3-2.3 25.8-4.4 1.7-.5.4-2.4.1-3.7z"/><path class="st103" d="M369.8 368.9c5.1-1 9.7 2.2 14.8 1.4-.6 3.4-1.1 6.3-1.7 9.7-4.3-1.7-3.6-8.7-9-8.8-1-1.3-4 .9-4.1-2.3z"/><path class="st16" d="M429.9 382.5v1.5c-4.7-4.2-9.4-8.3-12.6-13.8.5-.5 1-1.1 1.6-1.6 3.8 1.1 7.3 2.6 8.6 6.9-.3.5-2.6.3-.5 1.8 1.6 1.1 3.5 2.6 2.9 5.2z"/><path class="st7" d="M421.5 450.9c0 .5-.1 1-.1 1.5-1.8-1.6-3.4-3.6-5.5-4.6-3.1-1.6-1.5 1-1.5 2.1-2.5-.3-3.7-2.2-4.6-4.3 1.1-3.3-4.9-4.6-2.3-8.3 5.4 3.8 9.5 8.9 14 13.6z"/><path class="st6" d="M369.8 445.4c0-1.9-.2-3.9 2.5-4.1 1.9 3.7 6.8 5 7.4 9.6l-.2.4c-1 .7-.2 2.4-1.6 2.9-1 0-1.6-.6-2.2-1.4-.8-1.7-2.2-2.8-3.9-3.5-1.3-1-2.8-1.9-2-3.9z"/><path class="st5" d="M407.5 437.3c.1 2.6 2.2 3.9 3.7 5.5 2 2.2.4 2.5-1.4 2.8-2.6-2.8-5.3-5.6-7.9-8.4-.8-1.8-.9-3.2 1.7-3.1 1.3 1.1 2.6 2.2 3.9 3.2z"/><path class="st7" d="M403.6 434.2c-1.3.6-1.6 1.8-1.7 3.1-2.8-1.9-5.1-4.2-6.9-7.1-.6-1.4-2.5-2.8-1.1-4.2 1.6-1.6 2.8-.1 3.7 1.4 1.9 2.2 4 4.5 6 6.8z"/><path class="st126" d="M397.5 427.3c-1-.3-1.9-.5-2.9-.8.1 1.2.2 2.4.3 3.7-1.5-1.4-4.4-2.8-1.5-5.1 1.7-1.3 4.1-1 4.1 2.2zM286.2 353.2c-2.9-1.5-5.4-3.3-5.8-6.9 2.6 1.8 4.9 3.8 5.8 6.9z"/><path class="st11" d="M378.1 403.1c0-3.6 0-7.2.1-10.8 2.3 3.6 2.4 7.2-.1 10.8z"/><path d="M359.1 400.5l-3 3c-.1-1.1-.3-2.3-.2-3.4.1-1.2-.6-3.3 1.3-3.3 2.3 0 1.5 2.3 1.9 3.7z" fill="#423d39"/><path class="st11" d="M374 404.9c-.6-.1-1.2-.1-1.8-.2.8-2.7 2.5-5.2 1.7-8.2 2.8 2.8 1.3 5.6.1 8.4z"/><path d="M323.7 390.9c-.8 2.1-2.1 2.8-4.1 1.2-.1-1.9 1-2.5 2.7-2.6l1.4 1.4z" fill="#201b16"/><path class="st132" d="M369.8 368.9c1.4.8 2.7 1.5 4.1 2.3-1.8.6-3.7 1.1-5.5 1.7 0-1.1-.1-2.1-.1-3.2.2-.9.8-1.1 1.5-.8z"/><path class="st0" d="M369.8 445.4c.9.9 1.8 1.9 2.8 2.8 1.7 1.1 3.2 2.4 4.2 4.3.5.4 1 .9 1.4 1.3 1.3.6 2.3 1.5 3.2 2.6 1.5 1.6 3.9 3 2.7 5.8-1 2.4-3.5 2.7-5.8 2.8-3.7.1-7.1 1.9-10.6 2.8-4.2 1.2-8.1 1.1-12-.9-1.6-.9-2.8-2.1-3.9-3.5-10.2-12.1-22.1-22.5-32.8-34.1-4.4-5.6-9.3-10.7-15.1-15-1.6-1.2-2.8-2.6-3.9-4.2-1.7-2.6-3.9-4.7-6.3-6.5l-2.1-1.8c-1.6-1.5-3.3-2.9-4.3-4.9-5.7-5.9-10.7-12.6-16.9-18.2-3.3-3-6.2-6.1-8.2-10-.1-8.6-.2-17.1-.1-25.7 0-1.7-1-4.1 1.3-4.8 2.1-.7 3.2 1.5 4.4 2.7 7 7 13.9 14 20.8 21 1.9 1.8 3.7 3.6 5.6 5.4 1.8 1 3.3 2.4 4.2 4.3 6.9 7.1 13.1 14.8 20.8 21 7.4 9.8 16.5 18 25.3 26.5 8.5 8.7 16.9 17.5 25.3 26.3z"/><path class="st1" d="M262.3 368.6c8.9 9.2 19 17.3 26.4 27.9-2 1.6-4.2-.3-6.2.5-7-3.3-10.9-10-16.2-15.2-.8-.8-.8-2.1 0-3.1-.9-3.4-3-3.2-5.4-1.7 1.9-2.8 1.9-5.6 0-8.4h1.4z"/><path class="st10" d="M259.6 350.5c.4 0 .8-.1 1.2-.2v10.1c-.8-.7-3.6.4-2.4-1.6 1.7-2.8.6-5.6 1.2-8.3z"/><path class="st6" d="M355.8 465.4c4 3.8 8.4 2.3 12.8 1.1l6.6-1.8c10.2-2.7 10.2-2.7 2.9-10.9 0-1.1.1-2.1 1.3-2.6.2 2.9 2.7 4.2 4.3 6.1 3.7 4.7 2.8 8-2.9 8.7-8.8 1-17.2 5.5-26.4 3.1-.1-.3-.3-.5-.4-.8.1-1.3.8-2.2 1.8-2.9z"/><path class="st6" d="M354.5 469.2c-9 4.4-18.9 5.3-28.5 7.4-1.4.3-3.3-2.1-5-3.2-1-.5-1.9-1-2.1-2.1-.1-1.1.1-2.1 1.4-2.4 10.8 5.2 20.9 1.3 31-2.6 2.5-.8 2.4 1.5 3.2 2.9z"/><path class="st5" d="M319.5 472l1.4 1.4c-4.3 3.9-9.3 5.7-15.1 5.7-2.9 0-6.1-1.2-8.6 1.3-3.2 1.7-5.9.8-8.4-1.4-.3-.4-.4-.7-.3-1 .1-.3.3-.5.4-.5 8.3 1.6 16.3-1 24.4-1.5 1.7-.1 4.4-.8 3.4-3.9.9-.9 1.9-1 2.8-.1z"/><path d="M263.4 469.4c.7-2.3-1.6-6.7 1.3-7.7 3.4-1.2 4.8 3.4 7 5.6.6.7 1.5 1.2 2.1 1.9 2.3 2.8 7.2 5.3 6.4 8.4-1 3.7-6.4 1.6-9.8 2.6-6.2 1.6-7.3-.3-7-10.8z" fill="#ecebeb"/><path class="st2" d="M288.9 477.4c0 .5 0 1-.1 1.5-2.7 0-3.1-2.4-4.2-4.1.5 0 1-.1 1.5-.1.9.9 1.8 1.8 2.8 2.7z"/><path class="st116" d="M429.9 382.5c-2.5-2.8-5.1-5.7-7.8-8.8 2.6-1.1 3.4 2 5.3 1.8l4 4c-.2 1.1-.2 2.4-1.5 3z"/><path class="st106" d="M418.8 367.2c-2.6-1.6-5.1-3.3-5.7-6.7 2.6 1.6 4.8 3.6 5.7 6.7z"/><path class="st22" d="M260.8 388.1c0 2.9 0 5.7-.1 8.6-3.9-2-3.9-4.6.1-8.6z"/><path class="st92" d="M260.9 434.3c-6-2.5-1.1-6.5-1.3-9.8.4 0 .8 0 1.3-.1-.1 3.3-.1 6.6 0 9.9z"/><path class="st99" d="M272 425.9c3.5-.9 5.5 3 8.8 2.6 6.4 2.6 11.2 6.7 13 13.6-.3 1-1 1.7-1.9 2.2-1.6.5-2.3-.9-3.3-1.7-6.4-4.6-11.2-11-16.6-16.7z"/><path class="st28" d="M304.2 459.4c-2.9-2.4-5.8-4.7-7.4-8.2 1.9-1.9-2-4.2.4-6 4.8.6 7.2 3.9 8.9 8-.5 1.8-.8 3.7-1.2 5.5-.3.2-.5.4-.7.7z"/><path class="st4" d="M297.2 445.7c.5 1.2 1 2.4 1.7 3.4 2.3 3.8-.7 2-2 2-1.8-.2-3.1-1.2-3.8-2.9-.6-1.4-2.2-2.4-1.4-4.2.5-.5 1.1-1 1.6-1.5 2.3-.3 3.5 1 3.9 3.2z"/><path class="st28" d="M313.8 469.5c-3.2-3.4-6.4-6.7-9.6-10.1l.3-.3c5.7-.6 7.5 4 10.2 7.6.2 1 0 2-.9 2.8z"/><path class="st2" d="M313.8 469.5c0-1 .1-2.1.1-3.1.5-.4 1.1-.7 1.7-.7 2.1.4 3.6 1.5 3.9 3.8v2.5h-2.9c-.9-.8-1.8-1.7-2.8-2.5z"/><path class="st129" d="M291.6 444c.5 1.4.9 2.8 1.4 4.2-1.9-1.5-4.1-2.8-4.4-5.6 1 .6 2 1 3 1.4z"/><path class="st0" d="M319.5 469.4c-1.3-1-2.6-2.1-4-3.1-1.5-.6-2.6-1.7-3.2-3.2-1.2-2.2-3-3.9-5-5.3-1.2-1-2.6-2-2.1-4-2-3.4-4.7-6.1-8.1-8.1-1.3-1.1-2.7-2.1-4-3.2-2.6-6-8.1-9.5-12.4-14-2.3-2.8-4.1-6.5-7.1-8.3-16.1-9.9-10.8-25.8-11.4-39.9-.1-3.3 2.4-1.6 4-1.6 4.9 6.7 10.9 12.3 16.8 18 4.3 1.1 6.3 5.2 9.6 7.7 18.3 19.7 37.6 38.5 56.1 58.1 1.1 1.1 2 2.4 2.3 4 0 .7.2 1.7-.1 2-5.8 4.8-25.7 5.2-31.4.9z"/><path d="M844.7 299.2c5-3.3 7.6-9.2 13.7-12.7-.3 6.5 2.9 13.8-1.5 17.4-2.6 2.1-10.2 4.6-15-.7.6-1.7 1.3-3.2 2.8-4z" fill="#faf9f9"/><path class="st96" d="M844.7 299.2c-.4 1.7-.8 3.4-2.8 3.9-.5-.1-1.1-.1-1.6-.2 1.3-1.9 1.8-4.4 4.2-5.5.1.6.1 1.2.2 1.8z"/><path class="st103" d="M837.4 156.1c2.3-2.3 4.7-4.6 7-6.9-.5 4.4-3.9 6.3-7 8.5.1-.5.1-1 0-1.6z"/><path class="st14" d="M298.5 371.6c-1.4-1.4-2.8-2.9-4.2-4.3 2.8 0 4.2 1.5 4.2 4.3z"/><path class="st105" d="M376.7 452.5c-1.4-1.4-2.8-2.9-4.2-4.3 2.8.2 4.2 1.6 4.2 4.3z"/><path class="st6" d="M348.6 464.1c-12-12.1-24.1-24.1-36-36.3-7.2-7.4-14-15.1-21.1-22.6-.5-1.4-2.1-2.7-1.1-4.4.6-1 1.6-.6 2.3 0l1.6 1.6c1.9 2.6 4.2 4.8 6.7 6.7 1 1.4 2.1 2.8 3.1 4.1 5.7 4.6 10.6 10.1 15.7 15.3 11.6 10.6 22.8 21.6 32.9 33.6-1.1 1.2-2.9.9-4.1 2z"/><path class="st142" d="M292.8 400.7c-3.5.6-.5 3-1.3 4.4-2.8-2.8-5.6-5.6-8.3-8.5 1.7-6.1 3.7 1.6 5.5-.2 1.4 1.6 2.7 3 4.1 4.3z"/><path class="st28" d="M319.8 428.6c-6.1-4.2-11-9.6-15.7-15.3 6.8 3.6 11.7 9 15.7 15.3z"/><path class="st92" d="M348.6 464.1c-1.1-5.9 2.9-1 4.1-1.9 1 1.1 2.1 2.1 3.1 3.2-.5 1.3-.9 2.5-1.4 3.8-1.1-.9-2.2-1.7-3.3-2.6-1.7.1-2.5-.8-2.5-2.5z"/><path class="st142" d="M301.1 409.1c-3.6-.9-5.8-3.1-6.7-6.7 2.9 1.6 5.2 3.8 6.7 6.7z"/><path class="st5" d="M305.3 453.8c1 1 2 2.1 3 3.1 1.5 2 3.3 3.8 5.3 5.3.7 1.4 1.3 2.7 2 4.1-.6 0-1.1.1-1.7.1-3.6-1.8-5.3-6.1-9.4-7.3.1-1.8-3.7-4.2.8-5.3z"/><path class="st28" d="M313.6 462.2c-3-.5-4.8-2.3-5.3-5.3 2.7.9 4 3.1 5.3 5.3z"/></svg>