<svg xmlns="http://www.w3.org/2000/svg" xmlns:xlink="http://www.w3.org/1999/xlink" width="509.334" height="502.67" viewBox="0 0 382 377.003" color-interpolation-filters="sRGB" fill="none" fill-rule="evenodd" font-size="12" overflow="visible" stroke-linecap="square" stroke-miterlimit="3"><style>.st1{fill:#94b6d2;stroke:#feffff;stroke-width:1}.st2{fill:#feffff;font-family:Microsoft Sans Serif;font-size:1.33333em}.st3{font-family:微软雅黑;font-size:1em}.st4{marker-end:url(#mrkr4-10);stroke:#82a0b9;stroke-linecap:round;stroke-linejoin:round;stroke-width:.5}.st6{fill:#feffff;font-family:微软雅黑;font-size:1.33333em}</style><defs id="Markers"><path d="M2 1L0 0l2-1v2" id="lend4"/><marker id="mrkr4-10" refX="-12.08" orient="auto" markerUnits="strokeWidth" overflow="visible" fill="#82a0b9" fill-opacity="1" stroke="#82a0b9" stroke-opacity="1" stroke-width=".166"><use xlink:href="#lend4" transform="scale(-6.04)"/></marker></defs><g id="shape2-1" transform="translate(56 -296)"><path class="st1" d="M0 338.753h117v38.25H0z"/><text x="29.16" y="362.74" class="st2">B<tspan class="st3">寄存器</tspan></text></g><g id="shape4-5" transform="translate(105.5 -296)"><path d="M9 377v29.96" class="st4"/></g><g id="shape3-11" transform="translate(56 -221.75)"><path class="st1" d="M0 338.753h117v38.25H0z"/><text x="34.5" y="362.74" class="st6">求补器</text></g><g id="shape5-14" transform="translate(209 -296)"><path class="st1" d="M0 338.753h117v38.25H0z"/><text x="29.16" y="362.74" class="st2">A<tspan class="st3">寄存器</tspan></text></g><g id="shape7-18" transform="translate(105.5 -221.75)"><path d="M9 377v29.96" class="st4"/></g><g id="shape6-23" transform="translate(56 -147.5)"><path class="st1" d="M0 338.753h117v38.25H0z"/><text x="27.49" y="353.01" class="st2">SW <tspan class="st3">开关</tspan><tspan x="2.5" dy="1.216em" class="st3">（</tspan><tspan class="st3">加法或减法</tspan><tspan class="st3">）</tspan></text></g><g id="shape8-30" transform="translate(47 -315.125)"><path d="M9 377H-9v148.5H2.96" class="st4"/></g><g id="shape10-35" transform="translate(173 -166.625)"><path d="M0 377h94.5v49.09" class="st4"/></g><g id="shape9-40" transform="translate(209 -73.25)"><path class="st1" d="M0 338.753h117v38.25H0z"/><text x="34.5" y="362.74" class="st6">加法器</text></g><g id="shape12-43" transform="translate(209 -83.375)"><path d="M0 368h-29.96" class="st4"/></g><g id="shape11-48" transform="translate(56 -73.25)"><path class="st1" d="M0 338.753h117v38.25H0z"/><text x="21.27" y="362.74" class="st2">OF <tspan class="st3">溢出位</tspan></text></g><g id="shape13-52" transform="translate(258.5 -296)"><path d="M9 377v178.46" class="st4"/></g><g id="shape14-57" transform="translate(326 -92.375)"><path d="M0 377h18V117.13h-76.5v11.96" class="st4"/></g><g id="shape16-62" transform="translate(124.827 -19)"><path d="M0 338.753h140.42v38.25H0z"/><text x="14.21" y="362.68" fill="#94b6d2" font-family="微软雅黑" font-size="1.333em">加法硬件框架图</text></g></svg>