<svg xmlns="http://www.w3.org/2000/svg" xmlns:xlink="http://www.w3.org/1999/xlink" width="434.667" height="486.666" viewBox="0 0 326 365" color-interpolation-filters="sRGB" fill="none" fill-rule="evenodd" font-size="12" overflow="visible" stroke-linecap="square" stroke-miterlimit="3"><style>.st1{fill:#eef2f6;stroke:#feffff;stroke-width:1}.st2{fill:#6b859a;font-family:微软雅黑;font-size:.666664em}.st3{marker-end:url(#mrkr4-9);stroke:#82a0b9;stroke-linecap:round;stroke-linejoin:round;stroke-width:.5}.st5{fill:#6b859a;font-family:Microsoft Sans Serif;font-size:.666664em}.st6{fill:#fff;stroke:none;stroke-linecap:butt;stroke-width:7.2}.st7{fill:#4c5f6f;font-family:微软雅黑;font-size:.666664em}.st8{fill:#94b6d2;stroke:#feffff;stroke-width:1}.st10{fill:#feffff;font-family:微软雅黑;font-size:.666664em}.st13{font-family:Microsoft Sans Serif;font-size:1em}</style><defs id="Markers"><path d="M2 1L0 0l2-1v2" id="lend4"/><marker id="mrkr4-9" refX="-12.08" orient="auto" markerUnits="strokeWidth" overflow="visible" fill="#82a0b9" fill-opacity="1" stroke="#82a0b9" stroke-opacity="1" stroke-width=".166"><use xlink:href="#lend4" transform="scale(-6.04)"/></marker></defs><g id="shape4-1" transform="translate(19 -319)"><path d="M13.5 365h45a13.5 13.5-180 0 0 0-27h-45a13.5 13.5-180 1 0 0 27z" class="st1"/><text x="28" y="353.93" class="st2">乘法</text></g><g id="shape6-4" transform="translate(46 -319)"><path d="M9 365v20.96" class="st3"/></g><g id="shape5-10" transform="translate(19 -265)"><path d="M0 351.5L36 338l36 13.5L36 365 0 351.5z" class="st1"/><text x="26.65" y="353.9" class="st5">X = 0</text></g><g id="shape9-13" transform="translate(46 -265)"><path d="M9 365v20.96" class="st3"/><path class="st6" d="M5 373.635h8v9.731H5z"/><text x="5" y="380.93" class="st7">是</text></g><g id="shape8-20" transform="translate(19 -211)"><path class="st8" d="M0 338h72v27H0z"/><text x="25.21" y="353.9" fill="#feffff" font-family="Microsoft Sans Serif" font-size=".667em">Z ← 0</text></g><g id="shape11-23" transform="translate(91 -269.5)"><path d="M0 356h34.46" class="st3"/><path class="st6" d="M16.25 351.135h8v9.731h-8z"/><text x="16.25" y="358.43" class="st7">否</text></g><g id="shape10-30" transform="translate(131.5 -265)"><path d="M0 351.5L36 338l36 13.5L36 365 0 351.5z" class="st1"/><text x="26.65" y="353.9" class="st5">Y = 0</text></g><g id="shape13-33" transform="translate(167.5 -265)"><path d="M0 365v40.5h-70.46" class="st3"/><path class="st6" d="M-22 400.635h8v9.731h-8z"/><text x="-22" y="407.93" class="st7">是</text></g><g id="shape15-40" transform="translate(46 -211)"><path d="M9 365v20.96" class="st3"/></g><g id="shape14-45" transform="translate(19 -157)"><path d="M13.5 365h45a13.5 13.5-180 0 0 0-27h-45a13.5 13.5-180 1 0 0 27z" class="st1"/><text x="28" y="353.93" class="st2">返回</text></g><g id="shape20-48" transform="translate(203.5 -287.5)"><path d="M0 374h25.46" class="st3"/><path class="st6" d="M11.75 369.135h8v9.731h-8z"/><text x="11.75" y="376.43" class="st7">否</text></g><g id="shape19-55" transform="translate(235 -157)"><path d="M0 351.5L36 338l36 13.5L36 365 0 351.5z" class="st1"/><text x="20" y="353.93" class="st2">阶值上溢</text></g><g id="shape22-58" transform="translate(235 -179.5)"><path d="M0 374h-25.46" class="st3"/><path class="st6" d="M-19.75 369.135h8v9.731h-8z"/><text x="-19.75" y="376.43" class="st7">是</text></g><g id="shape21-65" transform="translate(131.5 -157)"><path class="st8" d="M0 338h72v27H0z"/><text x="20" y="353.93" class="st10">报告上溢</text></g><g id="shape23-68" transform="translate(235 -265)"><path class="st8" d="M0 338h72v27H0z"/><text x="20" y="353.93" class="st10">阶值相加</text></g><g id="shape25-71" transform="translate(235 -49)"><path class="st8" d="M0 338h72v27H0z"/><text x="16" y="353.93" class="st10">有效值相乘</text></g><g id="shape31-74" transform="translate(235 -53.5)"><path d="M0 356h-25.46" class="st3"/><path class="st6" d="M-19.75 351.135h8v9.731h-8z"/><text x="-19.75" y="358.43" class="st7">是</text></g><g id="shape30-81" transform="translate(131.5 -49)"><path class="st8" d="M0 338h72v27H0z"/><text x="24" y="353.93" class="st10">规格化</text></g><g id="shape33-84" transform="translate(235 -103)"><path d="M0 351.5L36 338l36 13.5L36 365 0 351.5z" class="st1"/><text x="20" y="353.93" class="st2">阶值下溢</text></g><g id="shape35-87" transform="translate(131.5 -103)"><path class="st8" d="M0 338h72v27H0z"/><text x="20" y="353.93" class="st10">报告下溢</text></g><g id="shape69-90" transform="translate(235 -125.5)"><path d="M0 374h-25.46" class="st3"/><path class="st6" d="M-19.75 369.135h8v9.731h-8z"/><text x="-19.75" y="376.43" class="st7">是</text></g><g id="shape81-97" transform="translate(131.5 -53.5)"><path d="M0 356h-34.46" class="st3"/></g><g id="shape95-102" transform="translate(104.045 -18)"><path d="M0 353h126.909v12H0z"/><text x="21.36" y="361.43" fill="#94b6d2" font-family="微软雅黑" font-size=".667em">浮点数乘法<tspan class="st13"> </tspan><tspan class="st13">(Z </tspan><tspan class="st13">← </tspan><tspan class="st13">X × Y)</tspan></text></g><g id="shape97-109" transform="translate(235 -211)"><path class="st8" d="M0 338h72v27H0z"/><text x="20" y="353.93" class="st10">减偏移量</text></g><g id="shape98-112" transform="translate(262 -265)"><path d="M9 365v20.96" class="st3"/></g><g id="shape99-117" transform="translate(262 -211)"><path d="M9 365v20.96" class="st3"/></g><g id="shape100-122" transform="translate(262 -157)"><path d="M9 365v20.96" class="st3"/><path class="st6" d="M5 373.642h8v9.717H5z"/><text x="5" y="380.93" class="st7">否</text></g><g id="shape101-129" transform="translate(262 -103)"><path d="M9 365v20.96" class="st3"/></g><g id="shape104-134" transform="translate(19 -49)"><path class="st8" d="M0 338h72v27H0z"/><text x="20" y="353.93" class="st10">舍入处理</text></g><g id="shape106-137" transform="translate(46 -76)"><path d="M9 365v-74.96" class="st3"/></g><g id="shape107-142" transform="translate(131.5 -161.5)"><path d="M0 356h-34.46" class="st3"/></g><g id="shape108-147" transform="translate(131.5 -116.5)"><path d="M0 365h-76.5v-34.46" class="st3"/></g></svg>