<?xml version="1.0" encoding="utf-8"?>
<!-- Generator: Adobe Illustrator 23.0.0, SVG Export Plug-In . SVG Version: 6.00 Build 0)  -->
<svg version="1.1" id="Layer_1" xmlns="http://www.w3.org/2000/svg" xmlns:xlink="http://www.w3.org/1999/xlink" x="0px" y="0px"
	 viewBox="0 0 1417.3 269" style="enable-background:new 0 0 1417.3 269;" xml:space="preserve">
<style type="text/css">
	.st0{fill:none;stroke:#000000;stroke-width:2.27;stroke-linejoin:bevel;}
	.st1{fill:none;stroke:#000000;stroke-width:4.54;stroke-linejoin:bevel;}
	.st2{fill:none;stroke:#000000;stroke-width:14.17;stroke-linejoin:bevel;}
	.st3{fill:none;stroke:#000000;stroke-width:4.54;stroke-linecap:square;stroke-linejoin:bevel;}
	.st4{fill:none;stroke:#000000;stroke-width:3.69;stroke-linecap:round;stroke-linejoin:bevel;}
</style>
<title>score</title>
<desc>Generated by MuseScore 3.0.5</desc>
<line class="st0" x1="0" y1="68.4" x2="1417.3" y2="68.4"/>
<line class="st0" x1="0" y1="96.8" x2="1417.3" y2="96.8"/>
<line class="st0" x1="0" y1="125.1" x2="1417.3" y2="125.1"/>
<line class="st0" x1="0" y1="153.5" x2="1417.3" y2="153.5"/>
<line class="st0" x1="0" y1="181.8" x2="1417.3" y2="181.8"/>
<line class="st1" x1="1389.5" y1="67.3" x2="1389.5" y2="182.9"/>
<line class="st2" x1="1410.2" y1="67.3" x2="1410.2" y2="182.9"/>
<path d="M914.9,120.5v8.8c0,3.1,0.1,5.6,0.4,7.4c2.4-2.1,4.2-3.6,5.2-4.6c1.2-1.2,2.4-2.8,3.5-4.9c1.2-2.1,1.8-4.1,1.8-6.2
	c0-2.1-0.4-3.8-1.3-5.3c-0.9-1.5-2.1-2.2-3.5-2.2c-1.8,0-3.2,0.7-4.4,2C915.5,116.9,914.9,118.5,914.9,120.5 M910.2,140.7l-1.4-67.4
	c1-0.6,2.1-0.9,3.1-0.9c1,0,2.1,0.3,3.1,0.9l-0.9,39.1c3-2.6,6.5-3.9,10.4-3.9c2.9,0,5.3,1.2,7.2,3.5c1.9,2.4,2.9,5.1,2.9,8.1
	c0,1.9-0.6,3.9-1.9,6.1c-1.2,2-2.4,3.5-3.8,4.6c-0.7,0.6-2.6,2.1-5.7,4.4c-0.9,0.7-1.9,1.4-3.2,2.3c-1.2,0.9-2,1.4-2.3,1.7
	c-0.5,0.3-1,0.9-1.5,1.8c-0.5,0.7-1.1,1.4-1.8,1.9c-0.5,0.4-1.1,0.7-1.9,0.7c-0.7,0-1.3-0.3-1.8-0.8
	C910.5,142.3,910.2,141.6,910.2,140.7"/>
<line class="st3" x1="512.5" y1="40.1" x2="566.8" y2="40.1"/>
<line class="st3" x1="34.6" y1="210.2" x2="107.7" y2="210.2"/>
<line class="st3" x1="34.6" y1="238.5" x2="107.7" y2="238.5"/>
<line class="st4" x1="1277.6" y1="87.9" x2="1277.6" y2="181.8"/>
<line class="st4" x1="1166" y1="102.1" x2="1166" y2="192.4"/>
<line class="st4" x1="1054.5" y1="116.3" x2="1054.5" y2="203.1"/>
<line class="st4" x1="942.9" y1="130.4" x2="942.9" y2="213.7"/>
<line class="st4" x1="865" y1="148.1" x2="865" y2="57.8"/>
<line class="st4" x1="753.4" y1="176.5" x2="753.4" y2="82.6"/>
<line class="st4" x1="522.8" y1="45.4" x2="522.8" y2="139.3"/>
<line class="st4" x1="411.3" y1="87.9" x2="411.3" y2="181.8"/>
<line class="st4" x1="333.4" y1="134" x2="333.4" y2="47.2"/>
<path d="M1300.6,67c3.5,0,6.5,0.9,9,2.8c2.3,2,3.4,4.5,3.4,7.5c0,5.1-2.6,9.9-7.8,14.3c-5.3,4.4-11,6.6-17.1,6.6
	c-3.5,0-6.5-0.9-9-2.8c-2.3-2-3.4-4.5-3.4-7.5c0-5.1,2.7-9.9,8-14.3C1288.9,69.2,1294.5,67,1300.6,67"/>
<path d="M1189.1,81.2c3.5,0,6.5,0.9,9,2.8c2.3,2,3.4,4.5,3.4,7.5c0,5.1-2.6,9.9-7.8,14.3c-5.3,4.4-11,6.6-17.1,6.6
	c-3.5,0-6.5-0.9-9-2.8c-2.3-2-3.4-4.5-3.4-7.5c0-5.1,2.7-9.9,8-14.3C1177.3,83.4,1183,81.2,1189.1,81.2"/>
<path d="M1077.5,95.3c3.5,0,6.5,0.9,9,2.8c2.3,2,3.4,4.5,3.4,7.5c0,5.1-2.6,9.9-7.8,14.3c-5.3,4.4-11,6.6-17.1,6.6
	c-3.5,0-6.5-0.9-9-2.8c-2.3-2-3.4-4.5-3.4-7.5c0-5.1,2.7-9.9,8-14.3C1065.8,97.6,1071.4,95.3,1077.5,95.3"/>
<path d="M966,109.5c3.5,0,6.5,0.9,9,2.8c2.3,2,3.4,4.5,3.4,7.5c0,5.1-2.6,9.9-7.8,14.3c-5.3,4.4-11,6.6-17.1,6.6
	c-3.5,0-6.5-0.9-9-2.8c-2.3-2-3.4-4.5-3.4-7.5c0-5.1,2.7-9.9,8-14.3C954.2,111.7,959.9,109.5,966,109.5"/>
<path d="M854.4,137.9c3.5,0,6.5,0.9,9,2.8c2.3,2,3.4,4.5,3.4,7.5c0,5.1-2.6,9.9-7.8,14.3c-5.3,4.4-11,6.6-17.1,6.6
	c-3.5,0-6.5-0.9-9-2.8c-2.3-2-3.4-4.5-3.4-7.5c0-5.1,2.7-9.9,8-14.3C842.7,140.1,848.3,137.9,854.4,137.9"/>
<path d="M742.9,166.2c3.5,0,6.5,0.9,9,2.8c2.3,2,3.4,4.5,3.4,7.5c0,5.1-2.6,9.9-7.8,14.3c-5.3,4.4-11,6.6-17.1,6.6
	c-3.5,0-6.5-0.9-9-2.8c-2.3-2-3.4-4.5-3.4-7.5c0-5.1,2.7-9.9,8-14.3C731.1,168.4,736.8,166.2,742.9,166.2"/>
<path d="M545.9,24.5c3.5,0,6.5,0.9,9,2.8c2.3,2,3.4,4.5,3.4,7.5c0,5.1-2.6,9.9-7.8,14.3c-5.3,4.4-11,6.6-17.1,6.6
	c-3.5,0-6.5-0.9-9-2.8c-2.3-2-3.4-4.5-3.4-7.5c0-5.1,2.7-9.9,8-14.3C534.1,26.7,539.8,24.5,545.9,24.5"/>
<path d="M434.3,67c3.5,0,6.5,0.9,9,2.8c2.3,2,3.4,4.5,3.4,7.5c0,5.1-2.6,9.9-7.8,14.3c-5.3,4.4-11,6.6-17.1,6.6
	c-3.5,0-6.5-0.9-9-2.8c-2.3-2-3.4-4.5-3.4-7.5c0-5.1,2.7-9.9,8-14.3C422.6,69.2,428.2,67,434.3,67"/>
<path d="M322.8,123.7c3.5,0,6.5,0.9,9,2.8c2.3,2,3.4,4.5,3.4,7.5c0,5.1-2.6,9.9-7.8,14.3c-5.3,4.4-11,6.6-17.1,6.6
	c-3.5,0-6.5-0.9-9-2.8c-2.3-2-3.4-4.5-3.4-7.5c0-5.1,2.7-9.9,8-14.3C311,125.9,316.7,123.7,322.8,123.7"/>
<path d="M67.4,225.8c-2.7,0-4.6,0.9-5.8,2.8c-1.3,1.8-2,4.2-2,7.2c0,3.5,0.9,6.5,2.8,9c1.8,2.4,3.9,4.1,6.1,5.1c2,1,4.1,1.4,6.3,1.4
	c2.6,0,4.5-0.9,5.9-2.8c1.3-1.9,1.9-4.3,1.9-7.2c0-3.5-0.9-6.5-2.8-9c-1.8-2.4-3.8-4.1-6-5.1C71.7,226.2,69.6,225.8,67.4,225.8
	 M71.2,222.9c8,0,14.6,1.5,19.9,4.6c5.4,3.1,8.1,6.8,8.1,11c0,4.5-2.8,8.2-8.3,11.1c-5.5,3-12.1,4.5-19.7,4.5
	c-7.8,0-14.5-1.5-19.9-4.6c-5.5-3.1-8.2-6.8-8.2-11c0-4.5,2.8-8.2,8.4-11.1C57,224.4,63.6,222.9,71.2,222.9"/>
<path d="M665.8,130.2c0,0,0.2,0,0.5,0c0.2-0.1,0.4-0.1,0.6-0.1c6.6,0,12,2.3,16.3,7c4.3,4.6,6.4,10,6.4,16.1
	c0,7.6-3.2,13.8-9.5,18.6c-1.7,1.3-3.8,2.4-6.5,3.2c0.3,3.8,0.5,6.9,0.5,9.3c0,0.5-0.1,2.2-0.2,5.1c-0.2,5.5-2.1,10.2-5.7,14.3
	c-3.4,4-7.7,5.9-12.8,5.9c-4.8,0-8.9-1.7-12.2-5c-3.4-3.4-5.1-7.6-5.1-12.4c0-2.5,1-4.7,2.9-6.5c2-1.8,4.3-2.7,7-2.7
	c2.4,0,4.3,0.9,5.9,2.7c1.7,1.7,2.5,3.8,2.5,6.4c0,2.3-0.8,4.3-2.5,5.9c-1.7,1.7-3.6,2.5-5.9,2.5c-0.9,0-1.9-0.2-2.7-0.5
	c2.6,3.8,6.1,5.8,10.4,5.8c4.1,0,7.4-1.7,10-5c2.7-3.4,4.2-7.4,4.4-12c0.1-2.8,0.2-4.5,0.2-4.9c0-3.3-0.1-6-0.4-8.1
	c-2.9,0.5-5.6,0.7-7.9,0.7c-8.2,0-15.2-3.3-21-9.8c-5.7-6.6-8.5-14.4-8.5-23.4c0-1.9,0.2-3.8,0.5-5.8c0.4-1.6,0.8-3.3,1.3-5.2
	c0.3-1.1,1.1-2.8,2.4-5.1c0.5-0.7,1-1.6,1.6-2.7c0.6-1.1,1-1.8,1.2-2.1c0.6-1.2,1.7-2.8,3.4-4.8c0.5-0.5,1-1.1,1.5-1.8
	c0.5-0.6,0.9-1.2,1.3-1.6c0.4-0.4,0.6-0.7,0.8-1c0.2-0.2,1.5-1.8,4-4.7c0.6-0.6,1.2-1.2,1.7-1.9c0.6-0.7,1-1.2,1.4-1.6
	c0.4-0.4,0.6-0.7,0.8-0.8c-2.1-7-3.5-12.6-4-16.8c-0.4-3.4-0.6-8-0.6-13.8c0-5.1,1.2-10,3.5-14.4c2.3-4.7,5.5-8.5,9.7-11.4
	c0.2-0.2,0.5-0.3,0.9-0.3c0.4,0,0.7,0.1,0.9,0.3c3.2,3.8,5.9,8.8,8.2,15c2.4,6.1,3.5,11.7,3.5,16.8c0,5.7-1.4,11-4.1,15.9
	c-3.1,5.3-7,10.7-11.9,16.3C662.1,115.8,663.8,121.9,665.8,130.2 M673.4,171.5c3.1-1.1,5.5-3,7.2-5.8c1.9-2.6,2.8-5.5,2.8-8.8
	c0-4.2-1.4-7.9-4.3-11.2c-2.9-3.4-6.6-5.3-11.1-5.7C670.6,152.5,672.4,163,673.4,171.5 M639.1,151c0,5.8,2.4,11,7.1,15.4
	c4.8,4.3,10.3,6.5,16.3,6.5c2.5,0,4.9-0.2,7.3-0.5c-0.9-9-2.8-19.7-5.6-32.2c-3.4,0.4-6,1.5-8.1,3.5c-2,2.1-2.9,4.4-2.9,7
	c0,4.5,2.4,8.1,7.2,10.9c0.4,0.4,0.6,0.9,0.6,1.3c0,0.5-0.2,0.9-0.6,1.3c-0.4,0.4-0.8,0.6-1.3,0.6c-0.1,0-0.3-0.1-0.8-0.2
	c-3.4-1.8-6-4.2-7.8-7.1c-1.7-3.1-2.6-6.2-2.6-9.3c0-4.1,1.3-7.8,3.8-11.1c2.7-3.3,6.1-5.4,10.4-6.4c-1.7-6.6-3-11.8-4.1-15.5
	c-0.9,1.1-2.1,2.4-3.4,3.9c-1.3,1.5-2.1,2.4-2.3,2.7c-2.1,2.8-3.8,4.9-4.9,6.5c-2,2.8-3.5,5.2-4.4,7.2c-1,2.2-1.9,4.7-2.7,7.4
	C639.5,145.4,639.1,148.1,639.1,151 M668.7,60.9c-4.4,2.2-7.9,5.3-10.4,9.4c-2.6,4.2-3.9,8.7-3.9,13.5c0,4.3,1.1,10,3.2,17.2
	c4.3-5.1,7.4-9.9,9.6-14.3c2.2-4.6,3.4-9.4,3.4-14.4C670.4,68.5,669.9,64.7,668.7,60.9"/>
<path d="M88.9,86.7c-1.1-1.1-1.7-2.5-1.7-4.1c0-1.6,0.6-3,1.7-4.1c1.1-1.1,2.5-1.7,4.1-1.7c1.6,0,3,0.6,4.1,1.7
	c1.1,1.1,1.7,2.5,1.7,4.1c0,1.6-0.6,3-1.7,4.1c-1.1,1.1-2.5,1.7-4.1,1.7C91.4,88.4,90,87.8,88.9,86.7 M88.9,115
	c-1.1-1.1-1.7-2.5-1.7-4.1c0-1.6,0.6-3,1.7-4.1c1.1-1.1,2.5-1.7,4.1-1.7c1.6,0,3,0.6,4.1,1.7c1.1,1.1,1.7,2.5,1.7,4.1
	c0,1.6-0.6,3-1.7,4.1c-1.1,1.1-2.5,1.7-4.1,1.7C91.4,116.7,90,116.2,88.9,115 M50.5,67c9.8,0,17.9,2.5,24.1,7.4
	c6.1,5.2,9.1,12.2,9.1,21c0,6-1.2,11.4-3.5,16.4c-2.2,5.2-5.1,9.7-8.8,13.7c-3.7,4.1-8.2,7.9-13.4,11.5c-5.1,3.5-10.3,6.7-15.7,9.5
	c-11,5.5-17,8.3-18.2,8.3c-1,0-1.4-0.5-1.4-1.4c0-0.4,0.1-0.7,0.4-1c3.8-2.2,8.4-5.1,13.8-8.5c3.5-2.3,7.7-5.5,12.4-9.5
	c4.6-3.8,8.1-7.5,10.6-10.8c2.6-3.3,4.9-7.5,7.1-12.4c1.8-4.9,2.8-9.8,2.8-14.6c0-7.2-1.8-13.4-5.3-18.7c-3.5-5.3-8.2-8-14-8
	c-4.1,0-7.7,1.3-10.6,4c-3.2,2.7-5.5,6.2-6.9,10.3c1.4-0.6,2.7-0.9,3.9-0.9c3.1,0,5.8,1.1,8,3.3c2.2,2.4,3.3,5.1,3.3,8.1
	c0,3.2-1.1,6-3.2,8.5c-2.3,2.3-5,3.4-8.1,3.4c-3.3,0-6.3-1.1-9-3.4c-2.5-2.5-3.8-5.4-3.8-8.5c0-7.6,2.6-14.1,7.8-19.5
	C37,69.7,43.2,67,50.5,67"/>
</svg>
