<svg version="1.1" id="Layer_1" xmlns="http://www.w3.org/2000/svg" x="0" y="0" viewBox="0 0 1417.3 269" xml:space="preserve"><style>.st0,.st3,.st4{fill:none;stroke:#000;stroke-width:2.27;stroke-linejoin:bevel}.st3,.st4{stroke-width:4.54;stroke-linecap:square}.st4{stroke-width:3.69;stroke-linecap:round}</style><path class="st0" d="M0 68.4h1417.3M0 96.8h1417.3M0 125.1h1417.3M0 153.5h1417.3M0 181.8h1417.3"/><path fill="none" stroke="#000" stroke-width="4.54" stroke-linejoin="bevel" d="M1389.5 67.3v115.6"/><path fill="none" stroke="#000" stroke-width="14.17" stroke-linejoin="bevel" d="M1410.2 67.3v115.6"/><path d="M914.9 120.5v8.8c0 3.1.1 5.6.4 7.4 2.4-2.1 4.2-3.6 5.2-4.6 1.2-1.2 2.4-2.8 3.5-4.9 1.2-2.1 1.8-4.1 1.8-6.2 0-2.1-.4-3.8-1.3-5.3s-2.1-2.2-3.5-2.2c-1.8 0-3.2.7-4.4 2-1.1 1.4-1.7 3-1.7 5m-4.7 20.2l-1.4-67.4c1-.6 2.1-.9 3.1-.9s2.1.3 3.1.9l-.9 39.1c3-2.6 6.5-3.9 10.4-3.9 2.9 0 5.3 1.2 7.2 3.5 1.9 2.4 2.9 5.1 2.9 8.1 0 1.9-.6 3.9-1.9 6.1-1.2 2-2.4 3.5-3.8 4.6-.7.6-2.6 2.1-5.7 4.4-.9.7-1.9 1.4-3.2 2.3-1.2.9-2 1.4-2.3 1.7-.5.3-1 .9-1.5 1.8-.5.7-1.1 1.4-1.8 1.9-.5.4-1.1.7-1.9.7-.7 0-1.3-.3-1.8-.8-.2-.5-.5-1.2-.5-2.1"/><path class="st3" d="M512.5 40.1h54.3M34.6 210.2h73.1M34.6 238.5h73.1"/><path class="st4" d="M1277.6 87.9v93.9M1166 102.1v90.3M1054.5 116.3v86.8M942.9 130.4v83.3M865 148.1V57.8M753.4 176.5V82.6M522.8 45.4v93.9M411.3 87.9v93.9M333.4 134V47.2"/><path d="M1300.6 67c3.5 0 6.5.9 9 2.8 2.3 2 3.4 4.5 3.4 7.5 0 5.1-2.6 9.9-7.8 14.3-5.3 4.4-11 6.6-17.1 6.6-3.5 0-6.5-.9-9-2.8-2.3-2-3.4-4.5-3.4-7.5 0-5.1 2.7-9.9 8-14.3 5.2-4.4 10.8-6.6 16.9-6.6M1189.1 81.2c3.5 0 6.5.9 9 2.8 2.3 2 3.4 4.5 3.4 7.5 0 5.1-2.6 9.9-7.8 14.3-5.3 4.4-11 6.6-17.1 6.6-3.5 0-6.5-.9-9-2.8-2.3-2-3.4-4.5-3.4-7.5 0-5.1 2.7-9.9 8-14.3 5.1-4.4 10.8-6.6 16.9-6.6M1077.5 95.3c3.5 0 6.5.9 9 2.8 2.3 2 3.4 4.5 3.4 7.5 0 5.1-2.6 9.9-7.8 14.3-5.3 4.4-11 6.6-17.1 6.6-3.5 0-6.5-.9-9-2.8-2.3-2-3.4-4.5-3.4-7.5 0-5.1 2.7-9.9 8-14.3 5.2-4.3 10.8-6.6 16.9-6.6M966 109.5c3.5 0 6.5.9 9 2.8 2.3 2 3.4 4.5 3.4 7.5 0 5.1-2.6 9.9-7.8 14.3-5.3 4.4-11 6.6-17.1 6.6-3.5 0-6.5-.9-9-2.8-2.3-2-3.4-4.5-3.4-7.5 0-5.1 2.7-9.9 8-14.3 5.1-4.4 10.8-6.6 16.9-6.6M854.4 137.9c3.5 0 6.5.9 9 2.8 2.3 2 3.4 4.5 3.4 7.5 0 5.1-2.6 9.9-7.8 14.3-5.3 4.4-11 6.6-17.1 6.6-3.5 0-6.5-.9-9-2.8-2.3-2-3.4-4.5-3.4-7.5 0-5.1 2.7-9.9 8-14.3 5.2-4.4 10.8-6.6 16.9-6.6M742.9 166.2c3.5 0 6.5.9 9 2.8 2.3 2 3.4 4.5 3.4 7.5 0 5.1-2.6 9.9-7.8 14.3-5.3 4.4-11 6.6-17.1 6.6-3.5 0-6.5-.9-9-2.8-2.3-2-3.4-4.5-3.4-7.5 0-5.1 2.7-9.9 8-14.3 5.1-4.4 10.8-6.6 16.9-6.6M545.9 24.5c3.5 0 6.5.9 9 2.8 2.3 2 3.4 4.5 3.4 7.5 0 5.1-2.6 9.9-7.8 14.3-5.3 4.4-11 6.6-17.1 6.6-3.5 0-6.5-.9-9-2.8-2.3-2-3.4-4.5-3.4-7.5 0-5.1 2.7-9.9 8-14.3 5.1-4.4 10.8-6.6 16.9-6.6M434.3 67c3.5 0 6.5.9 9 2.8 2.3 2 3.4 4.5 3.4 7.5 0 5.1-2.6 9.9-7.8 14.3-5.3 4.4-11 6.6-17.1 6.6-3.5 0-6.5-.9-9-2.8-2.3-2-3.4-4.5-3.4-7.5 0-5.1 2.7-9.9 8-14.3 5.2-4.4 10.8-6.6 16.9-6.6M322.8 123.7c3.5 0 6.5.9 9 2.8 2.3 2 3.4 4.5 3.4 7.5 0 5.1-2.6 9.9-7.8 14.3-5.3 4.4-11 6.6-17.1 6.6-3.5 0-6.5-.9-9-2.8-2.3-2-3.4-4.5-3.4-7.5 0-5.1 2.7-9.9 8-14.3 5.1-4.4 10.8-6.6 16.9-6.6M67.4 225.8c-2.7 0-4.6.9-5.8 2.8-1.3 1.8-2 4.2-2 7.2 0 3.5.9 6.5 2.8 9 1.8 2.4 3.9 4.1 6.1 5.1 2 1 4.1 1.4 6.3 1.4 2.6 0 4.5-.9 5.9-2.8 1.3-1.9 1.9-4.3 1.9-7.2 0-3.5-.9-6.5-2.8-9-1.8-2.4-3.8-4.1-6-5.1-2.1-1-4.2-1.4-6.4-1.4m3.8-2.9c8 0 14.6 1.5 19.9 4.6 5.4 3.1 8.1 6.8 8.1 11 0 4.5-2.8 8.2-8.3 11.1-5.5 3-12.1 4.5-19.7 4.5-7.8 0-14.5-1.5-19.9-4.6-5.5-3.1-8.2-6.8-8.2-11 0-4.5 2.8-8.2 8.4-11.1 5.5-3 12.1-4.5 19.7-4.5M665.8 130.2h.5c.2-.1.4-.1.6-.1 6.6 0 12 2.3 16.3 7 4.3 4.6 6.4 10 6.4 16.1 0 7.6-3.2 13.8-9.5 18.6-1.7 1.3-3.8 2.4-6.5 3.2.3 3.8.5 6.9.5 9.3 0 .5-.1 2.2-.2 5.1-.2 5.5-2.1 10.2-5.7 14.3-3.4 4-7.7 5.9-12.8 5.9-4.8 0-8.9-1.7-12.2-5-3.4-3.4-5.1-7.6-5.1-12.4 0-2.5 1-4.7 2.9-6.5 2-1.8 4.3-2.7 7-2.7 2.4 0 4.3.9 5.9 2.7 1.7 1.7 2.5 3.8 2.5 6.4 0 2.3-.8 4.3-2.5 5.9-1.7 1.7-3.6 2.5-5.9 2.5-.9 0-1.9-.2-2.7-.5 2.6 3.8 6.1 5.8 10.4 5.8 4.1 0 7.4-1.7 10-5 2.7-3.4 4.2-7.4 4.4-12 .1-2.8.2-4.5.2-4.9 0-3.3-.1-6-.4-8.1-2.9.5-5.6.7-7.9.7-8.2 0-15.2-3.3-21-9.8-5.7-6.6-8.5-14.4-8.5-23.4 0-1.9.2-3.8.5-5.8.4-1.6.8-3.3 1.3-5.2.3-1.1 1.1-2.8 2.4-5.1.5-.7 1-1.6 1.6-2.7.6-1.1 1-1.8 1.2-2.1.6-1.2 1.7-2.8 3.4-4.8.5-.5 1-1.1 1.5-1.8.5-.6.9-1.2 1.3-1.6.4-.4.6-.7.8-1 .2-.2 1.5-1.8 4-4.7.6-.6 1.2-1.2 1.7-1.9.6-.7 1-1.2 1.4-1.6.4-.4.6-.7.8-.8-2.1-7-3.5-12.6-4-16.8-.4-3.4-.6-8-.6-13.8 0-5.1 1.2-10 3.5-14.4 2.3-4.7 5.5-8.5 9.7-11.4.2-.2.5-.3.9-.3s.7.1.9.3c3.2 3.8 5.9 8.8 8.2 15 2.4 6.1 3.5 11.7 3.5 16.8 0 5.7-1.4 11-4.1 15.9-3.1 5.3-7 10.7-11.9 16.3 1.6 4 3.3 10.1 5.3 18.4m7.6 41.3c3.1-1.1 5.5-3 7.2-5.8 1.9-2.6 2.8-5.5 2.8-8.8 0-4.2-1.4-7.9-4.3-11.2-2.9-3.4-6.6-5.3-11.1-5.7 2.6 12.5 4.4 23 5.4 31.5M639.1 151c0 5.8 2.4 11 7.1 15.4 4.8 4.3 10.3 6.5 16.3 6.5 2.5 0 4.9-.2 7.3-.5-.9-9-2.8-19.7-5.6-32.2-3.4.4-6 1.5-8.1 3.5-2 2.1-2.9 4.4-2.9 7 0 4.5 2.4 8.1 7.2 10.9.4.4.6.9.6 1.3 0 .5-.2.9-.6 1.3-.4.4-.8.6-1.3.6-.1 0-.3-.1-.8-.2-3.4-1.8-6-4.2-7.8-7.1-1.7-3.1-2.6-6.2-2.6-9.3 0-4.1 1.3-7.8 3.8-11.1 2.7-3.3 6.1-5.4 10.4-6.4-1.7-6.6-3-11.8-4.1-15.5-.9 1.1-2.1 2.4-3.4 3.9-1.3 1.5-2.1 2.4-2.3 2.7-2.1 2.8-3.8 4.9-4.9 6.5-2 2.8-3.5 5.2-4.4 7.2-1 2.2-1.9 4.7-2.7 7.4-.8 2.5-1.2 5.2-1.2 8.1m29.6-90.1c-4.4 2.2-7.9 5.3-10.4 9.4-2.6 4.2-3.9 8.7-3.9 13.5 0 4.3 1.1 10 3.2 17.2 4.3-5.1 7.4-9.9 9.6-14.3 2.2-4.6 3.4-9.4 3.4-14.4-.2-3.8-.7-7.6-1.9-11.4M88.9 86.7c-1.1-1.1-1.7-2.5-1.7-4.1 0-1.6.6-3 1.7-4.1 1.1-1.1 2.5-1.7 4.1-1.7 1.6 0 3 .6 4.1 1.7 1.1 1.1 1.7 2.5 1.7 4.1 0 1.6-.6 3-1.7 4.1-1.1 1.1-2.5 1.7-4.1 1.7-1.6 0-3-.6-4.1-1.7m0 28.3c-1.1-1.1-1.7-2.5-1.7-4.1 0-1.6.6-3 1.7-4.1 1.1-1.1 2.5-1.7 4.1-1.7 1.6 0 3 .6 4.1 1.7 1.1 1.1 1.7 2.5 1.7 4.1 0 1.6-.6 3-1.7 4.1-1.1 1.1-2.5 1.7-4.1 1.7-1.6 0-3-.5-4.1-1.7M50.5 67c9.8 0 17.9 2.5 24.1 7.4 6.1 5.2 9.1 12.2 9.1 21 0 6-1.2 11.4-3.5 16.4-2.2 5.2-5.1 9.7-8.8 13.7-3.7 4.1-8.2 7.9-13.4 11.5-5.1 3.5-10.3 6.7-15.7 9.5-11 5.5-17 8.3-18.2 8.3-1 0-1.4-.5-1.4-1.4 0-.4.1-.7.4-1 3.8-2.2 8.4-5.1 13.8-8.5 3.5-2.3 7.7-5.5 12.4-9.5 4.6-3.8 8.1-7.5 10.6-10.8 2.6-3.3 4.9-7.5 7.1-12.4 1.8-4.9 2.8-9.8 2.8-14.6 0-7.2-1.8-13.4-5.3-18.7-3.5-5.3-8.2-8-14-8-4.1 0-7.7 1.3-10.6 4-3.2 2.7-5.5 6.2-6.9 10.3 1.4-.6 2.7-.9 3.9-.9 3.1 0 5.8 1.1 8 3.3 2.2 2.4 3.3 5.1 3.3 8.1 0 3.2-1.1 6-3.2 8.5-2.3 2.3-5 3.4-8.1 3.4-3.3 0-6.3-1.1-9-3.4-2.5-2.5-3.8-5.4-3.8-8.5 0-7.6 2.6-14.1 7.8-19.5C37 69.7 43.2 67 50.5 67"/></svg>