<?xml version="1.0" encoding="utf-8"?>
<!-- Generator: Adobe Illustrator 23.0.0, SVG Export Plug-In . SVG Version: 6.00 Build 0)  -->
<svg version="1.1" id="Layer_1" xmlns="http://www.w3.org/2000/svg" xmlns:xlink="http://www.w3.org/1999/xlink" x="0px" y="0px"
     viewBox="0 0 1417.3 256" style="enable-background:new 0 0 1417.3 256;" xml:space="preserve">
<style type="text/css">
    .st0{fill:none;stroke:#000000;stroke-width:2.27;stroke-linejoin:bevel;}
    .st1{fill:none;stroke:#000000;stroke-width:4.54;stroke-linejoin:bevel;}
    .st2{fill:none;stroke:#000000;stroke-width:14.17;stroke-linejoin:bevel;}
    .st3{fill:none;stroke:#000000;stroke-width:4.54;stroke-linecap:square;stroke-linejoin:bevel;}
</style>
<title>Untitled</title>
<desc>Generated by MuseScore 3.0.5</desc>
<line class="st0" x1="0" y1="56.4" x2="1417.3" y2="56.4"/>
<line class="st0" x1="0" y1="84.8" x2="1417.3" y2="84.8"/>
<line class="st0" x1="0" y1="113.1" x2="1417.3" y2="113.1"/>
<line class="st0" x1="0" y1="141.5" x2="1417.3" y2="141.5"/>
<line class="st0" x1="0" y1="169.8" x2="1417.3" y2="169.8"/>
<line class="st1" x1="1389.5" y1="55.3" x2="1389.5" y2="170.9"/>
<line class="st2" x1="1410.2" y1="55.3" x2="1410.2" y2="170.9"/>
<line class="st1" x1="1067.9" y1="55.3" x2="1067.9" y2="170.9"/>
<line class="st1" x1="739.3" y1="55.3" x2="739.3" y2="170.9"/>
<line class="st1" x1="413.5" y1="55.3" x2="413.5" y2="170.9"/>
<path d="M774.6,176.8c0,1.4-0.7,2.1-2.1,2.1c-1.4,0-2.1-0.7-2.1-2.1v-16.4l-9.4,3.5v17.9c0,1.4-0.7,2.1-2.1,2.1
    c-1.4,0-2.1-0.7-2.1-2.1v-16.5l-3.5,1.3c-0.1,0.1-0.4,0.1-0.9,0.1c-0.6,0-1.1-0.2-1.6-0.7c-0.4-0.4-0.7-1-0.7-1.6v-6.9
    c0-1.1,0.5-1.8,1.4-2.1l5.2-1.8v-18.2l-3.5,1.2c-0.1,0.1-0.4,0.1-0.9,0.1c-0.6,0-1.1-0.2-1.6-0.7c-0.4-0.4-0.7-1-0.7-1.6v-6.9
    c0-1,0.5-1.7,1.4-2l5.2-2v-17.8c0-1.4,0.7-2.1,2.1-2.1c1.4,0,2.1,0.7,2.1,2.1v16.4l9.4-3.5v-17.9c0-1.4,0.7-2.1,2.1-2.1
    c1.4,0,2.1,0.7,2.1,2.1v16.5l3.7-1.3c0.1-0.1,0.3-0.1,0.8-0.1c0.5,0,1.1,0.2,1.7,0.7c0.4,0.4,0.7,1,0.7,1.6v6.9c0,1-0.5,1.7-1.6,2.1
    l-5.2,1.8v18.2l3.7-1.2c0.1-0.1,0.3-0.1,0.8-0.1c0.5,0,1.1,0.2,1.7,0.7c0.4,0.4,0.7,1,0.7,1.5v6.9c0,1-0.5,1.6-1.6,2l-5.2,2V176.8
     M770.4,130.7L761,134v18.2l9.4-3.3V130.7"/>
<line class="st3" x1="1100.7" y1="198.2" x2="1173.9" y2="198.2"/>
<line class="st3" x1="779.1" y1="198.2" x2="852.2" y2="198.2"/>
<line class="st3" x1="446.3" y1="198.2" x2="519.5" y2="198.2"/>
<line class="st3" x1="446.3" y1="226.5" x2="519.5" y2="226.5"/>
<line class="st3" x1="124.7" y1="198.2" x2="197.8" y2="198.2"/>
<path d="M1133.6,142.9c-2.7,0-4.6,0.9-5.8,2.8c-1.3,1.8-2,4.2-2,7.2c0,3.5,0.9,6.5,2.8,9c1.8,2.4,3.9,4.1,6.1,5.1
    c2,1,4.1,1.4,6.3,1.4c2.6,0,4.5-0.9,5.9-2.8c1.3-1.9,1.9-4.3,1.9-7.2c0-3.5-0.9-6.5-2.8-9c-1.8-2.4-3.8-4.1-6-5.1
    C1137.9,143.4,1135.7,142.9,1133.6,142.9 M1137.4,140c8,0,14.6,1.5,19.9,4.6c5.4,3.1,8.1,6.8,8.1,11c0,4.5-2.8,8.2-8.3,11.1
    c-5.5,3-12.1,4.5-19.7,4.5c-7.8,0-14.5-1.5-19.9-4.6c-5.5-3.1-8.2-6.8-8.2-11c0-4.5,2.8-8.2,8.4-11.1
    C1123.2,141.5,1129.8,140,1137.4,140"/>
<path d="M1133.6,171.2c-2.7,0-4.6,0.9-5.8,2.8c-1.3,1.8-2,4.2-2,7.2c0,3.5,0.9,6.5,2.8,9c1.8,2.4,3.9,4.1,6.1,5.1
    c2,1,4.1,1.4,6.3,1.4c2.6,0,4.5-0.9,5.9-2.8c1.3-1.9,1.9-4.3,1.9-7.2c0-3.5-0.9-6.5-2.8-9c-1.8-2.4-3.8-4.1-6-5.1
    C1137.9,171.7,1135.7,171.2,1133.6,171.2 M1137.4,168.4c8,0,14.6,1.5,19.9,4.6c5.4,3.1,8.1,6.8,8.1,11c0,4.5-2.8,8.2-8.3,11.1
    c-5.5,3-12.1,4.5-19.7,4.5c-7.8,0-14.5-1.5-19.9-4.6c-5.5-3.1-8.2-6.8-8.2-11c0-4.5,2.8-8.2,8.4-11.1
    C1123.2,169.9,1129.8,168.4,1137.4,168.4"/>
<path d="M1133.6,199.6c-2.7,0-4.6,0.9-5.8,2.8c-1.3,1.8-2,4.2-2,7.2c0,3.5,0.9,6.5,2.8,9c1.8,2.4,3.9,4.1,6.1,5.1
    c2,1,4.1,1.4,6.3,1.4c2.6,0,4.5-0.9,5.9-2.8c1.3-1.9,1.9-4.3,1.9-7.2c0-3.5-0.9-6.5-2.8-9c-1.8-2.4-3.8-4.1-6-5.1
    C1137.9,200.1,1135.7,199.6,1133.6,199.6 M1137.4,196.7c8,0,14.6,1.5,19.9,4.6c5.4,3.1,8.1,6.8,8.1,11c0,4.5-2.8,8.2-8.3,11.1
    c-5.5,3-12.1,4.5-19.7,4.5c-7.8,0-14.5-1.5-19.9-4.6c-5.5-3.1-8.2-6.8-8.2-11c0-4.5,2.8-8.2,8.4-11.1
    C1123.2,198.2,1129.8,196.7,1137.4,196.7"/>
<path d="M811.9,128.7c-2.7,0-4.6,0.9-5.8,2.8c-1.3,1.8-2,4.2-2,7.2c0,3.5,0.9,6.5,2.8,9c1.8,2.4,3.9,4.1,6.1,5.1
    c2,1,4.1,1.4,6.3,1.4c2.6,0,4.5-0.9,5.9-2.8c1.3-1.9,1.9-4.3,1.9-7.2c0-3.5-0.9-6.5-2.8-9c-1.8-2.4-3.8-4.1-6-5.1
    C816.2,129.2,814.1,128.7,811.9,128.7 M815.7,125.9c8,0,14.6,1.5,19.9,4.6c5.4,3.1,8.1,6.8,8.1,11c0,4.5-2.8,8.2-8.3,11.1
    c-5.5,3-12.1,4.5-19.7,4.5c-7.8,0-14.5-1.5-19.9-4.6c-5.5-3.1-8.2-6.8-8.2-11c0-4.5,2.8-8.2,8.4-11.1
    C801.5,127.4,808.1,125.9,815.7,125.9"/>
<path d="M811.9,157.1c-2.7,0-4.6,0.9-5.8,2.8c-1.3,1.8-2,4.2-2,7.2c0,3.5,0.9,6.5,2.8,9c1.8,2.4,3.9,4.1,6.1,5.1
    c2,1,4.1,1.4,6.3,1.4c2.6,0,4.5-0.9,5.9-2.8c1.3-1.9,1.9-4.3,1.9-7.2c0-3.5-0.9-6.5-2.8-9c-1.8-2.4-3.8-4.1-6-5.1
    C816.2,157.6,814.1,157.1,811.9,157.1 M815.7,154.2c8,0,14.6,1.5,19.9,4.6c5.4,3.1,8.1,6.8,8.1,11c0,4.5-2.8,8.2-8.3,11.1
    c-5.5,3-12.1,4.5-19.7,4.5c-7.8,0-14.5-1.5-19.9-4.6c-5.5-3.1-8.2-6.8-8.2-11c0-4.5,2.8-8.2,8.4-11.1
    C801.5,155.7,808.1,154.2,815.7,154.2"/>
<path d="M811.9,185.4c-2.7,0-4.6,0.9-5.8,2.8c-1.3,1.8-2,4.2-2,7.2c0,3.5,0.9,6.5,2.8,9c1.8,2.4,3.9,4.1,6.1,5.1
    c2,1,4.1,1.4,6.3,1.4c2.6,0,4.5-0.9,5.9-2.8c1.3-1.9,1.9-4.3,1.9-7.2c0-3.5-0.9-6.5-2.8-9c-1.8-2.4-3.8-4.1-6-5.1
    C816.2,185.9,814.1,185.4,811.9,185.4 M815.7,182.5c8,0,14.6,1.5,19.9,4.6c5.4,3.1,8.1,6.8,8.1,11c0,4.5-2.8,8.2-8.3,11.1
    c-5.5,3-12.1,4.5-19.7,4.5c-7.8,0-14.5-1.5-19.9-4.6c-5.5-3.1-8.2-6.8-8.2-11c0-4.5,2.8-8.2,8.4-11.1
    C801.5,184.1,808.1,182.5,815.7,182.5"/>
<path d="M479.2,157.1c-2.7,0-4.6,0.9-5.8,2.8c-1.3,1.8-2,4.2-2,7.2c0,3.5,0.9,6.5,2.8,9c1.8,2.4,3.9,4.1,6.1,5.1
    c2,1,4.1,1.4,6.3,1.4c2.6,0,4.5-0.9,5.9-2.8c1.3-1.9,1.9-4.3,1.9-7.2c0-3.5-0.9-6.5-2.8-9c-1.8-2.4-3.8-4.1-6-5.1
    C483.5,157.6,481.3,157.1,479.2,157.1 M483,154.2c8,0,14.6,1.5,19.9,4.6c5.4,3.1,8.1,6.8,8.1,11c0,4.5-2.8,8.2-8.3,11.1
    c-5.5,3-12.1,4.5-19.7,4.5c-7.8,0-14.5-1.5-19.9-4.6c-5.5-3.1-8.2-6.8-8.2-11c0-4.5,2.8-8.2,8.4-11.1
    C468.8,155.7,475.4,154.2,483,154.2"/>
<path d="M479.2,185.4c-2.7,0-4.6,0.9-5.8,2.8c-1.3,1.8-2,4.2-2,7.2c0,3.5,0.9,6.5,2.8,9c1.8,2.4,3.9,4.1,6.1,5.1
    c2,1,4.1,1.4,6.3,1.4c2.6,0,4.5-0.9,5.9-2.8c1.3-1.9,1.9-4.3,1.9-7.2c0-3.5-0.9-6.5-2.8-9c-1.8-2.4-3.8-4.1-6-5.1
    C483.5,185.9,481.3,185.4,479.2,185.4 M483,182.5c8,0,14.6,1.5,19.9,4.6c5.4,3.1,8.1,6.8,8.1,11c0,4.5-2.8,8.2-8.3,11.1
    c-5.5,3-12.1,4.5-19.7,4.5c-7.8,0-14.5-1.5-19.9-4.6c-5.5-3.1-8.2-6.8-8.2-11c0-4.5,2.8-8.2,8.4-11.1
    C468.8,184.1,475.4,182.5,483,182.5"/>
<path d="M479.2,213.8c-2.7,0-4.6,0.9-5.8,2.8c-1.3,1.8-2,4.2-2,7.2c0,3.5,0.9,6.5,2.8,9c1.8,2.4,3.9,4.1,6.1,5.1
    c2,1,4.1,1.4,6.3,1.4c2.6,0,4.5-0.9,5.9-2.8c1.3-1.9,1.9-4.3,1.9-7.2c0-3.5-0.9-6.5-2.8-9c-1.8-2.4-3.8-4.1-6-5.1
    C483.5,214.2,481.3,213.8,479.2,213.8 M483,210.9c8,0,14.6,1.5,19.9,4.6c5.4,3.1,8.1,6.8,8.1,11c0,4.5-2.8,8.2-8.3,11.1
    c-5.5,3-12.1,4.5-19.7,4.5c-7.8,0-14.5-1.5-19.9-4.6c-5.5-3.1-8.2-6.8-8.2-11c0-4.5,2.8-8.2,8.4-11.1
    C468.8,212.4,475.4,210.9,483,210.9"/>
<path d="M157.5,128.7c-2.7,0-4.6,0.9-5.8,2.8c-1.3,1.8-2,4.2-2,7.2c0,3.5,0.9,6.5,2.8,9c1.8,2.4,3.9,4.1,6.1,5.1
    c2,1,4.1,1.4,6.3,1.4c2.6,0,4.5-0.9,5.9-2.8c1.3-1.9,1.9-4.3,1.9-7.2c0-3.5-0.9-6.5-2.8-9c-1.8-2.4-3.8-4.1-6-5.1
    C161.8,129.2,159.7,128.7,157.5,128.7 M161.3,125.9c8,0,14.6,1.5,19.9,4.6c5.4,3.1,8.1,6.8,8.1,11c0,4.5-2.8,8.2-8.3,11.1
    c-5.5,3-12.1,4.5-19.7,4.5c-7.8,0-14.5-1.5-19.9-4.6c-5.5-3.1-8.2-6.8-8.2-11c0-4.5,2.8-8.2,8.4-11.1
    C147.1,127.4,153.7,125.9,161.3,125.9"/>
<path d="M157.5,157.1c-2.7,0-4.6,0.9-5.8,2.8c-1.3,1.8-2,4.2-2,7.2c0,3.5,0.9,6.5,2.8,9c1.8,2.4,3.9,4.1,6.1,5.1
    c2,1,4.1,1.4,6.3,1.4c2.6,0,4.5-0.9,5.9-2.8c1.3-1.9,1.9-4.3,1.9-7.2c0-3.5-0.9-6.5-2.8-9c-1.8-2.4-3.8-4.1-6-5.1
    C161.8,157.6,159.7,157.1,157.5,157.1 M161.3,154.2c8,0,14.6,1.5,19.9,4.6c5.4,3.1,8.1,6.8,8.1,11c0,4.5-2.8,8.2-8.3,11.1
    c-5.5,3-12.1,4.5-19.7,4.5c-7.8,0-14.5-1.5-19.9-4.6c-5.5-3.1-8.2-6.8-8.2-11c0-4.5,2.8-8.2,8.4-11.1
    C147.1,155.7,153.7,154.2,161.3,154.2"/>
<path d="M157.5,185.4c-2.7,0-4.6,0.9-5.8,2.8c-1.3,1.8-2,4.2-2,7.2c0,3.5,0.9,6.5,2.8,9c1.8,2.4,3.9,4.1,6.1,5.1
    c2,1,4.1,1.4,6.3,1.4c2.6,0,4.5-0.9,5.9-2.8c1.3-1.9,1.9-4.3,1.9-7.2c0-3.5-0.9-6.5-2.8-9c-1.8-2.4-3.8-4.1-6-5.1
    C161.8,185.9,159.7,185.4,157.5,185.4 M161.3,182.5c8,0,14.6,1.5,19.9,4.6c5.4,3.1,8.1,6.8,8.1,11c0,4.5-2.8,8.2-8.3,11.1
    c-5.5,3-12.1,4.5-19.7,4.5c-7.8,0-14.5-1.5-19.9-4.6c-5.5-3.1-8.2-6.8-8.2-11c0-4.5,2.8-8.2,8.4-11.1
    C147.1,184.1,153.7,182.5,161.3,182.5"/>
<path d="M64.3,112.4c0,0,0.2,0,0.7,0c0.3-0.1,0.5-0.1,0.8-0.1c8.3,0,15.1,2.9,20.4,8.8c5.3,5.8,8,12.5,8,20.1
    c0,9.5-3.9,17.3-11.8,23.3c-2.1,1.6-4.8,3-8.1,4c0.4,4.8,0.6,8.7,0.6,11.6c0,0.6-0.1,2.7-0.2,6.4c-0.3,6.9-2.7,12.8-7.1,17.8
    c-4.3,4.9-9.6,7.4-15.9,7.4c-6,0-11.1-2.1-15.3-6.3c-4.2-4.3-6.3-9.5-6.3-15.5c0-3.2,1.2-5.9,3.7-8.1c2.5-2.2,5.4-3.3,8.7-3.3
    c3,0,5.4,1.1,7.4,3.4c2.1,2.1,3.1,4.8,3.1,8c0,2.9-1,5.3-3.1,7.4c-2.1,2.1-4.5,3.1-7.4,3.1c-1.2,0-2.3-0.2-3.4-0.7
    c3.2,4.8,7.6,7.2,13,7.2c5.1,0,9.3-2.1,12.5-6.2c3.4-4.3,5.2-9.3,5.5-15c0.1-3.5,0.2-5.6,0.2-6.1c0-4.1-0.1-7.5-0.4-10.2
    c-3.7,0.6-7,0.9-9.9,0.9c-10.3,0-19-4.1-26.2-12.2c-7.1-8.2-10.6-17.9-10.6-29.2c0-2.4,0.2-4.8,0.7-7.2c0.4-2,1-4.2,1.7-6.5
    c0.4-1.3,1.4-3.5,3-6.4c0.6-0.9,1.3-2,2-3.3c0.7-1.3,1.3-2.2,1.6-2.6c0.7-1.5,2.2-3.5,4.3-6c0.6-0.7,1.2-1.4,1.8-2.2
    c0.6-0.8,1.2-1.5,1.6-2c0.4-0.5,0.8-0.9,1-1.2c0.2-0.3,1.9-2.3,5-5.9c0.7-0.7,1.4-1.5,2.2-2.4c0.7-0.8,1.3-1.5,1.7-2
    c0.4-0.5,0.8-0.8,1-1c-2.7-8.8-4.3-15.8-5-21c-0.5-4.2-0.8-10-0.8-17.3c0-6.4,1.5-12.4,4.4-18.1c2.9-5.8,6.9-10.6,12.1-14.3
    c0.3-0.2,0.7-0.3,1.1-0.3c0.5,0,0.9,0.1,1.1,0.3c4,4.8,7.4,11,10.3,18.7c3,7.7,4.4,14.7,4.4,20.9c0,7.1-1.7,13.7-5.1,19.9
    c-3.8,6.6-8.8,13.4-14.8,20.4C59.7,94.4,61.7,102,64.3,112.4 M73.7,163.9c3.8-1.4,6.8-3.8,9-7.2c2.4-3.2,3.5-6.9,3.5-11
    c0-5.2-1.8-9.9-5.3-14c-3.6-4.2-8.2-6.6-13.9-7.1C70.3,140.3,72.5,153.4,73.7,163.9 M30.9,138.4c0,7.3,3,13.7,8.9,19.3
    c6,5.4,12.8,8.1,20.4,8.1c3.1,0,6.1-0.2,9.1-0.7c-1.2-11.2-3.5-24.7-7-40.3c-4.2,0.4-7.6,1.9-10.1,4.4c-2.4,2.6-3.7,5.5-3.7,8.8
    c0,5.6,3,10.2,9,13.6c0.5,0.5,0.8,1.1,0.8,1.7c0,0.6-0.3,1.1-0.8,1.6c-0.4,0.5-1,0.8-1.7,0.8c-0.1,0-0.4-0.1-1-0.2
    c-4.2-2.3-7.5-5.2-9.7-8.9c-2.1-3.9-3.2-7.7-3.2-11.6c0-5.1,1.6-9.7,4.8-13.8c3.3-4.1,7.6-6.8,13-8c-2.1-8.3-3.8-14.7-5.1-19.4
    c-1.2,1.3-2.6,2.9-4.3,4.8c-1.7,1.9-2.6,3-2.9,3.4c-2.7,3.5-4.7,6.2-6.1,8.1c-2.5,3.5-4.4,6.5-5.5,9c-1.3,2.8-2.4,5.9-3.3,9.2
    C31.4,131.4,30.9,134.8,30.9,138.4 M67.9,25.8c-5.5,2.7-9.9,6.6-13.1,11.7c-3.2,5.2-4.9,10.9-4.9,16.9c0,5.3,1.3,12.5,4,21.5
    c5.3-6.4,9.3-12.4,12-17.8c2.8-5.8,4.2-11.8,4.2-18.1C70.1,35.3,69.3,30.6,67.9,25.8"/>
</svg>