<svg version="1.1" id="Layer_1" xmlns="http://www.w3.org/2000/svg" x="0" y="0" viewBox="0 0 1417.3 256" xml:space="preserve"><style>.st0,.st1,.st3{fill:none;stroke:#000;stroke-width:2.27;stroke-linejoin:bevel}.st1,.st3{stroke-width:4.54}.st3{stroke-linecap:square}</style><path class="st0" d="M0 56.4h1417.3M0 84.8h1417.3M0 113.1h1417.3M0 141.5h1417.3M0 169.8h1417.3"/><path class="st1" d="M1389.5 55.3v115.6"/><path fill="none" stroke="#000" stroke-width="14.17" stroke-linejoin="bevel" d="M1410.2 55.3v115.6"/><path class="st1" d="M1067.9 55.3v115.6M739.3 55.3v115.6M413.5 55.3v115.6"/><path d="M774.6 176.8c0 1.4-.7 2.1-2.1 2.1-1.4 0-2.1-.7-2.1-2.1v-16.4l-9.4 3.5v17.9c0 1.4-.7 2.1-2.1 2.1-1.4 0-2.1-.7-2.1-2.1v-16.5l-3.5 1.3c-.1.1-.4.1-.9.1-.6 0-1.1-.2-1.6-.7-.4-.4-.7-1-.7-1.6v-6.9c0-1.1.5-1.8 1.4-2.1l5.2-1.8v-18.2l-3.5 1.2c-.1.1-.4.1-.9.1-.6 0-1.1-.2-1.6-.7-.4-.4-.7-1-.7-1.6v-6.9c0-1 .5-1.7 1.4-2l5.2-2v-17.8c0-1.4.7-2.1 2.1-2.1 1.4 0 2.1.7 2.1 2.1v16.4l9.4-3.5v-17.9c0-1.4.7-2.1 2.1-2.1 1.4 0 2.1.7 2.1 2.1v16.5l3.7-1.3c.1-.1.3-.1.8-.1s1.1.2 1.7.7c.4.4.7 1 .7 1.6v6.9c0 1-.5 1.7-1.6 2.1l-5.2 1.8v18.2l3.7-1.2c.1-.1.3-.1.8-.1s1.1.2 1.7.7c.4.4.7 1 .7 1.5v6.9c0 1-.5 1.6-1.6 2l-5.2 2v17.9m-4.2-46.1L761 134v18.2l9.4-3.3v-18.2"/><path class="st3" d="M1100.7 198.2h73.2M779.1 198.2h73.1M446.3 198.2h73.2M446.3 226.5h73.2M124.7 198.2h73.1"/><path d="M1133.6 142.9c-2.7 0-4.6.9-5.8 2.8-1.3 1.8-2 4.2-2 7.2 0 3.5.9 6.5 2.8 9 1.8 2.4 3.9 4.1 6.1 5.1 2 1 4.1 1.4 6.3 1.4 2.6 0 4.5-.9 5.9-2.8 1.3-1.9 1.9-4.3 1.9-7.2 0-3.5-.9-6.5-2.8-9-1.8-2.4-3.8-4.1-6-5.1-2.1-.9-4.3-1.4-6.4-1.4m3.8-2.9c8 0 14.6 1.5 19.9 4.6 5.4 3.1 8.1 6.8 8.1 11 0 4.5-2.8 8.2-8.3 11.1-5.5 3-12.1 4.5-19.7 4.5-7.8 0-14.5-1.5-19.9-4.6-5.5-3.1-8.2-6.8-8.2-11 0-4.5 2.8-8.2 8.4-11.1 5.5-3 12.1-4.5 19.7-4.5"/><path d="M1133.6 171.2c-2.7 0-4.6.9-5.8 2.8-1.3 1.8-2 4.2-2 7.2 0 3.5.9 6.5 2.8 9 1.8 2.4 3.9 4.1 6.1 5.1 2 1 4.1 1.4 6.3 1.4 2.6 0 4.5-.9 5.9-2.8 1.3-1.9 1.9-4.3 1.9-7.2 0-3.5-.9-6.5-2.8-9-1.8-2.4-3.8-4.1-6-5.1-2.1-.9-4.3-1.4-6.4-1.4m3.8-2.8c8 0 14.6 1.5 19.9 4.6 5.4 3.1 8.1 6.8 8.1 11 0 4.5-2.8 8.2-8.3 11.1-5.5 3-12.1 4.5-19.7 4.5-7.8 0-14.5-1.5-19.9-4.6-5.5-3.1-8.2-6.8-8.2-11 0-4.5 2.8-8.2 8.4-11.1 5.5-3 12.1-4.5 19.7-4.5"/><path d="M1133.6 199.6c-2.7 0-4.6.9-5.8 2.8-1.3 1.8-2 4.2-2 7.2 0 3.5.9 6.5 2.8 9 1.8 2.4 3.9 4.1 6.1 5.1 2 1 4.1 1.4 6.3 1.4 2.6 0 4.5-.9 5.9-2.8 1.3-1.9 1.9-4.3 1.9-7.2 0-3.5-.9-6.5-2.8-9-1.8-2.4-3.8-4.1-6-5.1-2.1-.9-4.3-1.4-6.4-1.4m3.8-2.9c8 0 14.6 1.5 19.9 4.6 5.4 3.1 8.1 6.8 8.1 11 0 4.5-2.8 8.2-8.3 11.1-5.5 3-12.1 4.5-19.7 4.5-7.8 0-14.5-1.5-19.9-4.6-5.5-3.1-8.2-6.8-8.2-11 0-4.5 2.8-8.2 8.4-11.1 5.5-3 12.1-4.5 19.7-4.5M811.9 128.7c-2.7 0-4.6.9-5.8 2.8-1.3 1.8-2 4.2-2 7.2 0 3.5.9 6.5 2.8 9 1.8 2.4 3.9 4.1 6.1 5.1 2 1 4.1 1.4 6.3 1.4 2.6 0 4.5-.9 5.9-2.8 1.3-1.9 1.9-4.3 1.9-7.2 0-3.5-.9-6.5-2.8-9-1.8-2.4-3.8-4.1-6-5.1-2.1-.9-4.2-1.4-6.4-1.4m3.8-2.8c8 0 14.6 1.5 19.9 4.6 5.4 3.1 8.1 6.8 8.1 11 0 4.5-2.8 8.2-8.3 11.1-5.5 3-12.1 4.5-19.7 4.5-7.8 0-14.5-1.5-19.9-4.6-5.5-3.1-8.2-6.8-8.2-11 0-4.5 2.8-8.2 8.4-11.1 5.5-3 12.1-4.5 19.7-4.5"/><path d="M811.9 157.1c-2.7 0-4.6.9-5.8 2.8-1.3 1.8-2 4.2-2 7.2 0 3.5.9 6.5 2.8 9 1.8 2.4 3.9 4.1 6.1 5.1 2 1 4.1 1.4 6.3 1.4 2.6 0 4.5-.9 5.9-2.8 1.3-1.9 1.9-4.3 1.9-7.2 0-3.5-.9-6.5-2.8-9-1.8-2.4-3.8-4.1-6-5.1-2.1-.9-4.2-1.4-6.4-1.4m3.8-2.9c8 0 14.6 1.5 19.9 4.6 5.4 3.1 8.1 6.8 8.1 11 0 4.5-2.8 8.2-8.3 11.1-5.5 3-12.1 4.5-19.7 4.5-7.8 0-14.5-1.5-19.9-4.6-5.5-3.1-8.2-6.8-8.2-11 0-4.5 2.8-8.2 8.4-11.1 5.5-3 12.1-4.5 19.7-4.5"/><path d="M811.9 185.4c-2.7 0-4.6.9-5.8 2.8-1.3 1.8-2 4.2-2 7.2 0 3.5.9 6.5 2.8 9 1.8 2.4 3.9 4.1 6.1 5.1 2 1 4.1 1.4 6.3 1.4 2.6 0 4.5-.9 5.9-2.8 1.3-1.9 1.9-4.3 1.9-7.2 0-3.5-.9-6.5-2.8-9-1.8-2.4-3.8-4.1-6-5.1-2.1-.9-4.2-1.4-6.4-1.4m3.8-2.9c8 0 14.6 1.5 19.9 4.6 5.4 3.1 8.1 6.8 8.1 11 0 4.5-2.8 8.2-8.3 11.1-5.5 3-12.1 4.5-19.7 4.5-7.8 0-14.5-1.5-19.9-4.6-5.5-3.1-8.2-6.8-8.2-11 0-4.5 2.8-8.2 8.4-11.1 5.5-2.9 12.1-4.5 19.7-4.5M479.2 157.1c-2.7 0-4.6.9-5.8 2.8-1.3 1.8-2 4.2-2 7.2 0 3.5.9 6.5 2.8 9 1.8 2.4 3.9 4.1 6.1 5.1 2 1 4.1 1.4 6.3 1.4 2.6 0 4.5-.9 5.9-2.8 1.3-1.9 1.9-4.3 1.9-7.2 0-3.5-.9-6.5-2.8-9-1.8-2.4-3.8-4.1-6-5.1-2.1-.9-4.3-1.4-6.4-1.4m3.8-2.9c8 0 14.6 1.5 19.9 4.6 5.4 3.1 8.1 6.8 8.1 11 0 4.5-2.8 8.2-8.3 11.1-5.5 3-12.1 4.5-19.7 4.5-7.8 0-14.5-1.5-19.9-4.6-5.5-3.1-8.2-6.8-8.2-11 0-4.5 2.8-8.2 8.4-11.1 5.5-3 12.1-4.5 19.7-4.5"/><path d="M479.2 185.4c-2.7 0-4.6.9-5.8 2.8-1.3 1.8-2 4.2-2 7.2 0 3.5.9 6.5 2.8 9 1.8 2.4 3.9 4.1 6.1 5.1 2 1 4.1 1.4 6.3 1.4 2.6 0 4.5-.9 5.9-2.8 1.3-1.9 1.9-4.3 1.9-7.2 0-3.5-.9-6.5-2.8-9-1.8-2.4-3.8-4.1-6-5.1-2.1-.9-4.3-1.4-6.4-1.4m3.8-2.9c8 0 14.6 1.5 19.9 4.6 5.4 3.1 8.1 6.8 8.1 11 0 4.5-2.8 8.2-8.3 11.1-5.5 3-12.1 4.5-19.7 4.5-7.8 0-14.5-1.5-19.9-4.6-5.5-3.1-8.2-6.8-8.2-11 0-4.5 2.8-8.2 8.4-11.1 5.5-2.9 12.1-4.5 19.7-4.5"/><path d="M479.2 213.8c-2.7 0-4.6.9-5.8 2.8-1.3 1.8-2 4.2-2 7.2 0 3.5.9 6.5 2.8 9 1.8 2.4 3.9 4.1 6.1 5.1 2 1 4.1 1.4 6.3 1.4 2.6 0 4.5-.9 5.9-2.8 1.3-1.9 1.9-4.3 1.9-7.2 0-3.5-.9-6.5-2.8-9-1.8-2.4-3.8-4.1-6-5.1-2.1-1-4.3-1.4-6.4-1.4m3.8-2.9c8 0 14.6 1.5 19.9 4.6 5.4 3.1 8.1 6.8 8.1 11 0 4.5-2.8 8.2-8.3 11.1-5.5 3-12.1 4.5-19.7 4.5-7.8 0-14.5-1.5-19.9-4.6-5.5-3.1-8.2-6.8-8.2-11 0-4.5 2.8-8.2 8.4-11.1 5.5-3 12.1-4.5 19.7-4.5M157.5 128.7c-2.7 0-4.6.9-5.8 2.8-1.3 1.8-2 4.2-2 7.2 0 3.5.9 6.5 2.8 9 1.8 2.4 3.9 4.1 6.1 5.1 2 1 4.1 1.4 6.3 1.4 2.6 0 4.5-.9 5.9-2.8 1.3-1.9 1.9-4.3 1.9-7.2 0-3.5-.9-6.5-2.8-9-1.8-2.4-3.8-4.1-6-5.1-2.1-.9-4.2-1.4-6.4-1.4m3.8-2.8c8 0 14.6 1.5 19.9 4.6 5.4 3.1 8.1 6.8 8.1 11 0 4.5-2.8 8.2-8.3 11.1-5.5 3-12.1 4.5-19.7 4.5-7.8 0-14.5-1.5-19.9-4.6-5.5-3.1-8.2-6.8-8.2-11 0-4.5 2.8-8.2 8.4-11.1 5.5-3 12.1-4.5 19.7-4.5"/><path d="M157.5 157.1c-2.7 0-4.6.9-5.8 2.8-1.3 1.8-2 4.2-2 7.2 0 3.5.9 6.5 2.8 9 1.8 2.4 3.9 4.1 6.1 5.1 2 1 4.1 1.4 6.3 1.4 2.6 0 4.5-.9 5.9-2.8 1.3-1.9 1.9-4.3 1.9-7.2 0-3.5-.9-6.5-2.8-9-1.8-2.4-3.8-4.1-6-5.1-2.1-.9-4.2-1.4-6.4-1.4m3.8-2.9c8 0 14.6 1.5 19.9 4.6 5.4 3.1 8.1 6.8 8.1 11 0 4.5-2.8 8.2-8.3 11.1-5.5 3-12.1 4.5-19.7 4.5-7.8 0-14.5-1.5-19.9-4.6-5.5-3.1-8.2-6.8-8.2-11 0-4.5 2.8-8.2 8.4-11.1 5.5-3 12.1-4.5 19.7-4.5"/><path d="M157.5 185.4c-2.7 0-4.6.9-5.8 2.8-1.3 1.8-2 4.2-2 7.2 0 3.5.9 6.5 2.8 9 1.8 2.4 3.9 4.1 6.1 5.1 2 1 4.1 1.4 6.3 1.4 2.6 0 4.5-.9 5.9-2.8 1.3-1.9 1.9-4.3 1.9-7.2 0-3.5-.9-6.5-2.8-9-1.8-2.4-3.8-4.1-6-5.1-2.1-.9-4.2-1.4-6.4-1.4m3.8-2.9c8 0 14.6 1.5 19.9 4.6 5.4 3.1 8.1 6.8 8.1 11 0 4.5-2.8 8.2-8.3 11.1-5.5 3-12.1 4.5-19.7 4.5-7.8 0-14.5-1.5-19.9-4.6-5.5-3.1-8.2-6.8-8.2-11 0-4.5 2.8-8.2 8.4-11.1 5.5-2.9 12.1-4.5 19.7-4.5M64.3 112.4h.7c.3-.1.5-.1.8-.1 8.3 0 15.1 2.9 20.4 8.8 5.3 5.8 8 12.5 8 20.1 0 9.5-3.9 17.3-11.8 23.3-2.1 1.6-4.8 3-8.1 4 .4 4.8.6 8.7.6 11.6 0 .6-.1 2.7-.2 6.4-.3 6.9-2.7 12.8-7.1 17.8-4.3 4.9-9.6 7.4-15.9 7.4-6 0-11.1-2.1-15.3-6.3-4.2-4.3-6.3-9.5-6.3-15.5 0-3.2 1.2-5.9 3.7-8.1 2.5-2.2 5.4-3.3 8.7-3.3 3 0 5.4 1.1 7.4 3.4 2.1 2.1 3.1 4.8 3.1 8 0 2.9-1 5.3-3.1 7.4-2.1 2.1-4.5 3.1-7.4 3.1-1.2 0-2.3-.2-3.4-.7 3.2 4.8 7.6 7.2 13 7.2 5.1 0 9.3-2.1 12.5-6.2 3.4-4.3 5.2-9.3 5.5-15 .1-3.5.2-5.6.2-6.1 0-4.1-.1-7.5-.4-10.2-3.7.6-7 .9-9.9.9-10.3 0-19-4.1-26.2-12.2-7.1-8.2-10.6-17.9-10.6-29.2 0-2.4.2-4.8.7-7.2.4-2 1-4.2 1.7-6.5.4-1.3 1.4-3.5 3-6.4.6-.9 1.3-2 2-3.3.7-1.3 1.3-2.2 1.6-2.6.7-1.5 2.2-3.5 4.3-6 .6-.7 1.2-1.4 1.8-2.2.6-.8 1.2-1.5 1.6-2 .4-.5.8-.9 1-1.2.2-.3 1.9-2.3 5-5.9.7-.7 1.4-1.5 2.2-2.4.7-.8 1.3-1.5 1.7-2 .4-.5.8-.8 1-1-2.7-8.8-4.3-15.8-5-21-.5-4.2-.8-10-.8-17.3 0-6.4 1.5-12.4 4.4-18.1 2.9-5.8 6.9-10.6 12.1-14.3.3-.2.7-.3 1.1-.3.5 0 .9.1 1.1.3 4 4.8 7.4 11 10.3 18.7 3 7.7 4.4 14.7 4.4 20.9 0 7.1-1.7 13.7-5.1 19.9-3.8 6.6-8.8 13.4-14.8 20.4 1.2 5 3.2 12.6 5.8 23m9.4 51.5c3.8-1.4 6.8-3.8 9-7.2 2.4-3.2 3.5-6.9 3.5-11 0-5.2-1.8-9.9-5.3-14-3.6-4.2-8.2-6.6-13.9-7.1 3.3 15.7 5.5 28.8 6.7 39.3m-42.8-25.5c0 7.3 3 13.7 8.9 19.3 6 5.4 12.8 8.1 20.4 8.1 3.1 0 6.1-.2 9.1-.7-1.2-11.2-3.5-24.7-7-40.3-4.2.4-7.6 1.9-10.1 4.4-2.4 2.6-3.7 5.5-3.7 8.8 0 5.6 3 10.2 9 13.6.5.5.8 1.1.8 1.7 0 .6-.3 1.1-.8 1.6-.4.5-1 .8-1.7.8-.1 0-.4-.1-1-.2-4.2-2.3-7.5-5.2-9.7-8.9-2.1-3.9-3.2-7.7-3.2-11.6 0-5.1 1.6-9.7 4.8-13.8 3.3-4.1 7.6-6.8 13-8-2.1-8.3-3.8-14.7-5.1-19.4-1.2 1.3-2.6 2.9-4.3 4.8-1.7 1.9-2.6 3-2.9 3.4-2.7 3.5-4.7 6.2-6.1 8.1-2.5 3.5-4.4 6.5-5.5 9-1.3 2.8-2.4 5.9-3.3 9.2-1.1 3.1-1.6 6.5-1.6 10.1m37-112.6c-5.5 2.7-9.9 6.6-13.1 11.7-3.2 5.2-4.9 10.9-4.9 16.9 0 5.3 1.3 12.5 4 21.5 5.3-6.4 9.3-12.4 12-17.8 2.8-5.8 4.2-11.8 4.2-18.1 0-4.7-.8-9.4-2.2-14.2"/></svg>