<svg xmlns="http://www.w3.org/2000/svg" width="520em" height="100em" viewBox="0 0 530 100"><path stroke="#888" fill="#fff" d="M3 20h10v50H3z"/><path stroke="#888" fill="#fff" d="M13 20h10v50H13z"/><path stroke="#000" d="M10.5 20h5v25h-5z"/><path stroke="#888" fill="#fff" d="M23 20h10v50H23z"/><path stroke="#888" fill="#fff" d="M33 20h10v50H33z"/><path stroke="#888" fill="#fff" d="M43 20h10v50H43z"/><path stroke="#888" fill="#fff" d="M53 20h10v50H53z"/><path stroke="#888" fill="#fff" d="M63 20h10v50H63z"/><path stroke="#888" fill="#fff" d="M73 20h10v50H73z"/><path stroke="#888" fill="#fff" d="M83 20h10v50H83z"/><path stroke="#000" d="M30.5 20h5v25h-5z"/><path stroke="#000" d="M40.5 20h5v25h-5z"/><path stroke="#000" d="M60.5 20h5v25h-5z"/><path stroke="#000" d="M70.5 20h5v25h-5z"/><path stroke="#000" d="M80.5 20h5v25h-5z"/><path stroke="#000" d="M23 75h70M23 78v-6M93 78v-6"/><text font-size="10" x="54" y="90">1</text><path stroke="#888" fill="#fff" d="M93 20h10v50H93z"/><path stroke="#888" fill="#fff" d="M103 20h10v50h-10z"/><path stroke="#888" fill="#fff" d="M113 20h10v50h-10z"/><path stroke="#888" fill="#fff" d="M123 20h10v50h-10z"/><path stroke="#888" fill="#fff" d="M133 20h10v50h-10z"/><path stroke="#888" fill="#fff" d="M143 20h10v50h-10z"/><path stroke="#888" fill="#fff" d="M153 20h10v50h-10z"/><path stroke="#000" d="M100.5 20h5v25h-5z"/><path stroke="#000" d="M110.5 20h5v25h-5z"/><path stroke="#000" d="M130.5 20h5v25h-5z"/><path stroke="#000" d="M140.5 20h5v25h-5z"/><path stroke="#000" d="M150.5 20h5v25h-5z"/><path stroke="#000" d="M93 15h70M93 18v-6M163 18v-6"/><text font-size="10" x="124" y="10">2</text><path stroke="#888" fill="#fff" d="M163 20h10v50h-10z"/><path stroke="#888" fill="#fff" d="M173 20h10v50h-10z"/><path stroke="#888" fill="#fff" d="M183 20h10v50h-10z"/><path stroke="#888" fill="#fff" d="M193 20h10v50h-10z"/><path stroke="#888" fill="#fff" d="M203 20h10v50h-10z"/><path stroke="#888" fill="#fff" d="M213 20h10v50h-10z"/><path stroke="#888" fill="#fff" d="M223 20h10v50h-10z"/><path stroke="#000" d="M170.5 20h5v25h-5z"/><path stroke="#000" d="M180.5 20h5v25h-5z"/><path stroke="#000" d="M200.5 20h5v25h-5z"/><path stroke="#000" d="M210.5 20h5v25h-5z"/><path stroke="#000" d="M220.5 20h5v25h-5z"/><path stroke="#000" d="M163 75h70M163 78v-6M233 78v-6"/><text font-size="10" x="194" y="90">3</text><path stroke="#888" fill="#0ff" d="M233 20h10v50h-10z"/><path stroke="#888" fill="#fff" d="M243 20h10v50h-10z"/><path stroke="#888" fill="#fff" d="M253 20h10v50h-10z"/><path stroke="#888" fill="#fff" d="M263 20h10v50h-10z"/><path stroke="#888" fill="#fff" d="M273 20h10v50h-10z"/><path stroke="#888" fill="#ff0" d="M283 20h10v50h-10z"/><path stroke="#888" fill="#fff" d="M293 20h10v50h-10z"/><path stroke="#000" d="M240.5 20h5v25h-5z"/><path stroke="#000" d="M250.5 20h5v25h-5z"/><path stroke="#000" d="M270.5 20h5v25h-5z"/><path stroke="#000" d="M280.5 20h5v25h-5z"/><path stroke="#000" d="M290.5 20h5v25h-5z"/><path stroke="#000" d="M233 15h70M233 18v-6M303 18v-6"/><text font-size="10" x="264" y="10">4</text><path stroke="#888" fill="#fff" d="M303 20h10v50h-10z"/><path stroke="#888" fill="#fff" d="M313 20h10v50h-10z"/><path stroke="#888" fill="#fff" d="M323 20h10v50h-10z"/><path stroke="#888" fill="#fff" d="M333 20h10v50h-10z"/><path stroke="#888" fill="#fff" d="M343 20h10v50h-10z"/><path stroke="#888" fill="#fff" d="M353 20h10v50h-10z"/><path stroke="#888" fill="#fff" d="M363 20h10v50h-10z"/><path stroke="#000" d="M310.5 20h5v25h-5z"/><path stroke="#000" d="M320.5 20h5v25h-5z"/><path stroke="#000" d="M340.5 20h5v25h-5z"/><path stroke="#000" d="M350.5 20h5v25h-5z"/><path stroke="#000" d="M360.5 20h5v25h-5z"/><path stroke="#000" d="M303 75h70M303 78v-6M373 78v-6"/><text font-size="10" x="334" y="90">5</text><path stroke="#888" fill="#fff" d="M373 20h10v50h-10z"/><path stroke="#888" fill="#fff" d="M383 20h10v50h-10z"/><path stroke="#888" fill="#fff" d="M393 20h10v50h-10z"/><path stroke="#888" fill="#fff" d="M403 20h10v50h-10z"/><path stroke="#888" fill="#fff" d="M413 20h10v50h-10z"/><path stroke="#888" fill="#fff" d="M423 20h10v50h-10z"/><path stroke="#888" fill="#fff" d="M433 20h10v50h-10z"/><path stroke="#000" d="M380.5 20h5v25h-5z"/><path stroke="#000" d="M390.5 20h5v25h-5z"/><path stroke="#000" d="M410.5 20h5v25h-5z"/><path stroke="#000" d="M420.5 20h5v25h-5z"/><path stroke="#000" d="M430.5 20h5v25h-5z"/><path stroke="#000" d="M373 15h70M373 18v-6M443 18v-6"/><text font-size="10" x="404" y="10">6</text><path stroke="#888" fill="#fff" d="M443 20h10v50h-10z"/><path stroke="#888" fill="#fff" d="M453 20h10v50h-10z"/><path stroke="#888" fill="#fff" d="M463 20h10v50h-10z"/><path stroke="#888" fill="#fff" d="M473 20h10v50h-10z"/><path stroke="#888" fill="#fff" d="M483 20h10v50h-10z"/><path stroke="#888" fill="#fff" d="M493 20h10v50h-10z"/><path stroke="#888" fill="#fff" d="M503 20h10v50h-10z"/><path stroke="#000" d="M450.5 20h5v25h-5z"/><path stroke="#000" d="M460.5 20h5v25h-5z"/><path stroke="#000" d="M480.5 20h5v25h-5z"/><path stroke="#000" d="M490.5 20h5v25h-5z"/><path stroke="#000" d="M500.5 20h5v25h-5z"/><path stroke="#000" d="M443 75h70M443 78v-6M513 78v-6"/><text font-size="10" x="474" y="90">7</text><path stroke="#888" fill="#fff" d="M513 20h10v50h-10z"/><path stroke="#000" d="M3 15h20M3 18v-6M23 18v-6"/><text font-size="10" x="9" y="10">0</text><path stroke="#000" d="M513 15h10M513 18v-6M523 18v-6"/><text font-size="10" x="514" y="10">8</text></svg>