<svg xmlns="http://www.w3.org/2000/svg" xmlns:xlink="http://www.w3.org/1999/xlink" width="350" height="566.667" viewBox="0 0 262.5 425" color-interpolation-filters="sRGB" fill="none" fill-rule="evenodd" font-size="12" overflow="visible" stroke-linecap="square" stroke-miterlimit="3"><style>.st1{fill:#eef2f6;stroke:#feffff;stroke-width:1}.st2{fill:#6b859a;font-family:微软雅黑;font-size:.916672em}.st3{marker-end:url(#mrkr4-9);stroke:#82a0b9;stroke-linecap:round;stroke-linejoin:round;stroke-width:.5}.st5{fill:#94b6d2;stroke:#feffff;stroke-width:1}.st6{fill:#feffff;font-family:Microsoft Sans Serif;font-size:.916672em}.st7{font-family:微软雅黑}.st11,.st7,.st8{font-size:1em}.st11{font-family:Microsoft Sans Serif}.st12{fill:#fff;stroke:none;stroke-linecap:butt;stroke-width:7.2}.st13{fill:#4c5f6f;font-family:微软雅黑;font-size:.916672em}</style><defs id="Markers"><path d="M2 1L0 0l2-1v2" id="lend4"/><marker id="mrkr4-9" refX="-12.08" orient="auto" markerUnits="strokeWidth" overflow="visible" fill="#82a0b9" fill-opacity="1" stroke="#82a0b9" stroke-opacity="1" stroke-width=".166"><use xlink:href="#lend4" transform="scale(-6.04)"/></marker></defs><g id="shape1-1" transform="translate(63.5 -379)"><path d="M13.5 425h45a13.5 13.5-180 0 0 0-27h-45a13.5 13.5-180 1 0 0 27z" class="st1"/><text x="25" y="414.85" class="st2">开始</text></g><g id="shape3-4" transform="translate(90.5 -379.487)"><path d="M9 425.49v10.98" class="st3"/></g><g id="shape2-10" transform="translate(63.5 -289.974)"><path class="st5" d="M0 353h72v72H0z"/><text x="12.84" y="372.37" class="st6">C<tspan class="st7">、</tspan>A← 0<tspan x="6.5" dy="1.216em" class="st8">M </tspan>← <tspan class="st7">被乘数</tspan><tspan x="12.3" dy="1.216em" class="st8">Q </tspan>← <tspan class="st7">乘数</tspan><tspan x="9.84" dy="1.204em" class="st8">Count </tspan>← n</text></g><g id="shape5-19" transform="translate(90.5 -289.974)"><path d="M9 425v30.93" class="st3"/></g><g id="shape4-24" transform="translate(63.5 -199)"><path d="M0 398l36-27 36 27-36 27-36-27z" class="st1"/><text x="22.39" y="401.3" fill="#6b859a" font-family="Microsoft Sans Serif" font-size=".917em">Q0=1</text></g><g id="shape6-27" transform="translate(63.5 -100)"><path class="st5" d="M0 353h72v72H0z"/><text x="4.9" y="379.06" fill="#feffff" font-family="微软雅黑" font-size=".917em">移位<tspan class="st11"> </tspan><tspan class="st11">C</tspan>、<tspan class="st11">A</tspan>、<tspan x="31.72" dy="1.204em" class="st11">Q</tspan><tspan x="2.15" dy="1.212em" class="st8">计数</tspan><tspan class="st11">← </tspan>计数<tspan class="st11">-</tspan><tspan class="st11">1</tspan></text></g><g id="shape7-38" transform="translate(54.5 -226)"><path d="M9 425h-27v90H2.96" class="st3"/><path class="st12" d="M-6.786 419.586h11v13.38h-11z"/><text x="-6.79" y="429.62" class="st13">否</text></g><g id="shape9-45" transform="translate(135.5 -226)"><path d="M0 425h27v17.1" class="st3"/><path class="st12" d="M19.569 418.31h11v13.38h-11z"/><text x="19.57" y="428.35" class="st13">是</text></g><g id="shape8-52" transform="translate(126.5 -174.587)"><path class="st5" d="M0 396.724h72V425H0z"/><text x="5.9" y="414.21" class="st6">C<tspan class="st7">、</tspan>A←A+M</text></g><g id="shape10-56" transform="translate(162.5 -174.587)"><path d="M0 425v38.59h-20.96" class="st3"/></g><g id="shape12-61" transform="translate(90.5 -100)"><path d="M9 425v20.96" class="st3"/></g><g id="shape11-66" transform="translate(63.5 -19)"><path d="M0 398l36-27 36 27-36 27-36-27z" class="st1"/><text x="15.81" y="401.35" class="st2">计数<tspan class="st11"> </tspan><tspan class="st11">= 0</tspan></text></g><g id="shape14-71" transform="translate(135.5 -55)"><path d="M0 434h29.96" class="st3"/><path class="st12" d="M12.5 427.31h11v13.38h-11z"/><text x="12.5" y="437.35" class="st13">是</text></g><g id="shape13-78" transform="translate(171.5 -32.5)"><path d="M13.5 425h45a13.5 13.5-180 0 0 0-27h-45a13.5 13.5-180 1 0 0 27z" class="st1"/><text x="25" y="414.85" class="st2">结束</text></g><g id="shape15-81" transform="translate(63.5 -46)"><path d="M0 425h-34.65V200H36v11.96" class="st3"/><path class="st12" d="M-23.5 419.586h11v13.38h-11z"/><text x="-23.5" y="429.62" class="st13">否</text></g></svg>