<svg xmlns="http://www.w3.org/2000/svg" width="209.334" height="238.959" viewBox="0 0 157 179.219" color-interpolation-filters="sRGB" fill="none" fill-rule="evenodd" font-size="12" overflow="visible" stroke-linecap="square" stroke-miterlimit="3"><style>.st1{fill:none;stroke:none;stroke-width:1}.st2,.st3{fill:#94b6d2;font-family:Fira Code;font-size:1.16666em}.st3{font-family:微软雅黑;font-size:.666664em}.st4{font-family:Microsoft Sans Serif;font-size:1em}</style><g id="shape9-1" transform="translate(53.15 -150)"><path class="st1" d="M0 156.782h37.7v22.438H0z"/><text x="2" y="178.5" class="st2">1011</text></g><g id="shape12-4" transform="translate(98.75 -148.219)"><path class="st1" d="M0 167.219h39.25v12H0z"/><text x="2" y="175.65" class="st3">被乘数<tspan class="st4"> </tspan><tspan class="st4">11</tspan></text></g><g id="shape13-9" transform="translate(98.75 -134.719)"><path class="st1" d="M0 167.219h39.25v12H0z"/><text x="2" y="175.65" class="st3">乘数<tspan class="st4"> </tspan><tspan class="st4">13</tspan></text></g><g id="shape14-14" transform="translate(99.419 -84.82)"><path class="st1" d="M0 167.219h28v12H0z"/><text x="2" y="175.65" class="st3">部分积</text></g><g id="shape15-17" transform="translate(99.75 -37.97)"><path class="st1" d="M0 167.219h28v12H0z"/><text x="2" y="175.65" class="st3">积<tspan class="st4"> </tspan><tspan class="st4">143</tspan></text></g><g id="shape17-22" transform="translate(90.206 -63.47)"><path d="M0 179.22a9.765 9.155-180 0 0 3.65-5.47v-21.88h3.64-3.64v-21.88A9.765 9.155-180 0 0 0 124.52" stroke="#6b859a" stroke-width=".5"/></g><g id="shape18-25" transform="translate(25.25 -19)"><path class="st1" d="M0 167.219h100v12H0z"/><text x="10" y="175.65" class="st3">无符号二进制整数乘法</text></g><g id="shape19-28" transform="translate(18 -39)"><path class="st1" d="M0 167.219h73.125v12H0z"/><text x="2.96" y="177.42" class="st2">10001111</text></g><g id="shape21-31" transform="translate(18 -59)"><path class="st1" d="M0 167.219h73.125v12H0z"/></g><g id="shape23-33" transform="translate(18 -49.5)"><path class="st1" d="M0 167.219h73.125v12H0z"/><text x="2.96" y="177.42" class="st2">————————</text></g><g id="shape25-36" transform="translate(27 -60)"><path class="st1" d="M0 167.219h37.7v12H0z"/><text x="2.05" y="177.42" class="st2">1011</text></g><g id="shape27-39" transform="translate(36 -78)"><path class="st1" d="M0 167.219h37.7v12H0z"/><text x="2.05" y="177.42" class="st2">1011</text></g><g id="shape28-42" transform="translate(44.15 -96)"><path class="st1" d="M0 167.219h37.7v12H0z"/><text x="2.05" y="177.42" class="st2">0000</text></g><g id="shape29-45" transform="translate(52.3 -112.5)"><path class="st1" d="M0 167.219h37.7v12H0z"/><text x="2.05" y="177.42" class="st2">1011</text></g><g id="shape30-48" transform="translate(21.512 -126)"><path class="st1" d="M0 167.219h73.125v12H0z"/><text x="2.96" y="177.42" class="st2">————————</text></g><g id="shape31-51" transform="translate(42.325 -135)"><path class="st1" d="M0 167.219h50.35v12H0z"/><text x="4.18" y="177.42" class="st2">x1101</text></g></svg>