<svg xmlns="http://www.w3.org/2000/svg" xmlns:xlink="http://www.w3.org/1999/xlink" width="895.667" height="418.87" viewBox="0 0 671.75 314.152" color-interpolation-filters="sRGB" fill="none" fill-rule="evenodd" font-size="12" overflow="visible" stroke-linecap="square" stroke-miterlimit="3"><style>.st1{fill:#94b6d2;stroke:#feffff;stroke-width:1}.st2{fill:#feffff;font-family:Microsoft Sans Serif;font-size:1.33333em}.st4{marker-end:url(#mrkr4-10);stroke:#82a0b9;stroke-linecap:round;stroke-linejoin:round;stroke-width:.5}.st6{fill:#feffff;font-family:微软雅黑;font-size:1.33333em}</style><defs id="Markers"><path d="M2 1L0 0l2-1v2" id="lend4"/><marker id="mrkr4-10" refX="-12.08" orient="auto" markerUnits="strokeWidth" overflow="visible" fill="#82a0b9" fill-opacity="1" stroke="#82a0b9" stroke-opacity="1" stroke-width=".166"><use xlink:href="#lend4" transform="scale(-6.04)"/></marker></defs><g id="shape39-1" transform="translate(207.89 -182.5)"><path class="st1" d="M0 275.902h117v38.25H0z"/><text x="22.05" y="299.89" class="st2">n<tspan font-family="微软雅黑" font-size="1em">位加法器</tspan></text></g><g id="shape41-5" transform="translate(257.39 -182.5)"><path d="M9 314.15v29.96" class="st4"/></g><g id="shape40-11" transform="translate(207.89 -108.25)"><path class="st1" d="M0 275.902h117v38.25H0z"/><text x="51.83" y="299.83" class="st2">...</text></g><g id="shape42-14" transform="translate(360.89 -182.5)"><path class="st1" d="M0 275.902h166.5v38.25H0z"/><text x="11.25" y="299.89" class="st6">移位和相加逻辑控制</text></g><g id="shape44-17" transform="translate(360.89 -192.625)"><path d="M0 305.15h-29.96" class="st4"/><path fill="#fff" stroke-linecap="butt" stroke-width="7.2" d="M-26 295.422h16v19.461h-16z"/><text x="-26" y="310.02" fill="#4c5f6f" font-family="微软雅黑" font-size="1.333em">加</text></g><g id="shape46-24" transform="translate(326.61 -108.25)"><path class="st1" d="M0 275.902h59.559v38.25H0z"/><text x="19.99" y="299.83" class="st2">A0</text></g><g id="shape47-27" transform="translate(146.61 -108.25)"><path class="st1" d="M0 275.902h59.559v38.25H0z"/><text x="12.88" y="299.83" class="st2">An-1</text></g><g id="shape48-30" transform="translate(207.89 -256.75)"><path class="st1" d="M0 275.902h117v38.25H0z"/><text x="34.5" y="299.89" class="st6">被乘数</text></g><g id="shape49-33" transform="translate(326.941 -256.75)"><path class="st1" d="M0 275.902h59.559v38.25H0z"/><text x="18.67" y="299.83" class="st2">M0</text></g><g id="shape50-36" transform="translate(146.61 -256.75)"><path class="st1" d="M0 275.902h59.559v38.25H0z"/><text x="11.55" y="299.83" class="st2">Mn-1</text></g><g id="shape51-39" transform="translate(257.39 -256.75)"><path d="M9 314.15v29.96" class="st4"/></g><g id="shape55-44" transform="translate(266.39 -108.25)"><path d="M0 314.15v24.75h-208.39V220.78h143.85" class="st4"/></g><g id="shape56-49" transform="translate(67 -108.25)"><path class="st1" d="M0 275.902h59.559v38.25H0z"/><text x="24" y="299.83" class="st2">C</text></g><g id="shape57-52" transform="translate(126.559 -118.375)"><path d="M0 305.15h14.01" class="st4"/></g><g id="shape58-57" transform="translate(266.39 -182.5)"><path d="M0 314.15v18h-169.61v11.96" class="st4"/></g><g id="shape59-62" transform="translate(444.14 -182.5)"><path d="M0 314.15v18h-87.75v11.96" class="st4"/></g><g id="shape60-67" transform="translate(444.14 -182.5)"><path d="M0 314.15v11.16h-174.75a3 3-180 0 0-6 0h-166.61v18.8" class="st4"/></g><g id="shape62-72" transform="translate(472 -108.25)"><path class="st1" d="M0 275.902h117v38.25H0z"/><text x="51.83" y="299.83" class="st2">...</text></g><g id="shape63-75" transform="translate(590.721 -108.25)"><path class="st1" d="M0 275.902h59.559v38.25H0z"/><text x="19.11" y="299.83" class="st2">Q0</text></g><g id="shape64-78" transform="translate(410.721 -108.25)"><path class="st1" d="M0 275.902h59.559v38.25H0z"/><text x="11.99" y="299.83" class="st2">Qn-1</text></g><g id="shape65-81" transform="translate(386.169 -118.375)"><path d="M0 305.15h18.51" class="st4"/></g><g id="shape66-86" transform="translate(590.721 -127.375)"><path d="M0 314.15h-1.13V239.9h-56.16" class="st4"/></g><g id="shape67-91" transform="translate(444.14 -182.5)"><path d="M0 314.15v18h86.36v11.96" class="st4"/></g><g id="shape68-96" transform="translate(247 -18.25)"><path d="M0 275.902h191.545v38.25H0z"/><text x="15.77" y="299.89" fill="#94b6d2" font-family="微软雅黑" font-size="1.333em">无符号二进制乘法框图</text></g></svg>