<svg xmlns="http://www.w3.org/2000/svg" xmlns:xlink="http://www.w3.org/1999/xlink" width="264.522" height="180.333" viewBox="0 0 198.392 135.25" color-interpolation-filters="sRGB" fill="none" fill-rule="evenodd" font-size="12" overflow="visible" stroke-linecap="square" stroke-miterlimit="3"><style>.st1{fill:none;stroke:none;stroke-width:1}.st2,.st3{fill:#94b6d2;font-family:Fira Code;font-size:.666664em}.st3{font-family:微软雅黑}.st4{marker-end:url(#mrkr4-45);stroke:#82a0b9;stroke-linecap:round;stroke-linejoin:round;stroke-width:.5}</style><defs id="Markers"><path d="M2 1L0 0l2-1v2" id="lend4"/><marker id="mrkr4-45" refX="-12.08" orient="auto" markerUnits="strokeWidth" overflow="visible" fill="#82a0b9" fill-opacity="1" stroke="#82a0b9" stroke-opacity="1" stroke-width=".166"><use xlink:href="#lend4" transform="scale(-6.04)"/></marker></defs><g id="shape1-1" transform="translate(81.446 -103)"><path class="st1" d="M0 123.25h44.156v12H0z"/><text x="2.88" y="131.65" class="st2">00001101</text></g><g id="shape2-4" transform="translate(81.446 -103)"><path class="st1" d="M0 133.75h44.156v1.5H0z"/><text x="2.88" y="136.9" class="st2">————————</text></g><g id="shape3-7" transform="translate(54.727 -94.75)"><path class="st1" d="M0 125.5h74.25v9.75H0z"/><text x="5.93" y="132.77" class="st2">1011/10010011</text></g><g id="shape4-10" transform="translate(87.352 -88.75)"><path class="st1" d="M0 127.75h23.551v7.5H0z"/><text x="2.18" y="133.9" class="st2">1011</text></g><g id="shape7-13" transform="translate(85.576 -86.5)"><path class="st1" d="M0 133.75h31.5v1.5H0z"/><text x="3.75" y="136.9" class="st2">—————</text></g><g id="shape8-16" transform="translate(81.446 -78.25)"><path class="st1" d="M0 127.75h34.313v7.5H0z"/><text x="2.76" y="133.9" class="st2">001110</text></g><g id="shape13-19" transform="translate(91.852 -70)"><path class="st1" d="M0 127.75h23.551v7.5H0z"/><text x="2.18" y="133.9" class="st2">1011</text></g><g id="shape18-22" transform="translate(91.852 -67.75)"><path class="st1" d="M0 133.75h23.551v1.5H0z"/><text x="2.18" y="136.9" class="st2">————</text></g><g id="shape19-25" transform="translate(91.852 -58)"><path class="st1" d="M0 127.75h34.313v7.5H0z"/><text x="2.76" y="133.9" class="st2">001110</text></g><g id="shape20-28" transform="translate(102.258 -49.75)"><path class="st1" d="M0 127.75h23.551v7.5H0z"/><text x="2.18" y="133.9" class="st2">1011</text></g><g id="shape21-31" transform="translate(102.258 -47.5)"><path class="st1" d="M0 133.75h23.551v1.5H0z"/><text x="2.18" y="136.9" class="st2">————</text></g><g id="shape22-34" transform="translate(106.551 -39.25)"><path class="st1" d="M0 127.75h19.051v7.5H0z"/><text x="2.33" y="133.9" class="st2">100</text></g><g id="shape26-37" transform="translate(146.051 -102.25)"><path class="st1" d="M0 123.25h19.051v12H0z"/><text x="5.53" y="131.68" class="st3">商</text></g><g id="shape28-40" transform="translate(148.301 -99.25)"><path d="M0 126.25h-14.41" class="st4"/></g><g id="shape29-46" transform="translate(148.096 -34)"><path d="M0 126.25h-16.45" class="st4"/></g><g id="shape30-51" transform="translate(145.668 -36.25)"><path class="st1" d="M0 123.25h25.934v12H0z"/><text x="4.97" y="131.68" class="st3">余数</text></g><g id="shape31-54" transform="translate(29.051 -46.75)"><path class="st1" d="M0 123.25h31.5v12H0z"/><text x="3.75" y="131.68" class="st3">部分余</text></g><g id="shape32-57" transform="translate(19 -93.25)"><path class="st1" d="M0 123.25h23.551v12H0z"/><text x="3.78" y="131.68" class="st3">除数</text></g><g id="shape33-60" transform="translate(147.892 -94)"><path class="st1" d="M0 123.25h31.5v12H0z"/><text x="3.75" y="131.68" class="st3">被除数</text></g><g id="shape34-63" transform="translate(148.608 -90.85)"><path d="M0 126.25h-14.72" class="st4"/></g><g id="shape36-68" transform="translate(40.764 -90.25)"><path d="M.66 126.25H11.3" class="st4"/></g><g id="shape37-73" transform="translate(49.301 -58.75)"><path d="M0 135.25l28.72-19.15" class="st4"/></g><g id="shape38-78" transform="translate(58.301 -47.5)"><path d="M0 130.75l27.72-7.44" class="st4"/></g><g id="shape39-83" transform="translate(47.051 -19)"><path class="st1" d="M0 123.25h101.25v12H0z"/><text x="2.63" y="131.68" class="st3">无符号二进制整数除法举例</text></g></svg>