<svg xmlns="http://www.w3.org/2000/svg" xmlns:xlink="http://www.w3.org/1999/xlink" width="463.138" height="744.666" viewBox="0 0 347.353 558.5" color-interpolation-filters="sRGB" fill="none" fill-rule="evenodd" font-size="12" overflow="visible" stroke-linecap="square" stroke-miterlimit="3"><style>.st1{fill:#eef2f6;stroke:#feffff;stroke-width:1}.st2{fill:#6b859a;font-family:微软雅黑;font-size:.916672em}.st3{marker-end:url(#mrkr4-9);stroke:#82a0b9;stroke-linecap:round;stroke-linejoin:round;stroke-width:.5}.st5{fill:#94b6d2;stroke:#feffff;stroke-width:1}.st6{fill:#feffff;font-family:Microsoft Sans Serif;font-size:.916672em}.st7{font-family:微软雅黑}.st7,.st8{font-size:1em}.st9{fill:#6b859a;font-family:Microsoft Sans Serif;font-size:.916672em}.st10{fill:#fff;stroke:none;stroke-linecap:butt;stroke-width:7.2}.st11{fill:#4c5f6f;font-family:微软雅黑;font-size:.916672em}.st13{font-family:Microsoft Sans Serif;font-size:1em}</style><defs id="Markers"><path d="M2 1L0 0l2-1v2" id="lend4"/><marker id="mrkr4-9" refX="-12.08" orient="auto" markerUnits="strokeWidth" overflow="visible" fill="#82a0b9" fill-opacity="1" stroke="#82a0b9" stroke-opacity="1" stroke-width=".166"><use xlink:href="#lend4" transform="scale(-6.04)"/></marker></defs><g id="shape2-1" transform="translate(130.353 -512.5)"><path d="M13.5 558.5h45a13.5 13.5-180 0 0 0-27h-45a13.5 13.5-180 1 0 0 27z" class="st1"/><text x="25" y="548.35" class="st2">开始</text></g><g id="shape3-4" transform="translate(157.353 -512.5)"><path d="M9 558.5v21.26" class="st3"/></g><g id="shape4-10" transform="translate(110.103 -413.2)"><path class="st5" d="M0 486.5h112.5v72H0z"/><text x="33.09" y="505.87" class="st6">C<tspan class="st7">、</tspan>A← 0<tspan x="32.25" dy="1.216em" class="st8">M </tspan>← <tspan class="st7">除数</tspan><tspan x="27.05" dy="1.216em" class="st8">Q </tspan>← <tspan class="st7">被除数</tspan><tspan x="30.09" dy="1.204em" class="st8">Count </tspan>← n</text></g><g id="shape6-19" transform="translate(130.353 -229)"><path d="M0 531.5l36-27 36 27-36 27-36-27z" class="st1"/><text x="23.14" y="534.8" class="st9">A &lt; 0</text></g><g id="shape7-22" transform="translate(110.103 -130)"><path class="st5" d="M0 531.5h112.5v27H0z"/><text x="10.66" y="548.3" class="st6">Count ← Count - 1</text></g><g id="shape8-25" transform="translate(130.353 -256)"><path d="M0 558.5h-54v24.82" class="st3"/><path class="st10" d="M-31.904 552.112h11v13.38h-11z"/><text x="-31.9" y="562.15" class="st11">否</text></g><g id="shape9-32" transform="translate(202.353 -256)"><path d="M0 558.5h54v24.82" class="st3"/><path class="st10" d="M20.905 552.112h11v13.38h-11z"/><text x="20.9" y="562.15" class="st11">是</text></g><g id="shape10-39" transform="translate(220.353 -178.862)"><path class="st5" d="M0 512.224h72V558.5H0z"/><text x="17.18" y="532.06" class="st6">Q0 ← 0<tspan x="10.99" dy="1.2em" class="st8">A </tspan>← A+ M</text></g><g id="shape11-43" transform="translate(256.353 -178.862)"><path d="M0 558.5v35.36h-27.71" class="st3"/></g><g id="shape13-48" transform="translate(130.353 -49)"><path d="M0 531.5l36-27 36 27-36 27-36-27z" class="st1"/><text x="12.13" y="534.8" class="st9">Count = 0</text></g><g id="shape14-51" transform="translate(202.353 -85)"><path d="M0 567.5h47.96" class="st3"/><path class="st10" d="M21.5 560.81h11v13.38h-11z"/><text x="21.5" y="570.85" class="st11">是</text></g><g id="shape15-58" transform="translate(256.353 -62.5)"><path d="M13.5 558.5h45a13.5 13.5-180 0 0 0-27h-45a13.5 13.5-180 1 0 0 27z" class="st1"/><text x="25" y="548.35" class="st2">结束</text></g><g id="shape19-61" transform="translate(130.353 -350.5)"><path class="st5" d="M0 531.5h72v27H0z"/><text x="11.55" y="548.35" fill="#feffff" font-family="微软雅黑" font-size=".917em">左移<tspan class="st13">A</tspan>、<tspan class="st13">Q</tspan></text></g><g id="shape20-66" transform="translate(157.353 -413.2)"><path d="M9 558.5v29.66" class="st3"/></g><g id="shape21-71" transform="translate(130.353 -305.5)"><path class="st5" d="M0 531.5h72v27H0z"/><text x="16.75" y="548.3" class="st6">A←A-M</text></g><g id="shape22-74" transform="translate(157.353 -350.5)"><path d="M9 558.5v11.96" class="st3"/></g><g id="shape23-79" transform="translate(157.353 -305.5)"><path d="M9 558.5v16.46" class="st3"/></g><g id="shape42-84" transform="translate(157.353 -130)"><path d="M9 558.5v20.96" class="st3"/></g><g id="shape43-89" transform="translate(157.353 -229)"><path d="M9 558.5v65.96" class="st3"/></g><g id="shape44-94" transform="translate(40.353 -178.862)"><path class="st5" d="M0 512.224h72V558.5H0z"/><text x="17.18" y="538.66" class="st6">Q0 ← 1</text></g><g id="shape49-97" transform="translate(76.353 -178.862)"><path d="M0 558.5v35.36h27.71" class="st3"/></g><g id="shape50-102" transform="translate(130.353 -76)"><path d="M0 558.5h-105.6v-324H36v16.46" class="st3"/><path class="st10" d="M-57.503 551.81h11v13.38h-11z"/><text x="-57.5" y="561.85" class="st11">否</text></g><g id="shape53-109" transform="translate(87.353 -19)"><path d="M0 546.5h158v12H0z"/><text x="13" y="555.85" fill="#94b6d2" font-family="微软雅黑" font-size=".917em">无符号二进制整数除法流程</text></g></svg>