<svg xmlns="http://www.w3.org/2000/svg" xmlns:xlink="http://www.w3.org/1999/xlink" width="434.667" height="488" viewBox="0 0 326 366" color-interpolation-filters="sRGB" fill="none" fill-rule="evenodd" font-size="12" overflow="visible" stroke-linecap="square" stroke-miterlimit="3"><style>.st1{fill:#eef2f6;stroke:#feffff;stroke-width:1}.st2{fill:#6b859a;font-family:微软雅黑;font-size:.666664em}.st3{marker-end:url(#mrkr4-9);stroke:#82a0b9;stroke-linecap:round;stroke-linejoin:round;stroke-width:.5}.st5{fill:#6b859a;font-family:Microsoft Sans Serif;font-size:.666664em}.st6{fill:#fff;stroke:none;stroke-linecap:butt;stroke-width:7.2}.st7{fill:#4c5f6f;font-family:微软雅黑;font-size:.666664em}.st8{fill:#94b6d2;stroke:#feffff;stroke-width:1}.st10,.st9{fill:#feffff;font-family:Microsoft Sans Serif;font-size:.666664em}.st10{font-family:微软雅黑}.st13{font-family:Microsoft Sans Serif;font-size:1em}</style><defs id="Markers"><path d="M2 1L0 0l2-1v2" id="lend4"/><marker id="mrkr4-9" refX="-12.08" orient="auto" markerUnits="strokeWidth" overflow="visible" fill="#82a0b9" fill-opacity="1" stroke="#82a0b9" stroke-opacity="1" stroke-width=".166"><use xlink:href="#lend4" transform="scale(-6.04)"/></marker></defs><g id="shape1-1" transform="translate(19 -320)"><path d="M13.5 366h45a13.5 13.5-180 0 0 0-27h-45a13.5 13.5-180 1 0 0 27z" class="st1"/><text x="28" y="354.93" class="st2">除法</text></g><g id="shape2-4" transform="translate(46 -320)"><path d="M9 366v20.96" class="st3"/></g><g id="shape3-10" transform="translate(19 -266)"><path d="M0 352.5L36 339l36 13.5L36 366 0 352.5z" class="st1"/><text x="26.65" y="354.9" class="st5">X = 0</text></g><g id="shape4-13" transform="translate(46 -266)"><path d="M9 366v20.96" class="st3"/><path class="st6" d="M5 374.635h8v9.731H5z"/><text x="5" y="381.93" class="st7">是</text></g><g id="shape5-20" transform="translate(19 -212)"><path class="st8" d="M0 339h72v27H0z"/><text x="25.21" y="354.9" class="st9">Z ← 0</text></g><g id="shape6-23" transform="translate(91 -288.5)"><path d="M0 375h34.46" class="st3"/><path class="st6" d="M16.25 370.135h8v9.731h-8z"/><text x="16.25" y="377.43" class="st7">否</text></g><g id="shape7-30" transform="translate(131.5 -266)"><path d="M0 352.5L36 339l36 13.5L36 366 0 352.5z" class="st1"/><text x="26.65" y="354.9" class="st5">Y = 0</text></g><g id="shape8-33" transform="translate(158.5 -266)"><path d="M9 366v20.96" class="st3"/><path class="st6" d="M5 374.635h8v9.731H5z"/><text x="5" y="381.93" class="st7">是</text></g><g id="shape9-40" transform="translate(46 -212)"><path d="M9 366v20.96" class="st3"/></g><g id="shape10-45" transform="translate(19 -158)"><path d="M13.5 366h45a13.5 13.5-180 0 0 0-27h-45a13.5 13.5-180 1 0 0 27z" class="st1"/><text x="28" y="354.93" class="st2">返回</text></g><g id="shape11-48" transform="translate(203.5 -270.5)"><path d="M0 357h25.46" class="st3"/><path class="st6" d="M11.75 352.135h8v9.731h-8z"/><text x="11.75" y="359.43" class="st7">否</text></g><g id="shape12-55" transform="translate(235 -158)"><path d="M0 352.5L36 339l36 13.5L36 366 0 352.5z" class="st1"/><text x="20" y="354.93" class="st2">阶值上溢</text></g><g id="shape13-58" transform="translate(235 -180.5)"><path d="M0 375h-25.46" class="st3"/><path class="st6" d="M-19.75 370.135h8v9.731h-8z"/><text x="-19.75" y="377.43" class="st7">是</text></g><g id="shape14-65" transform="translate(131.5 -158)"><path class="st8" d="M0 339h72v27H0z"/><text x="20" y="354.93" class="st10">报告上溢</text></g><g id="shape15-68" transform="translate(235 -266)"><path class="st8" d="M0 339h72v27H0z"/><text x="20" y="354.93" class="st10">阶值相减</text></g><g id="shape16-71" transform="translate(235 -50)"><path class="st8" d="M0 339h72v27H0z"/><text x="16" y="354.93" class="st10">有效值相除</text></g><g id="shape17-74" transform="translate(235 -54.5)"><path d="M0 357h-25.46" class="st3"/><path class="st6" d="M-19.75 352.135h8v9.731h-8z"/><text x="-19.75" y="359.43" class="st7">是</text></g><g id="shape18-81" transform="translate(131.5 -50)"><path class="st8" d="M0 339h72v27H0z"/><text x="24" y="354.93" class="st10">规格化</text></g><g id="shape19-84" transform="translate(235 -104)"><path d="M0 352.5L36 339l36 13.5L36 366 0 352.5z" class="st1"/><text x="20" y="354.93" class="st2">阶值下溢</text></g><g id="shape20-87" transform="translate(131.5 -104)"><path class="st8" d="M0 339h72v27H0z"/><text x="20" y="354.93" class="st10">报告下溢</text></g><g id="shape21-90" transform="translate(235 -126.5)"><path d="M0 375h-25.46" class="st3"/><path class="st6" d="M-19.75 370.135h8v9.731h-8z"/><text x="-19.75" y="377.43" class="st7">是</text></g><g id="shape22-97" transform="translate(131.5 -54.5)"><path d="M0 357h-34.46" class="st3"/></g><g id="shape23-102" transform="translate(104.045 -19)"><path d="M0 354h126.909v12H0z"/><text x="21.36" y="362.43" fill="#94b6d2" font-family="微软雅黑" font-size=".667em">浮点数除法<tspan class="st13"> </tspan><tspan class="st13">(Z </tspan><tspan class="st13">← </tspan><tspan class="st13">X ÷ Y)</tspan></text></g><g id="shape24-109" transform="translate(235 -212)"><path class="st8" d="M0 339h72v27H0z"/><text x="20" y="354.93" class="st10">加偏移量</text></g><g id="shape25-112" transform="translate(262 -266)"><path d="M9 366v20.96" class="st3"/></g><g id="shape26-117" transform="translate(262 -212)"><path d="M9 366v20.96" class="st3"/></g><g id="shape27-122" transform="translate(262 -158)"><path d="M9 366v20.96" class="st3"/><path class="st6" d="M5 374.642h8v9.717H5z"/><text x="5" y="381.93" class="st7">否</text></g><g id="shape28-129" transform="translate(262 -104)"><path d="M9 366v20.96" class="st3"/></g><g id="shape29-134" transform="translate(19 -50)"><path class="st8" d="M0 339h72v27H0z"/><text x="20" y="354.93" class="st10">舍入处理</text></g><g id="shape30-137" transform="translate(46 -77)"><path d="M9 366v-74.96" class="st3"/></g><g id="shape31-142" transform="translate(131.5 -162.5)"><path d="M0 357h-34.46" class="st3"/></g><g id="shape32-147" transform="translate(131.5 -117.5)"><path d="M0 366h-76.5v-34.46" class="st3"/></g><g id="shape33-152" transform="translate(131.5 -212)"><path class="st8" d="M0 339h72v27H0z"/><text x="15.43" y="354.93" class="st9">Z ← <tspan font-family="微软雅黑" font-size="1em">无穷大</tspan></text></g><g id="shape37-156" transform="translate(131.5 -225.5)"><path d="M0 366h-18v54h-16.46" class="st3"/></g></svg>