<svg xmlns="http://www.w3.org/2000/svg" xmlns:xlink="http://www.w3.org/1999/xlink" width="11in" height="816" viewBox="0 0 792 612" color-interpolation-filters="sRGB" fill="none" fill-rule="evenodd" font-size="12" overflow="visible" stroke-linecap="square" stroke-miterlimit="3"><style>.st1{fill:#eef2f6;stroke:#feffff;stroke-width:1}.st2{fill:#6b859a;font-family:微软雅黑;font-size:.666664em}.st3{marker-end:url(#mrkr4-9);stroke:#82a0b9;stroke-linecap:round;stroke-linejoin:round;stroke-width:.5}.st5{fill:#94b6d2;stroke:#feffff;stroke-width:1}.st6{fill:#feffff;font-family:微软雅黑;font-size:.666664em}.st7,.st8{font-family:Microsoft Sans Serif;font-size:1em}.st8{fill:#6b859a;font-size:.666664em}.st9{fill:#fff;stroke:none;stroke-linecap:butt;stroke-width:7.2}.st10,.st11{fill:#4c5f6f;font-family:微软雅黑;font-size:.666664em}.st11{fill:#feffff;font-family:Microsoft Sans Serif}</style><defs id="Markers"><path d="M2 1L0 0l2-1v2" id="lend4"/><marker id="mrkr4-9" refX="-12.08" orient="auto" markerUnits="strokeWidth" overflow="visible" fill="#82a0b9" fill-opacity="1" stroke="#82a0b9" stroke-opacity="1" stroke-width=".166"><use xlink:href="#lend4" transform="scale(-6.04)"/></marker></defs><g id="shape1-1"><path d="M13.5 612h45a13.5 13.5-180 0 0 0-27h-45a13.5 13.5-180 1 0 0 27z" class="st1" transform="translate(126 -553.5)"/><text x="28" y="600.93" class="st2" transform="translate(126 -553.5)">减法</text></g><path d="M-9 612v29.96" class="st3" transform="translate(171 -553.5)" id="shape3-4"/><g id="shape2-10"><path class="st5" d="M0 585h72v27H0z" transform="translate(126 -490.5)"/><text x="13.33" y="600.93" class="st6" transform="translate(126 -490.5)">改变<tspan class="st7">Y</tspan>的符号</text></g><g id="shape4-14"><path d="M13.5 612h45a13.5 13.5-180 0 0 0-27h-45a13.5 13.5-180 1 0 0 27z" class="st1" transform="translate(18 -553.5)"/><text x="28" y="600.93" class="st2" transform="translate(18 -553.5)">加法</text></g><path d="M-9 612v92.96" class="st3" transform="translate(63 -553.5)" id="shape6-17"/><g id="shape5-22"><path d="M0 598.5L36 585l36 13.5L36 612 0 598.5z" class="st1" transform="translate(18 -427.5)"/><text x="26.65" y="600.9" class="st8" transform="translate(18 -427.5)">X = 0</text></g><path d="M0 612v18h-108v11.96" class="st3" transform="translate(162 -490.5)" id="shape7-25"/><g id="shape9-30"><path d="M9 612v29.96" class="st3" transform="translate(45 -427.5)"/><path class="st9" d="M5 625.135h8v9.731H5z" transform="translate(45 -427.5)"/><text x="5" y="632.43" class="st10" transform="translate(45 -427.5)">是</text></g><g id="shape8-37"><path class="st5" d="M0 585h72v27H0z" transform="translate(18 -364.5)"/><text x="24.76" y="600.9" class="st11" transform="translate(18 -364.5)">Z ← X</text></g><g id="shape11-40"><path d="M0 621h29.96" class="st3" transform="translate(90 -450)"/><path class="st9" d="M14 616.135h8v9.731h-8z" transform="translate(90 -450)"/><text x="14" y="623.43" class="st10" transform="translate(90 -450)">否</text></g><g id="shape10-47"><path d="M0 598.5L36 585l36 13.5L36 612 0 598.5z" class="st1" transform="translate(126 -427.5)"/><text x="26.65" y="600.9" class="st8" transform="translate(126 -427.5)">Y = 0</text></g><g id="shape13-50"><path d="M9 612v29.96" class="st3" transform="translate(153 -427.5)"/><path class="st9" d="M5 625.135h8v9.731H5z" transform="translate(153 -427.5)"/><text x="5" y="632.43" class="st10" transform="translate(153 -427.5)">是</text></g><g id="shape12-57"><path class="st5" d="M0 585h72v27H0z" transform="translate(126 -364.5)"/><text x="24.76" y="600.96" class="st11" transform="translate(126 -364.5)">Z ← Y</text></g><path d="M9 612v29.96" class="st3" transform="translate(45 -364.5)" id="shape15-60"/><g id="shape14-65"><path d="M13.5 612h45a13.5 13.5-180 0 0 0-27h-45a13.5 13.5-180 1 0 0 27z" class="st1" transform="translate(18 -301.5)"/><text x="28" y="600.93" class="st2" transform="translate(18 -301.5)">返回</text></g><g id="shape20-68"><path d="M0 603h29.96" class="st3" transform="translate(198 -432)"/><path class="st9" d="M2.75 598.135h8v9.731h-8z" transform="translate(198 -432)"/><text x="2.75" y="605.43" class="st10" transform="translate(198 -432)">否</text></g><g id="shape19-75"><path d="M0 598.5L36 585l36 13.5L36 612 0 598.5z" class="st1" transform="translate(234 -427.5)"/><text x="20" y="600.93" class="st2" transform="translate(234 -427.5)">阶值相等</text></g><g id="shape22-78"><path d="M0 621h29.96" class="st3" transform="translate(306 -450)"/><path class="st9" d="M14 616.135h8v9.731h-8z" transform="translate(306 -450)"/><text x="14" y="623.43" class="st10" transform="translate(306 -450)">是</text></g><g id="shape21-85"><path class="st5" d="M0 585h72v27H0z" transform="translate(342 -427.5)"/><text x="4" y="600.93" class="st6" transform="translate(342 -427.5)">带符号有效值相加</text></g><g id="shape24-88"><path d="M9 612v29.96" class="st3" transform="translate(261 -427.5)"/><path class="st9" d="M5 625.135h8v9.731H5z" transform="translate(261 -427.5)"/><text x="5" y="632.43" class="st10" transform="translate(261 -427.5)">否</text></g><g id="shape23-95"><path class="st5" d="M0 585h72v27H0z" transform="translate(234 -364.5)"/><text x="21.78" y="600.93" class="st6" transform="translate(234 -364.5)">阶值加<tspan class="st7">1</tspan></text></g><path d="M-9 612v29.96" class="st3" transform="translate(279 -364.5)" id="shape26-99"/><g id="shape25-104"><path class="st5" d="M0 585h72v27H0z" transform="translate(234 -301.5)"/><text x="16" y="600.93" class="st6" transform="translate(234 -301.5)">右移有效值</text></g><path d="M9 612v25.46" class="st3" transform="translate(261 -301.5)" id="shape28-107"/><g id="shape27-112"><path d="M0 598.5L36 585l36 13.5L36 612 0 598.5z" class="st1" transform="translate(234 -243)"/><text x="17.31" y="600.93" class="st2" transform="translate(234 -243)">有效值<tspan class="st7"> </tspan><tspan class="st7">= 0</tspan></text></g><g id="shape31-117"><path d="M9 612v29.96" class="st3" transform="translate(261 -243)"/><path class="st9" d="M5 625.135h8v9.731H5z" transform="translate(261 -243)"/><text x="5" y="632.43" class="st10" transform="translate(261 -243)">是</text></g><g id="shape30-124"><path class="st5" d="M0 585h72v27H0z" transform="translate(234 -180)"/><text x="6.13" y="600.93" class="st6" transform="translate(234 -180)">将另一个数放入<tspan font-family="Calibri" font-size="1em">Z</tspan></text></g><path d="M9 612v29.96" class="st3" transform="translate(369 -427.5)" id="shape34-128"/><g id="shape33-133"><path d="M0 598.5L36 585l36 13.5L36 612 0 598.5z" class="st1" transform="translate(342 -364.5)"/><text x="17.31" y="600.93" class="st2" transform="translate(342 -364.5)">有效值<tspan class="st7"> </tspan><tspan class="st7">= 0</tspan></text></g><g id="shape35-138"><path class="st5" d="M0 585h72v27H0z" transform="translate(342 -301.5)"/><text x="25.21" y="600.9" class="st11" transform="translate(342 -301.5)">Z ← 0</text></g><g id="shape38-141"><path d="M0 598.5L36 585l36 13.5L36 612 0 598.5z" class="st1" transform="translate(450 -364.5)"/><text x="16" y="600.93" class="st2" transform="translate(450 -364.5)">有效值溢出</text></g><g id="shape41-144"><path d="M-9 612v29.96" class="st3" transform="translate(495 -364.5)"/><path class="st9" d="M-13 625.135h8v9.731h-8z" transform="translate(495 -364.5)"/><text x="-13" y="632.43" class="st10" transform="translate(495 -364.5)">是</text></g><g id="shape40-151"><path class="st5" d="M0 585h72v27H0z" transform="translate(450 -301.5)"/><text x="16" y="600.93" class="st6" transform="translate(450 -301.5)">右移有效值</text></g><path d="M9 612v25.46" class="st3" transform="translate(477 -301.5)" id="shape45-154"/><g id="shape44-159"><path class="st5" d="M0 585h72v27H0z" transform="translate(450 -243)"/><text x="21.78" y="600.93" class="st6" transform="translate(450 -243)">阶值加<tspan class="st7">1</tspan></text></g><path d="M9 612v25.46" class="st3" transform="translate(477 -243)" id="shape47-163"/><g id="shape46-168"><path d="M0 598.5L36 585l36 13.5L36 612 0 598.5z" class="st1" transform="translate(450 -184.5)"/><text x="20" y="600.93" class="st2" transform="translate(450 -184.5)">阶值上溢</text></g><path d="M9 612v25.82" class="st3" transform="translate(477 -184.5)" id="shape49-171"/><g id="shape48-176"><path class="st5" d="M0 585h72v27H0z" transform="translate(450 -125.64)"/><text x="20" y="600.93" class="st6" transform="translate(450 -125.64)">报告上溢</text></g><g id="shape53-179"><path d="M0 621h47.96" class="st3" transform="translate(522 -387)"/><path class="st9" d="M10.85 616.135h8v9.731h-8z" transform="translate(522 -387)"/><text x="10.85" y="623.43" class="st10" transform="translate(522 -387)">否</text></g><g id="shape52-186"><path d="M0 598.5L36 585l36 13.5L36 612 0 598.5z" class="st1" transform="translate(576 -364.5)"/><text x="12" y="600.93" class="st2" transform="translate(576 -364.5)">结果规格化了</text></g><g id="shape55-189"><path d="M-9 612v29.96" class="st3" transform="translate(621 -364.5)"/><path class="st9" d="M-13 625.135h8v9.731h-8z" transform="translate(621 -364.5)"/><text x="-13" y="632.43" class="st10" transform="translate(621 -364.5)">否</text></g><g id="shape54-196"><path class="st5" d="M0 585h72v27H0z" transform="translate(576 -301.5)"/><text x="16" y="600.93" class="st6" transform="translate(576 -301.5)">左移有效值</text></g><path d="M9 612v25.46" class="st3" transform="translate(603 -301.5)" id="shape57-199"/><g id="shape56-204"><path class="st5" d="M0 585h72v27H0z" transform="translate(576 -243)"/><text x="21.78" y="600.93" class="st6" transform="translate(576 -243)">阶值减<tspan class="st7">1</tspan></text></g><path d="M9 612v25.46" class="st3" transform="translate(603 -243)" id="shape59-208"/><g id="shape58-213"><path d="M0 598.5L36 585l36 13.5L36 612 0 598.5z" class="st1" transform="translate(576 -184.5)"/><text x="20" y="600.93" class="st2" transform="translate(576 -184.5)">阶值下溢</text></g><g id="shape60-216"><path d="M9 612h-22.5V432H2.96" class="st3" transform="translate(567 -198)"/><path class="st9" d="M-4.298 607.135h8v9.731h-8z" transform="translate(567 -198)"/><text x="-4.3" y="614.43" class="st10" transform="translate(567 -198)">否</text></g><g id="shape64-223"><path d="M9 612v25.46" class="st3" transform="translate(603 -184.5)"/><path class="st9" d="M5 622.885h8v9.731H5z" transform="translate(603 -184.5)"/><text x="5" y="630.18" class="st10" transform="translate(603 -184.5)">是</text></g><g id="shape63-230"><path class="st5" d="M0 585h72v27H0z" transform="translate(576 -126)"/><text x="20" y="600.93" class="st6" transform="translate(576 -126)">报告下溢</text></g><g id="shape69-233"><path d="M-9 612v29.96" class="st3" transform="translate(387 -364.5)"/><path class="st9" d="M-13 625.135h8v9.731h-8z" transform="translate(387 -364.5)"/><text x="-13" y="632.43" class="st10" transform="translate(387 -364.5)">是</text></g><g id="shape73-240"><path d="M13.5 612h45a13.5 13.5-180 0 0 0-27h-45a13.5 13.5-180 1 0 0 27z" class="st1" transform="translate(126 -301.5)"/><text x="28" y="600.93" class="st2" transform="translate(126 -301.5)">返回</text></g><path d="M9 612v29.96" class="st3" transform="translate(153 -364.5)" id="shape74-243"/><g id="shape80-248"><path d="M13.5 612h45a13.5 13.5-180 0 0 0-27h-45a13.5 13.5-180 1 0 0 27z" class="st1" transform="translate(234 -125.64)"/><text x="28" y="600.93" class="st2" transform="translate(234 -125.64)">返回</text></g><path d="M9 612v21.32" class="st3" transform="translate(261 -180)" id="shape81-251"/><g id="shape82-256"><path d="M13.5 612h45a13.5 13.5-180 0 0 0-27h-45a13.5 13.5-180 1 0 0 27z" class="st1" transform="translate(342 -243)"/><text x="28" y="600.93" class="st2" transform="translate(342 -243)">返回</text></g><path d="M9 612v25.46" class="st3" transform="translate(369 -301.5)" id="shape83-259"/><g id="shape85-264"><path d="M13.5 612h45a13.5 13.5-180 0 0 0-27h-45a13.5 13.5-180 1 0 0 27z" class="st1" transform="translate(450 -66.78)"/><text x="28" y="600.93" class="st2" transform="translate(450 -66.78)">返回</text></g><path d="M9 612v25.82" class="st3" transform="translate(477 -125.64)" id="shape86-267"/><g id="shape87-272"><path d="M0 603h29.96" class="st3" transform="translate(414 -369)"/><path class="st9" d="M14 598.135h8v9.731h-8z" transform="translate(414 -369)"/><text x="14" y="605.43" class="st10" transform="translate(414 -369)">否</text></g><g id="shape88-279"><path d="M13.5 612h45a13.5 13.5-180 0 0 0-27h-45a13.5 13.5-180 1 0 0 27z" class="st1" transform="translate(576 -67.5)"/><text x="28" y="600.93" class="st2" transform="translate(576 -67.5)">返回</text></g><path d="M9 612v25.46" class="st3" transform="translate(603 -126)" id="shape89-282"/><g id="shape90-287"><path d="M0 612h31.5V432h16.46" class="st3" transform="translate(522 -198)"/><path class="st9" d="M9.5 607.135h8v9.731h-8z" transform="translate(522 -198)"/><text x="9.5" y="614.43" class="st10" transform="translate(522 -198)">否</text></g><path d="M0 603h29.96" class="st3" transform="translate(648 -369)" id="shape92-294"/><g id="shape91-299"><path class="st5" d="M0 585h72v27H0z" transform="translate(684 -364.5)"/><text x="20" y="600.93" class="st6" transform="translate(684 -364.5)">舍入结果</text></g><g id="shape93-302"><path d="M13.5 612h45a13.5 13.5-180 0 0 0-27h-45a13.5 13.5-180 1 0 0 27z" class="st1" transform="translate(684 -301.5)"/><text x="28" y="600.93" class="st2" transform="translate(684 -301.5)">返回</text></g><path d="M9 612v29.96" class="st3" transform="translate(711 -364.5)" id="shape94-305"/><g id="shape95-310"><path d="M0 600h126.909v12H0z" transform="translate(206.091 -45.09)"/><text x="9.36" y="608.43" fill="#94b6d2" font-family="微软雅黑" font-size=".667em" transform="translate(206.091 -45.09)">浮点数加法和减法<tspan class="st7"> </tspan><tspan class="st7">(Z </tspan><tspan class="st7">← </tspan><tspan class="st7">X ± Y)</tspan></text></g><g id="shape96-317"><path d="M-9 612h-14.4V427.5h8.36" class="st3" transform="translate(243 -256.5)"/><path class="st9" d="M-20.875 607.135h8v9.731h-8z" transform="translate(243 -256.5)"/><text x="-20.88" y="614.43" class="st10" transform="translate(243 -256.5)">否</text></g></svg>