<svg xmlns="http://www.w3.org/2000/svg" xmlns:xlink="http://www.w3.org/1999/xlink" width="11in" height="816" viewBox="0 0 792 612" color-interpolation-filters="sRGB" fill="none" fill-rule="evenodd" font-size="12" overflow="visible" stroke-linecap="square" stroke-miterlimit="3"><style>.st1{fill:#fff;stroke:#1280a4;stroke-linecap:round;stroke-linejoin:round;stroke-width:.75}.st2{fill:#0e627e;font-family:微软雅黑;font-size:.666664em}.st3,.st5{stroke-linecap:round;stroke-linejoin:round}.st3{marker-end:url(#mrkr4-9);stroke:#23b8e9;stroke-width:.2376}.st5{fill:#23b8e9;stroke:#fff;stroke-width:.75}.st6{fill:#e8f3fb;font-family:微软雅黑;font-size:.666664em}.st7,.st8{font-family:Microsoft Sans Serif;font-size:1em}.st8{fill:#0e627e;font-size:.666664em}.st9{fill:#fff;stroke:none;stroke-linecap:butt;stroke-width:7.2}.st10,.st11{fill:#23b8e9;font-family:微软雅黑;font-size:.666664em}.st11{fill:#e8f3fb;font-family:Microsoft Sans Serif}</style><defs id="Markers"><path d="M2 1L0 0l2-1v2" id="lend4"/><marker id="mrkr4-9" refX="-23.212" orient="auto" markerUnits="strokeWidth" overflow="visible" fill="#23b8e9" fill-opacity="1" stroke="#23b8e9" stroke-opacity="1" stroke-width=".086"><use xlink:href="#lend4" transform="scale(-11.60606)"/></marker></defs><g id="shape1-1" transform="translate(126 -553.5)"><path d="M13.5 612h45a13.5 13.5-180 0 0 0-27h-45a13.5 13.5-180 1 0 0 27z" class="st1"/><text x="28" y="600.93" class="st2">减法</text></g><g id="shape3-4" transform="translate(171 -553.5)"><path d="M-9 612v30.48" class="st3"/></g><g id="shape2-10" transform="translate(126 -490.5)"><path class="st5" d="M0 585h72v27H0z"/><text x="13.33" y="600.93" class="st6">改变<tspan class="st7">Y</tspan>的符号</text></g><g id="shape4-14" transform="translate(18 -553.5)"><path d="M13.5 612h45a13.5 13.5-180 0 0 0-27h-45a13.5 13.5-180 1 0 0 27z" class="st1"/><text x="28" y="600.93" class="st2">加法</text></g><g id="shape6-17" transform="translate(63 -553.5)"><path d="M-9 612v93.48" class="st3"/></g><g id="shape5-22" transform="translate(18 -427.5)"><path d="M0 598.5L36 585l36 13.5L36 612 0 598.5z" class="st1"/><text x="26.65" y="600.9" class="st8">X = 0</text></g><g id="shape7-25" transform="translate(162 -490.5)"><path d="M0 612v18h-108v12.48" class="st3"/></g><g id="shape9-30" transform="translate(45 -427.5)"><path d="M9 612v30.48" class="st3"/><path class="st9" d="M5 625.135h8v9.731H5z"/><text x="5" y="632.43" class="st10">是</text></g><g id="shape8-37" transform="translate(18 -364.5)"><path class="st5" d="M0 585h72v27H0z"/><text x="24.76" y="600.9" class="st11">Z ← X</text></g><g id="shape11-40" transform="translate(90 -450)"><path d="M0 621h30.48" class="st3"/><path class="st9" d="M14 616.135h8v9.731h-8z"/><text x="14" y="623.43" class="st10">否</text></g><g id="shape10-47" transform="translate(126 -427.5)"><path d="M0 598.5L36 585l36 13.5L36 612 0 598.5z" class="st1"/><text x="26.65" y="600.9" class="st8">Y = 0</text></g><g id="shape13-50" transform="translate(153 -427.5)"><path d="M9 612v30.48" class="st3"/><path class="st9" d="M5 625.135h8v9.731H5z"/><text x="5" y="632.43" class="st10">是</text></g><g id="shape12-57" transform="translate(126 -364.5)"><path class="st5" d="M0 585h72v27H0z"/><text x="24.76" y="600.96" class="st11">Z ← Y</text></g><g id="shape15-60" transform="translate(45 -364.5)"><path d="M9 612v30.48" class="st3"/></g><g id="shape14-65" transform="translate(18 -301.5)"><path d="M13.5 612h45a13.5 13.5-180 0 0 0-27h-45a13.5 13.5-180 1 0 0 27z" class="st1"/><text x="28" y="600.93" class="st2">返回</text></g><g id="shape20-68" transform="translate(198 -432)"><path d="M0 603h30.48" class="st3"/><path class="st9" d="M2.75 598.135h8v9.731h-8z"/><text x="2.75" y="605.43" class="st10">否</text></g><g id="shape19-75" transform="translate(234 -427.5)"><path d="M0 598.5L36 585l36 13.5L36 612 0 598.5z" class="st1"/><text x="20" y="600.93" class="st2">阶值相等</text></g><g id="shape22-78" transform="translate(306 -450)"><path d="M0 621h30.48" class="st3"/><path class="st9" d="M14 616.135h8v9.731h-8z"/><text x="14" y="623.43" class="st10">是</text></g><g id="shape21-85" transform="translate(342 -427.5)"><path class="st5" d="M0 585h72v27H0z"/><text x="4" y="600.93" class="st6">带符号有效值相加</text></g><g id="shape24-88" transform="translate(261 -427.5)"><path d="M9 612v30.48" class="st3"/><path class="st9" d="M5 625.135h8v9.731H5z"/><text x="5" y="632.43" class="st10">否</text></g><g id="shape23-95" transform="translate(234 -364.5)"><path class="st5" d="M0 585h72v27H0z"/><text x="21.78" y="600.93" class="st6">阶值加<tspan class="st7">1</tspan></text></g><g id="shape26-99" transform="translate(279 -364.5)"><path d="M-9 612v30.48" class="st3"/></g><g id="shape25-104" transform="translate(234 -301.5)"><path class="st5" d="M0 585h72v27H0z"/><text x="16" y="600.93" class="st6">右移有效值</text></g><g id="shape28-107" transform="translate(261 -301.5)"><path d="M9 612v25.98" class="st3"/></g><g id="shape27-112" transform="translate(234 -243)"><path d="M0 598.5L36 585l36 13.5L36 612 0 598.5z" class="st1"/><text x="17.31" y="600.93" class="st2">有效值<tspan class="st7"> </tspan><tspan class="st7">= 0</tspan></text></g><g id="shape31-117" transform="translate(261 -243)"><path d="M9 612v30.48" class="st3"/><path class="st9" d="M5 625.135h8v9.731H5z"/><text x="5" y="632.43" class="st10">是</text></g><g id="shape30-124" transform="translate(234 -180)"><path class="st5" d="M0 585h72v27H0z"/><text x="6.13" y="600.93" class="st6">将另一个数放入<tspan font-family="Calibri" font-size="1em">Z</tspan></text></g><g id="shape34-128" transform="translate(369 -427.5)"><path d="M9 612v30.48" class="st3"/></g><g id="shape33-133" transform="translate(342 -364.5)"><path d="M0 598.5L36 585l36 13.5L36 612 0 598.5z" class="st1"/><text x="17.31" y="600.93" class="st2">有效值<tspan class="st7"> </tspan><tspan class="st7">= 0</tspan></text></g><g id="shape35-138" transform="translate(342 -301.5)"><path class="st5" d="M0 585h72v27H0z"/><text x="25.21" y="600.9" class="st11">Z ← 0</text></g><g id="shape38-141" transform="translate(450 -364.5)"><path d="M0 598.5L36 585l36 13.5L36 612 0 598.5z" class="st1"/><text x="16" y="600.93" class="st2">有效值溢出</text></g><g id="shape41-144" transform="translate(495 -364.5)"><path d="M-9 612v30.48" class="st3"/><path class="st9" d="M-13 625.135h8v9.731h-8z"/><text x="-13" y="632.43" class="st10">是</text></g><g id="shape40-151" transform="translate(450 -301.5)"><path class="st5" d="M0 585h72v27H0z"/><text x="16" y="600.93" class="st6">右移有效值</text></g><g id="shape45-154" transform="translate(477 -301.5)"><path d="M9 612v25.98" class="st3"/></g><g id="shape44-159" transform="translate(450 -243)"><path class="st5" d="M0 585h72v27H0z"/><text x="21.78" y="600.93" class="st6">阶值加<tspan class="st7">1</tspan></text></g><g id="shape47-163" transform="translate(477 -243)"><path d="M9 612v25.98" class="st3"/></g><g id="shape46-168" transform="translate(450 -184.5)"><path d="M0 598.5L36 585l36 13.5L36 612 0 598.5z" class="st1"/><text x="20" y="600.93" class="st2">阶值上溢</text></g><g id="shape49-171" transform="translate(477 -184.5)"><path d="M9 612v26.34" class="st3"/></g><g id="shape48-176" transform="translate(450 -125.64)"><path class="st5" d="M0 585h72v27H0z"/><text x="20" y="600.93" class="st6">报告上溢</text></g><g id="shape53-179" transform="translate(522 -387)"><path d="M0 621h48.48" class="st3"/><path class="st9" d="M10.85 616.135h8v9.731h-8z"/><text x="10.85" y="623.43" class="st10">否</text></g><g id="shape52-186" transform="translate(576 -364.5)"><path d="M0 598.5L36 585l36 13.5L36 612 0 598.5z" class="st1"/><text x="12" y="600.93" class="st2">结果规格化了</text></g><g id="shape55-189" transform="translate(621 -364.5)"><path d="M-9 612v30.48" class="st3"/><path class="st9" d="M-13 625.135h8v9.731h-8z"/><text x="-13" y="632.43" class="st10">否</text></g><g id="shape54-196" transform="translate(576 -301.5)"><path class="st5" d="M0 585h72v27H0z"/><text x="16" y="600.93" class="st6">左移有效值</text></g><g id="shape57-199" transform="translate(603 -301.5)"><path d="M9 612v25.98" class="st3"/></g><g id="shape56-204" transform="translate(576 -243)"><path class="st5" d="M0 585h72v27H0z"/><text x="21.78" y="600.93" class="st6">阶值减<tspan class="st7">1</tspan></text></g><g id="shape59-208" transform="translate(603 -243)"><path d="M9 612v25.98" class="st3"/></g><g id="shape58-213" transform="translate(576 -184.5)"><path d="M0 598.5L36 585l36 13.5L36 612 0 598.5z" class="st1"/><text x="20" y="600.93" class="st2">阶值下溢</text></g><g id="shape60-216" transform="translate(567 -198)"><path d="M9 612h-22.5V432H3.48" class="st3"/><path class="st9" d="M-4.298 607.135h8v9.731h-8z"/><text x="-4.3" y="614.43" class="st10">否</text></g><g id="shape64-223" transform="translate(603 -184.5)"><path d="M9 612v25.98" class="st3"/><path class="st9" d="M5 622.885h8v9.731H5z"/><text x="5" y="630.18" class="st10">是</text></g><g id="shape63-230" transform="translate(576 -126)"><path class="st5" d="M0 585h72v27H0z"/><text x="20" y="600.93" class="st6">报告下溢</text></g><g id="shape69-233" transform="translate(387 -364.5)"><path d="M-9 612v30.48" class="st3"/><path class="st9" d="M-13 625.135h8v9.731h-8z"/><text x="-13" y="632.43" class="st10">是</text></g><g id="shape73-240" transform="translate(126 -301.5)"><path d="M13.5 612h45a13.5 13.5-180 0 0 0-27h-45a13.5 13.5-180 1 0 0 27z" class="st1"/><text x="28" y="600.93" class="st2">返回</text></g><g id="shape74-243" transform="translate(153 -364.5)"><path d="M9 612v30.48" class="st3"/></g><g id="shape80-248" transform="translate(234 -125.64)"><path d="M13.5 612h45a13.5 13.5-180 0 0 0-27h-45a13.5 13.5-180 1 0 0 27z" class="st1"/><text x="28" y="600.93" class="st2">返回</text></g><g id="shape81-251" transform="translate(261 -180)"><path d="M9 612v21.84" class="st3"/></g><g id="shape82-256" transform="translate(342 -243)"><path d="M13.5 612h45a13.5 13.5-180 0 0 0-27h-45a13.5 13.5-180 1 0 0 27z" class="st1"/><text x="28" y="600.93" class="st2">返回</text></g><g id="shape83-259" transform="translate(369 -301.5)"><path d="M9 612v25.98" class="st3"/></g><g id="shape85-264" transform="translate(450 -66.78)"><path d="M13.5 612h45a13.5 13.5-180 0 0 0-27h-45a13.5 13.5-180 1 0 0 27z" class="st1"/><text x="28" y="600.93" class="st2">返回</text></g><g id="shape86-267" transform="translate(477 -125.64)"><path d="M9 612v26.34" class="st3"/></g><g id="shape87-272" transform="translate(414 -369)"><path d="M0 603h30.48" class="st3"/><path class="st9" d="M14 598.135h8v9.731h-8z"/><text x="14" y="605.43" class="st10">否</text></g><g id="shape88-279" transform="translate(576 -67.5)"><path d="M13.5 612h45a13.5 13.5-180 0 0 0-27h-45a13.5 13.5-180 1 0 0 27z" class="st1"/><text x="28" y="600.93" class="st2">返回</text></g><g id="shape89-282" transform="translate(603 -126)"><path d="M9 612v25.98" class="st3"/></g><g id="shape90-287" transform="translate(522 -198)"><path d="M0 612h31.5V432h16.98" class="st3"/><path class="st9" d="M9.5 607.135h8v9.731h-8z"/><text x="9.5" y="614.43" class="st10">否</text></g><g id="shape92-294" transform="translate(648 -369)"><path d="M0 603h30.48" class="st3"/></g><g id="shape91-299" transform="translate(684 -364.5)"><path class="st5" d="M0 585h72v27H0z"/><text x="20" y="600.93" class="st6">舍入结果</text></g><g id="shape93-302" transform="translate(684 -301.5)"><path d="M13.5 612h45a13.5 13.5-180 0 0 0-27h-45a13.5 13.5-180 1 0 0 27z" class="st1"/><text x="28" y="600.93" class="st2">返回</text></g><g id="shape94-305" transform="translate(711 -364.5)"><path d="M9 612v30.48" class="st3"/></g><g id="shape95-310" transform="translate(206.091 -45.09)"><path stroke-linecap="round" stroke-linejoin="round" stroke-width=".75" d="M0 600h126.909v12H0z"/><text x="9.36" y="608.43" class="st10">浮点数加法和减法<tspan class="st7"> </tspan><tspan class="st7">(Z </tspan><tspan class="st7">← </tspan><tspan class="st7">X ± Y)</tspan></text></g><g id="shape96-317" transform="translate(243 -256.5)"><path d="M-9 612h-14.4V427.5h8.88" class="st3"/><path class="st9" d="M-20.875 607.135h8v9.731h-8z"/><text x="-20.88" y="614.43" class="st10">否</text></g></svg>