<svg xmlns="http://www.w3.org/2000/svg" xmlns:xlink="http://www.w3.org/1999/xlink" xmlns:ev="http://www.w3.org/2001/xml-events" width="311.057" height="145.599" viewBox="0 0 233.293 109.2" color-interpolation-filters="sRGB" fill="none" fill-rule="evenodd" font-size="12" overflow="visible" stroke-linecap="square" stroke-miterlimit="3"><style>.st3{fill:#94b6d2;stroke:#7a96ae;stroke-linecap:butt;stroke-width:1.25}.st5{fill:none;stroke:none;stroke-width:1}</style><defs id="Markers"><path d="M2 1L0 0l2-1v2" id="lend4"/><marker id="mrkr4-6" refX="-5.36" orient="auto" markerUnits="strokeWidth" overflow="visible" fill="#819fb8" fill-opacity="1" stroke="#819fb8" stroke-opacity="1" stroke-width=".373"><use xlink:href="#lend4" transform="scale(-2.68)"/></marker></defs><g id="shape5-1" transform="translate(26.989 -40.84)"><path d="M0 100.34l171.28-.27" marker-end="url(#mrkr4-6)" stroke="#819fb8" stroke-linecap="round" stroke-linejoin="round" stroke-width="1.5"/></g><g id="shape6-7" transform="translate(115.864 -49.7)"><path class="st3" d="M0 91.2h36v18H0z"/></g><g id="shape7-9" transform="translate(79.864 -49.7)"><path class="st3" d="M0 91.2h36v18H0z"/></g><g id="shape12-11" transform="rotate(-90 40.957 -1.707)"><path d="M0 109.2a6.723 9.605-180 0 0 6.3-7.2V44.4A6.723 9.605-180 0 0 0 37.2" stroke="#94b6d2"/></g><g id="shape13-14" transform="translate(87.598 -78.5)"><path class="st5" d="M0 98.2h56.533v11H0z"/><text x="4.27" y="107.3" fill="#94b6d2" font-family="微软雅黑" font-size=".667em">可表示的整数</text></g><g id="shape19-17" transform="translate(108.909 -40.25)"><path class="st5" d="M0 103.575h9v5.625H0z"/><text x="4" y="108.79" fill="#94b6d2" font-family="Cambria Math" font-size=".667em">0</text></g><g id="shape20-20" transform="translate(67.147 -27.679)"><path class="st5" d="M0 88.558h23.244V109.2H0z"/><switch><svg viewBox="0 0 96.627 85.861" height="20.642" preserveAspectRatio="none" width="23.244" y="88.558"><clipPath id="mfid1"><path id="mfid2" d="M0 0h96.627v85.861H0z"/></clipPath><g stroke="#000" stroke-miterlimit="10" font-weight="400" clip-path="url(#mfid1)"><g font-family="'Cambria Math',roman,serif" font-size="33"><clipPath id="mfid3"><path d="M0 0h97v86H0z"/></clipPath><g clip-path="url(#mfid3)"><text stroke="none" fill="#9cc2e5" x="0,25" transform="translate(13 33)">−</text></g><clipPath id="mfid4"><path d="M0 0h97v86H0z"/></clipPath><g clip-path="url(#mfid4)"><text stroke="none" fill="#9cc2e5" x="0,18" transform="translate(38 33)">2</text></g></g><g font-family="'Cambria Math',roman,serif" font-size="23"><clipPath id="mfid5"><path d="M0 0h97v86H0z"/></clipPath><g clip-path="url(#mfid5)"><text stroke="none" fill="#9cc2e5" x="0,13,26" transform="translate(56 21)">32</text></g></g><g font-family="'Calibri',swiss,sans-serif" font-size="33"><clipPath id="mfid6"><path d="M0 0h97v86H0z"/></clipPath><g clip-path="url(#mfid6)"><text stroke="none" fill="#9cc2e5" x="0,20" transform="translate(84 33)"></text></g></g></g></svg></switch><path class="st5" d="M0 88.558h23.244V109.2H0z"/></g><g id="shape21-23" transform="translate(128.797 -30.2)"><path class="st5" d="M0 91.087h40.791V109.2H0z"/><switch><svg viewBox="0 0 169.57 75.364" height="18.113" preserveAspectRatio="none" width="40.791" y="91.087"><clipPath id="mfid7"><path id="mfid8" d="M0 0h169.57v75.364H0z"/></clipPath><g stroke="#000" stroke-miterlimit="10" font-weight="400" clip-path="url(#mfid7)"><g font-family="'Cambria Math',roman,serif" font-size="33"><clipPath id="mfid9"><path d="M0 0h170v76H0z"/></clipPath><g clip-path="url(#mfid9)"><text stroke="none" fill="#9cc2e5" x="0,18" transform="translate(42 33)">2</text></g></g><g font-family="'Cambria Math',roman,serif" font-size="23"><clipPath id="mfid10"><path d="M0 0h170v76H0z"/></clipPath><g clip-path="url(#mfid10)"><text stroke="none" fill="#9cc2e5" x="0,13,26" transform="translate(60 21)">31</text></g></g><g font-family="'Cambria Math',roman,serif" font-size="33"><clipPath id="mfid11"><path d="M0 0h170v76H0z"/></clipPath><g clip-path="url(#mfid11)"><text stroke="none" fill="#9cc2e5" x="0,25" transform="translate(96 33)">−</text></g><clipPath id="mfid12"><path d="M0 0h170v76H0z"/></clipPath><g clip-path="url(#mfid12)"><text stroke="none" fill="#9cc2e5" x="0,18" transform="translate(128 33)">1</text></g></g><g font-family="'I縹'" font-size="33"><clipPath id="mfid13"><path d="M0 0h170v76H0z"/></clipPath><g clip-path="url(#mfid13)"><text stroke="none" fill="#9cc2e5" x="0,16" transform="translate(147 33)"></text></g></g></g></svg></switch><path class="st5" d="M0 91.087h40.791V109.2H0z"/></g><g id="shape26-26" transform="translate(40.647 -19)"><path class="st5" d="M0 89.2h152v20H0z"/><text x="42.66" y="102.85" fill="#94b6d2" font-family="Microsoft Sans Serif" font-size="1em">2<tspan font-family="微软雅黑">的补码整数</tspan></text></g></svg>