<svg xmlns="http://www.w3.org/2000/svg" xmlns:xlink="http://www.w3.org/1999/xlink" xmlns:ev="http://www.w3.org/2001/xml-events" width="734.97" height="135" viewBox="0 0 551.228 101.25" color-interpolation-filters="sRGB" fill="none" fill-rule="evenodd" font-size="12" overflow="visible" stroke-linecap="square" stroke-miterlimit="3"><style>.st3{fill:none;stroke:none;stroke-width:1}.st6{fill:#feffff;stroke:#7a96ae;stroke-linecap:butt;stroke-width:1.25}.st7{fill:#5e7487;font-family:微软雅黑;font-size:.666664em}.st8{fill:#94b6d2;stroke:#7a96ae;stroke-linecap:butt;stroke-width:1.25}.st9{fill:#feffff;font-family:微软雅黑;font-size:.666664em}</style><defs id="Markers"><path d="M2 1L0 0l2-1v2" id="lend4"/><marker id="mrkr4-6" refX="-5.36" orient="auto" markerUnits="strokeWidth" overflow="visible" fill="#819fb8" fill-opacity="1" stroke="#819fb8" stroke-opacity="1" stroke-width=".373"><use xlink:href="#lend4" transform="scale(-2.68)"/></marker></defs><path d="M0 92.25h489.21" marker-end="url(#mrkr4-6)" stroke="#819fb8" stroke-linecap="round" stroke-linejoin="round" stroke-width="1.5" transform="translate(26.989 -55)" id="shape1-1"/><g id="shape17-7" transform="translate(75.239 -20)"><path class="st3" d="M0 64.91h384.746v36.34H0z"/><switch><svg viewBox="0 0 1599.4 151.2" clip="rect(0 0 0 0)" height="36.34" overflow="hidden" preserveAspectRatio="none" width="384.746" y="64.91"><g stroke="#000" stroke-miterlimit="10" font-weight="400"><g font-family="'Cambria Math',roman,serif" font-size="46"><clipPath id="mfid184"><path d="M0 0h1603v151H0z"/></clipPath><g clip-path="url(#mfid184)"><text stroke="none" fill="#82a0b9" x="0,34" transform="translate(22 45)">−</text></g><clipPath id="mfid185"><path d="M0 0h1603v151H0z"/></clipPath><g clip-path="url(#mfid185)"><text stroke="none" fill="#82a0b9" x="0,102" transform="translate(57 42)">(</text></g><clipPath id="mfid186"><path d="M0 0h1603v151H0z"/></clipPath><g clip-path="url(#mfid186)"><text stroke="none" fill="#82a0b9" x="0,25" transform="translate(76 45)">2</text></g><clipPath id="mfid187"><path d="M0 0h1603v151H0z"/></clipPath><g clip-path="url(#mfid187)"><text stroke="none" fill="#82a0b9" x="0,34" transform="translate(111 45)">−</text></g><clipPath id="mfid188"><path d="M0 0h1603v151H0z"/></clipPath><g clip-path="url(#mfid188)"><text stroke="none" fill="#82a0b9" x="0,25" transform="translate(156 45)">2</text></g></g><g font-family="'Cambria Math',roman,serif" font-size="33"><clipPath id="mfid189"><path d="M0 0h1603v151H0z"/></clipPath><g clip-path="url(#mfid189)"><text stroke="none" fill="#82a0b9" x="0,25" transform="translate(181 28)">−</text></g><clipPath id="mfid190"><path d="M0 0h1603v151H0z"/></clipPath><g clip-path="url(#mfid190)"><text stroke="none" fill="#82a0b9" x="0,18,36" transform="translate(205 28)">23</text></g></g><g font-family="'Cambria Math',roman,serif" font-size="46"><clipPath id="mfid191"><path d="M0 0h1603v151H0z"/></clipPath><g clip-path="url(#mfid191)"><text stroke="none" fill="#82a0b9" x="0,81" transform="translate(246 42)">)</text></g><clipPath id="mfid192"><path d="M0 0h1603v151H0z"/></clipPath><g clip-path="url(#mfid192)"><text stroke="none" fill="#82a0b9" x="0,33" transform="translate(275 45)">×</text></g><clipPath id="mfid193"><path d="M0 0h1603v151H0z"/></clipPath><g clip-path="url(#mfid193)"><text stroke="none" fill="#82a0b9" x="0,25" transform="translate(318 45)">2</text></g></g><g font-family="'Cambria Math',roman,serif" font-size="33"><clipPath id="mfid194"><path d="M0 0h1603v151H0z"/></clipPath><g clip-path="url(#mfid194)"><text stroke="none" fill="#82a0b9" x="0,18,36,54" transform="translate(342 28)">128</text></g></g><g font-family="'Cambria Math',roman,serif" font-size="46"><clipPath id="mfid195"><path d="M0 0h1603v151H0z"/></clipPath><clipPath id="mfid196"><path d="M0 0h1603v151H0z"/></clipPath><clipPath id="mfid197"><path d="M0 0h1603v151H0z"/></clipPath><clipPath id="mfid198"><path d="M0 0h1603v151H0z"/></clipPath><clipPath id="mfid199"><path d="M0 0h1603v151H0z"/></clipPath><clipPath id="mfid200"><path d="M0 0h1603v151H0z"/></clipPath><clipPath id="mfid201"><path d="M0 0h1603v151H0z"/></clipPath><clipPath id="mfid202"><path d="M0 0h1603v151H0z"/></clipPath><clipPath id="mfid203"><path d="M0 0h1603v151H0z"/></clipPath><clipPath id="mfid204"><path d="M0 0h1603v151H0z"/></clipPath><clipPath id="mfid205"><path d="M0 0h1603v151H0z"/></clipPath><clipPath id="mfid206"><path d="M0 0h1603v151H0z"/></clipPath><clipPath id="mfid207"><path d="M0 0h1603v151H0z"/></clipPath><clipPath id="mfid208"><path d="M0 0h1603v151H0z"/></clipPath><clipPath id="mfid209"><path d="M0 0h1603v151H0z"/></clipPath><clipPath id="mfid210"><path d="M0 0h1603v151H0z"/></clipPath><clipPath id="mfid211"><path d="M0 0h1603v151H0z"/></clipPath><clipPath id="mfid212"><path d="M0 0h1603v151H0z"/></clipPath><clipPath id="mfid213"><path d="M0 0h1603v151H0z"/></clipPath><clipPath id="mfid214"><path d="M0 0h1603v151H0z"/></clipPath><clipPath id="mfid215"><path d="M0 0h1603v151H0z"/></clipPath><g clip-path="url(#mfid215)"><text stroke="none" fill="#82a0b9" x="0,34" transform="translate(604 45)">−</text></g><clipPath id="mfid216"><path d="M0 0h1603v151H0z"/></clipPath><g clip-path="url(#mfid216)"><text stroke="none" fill="#82a0b9" x="0,25" transform="translate(638 45)">2</text></g></g><g font-family="'Cambria Math',roman,serif" font-size="33"><clipPath id="mfid217"><path d="M0 0h1603v151H0z"/></clipPath><g clip-path="url(#mfid217)"><text stroke="none" fill="#82a0b9" x="0,25" transform="translate(663 28)">−</text></g><clipPath id="mfid218"><path d="M0 0h1603v151H0z"/></clipPath><g clip-path="url(#mfid218)"><text stroke="none" fill="#82a0b9" x="0,18,36,54" transform="translate(688 28)">127</text></g></g><g font-family="'Cambria Math',roman,serif" font-size="46"><clipPath id="mfid219"><path d="M0 0h1603v151H0z"/></clipPath><clipPath id="mfid220"><path d="M0 0h1603v151H0z"/></clipPath><clipPath id="mfid221"><path d="M0 0h1603v151H0z"/></clipPath><clipPath id="mfid222"><path d="M0 0h1603v151H0z"/></clipPath><clipPath id="mfid223"><path d="M0 0h1603v151H0z"/></clipPath><clipPath id="mfid224"><path d="M0 0h1603v151H0z"/></clipPath><clipPath id="mfid225"><path d="M0 0h1603v151H0z"/></clipPath><clipPath id="mfid226"><path d="M0 0h1603v151H0z"/></clipPath><clipPath id="mfid227"><path d="M0 0h1603v151H0z"/></clipPath><g clip-path="url(#mfid227)"><text stroke="none" fill="#82a0b9" x="0,25" transform="translate(828 45)">0</text></g><clipPath id="mfid228"><path d="M0 0h1603v151H0z"/></clipPath><clipPath id="mfid229"><path d="M0 0h1603v151H0z"/></clipPath><clipPath id="mfid230"><path d="M0 0h1603v151H0z"/></clipPath><clipPath id="mfid231"><path d="M0 0h1603v151H0z"/></clipPath><clipPath id="mfid232"><path d="M0 0h1603v151H0z"/></clipPath><clipPath id="mfid233"><path d="M0 0h1603v151H0z"/></clipPath><clipPath id="mfid234"><path d="M0 0h1603v151H0z"/></clipPath><clipPath id="mfid235"><path d="M0 0h1603v151H0z"/></clipPath><clipPath id="mfid236"><path d="M0 0h1603v151H0z"/></clipPath><g clip-path="url(#mfid236)"><text stroke="none" fill="#82a0b9" x="0,25" transform="translate(934 45)">2</text></g></g><g font-family="'Cambria Math',roman,serif" font-size="33"><clipPath id="mfid237"><path d="M0 0h1603v151H0z"/></clipPath><g clip-path="url(#mfid237)"><text stroke="none" fill="#82a0b9" x="0,25" transform="translate(960 28)">−</text></g><clipPath id="mfid238"><path d="M0 0h1603v151H0z"/></clipPath><g clip-path="url(#mfid238)"><text stroke="none" fill="#82a0b9" x="0,18,36,54" transform="translate(984 28)">127</text></g></g><g font-family="'Cambria Math',roman,serif" font-size="46"><clipPath id="mfid239"><path d="M0 0h1603v151H0z"/></clipPath><clipPath id="mfid240"><path d="M0 0h1603v151H0z"/></clipPath><clipPath id="mfid241"><path d="M0 0h1603v151H0z"/></clipPath><clipPath id="mfid242"><path d="M0 0h1603v151H0z"/></clipPath><clipPath id="mfid243"><path d="M0 0h1603v151H0z"/></clipPath><clipPath id="mfid244"><path d="M0 0h1603v151H0z"/></clipPath><clipPath id="mfid245"><path d="M0 0h1603v151H0z"/></clipPath><clipPath id="mfid246"><path d="M0 0h1603v151H0z"/></clipPath><clipPath id="mfid247"><path d="M0 0h1603v151H0z"/></clipPath><clipPath id="mfid248"><path d="M0 0h1603v151H0z"/></clipPath><clipPath id="mfid249"><path d="M0 0h1603v151H0z"/></clipPath><clipPath id="mfid250"><path d="M0 0h1603v151H0z"/></clipPath><clipPath id="mfid251"><path d="M0 0h1603v151H0z"/></clipPath><clipPath id="mfid252"><path d="M0 0h1603v151H0z"/></clipPath><clipPath id="mfid253"><path d="M0 0h1603v151H0z"/></clipPath><clipPath id="mfid254"><path d="M0 0h1603v151H0z"/></clipPath><clipPath id="mfid255"><path d="M0 0h1603v151H0z"/></clipPath><clipPath id="mfid256"><path d="M0 0h1603v151H0z"/></clipPath><clipPath id="mfid257"><path d="M0 0h1603v151H0z"/></clipPath><clipPath id="mfid258"><path d="M0 0h1603v151H0z"/></clipPath><g clip-path="url(#mfid258)"><text stroke="none" fill="#82a0b9" x="0,19" transform="translate(1235 45)">(</text></g><clipPath id="mfid259"><path d="M0 0h1603v151H0z"/></clipPath><g clip-path="url(#mfid259)"><text stroke="none" fill="#82a0b9" x="0,25" transform="translate(1254 45)">2</text></g><clipPath id="mfid260"><path d="M0 0h1603v151H0z"/></clipPath><g clip-path="url(#mfid260)"><text stroke="none" fill="#82a0b9" x="0,34" transform="translate(1290 45)">−</text></g><clipPath id="mfid261"><path d="M0 0h1603v151H0z"/></clipPath><g clip-path="url(#mfid261)"><text stroke="none" fill="#82a0b9" x="0,25" transform="translate(1334 45)">2</text></g></g><g font-family="'Cambria Math',roman,serif" font-size="33"><clipPath id="mfid262"><path d="M0 0h1603v151H0z"/></clipPath><g clip-path="url(#mfid262)"><text stroke="none" fill="#82a0b9" x="0,25" transform="translate(1360 28)">−</text></g><clipPath id="mfid263"><path d="M0 0h1603v151H0z"/></clipPath><g clip-path="url(#mfid263)"><text stroke="none" fill="#82a0b9" x="0,18,36" transform="translate(1384 28)">23</text></g></g><g font-family="'Cambria Math',roman,serif" font-size="46"><clipPath id="mfid264"><path d="M0 0h1603v151H0z"/></clipPath><g clip-path="url(#mfid264)"><text stroke="none" fill="#82a0b9" x="0,19" transform="translate(1425 45)">)</text></g><clipPath id="mfid265"><path d="M0 0h1603v151H0z"/></clipPath><g clip-path="url(#mfid265)"><text stroke="none" fill="#82a0b9" x="0,33" transform="translate(1454 45)">×</text></g><clipPath id="mfid266"><path d="M0 0h1603v151H0z"/></clipPath><g clip-path="url(#mfid266)"><text stroke="none" fill="#82a0b9" x="0,25" transform="translate(1497 45)">2</text></g></g><g font-family="'Cambria Math',roman,serif" font-size="33"><clipPath id="mfid267"><path d="M0 0h1603v151H0z"/></clipPath><g clip-path="url(#mfid267)"><text stroke="none" fill="#82a0b9" x="0,18,36,54" transform="translate(1521 28)">128</text></g></g><g font-family="'Calibri',swiss,sans-serif" font-size="46"><clipPath id="mfid268"><path d="M0 0h1603v151H0z"/></clipPath></g></g></svg></switch><path class="st3" d="M0 64.91h384.746v36.34H0z"/></g><g id="shape25-10"><path class="st3" d="M0 81.25h152v20H0z" transform="translate(204.739 -19)"/><text x="9.33" y="94.9" fill="#94b6d2" font-family="微软雅黑" font-size="1em" transform="translate(204.739 -19)">典型<tspan font-family="Microsoft Sans Serif">32</tspan>位格式可表示的数</text></g><g id="shape26-14"><path class="st6" d="M0 83.25h36v18H0z" transform="translate(276.739 -64)"/><text x="6" y="94.68" class="st7" transform="translate(276.739 -64)">正下溢</text></g><g id="shape27-17"><path class="st6" d="M0 83.25h36v18H0z" transform="translate(240.739 -64)"/><text x="6" y="94.68" class="st7" transform="translate(240.739 -64)">负下溢</text></g><g id="shape28-20"><path class="st8" d="M0 83.25h112.5v18H0z" transform="translate(128.239 -64)"/><text x="32.25" y="94.68" class="st9" transform="translate(128.239 -64)">可表示的负数</text></g><g id="shape30-23"><path class="st8" d="M0 83.25h112.5v18H0z" transform="translate(312.739 -64)"/><text x="32.25" y="94.68" class="st9" transform="translate(312.739 -64)">可表示的正数</text></g><g id="shape31-26"><path class="st6" d="M0 83.25h54v18H0z" transform="translate(425.239 -64)"/><text x="15" y="94.68" class="st7" transform="translate(425.239 -64)">正上溢</text></g><g id="shape32-29"><path class="st6" d="M0 83.25h54v18H0z" transform="translate(74.239 -64)"/><text x="15" y="94.68" class="st7" transform="translate(74.239 -64)">负上溢</text></g></svg>