<svg version="1.1" id="Layer_1" xmlns="http://www.w3.org/2000/svg" x="0" y="0" viewBox="0 0 155.5 177.9" xml:space="preserve"><style>.st0{fill:#5b9bd5;enable-background:new}.st1{font-family:&apos;DengXian&apos;}.st2{font-size:8px}.st3{fill:#5b9bd5}.st5{enable-background:new}</style><text transform="translate(34.5 156.06)" class="st0 st1 st2">无符号二进制整数乘法</text><text transform="translate(101 137.09)" class="st3 st1 st2">积 143</text><path d="M89.5 115.2c1.9-1.3 3.2-3.3 3.7-5.5V87.8h3.6-3.6V65.9c-.5-2.2-1.8-4.1-3.7-5.5" fill="none" stroke="#759fcc" stroke-width=".75" stroke-linecap="square" stroke-miterlimit="3"/><text transform="translate(100.669 90.24)" class="st0 st1 st2">部分积</text><text transform="translate(100 40.341)" class="st3 st1 st2">乘数 13</text><text transform="translate(100 26.841)" class="st3 st1 st2">被乘数 11</text><g class="st5"><path class="st3" d="M59.1 28h2v1h-5.6v-1h2.4v-7.4l-2.2 1.3-.5-.8 2.9-1.8h1V28zM68.8 20.4c.5.9.8 2.1.8 3.7s-.3 2.8-.8 3.7c-.5.9-1.3 1.3-2.3 1.3-1 0-1.8-.4-2.3-1.3-.5-.9-.8-2.1-.8-3.7s.3-2.8.8-3.7c.5-.9 1.3-1.3 2.3-1.3 1 0 1.8.4 2.3 1.3zm-4.3 3.7c0 1.1.1 1.9.3 2.5l2.9-5.9c-.3-.4-.7-.6-1.3-.6-1.2 0-1.9 1.3-1.9 4zm3.9 0c0-1.1-.1-1.9-.3-2.5l-2.9 6c.3.4.7.6 1.3.6 1.2-.1 1.9-1.4 1.9-4.1zM75.9 28h2v1h-5.6v-1h2.4v-7.4l-2.2 1.3-.5-.8 2.9-1.8h1V28zM84.3 28h2v1h-5.6v-1h2.4v-7.4l-2.2 1.3-.5-.8 2.9-1.8h1V28z"/></g><path class="st3" d="M47.6 42.9h-1.3L49 39l-2.4-3.5H48l1.7 2.7 1.7-2.7h1.4L50.3 39l2.7 3.9h-1.4l-2-3.2-2 3.2zM59.1 42h2v1h-5.6v-1h2.4v-7.4l-2.2 1.3-.5-.8 2.9-1.8h1V42zM67.5 42h2v1h-5.6v-1h2.4v-7.4l-2.2 1.3-.5-.8 2.9-1.8h1V42zM77.2 34.4c.5.9.8 2.1.8 3.7s-.3 2.8-.8 3.7c-.5.9-1.3 1.3-2.3 1.3-1 0-1.8-.4-2.3-1.3-.5-.9-.8-2.1-.8-3.7s.3-2.8.8-3.7c.5-.9 1.3-1.3 2.3-1.3 1 0 1.8.4 2.3 1.3zm-4.3 3.7c0 1.1.1 1.9.3 2.5l2.9-5.9c-.3-.4-.7-.6-1.3-.6-1.2 0-1.9 1.3-1.9 4zm3.9 0c0-1.1-.1-1.9-.3-2.5l-2.9 6c.3.4.7.6 1.3.6 1.2-.1 1.9-1.4 1.9-4.1zM84.3 42h2v1h-5.6v-1h2.4v-7.4l-2.2 1.3-.5-.8 2.9-1.8h1V42z"/><g class="st5"><path class="st3" d="M20.3 53v-1h8.4v1h-8.4z"/><path class="st3" d="M28.6 53v-1H37v1h-8.4zM37 53v-1h8.4v1H37zM45.4 53v-1h8.4v1h-8.4zM53.8 53v-1h8.4v1h-8.4zM62.2 53v-1h8.4v1h-8.4z"/><path class="st3" d="M70.6 53v-1H79v1h-8.4zM79 53v-1h8.4v1H79z"/></g><path class="st3" d="M59.1 70h2v1h-5.6v-1h2.4v-7.4l-2.2 1.3-.5-.8 2.9-1.8h1V70zM68.8 62.4c.5.9.8 2.1.8 3.7s-.3 2.8-.8 3.7c-.5.9-1.3 1.3-2.3 1.3-1 0-1.8-.4-2.3-1.3-.5-.9-.8-2.1-.8-3.7s.3-2.8.8-3.7c.5-.9 1.3-1.3 2.3-1.3 1 0 1.8.4 2.3 1.3zm-4.3 3.7c0 1.1.1 1.9.3 2.5l2.9-5.9c-.3-.4-.7-.6-1.3-.6-1.2 0-1.9 1.3-1.9 4zm3.9 0c0-1.1-.1-1.9-.3-2.5l-2.9 6c.3.4.7.6 1.3.6 1.2-.1 1.9-1.4 1.9-4.1zM75.9 70h2v1h-5.6v-1h2.4v-7.4l-2.2 1.3-.5-.8 2.9-1.8h1V70zM84.3 70h2v1h-5.6v-1h2.4v-7.4l-2.2 1.3-.5-.8 2.9-1.8h1V70z"/><g><path class="st3" d="M52 76.4c.5.9.8 2.1.8 3.7s-.3 2.8-.8 3.7c-.5.9-1.3 1.3-2.3 1.3-1 0-1.8-.4-2.3-1.3-.5-.9-.8-2.1-.8-3.7s.3-2.8.8-3.7c.5-.9 1.3-1.3 2.3-1.3 1 0 1.8.4 2.3 1.3zm-4.3 3.7c0 1.1.1 1.9.3 2.5l2.9-5.9c-.3-.4-.7-.6-1.3-.6-1.2 0-1.9 1.3-1.9 4zm3.9 0c0-1.1-.1-1.9-.3-2.5l-2.9 6c.3.4.7.6 1.3.6 1.2-.1 1.9-1.4 1.9-4.1zM60.4 76.4c.5.9.8 2.1.8 3.7s-.3 2.8-.8 3.7c-.5.9-1.3 1.3-2.3 1.3-1 0-1.8-.4-2.3-1.3-.5-.9-.8-2.1-.8-3.7s.3-2.8.8-3.7c.5-.9 1.3-1.3 2.3-1.3 1 0 1.8.4 2.3 1.3zm-4.3 3.7c0 1.1.1 1.9.3 2.5l2.9-5.9c-.3-.4-.7-.6-1.3-.6-1.2 0-1.9 1.3-1.9 4zm3.9 0c0-1.1-.1-1.9-.3-2.5l-2.9 6c.3.4.7.6 1.3.6 1.2-.1 1.9-1.4 1.9-4.1zM68.8 76.4c.5.9.8 2.1.8 3.7s-.3 2.8-.8 3.7c-.5.9-1.3 1.3-2.3 1.3-1 0-1.8-.4-2.3-1.3-.5-.9-.8-2.1-.8-3.7s.3-2.8.8-3.7c.5-.9 1.3-1.3 2.3-1.3 1 0 1.8.4 2.3 1.3zm-4.3 3.7c0 1.1.1 1.9.3 2.5l2.9-5.9c-.3-.4-.7-.6-1.3-.6-1.2 0-1.9 1.3-1.9 4zm3.9 0c0-1.1-.1-1.9-.3-2.5l-2.9 6c.3.4.7.6 1.3.6 1.2-.1 1.9-1.4 1.9-4.1zM77.2 76.4c.5.9.8 2.1.8 3.7s-.3 2.8-.8 3.7c-.5.9-1.3 1.3-2.3 1.3-1 0-1.8-.4-2.3-1.3-.5-.9-.8-2.1-.8-3.7s.3-2.8.8-3.7c.5-.9 1.3-1.3 2.3-1.3 1 0 1.8.4 2.3 1.3zm-4.3 3.7c0 1.1.1 1.9.3 2.5l2.9-5.9c-.3-.4-.7-.6-1.3-.6-1.2 0-1.9 1.3-1.9 4zm3.9 0c0-1.1-.1-1.9-.3-2.5l-2.9 6c.3.4.7.6 1.3.6 1.2-.1 1.9-1.4 1.9-4.1z"/></g><g><path class="st3" d="M42.3 98h2v1h-5.6v-1h2.4v-7.4l-2.2 1.3-.5-.8 2.9-1.8h1V98zM52 90.4c.5.9.8 2.1.8 3.7s-.3 2.8-.8 3.7c-.5.9-1.3 1.3-2.3 1.3-1 0-1.8-.4-2.3-1.3-.5-.9-.8-2.1-.8-3.7s.3-2.8.8-3.7c.5-.9 1.3-1.3 2.3-1.3 1 0 1.8.4 2.3 1.3zm-4.3 3.7c0 1.1.1 1.9.3 2.5l2.9-5.9c-.3-.4-.7-.6-1.3-.6-1.2 0-1.9 1.3-1.9 4zm3.9 0c0-1.1-.1-1.9-.3-2.5l-2.9 6c.3.4.7.6 1.3.6 1.2-.1 1.9-1.4 1.9-4.1zM59.1 98h2v1h-5.6v-1h2.4v-7.4l-2.2 1.3-.5-.8 2.9-1.8h1V98zM67.5 98h2v1h-5.6v-1h2.4v-7.4l-2.2 1.3-.5-.8 2.9-1.8h1V98z"/></g><g><path class="st3" d="M33.9 112h2v1h-5.6v-1h2.4v-7.4l-2.2 1.3-.5-.8 2.9-1.8h1v8.7zM43.6 104.4c.5.9.8 2.1.8 3.7s-.3 2.8-.8 3.7c-.5.9-1.3 1.3-2.3 1.3-1 0-1.8-.4-2.3-1.3-.5-.9-.8-2.1-.8-3.7s.3-2.8.8-3.7c.5-.9 1.3-1.3 2.3-1.3 1 0 1.8.4 2.3 1.3zm-4.3 3.7c0 1.1.1 1.9.3 2.5l2.9-5.9c-.3-.4-.7-.6-1.3-.6-1.2 0-1.9 1.3-1.9 4zm3.9 0c0-1.1-.1-1.9-.3-2.5l-2.9 6c.3.4.7.6 1.3.6 1.2-.1 1.9-1.4 1.9-4.1zM50.7 112h2v1h-5.6v-1h2.4v-7.4l-2.2 1.3-.5-.8 2.9-1.8h1v8.7zM59.1 112h2v1h-5.6v-1h2.4v-7.4l-2.2 1.3-.5-.8 2.9-1.8h1v8.7z"/></g><g class="st5"><path class="st3" d="M20.3 123v-1h8.4v1h-8.4z"/><path class="st3" d="M28.6 123v-1H37v1h-8.4zM37 123v-1h8.4v1H37zM45.4 123v-1h8.4v1h-8.4zM53.8 123v-1h8.4v1h-8.4zM62.2 123v-1h8.4v1h-8.4z"/><path class="st3" d="M70.6 123v-1H79v1h-8.4zM79 123v-1h8.4v1H79z"/></g><g class="st5"><path class="st3" d="M25.5 140h2v1h-5.6v-1h2.4v-7.4l-2.2 1.3-.5-.8 2.9-1.8h1v8.7zM35.2 132.4c.5.9.8 2.1.8 3.7s-.3 2.8-.8 3.7c-.5.9-1.3 1.3-2.3 1.3-1 0-1.8-.4-2.3-1.3-.5-.9-.8-2.1-.8-3.7s.3-2.8.8-3.7c.5-.9 1.3-1.3 2.3-1.3 1 0 1.8.4 2.3 1.3zm-4.3 3.7c0 1.1.1 1.9.3 2.5l2.9-5.9c-.3-.4-.7-.6-1.3-.6-1.2 0-1.9 1.3-1.9 4zm3.9 0c0-1.1-.1-1.9-.3-2.5l-2.9 6c.3.4.7.6 1.3.6 1.2-.1 1.9-1.4 1.9-4.1zM43.6 132.4c.5.9.8 2.1.8 3.7s-.3 2.8-.8 3.7c-.5.9-1.3 1.3-2.3 1.3-1 0-1.8-.4-2.3-1.3-.5-.9-.8-2.1-.8-3.7s.3-2.8.8-3.7c.5-.9 1.3-1.3 2.3-1.3 1 0 1.8.4 2.3 1.3zm-4.3 3.7c0 1.1.1 1.9.3 2.5l2.9-5.9c-.3-.4-.7-.6-1.3-.6-1.2 0-1.9 1.3-1.9 4zm3.9 0c0-1.1-.1-1.9-.3-2.5l-2.9 6c.3.4.7.6 1.3.6 1.2-.1 1.9-1.4 1.9-4.1zM52 132.4c.5.9.8 2.1.8 3.7s-.3 2.8-.8 3.7c-.5.9-1.3 1.3-2.3 1.3-1 0-1.8-.4-2.3-1.3-.5-.9-.8-2.1-.8-3.7s.3-2.8.8-3.7c.5-.9 1.3-1.3 2.3-1.3 1 0 1.8.4 2.3 1.3zm-4.3 3.7c0 1.1.1 1.9.3 2.5l2.9-5.9c-.3-.4-.7-.6-1.3-.6-1.2 0-1.9 1.3-1.9 4zm3.9 0c0-1.1-.1-1.9-.3-2.5l-2.9 6c.3.4.7.6 1.3.6 1.2-.1 1.9-1.4 1.9-4.1zM59.1 140h2v1h-5.6v-1h2.4v-7.4l-2.2 1.3-.5-.8 2.9-1.8h1v8.7zM67.5 140h2v1h-5.6v-1h2.4v-7.4l-2.2 1.3-.5-.8 2.9-1.8h1v8.7zM75.9 140h2v1h-5.6v-1h2.4v-7.4l-2.2 1.3-.5-.8 2.9-1.8h1v8.7zM84.3 140h2v1h-5.6v-1h2.4v-7.4l-2.2 1.3-.5-.8 2.9-1.8h1v8.7z"/></g></svg>