<svg xmlns="http://www.w3.org/2000/svg" xmlns:xlink="http://www.w3.org/1999/xlink" width="474.008" height="513.337" viewBox="0 0 355.506 385.003" color-interpolation-filters="sRGB" fill="none" fill-rule="evenodd" font-size="12" overflow="visible" stroke-linecap="square" stroke-miterlimit="3"><style>.st1{visibility:visible}.st2,.st3{fill:#5b9bd5}.st2{fill-opacity:.22;filter:url(#filter_2);stroke-opacity:.22;stroke:#5b9bd5}.st3{stroke:#c8c8c8;stroke-width:.25}.st4{fill:#feffff;font-family:Microsoft Sans Serif;font-size:1.33333em}.st5{font-family:等线;font-size:1em}.st6{marker-end:url(#mrkr4-13);stroke:#5b9bd5;stroke-linecap:round;stroke-linejoin:round;stroke-width:1}.st8{fill:#feffff;font-family:等线;font-size:1.33333em}</style><defs id="Markers"><path d="M2 1L0 0l2-1v2" id="lend4"/><marker id="mrkr4-13" refX="-7.04" orient="auto" markerUnits="strokeWidth" overflow="visible" fill="#5b9bd5" fill-opacity="1" stroke="#5b9bd5" stroke-opacity="1" stroke-width=".284"><use xlink:href="#lend4" transform="scale(-3.52)"/></marker></defs><defs id="Filters"><filter id="filter_2"><feGaussianBlur stdDeviation="2"/></filter></defs><g id="shape2-1" transform="translate(42.753 -304)"><g id="shadow2-2" class="st1"><path class="st2" d="M0 346.753h117v38.25H0z" transform="translate(.346 1.973)"/></g><path class="st3" d="M0 346.753h117v38.25H0z"/><text x="29.16" y="370.74" class="st4">B<tspan class="st5">寄存器</tspan></text></g><g id="shape4-8" transform="translate(92.253 -304)"><path d="M9 385v28.96" class="st6"/></g><g id="shape3-14" transform="translate(42.753 -229.75)"><g id="shadow3-15" class="st1"><path class="st2" d="M0 346.753h117v38.25H0z" transform="translate(.346 1.973)"/></g><path class="st3" d="M0 346.753h117v38.25H0z"/><text x="34.5" y="370.74" class="st8">求补器</text></g><g id="shape5-20" transform="translate(195.753 -304)"><g id="shadow5-21" class="st1"><path class="st2" d="M0 346.753h117v38.25H0z" transform="translate(.346 1.973)"/></g><path class="st3" d="M0 346.753h117v38.25H0z"/><text x="29.16" y="370.74" class="st4">A<tspan class="st5">寄存器</tspan></text></g><g id="shape7-27" transform="translate(92.253 -229.75)"><path d="M9 385v28.96" class="st6"/></g><g id="shape6-32" transform="translate(42.753 -155.5)"><g id="shadow6-33" class="st1"><path class="st2" d="M0 346.753h117v38.25H0z" transform="translate(.346 1.973)"/></g><path class="st3" d="M0 346.753h117v38.25H0z"/><text x="27.49" y="361.01" class="st4">SW <tspan class="st5">开关</tspan><tspan x="2.5" dy="1.216em" class="st5">（</tspan><tspan class="st5">加法或减法</tspan><tspan class="st5">）</tspan></text></g><g id="shape8-42" transform="translate(33.753 -323.125)"><path d="M9 385H-9v148.5H1.96" class="st6"/></g><g id="shape10-47" transform="translate(159.753 -174.625)"><path d="M0 385h94.5v48.09" class="st6"/></g><g id="shape9-52" transform="translate(195.753 -81.25)"><g id="shadow9-53" class="st1"><path class="st2" d="M0 346.753h117v38.25H0z" transform="translate(.346 1.973)"/></g><path class="st3" d="M0 346.753h117v38.25H0z"/><text x="34.5" y="370.74" class="st8">加法器</text></g><g id="shape12-58" transform="translate(195.753 -91.375)"><path d="M0 376h-28.96" class="st6"/></g><g id="shape11-63" transform="translate(42.753 -81.25)"><g id="shadow11-64" class="st1"><path class="st2" d="M0 346.753h117v38.25H0z" transform="translate(.346 1.973)"/></g><path class="st3" d="M0 346.753h117v38.25H0z"/><text x="21.27" y="370.74" class="st4">OF <tspan class="st5">溢出位</tspan></text></g><g id="shape13-70" transform="translate(263.253 -304)"><path d="M-9 385v177.46" class="st6"/></g><g id="shape14-75" transform="translate(312.753 -100.375)"><path d="M0 385h18V125.13h-76.5v10.96" class="st6"/></g><g id="shape15-80" transform="translate(105.753 -18.25)"><g id="shadow15-81" class="st1"><path class="st2" d="M0 346.753h162v38.25H0z" transform="translate(.346 1.973)"/></g><path class="st3" d="M0 346.753h162v38.25H0z"/><text x="25" y="370.74" class="st8">加法硬件框架图</text></g></svg>