<svg xmlns="http://www.w3.org/2000/svg" width="600.333" height="183" viewBox="0 0 450.25 137.25" color-interpolation-filters="sRGB" fill="none" fill-rule="evenodd" font-size="12" overflow="visible" stroke-linecap="square" stroke-miterlimit="3"><style>.st1{fill:#94b6d2;stroke:#7a96ae;stroke-linecap:butt;stroke-width:1.25}.st2{fill:#feffff;font-family:微软雅黑;font-size:.666664em}.st3{font-family:Microsoft Sans Serif;font-size:1em}.st4{fill:none;stroke:none;stroke-width:1}.st5{fill:#94b6d2;font-family:Microsoft Sans Serif;font-size:1.00001em}.st6{font-family:微软雅黑;font-size:1em}</style><g id="shape1-1" transform="translate(19.25 -51.9)"><path class="st1" d="M0 119.25h36v18H0z"/><text x="6" y="130.68" class="st2">符号位</text></g><g id="shape2-4" transform="translate(54.625 -51.9)"><path class="st1" d="M0 119.25h144v18H0z"/><text x="46.49" y="130.68" class="st2">移码阶位<tspan class="st3"> </tspan><tspan class="st3">11</tspan>位</text></g><g id="shape3-9" transform="translate(198.25 -51.9)"><path class="st1" d="M0 119.25h234v18H0z"/><text x="95.49" y="130.68" class="st2">有效值<tspan class="st3"> </tspan><tspan class="st3">52</tspan>位</text></g><g id="shape7-14" transform="translate(144 -31.5)"><path class="st4" d="M0 117.25h152v20H0z"/><text x="19.13" y="130.9" class="st5">IEEE 754 <tspan class="st6">双精度格式</tspan></text></g><g id="shape8-18" transform="translate(19.25 -100)"><path class="st1" d="M0 119.25h36v18H0z"/><text x="6" y="130.68" class="st2">符号位</text></g><g id="shape9-21" transform="translate(54 -100)"><path class="st1" d="M0 119.25h144v18H0z"/><text x="48.71" y="130.68" class="st2">移码阶位<tspan class="st3"> </tspan><tspan class="st3">8</tspan>位</text></g><g id="shape10-26" transform="translate(198.25 -100)"><path class="st1" d="M0 119.25h234v18H0z"/><text x="95.49" y="130.68" class="st2">有效值<tspan class="st3"> </tspan><tspan class="st3">23</tspan>位</text></g><g id="shape11-31" transform="translate(144 -80)"><path class="st4" d="M0 117.25h152v20H0z"/><text x="19.13" y="130.9" class="st5">IEEE 754 <tspan class="st6">单精度格式</tspan></text></g></svg>